<?xml version="1.0" encoding="utf-8"?>
<!-- Generator: Adobe Illustrator 27.1.1, SVG Export Plug-In . SVG Version: 6.00 Build 0)  -->
<svg version="1.1" id="Layer_1" xmlns="http://www.w3.org/2000/svg" xmlns:xlink="http://www.w3.org/1999/xlink" x="0px" y="0px"
	 width="32px" height="1694px" viewBox="0 0 32 1694" style="enable-background:new 0 0 32 1694;" xml:space="preserve">
<style type="text/css">
	.st0{fill:#398DFF;}
	.st1{clip-path:url(#SVGID_00000003802249686685890900000005262346495312598920_);fill:#398DFF;}
	.st2{clip-path:url(#SVGID_00000095321643019505414630000017727269670458975375_);fill:#398DFF;}
</style>
<g id="stx-sprite-drawing-tools-blue">
	<g id="Text_Annotation" transform="translate(3.000000, 0.000000)">
		<path id="Combined-Shape" class="st0" d="M17.3,9.6H14V19h-2.2V9.6H8.4V7.9h8.9V9.6z M0,26.2v-26h26v26H0z M2.6,23.6h20.8V2.8H2.6
			V23.6z"/>
	</g>
	<g id="Average_Line" transform="translate(3.000000, 35.000000)">
		<polygon id="Combined-Shape_1_" class="st0" points="1.3,8.6 22.4,8.6 24.7,8.6 24.7,0.7 26,0.7 26,8.6 26,11.6 26,19.7 
			24.7,19.7 24.7,11.6 1.3,11.6 1.3,19.7 0,19.7 0,11.6 0,8.6 0,0.7 1.3,0.7 		"/>
	</g>
	<g id="Callout" transform="translate(3.000000, 63.000000)">
		<path id="Fill-1" class="st0" d="M20.8,1.1H5.2C2.3,1.1,0,3.4,0,6.3v8.5C0,17.7,2.3,20,5.2,20v7.1L13,20h7.8
			c2.9,0,5.2-2.3,5.2-5.2V6.3C26,3.4,23.7,1.1,20.8,1.1 M20.8,3.7c1.5,0,2.6,1.1,2.6,2.6v8.5c0,1.5-1.1,2.6-2.6,2.6H13h-1l-0.8,0.7
			l-3.5,3.1V20v-2.6H5.1c-1.5,0-2.6-1.1-2.6-2.6V6.3c0-1.5,1.1-2.6,2.6-2.6L20.8,3.7"/>
	</g>
	<g id="Channel" transform="translate(3.000000, 96.000000)">
		<path id="Combined-Shape_2_" class="st0" d="M24.9,0.2L26,2.5L1.1,15L0,12.7L24.9,0.2z M0,23.9l24.9-12.4l1.1,2.3L1.1,26.3L0,23.9
			z"/>
	</g>
	<g id="LineSans_Doodle" transform="translate(3.000000, 165.000000)">
		<path id="Fill-1_2_" class="st0" d="M8.4,6.8L8.4,6.8c-0.7,1.5-1,3.2-0.9,4.8c0.2,1.2,0.7,2,1,2.2c0.3-0.3,0.9-1.3,0.9-2.8
			C9.5,9.5,9,8.1,8.4,6.8 M8.5,16.2c-0.5,0-1-0.2-1.5-0.4c-1-0.7-1.8-2.2-2-3.9c-0.3-2,0.1-4.2,1-6.1c0.2-0.3,0.3-0.7,0.6-1
			c-0.5-0.3-1-0.4-1.5-0.3c-1,0.3-2.3,2.1-2.6,4.6L0,8.8c0.4-3.3,2.2-6,4.3-6.7C5.6,1.7,7,1.9,8.2,2.8C8.5,2.5,8.7,2.3,9,2.1
			c1-0.9,2.3-1.7,3.7-1.7c1.7,0,3.2,1.2,3.8,3.1c0.4,1.5,0.4,1.9,0.3,2.9c0,0.3-0.1,0.7-0.1,1.2c-0.1,1,0.1,1.2,0.1,1.3
			c0.1,0.1,0.3,0.2,0.4,0.3c0.2-0.1,0.3-0.3,0.6-0.8c0.3-0.4,0.4-0.8,0.6-1C18.7,7,18.8,6.7,19,6.1c0.7-2.2,1.6-3.4,2.9-3.9
			c1.5-0.7,2.9-0.3,4,0.1L25,4.6c-1-0.3-1.6-0.3-2.1-0.2c-0.5,0.3-1,1.1-1.6,2.5c-0.3,0.9-0.6,1.4-0.9,1.8C20.2,9,20.1,9.2,20,9.6
			c-0.3,0.6-1,1.7-2.2,2.2c-0.6,0.2-1.2,0.1-1.7-0.2c-1.6-0.9-2.1-1.6-2-3.9c0-0.6,0.1-1,0.1-1.4c0.1-0.7,0.1-0.9-0.3-1.8
			c-0.4-0.9-0.9-1.4-1.3-1.4l0,0c-0.6,0-1.5,0.6-2.1,1.1C10.2,4.4,10,4.6,9.7,4.9c0.2,0.3,0.3,0.4,0.4,0.7c1,1.6,1.5,3.7,1.5,5.6
			c-0.1,2.2-1,4.8-2.9,5.2C8.9,16.1,8.7,16.2,8.5,16.2"/>
	</g>
	<g id="LineSans_Horizontal" transform="translate(3.000000, 203.000000)">
		<polygon id="Path" class="st0" points="0,3.5 26,3.5 26,0.9 0,0.9 		"/>
	</g>
	<g id="LineSans" transform="translate(3.000000, 228.000000)">
		<polygon id="Path_1_" class="st0" points="24.7,0.5 0,15.7 1.3,17.9 26,2.7 		"/>
	</g>
	<g id="LineSans_Continuouos" transform="translate(3.000000, 294.000000)">
		<polygon id="Path_2_" class="st0" points="24.2,1.1 18.6,7.3 12.9,4.6 6.6,9.7 2.1,2.8 0,4 6.1,13.3 13.3,7.4 19.2,10.2 26,2.7 		
			"/>
	</g>
	<g id="LineSans_Vertical" transform="translate(14.000000, 319.000000)">
		<polygon id="Path_3_" class="st0" points="0.3,27.1 3.7,27.1 3.7,1.1 0.3,1.1 		"/>
	</g>
	<g id="Shape_Elipse" transform="translate(3.000000, 355.000000)">
		<path id="Fill-1_4_" class="st0" d="M13,0.6c-7.2,0-13,4.2-13,9.5s5.8,9.5,13,9.5s13-4.2,13-9.5S20.2,0.6,13,0.6 M13,3.1
			c5.6,0,10.4,3.2,10.4,7s-4.8,7-10.4,7s-10.4-3.2-10.4-7S7.4,3.1,13,3.1"/>
	</g>
	<g id="Fib_Retracement" transform="translate(3.000000, 384.000000)">
		<path id="Combined-Shape_10_" class="st0" d="M23.4,2.2V0.5h2.4v1.7H23.4z M18.5,2.2V0.5h2.4v1.7H18.5z M10.5,13.4v-1.2h14.9v1.2
			H10.5z M24.2,25.8v-1.7H26v1.7H24.2z M19.3,25.8v-1.7h2.4v1.7H19.3z M14.5,25.8v-1.7h2.4v1.7H14.5z M9.7,25.8v-1.7h2.4v1.7H9.7z
			 M4.9,25.8v-1.7h2.4v1.7H4.9z M0,25.8v-1.7h2.4v1.7H0z M5.5,19.9v-2.5h19.8v2.5H5.5z M15.4,8.7V6.2h10v2.5H15.4z"/>
	</g>
	<g id="Fib_Projection" transform="translate(3.000000, 416.000000)">
		<path id="Combined-Shape_11_" class="st0" d="M0.6,25.1v-1.2h1.8v1.2H0.6z M19.1,25.6v-1.8h2.4v1.8H19.1z M14.3,25.6v-1.8h2.4v1.8
			H14.3z M9.5,25.6v-1.8h2.4v1.8H9.5z M4.8,25.6v-1.8h2.4v1.8H4.8z M23.8,25.1v-1.2h1.8v1.2H23.8z M10.9,13.6v-1.8h2.4v1.8H10.9z
			 M6,13.6v-1.8h2.4v1.8H6z M14.6,19v-1.2h1.8V19H14.6z M18.7,19v-1.2h2.4V19H18.7z M23.5,19v-1.2h1.8V19H23.5z M1,19v-1.2h2.4V19H1
			z M1.1,3.1V0.7h24.5v2.4C25.6,3.1,1.1,3.1,1.1,3.1z M1.1,7.5V6.3h19v1.2H1.1z M9.2,17.7L24.5,5.6l1.6,1.8L9.2,20.8l-9.1-8.3
			l1.6-1.7L9.2,17.7z"/>
	</g>
	<g id="Fib_Arc" transform="translate(3.000000, 450.000000)">
		<path id="Combined-Shape_12_" class="st0" d="M17.9,21.5h-1.1v-0.6c0-2-1.6-3.7-3.7-3.7s-3.7,1.6-3.7,3.7v0.6H8.3v-0.6
			c0-2.7,2.2-4.9,4.9-4.9s4.9,2.2,4.9,4.9v0.6H17.9z M11.9,13l-0.1-1.1h0.6c0.2,0,0.4,0,0.6,0s0.3,0,0.6,0h0.6L14.1,13h-0.6
			c-0.2,0-0.3,0-0.5,0s-0.3,0-0.5,0H11.9z M17,14l-0.5-0.2c-0.3-0.2-0.6-0.3-1-0.4L15,13.2l0.3-1l0.5,0.2c0.3,0.1,0.8,0.3,1.1,0.4
			l0.5,0.3L17,14z M8.9,14.1l-0.5-1l0.5-0.3c0.3-0.2,0.7-0.3,1.1-0.4l0.5-0.2l0.3,1l-0.5,0.2c-0.3,0.1-0.6,0.3-1,0.4L8.9,14.1z
			 M19.3,16.1L19,15.7c-0.3-0.3-0.4-0.5-0.8-0.7l-0.4-0.3l0.8-0.9l0.4,0.3c0.3,0.3,0.6,0.5,0.9,0.9l0.3,0.4L19.3,16.1z M6.7,16.1
			l-0.9-0.8l0.3-0.4C6.4,14.6,6.6,14.3,7,14l0.4-0.3l0.8,0.9l-0.4,0.3c-0.3,0.3-0.5,0.4-0.7,0.7L6.7,16.1z M20.7,18.8l-0.2-0.5
			c-0.1-0.3-0.3-0.6-0.4-1l-0.3-0.5l1-0.5l0.3,0.5c0.2,0.3,0.3,0.7,0.4,1.1l0.2,0.5L20.7,18.8z M5.3,18.9l-1-0.3l0.2-0.5
			c0.1-0.3,0.3-0.8,0.4-1.1l0.3-0.5l1,0.5l-0.3,0.5c-0.2,0.3-0.3,0.6-0.4,1L5.3,18.9z M22.1,21.5H21v-0.6c0-0.2,0-0.3,0-0.5v-0.6
			l1.1-0.1v0.6c0,0.2,0,0.4,0,0.6V21.5z M14.7,8.8l-0.6-0.1c-0.3,0-0.7-0.1-1.1-0.1h-0.6V7.5H13c0.4,0,0.8,0,1.2,0.1l0.6,0.1
			L14.7,8.8z M9.3,9.3L9,8.2L9.5,8c0.3-0.1,0.8-0.2,1.1-0.3l0.5-0.1l0.2,1.1l-0.5,0.1c-0.3,0.1-0.7,0.2-1,0.3L9.3,9.3z M17.9,9.7
			l-0.5-0.3c-0.3-0.1-0.7-0.3-1-0.3l-0.5-0.2l0.3-1.1L16.7,8c0.3,0.1,0.8,0.3,1.1,0.3l0.5,0.2L17.9,9.7z M6.3,10.6l-0.6-1l0.5-0.3
			c0.3-0.2,0.7-0.3,1-0.5l0.5-0.3l0.5,1L7.7,9.8c-0.3,0.2-0.6,0.3-1,0.5L6.3,10.6z M20.6,11.4l-0.4-0.3c-0.3-0.2-0.6-0.4-0.9-0.6
			l-0.5-0.3l0.6-1l0.5,0.3c0.3,0.2,0.7,0.4,1,0.7l0.4,0.3L20.6,11.4z M3.9,12.8L3.1,12l0.4-0.4c0.3-0.3,0.6-0.5,0.9-0.8l0.4-0.3
			l0.7,0.9l-0.4,0.3c-0.3,0.3-0.5,0.5-0.8,0.8L3.9,12.8z M22.9,13.7l-0.3-0.4c-0.3-0.3-0.4-0.5-0.7-0.8l-0.4-0.4l0.8-0.8l0.4,0.4
			c0.3,0.3,0.5,0.6,0.8,0.9l0.3,0.4L22.9,13.7z M2.1,15.4l-1-0.5l0.3-0.5c0.2-0.3,0.4-0.7,0.6-1L2.3,13l1,0.6L3,14
			c-0.2,0.3-0.4,0.6-0.6,1L2.1,15.4z M24.2,16l-0.3-0.5c-0.1-0.2-0.2-0.3-0.2-0.3l-0.3-0.5l1-0.5l0.3,0.5c0.1,0.2,0.2,0.3,0.3,0.4
			l0.3,0.5L24.2,16z M1.6,8.2L0,6.6l0.9-0.8C4.2,2.7,8.5,0.9,13,0.9s8.8,1.7,12.1,4.9L26,6.6l-1.6,1.6l-0.9-0.8
			c-2.9-2.7-6.7-4.2-10.6-4.2c-4,0-7.7,1.5-10.6,4.2L1.6,8.2z"/>
		<path id="Fill-3" class="st0" d="M5,21.5H3.9v-0.6c0-0.2,0-0.4,0-0.6v-0.6L5,19.8v0.6c0,0.2,0,0.3,0,0.5V21.5z"/>
	</g>
	<g id="Fib_Fan" transform="translate(2.000000, 480.000000)">
		<path id="Combined-Shape_13_" class="st0" d="M7.8,17.6L23.9,2.3l0.9,0.9L6.2,21L5,23.4h21.9v2.5h-26L13.6,0.6l2.3,1.1L7.8,17.6z
			 M7.5,22.6l-0.6-1l1.6-1l0.6,1L7.5,22.6z M20.5,15l-0.6-1l2.2-1.3l0.6,1L20.5,15z M15.9,17.7l-0.6-1l2.2-1.3l0.6,1L15.9,17.7z
			 M11.4,20.4l-0.6-1l2.2-1.3l0.6,1L11.4,20.4z M24.4,11.3l1.6-1l0.6,1l-1.6,1L24.4,11.3z M22,20.7l-0.3-1.2l2.4-0.6l0.3,1.2
			L22,20.7z M17.2,21.9l-0.3-1.2l2.4-0.6l0.3,1.2L17.2,21.9z M12.3,23L12,21.8l2.4-0.6l0.3,1.2L12.3,23z"/>
	</g>
	<g id="Fib_TimeZones" transform="translate(4.000000, 511.000000)">
		<path id="Combined-Shape_18_" class="st0" d="M11.7,9.6V7.7h1.2v1.9C12.9,9.6,11.7,9.6,11.7,9.6z M11.7,6.4V4.3h1.2v2.1H11.7z
			 M11.7,3V1.1h1.2V3H11.7z M11.7,27.1v-1.9h1.2v1.9H11.7z M11.7,23.1v-2.3h1.2v2.3H11.7z M11.7,18.7v-1.9h1.2v1.9H11.7z M17.2,6
			V4.1h1.2V6H17.2z M17.2,3V1.1h1.2V3H17.2z M17.2,27.1v-1.9h1.2v1.9H17.2z M17.2,22.8v-2.5h1.2v2.5H17.2z M17.2,17.8v-1.9h1.2v1.9
			H17.2z M22.7,26.8v-1.9h1.2v1.9H22.7z M22.7,7.9V5.4h1.2v2.5H22.7z M22.7,12.8v-2.4h1.2v2.4C23.9,12.8,22.7,12.8,22.7,12.8z
			 M22.7,17.7v-2.5h1.2v2.5H22.7z M22.7,22.6v-2.5h1.2v2.5H22.7z M22.7,3V1.1h1.2V3H22.7z M2.6,16.1l17.9-7.5l0.9,2.2L2.7,18.6v7.9
			H0.3v-25h2.4v14.6H2.6z M6.2,26.8v-7.9h1.2v7.9H6.2z M6.2,12.7V1.2h1.2v11.5H6.2z"/>
	</g>
	<g id="Gann_Fan" transform="translate(3.000000, 543.000000)">
		<path id="Combined-Shape_19_" class="st0" d="M8.6,4.3L8.3,5l-1-0.6l1-1.9L8,1.6l2.4-0.7l0.3,0.9l0.2-0.3l2,1.4l-0.7,1l-1-0.8
			l0.1,0.3L26,23.5l-1,0.7L12.3,6.8l5.6,19.5L15.5,27L9.6,6.9L6.7,26.4l-1.2-0.2L8.6,4.3z M14.1,5.5l0.7-1l2,1.4l-0.7,1L14.1,5.5z
			 M4.9,8.7L6,6.6l1,0.6L5.9,9.3L4.9,8.7z M18,8.3l0.7-1l2,1.4l-0.7,1L18,8.3z M21.9,11.2l0.7-1l2,1.4l-0.7,1L21.9,11.2z M2.5,12.9
			l1.1-2.1l1,0.6l-1.1,2.1L2.5,12.9z M0.2,17.2l1.1-2.1l1,0.6l-1.1,2.1L0.2,17.2z"/>
	</g>
	<g id="Gartley" transform="translate(3.000000, 575.000000)">
		<path id="Combined-Shape_20_" class="st0" d="M12.7,13.2L8.4,5.5l-5.9,6.9l-1.9-1.6l8.2-9.7l14,24.7l-2.2,1.3l-6.9-12.2h-1
			L12.7,13.2L12.7,13.2z M7.9,14.4v-1.3h1.9v1.3H7.9z M18.1,14.9v-1.7h2.6v1.6L18.1,14.9L18.1,14.9z M23.6,14.4v-1.3h1.9v1.3H23.6z"
			/>
	</g>
	<g id="Pitchfork" transform="translate(3.000000, 607.000000)">
		<polygon id="Combined-Shape_24_" class="st0" points="14.6,14.1 19.3,18.8 24.1,14 25.8,15.7 19.5,22.2 17.8,20.5 17.8,20.5 
			13.1,15.8 1.9,27 0.2,25.3 11.5,14 7.5,10 7.5,10 5.8,8.3 13.1,1 14.8,2.7 9.2,8.3 13.2,12.3 24.3,1.2 26,2.9 		"/>
	</g>
	<g id="Quadrant_Lines" transform="translate(3.000000, 640.000000)">
		<path id="Combined-Shape_26_" class="st0" d="M1,14.3v-2.6h24v2.6C25,14.3,1,14.3,1,14.3z M0,25.6v-1.3h2v1.3H0z M19.1,26v-1.7
			h2.5V26H19.1z M14.2,26v-1.7h2.5V26H14.2z M9.3,26v-1.7h2.5V26H9.3z M4.3,26v-1.7h2.5V26H4.3z M24,25.6v-1.3h2v1.3H24z M0,1.7V0.4
			h2v1.3C2,1.7,0,1.7,0,1.7z M19.1,2.1V0.4h2.5v1.7C21.6,2.1,19.1,2.1,19.1,2.1z M14.2,2.1V0.4h2.5v1.7C16.7,2.1,14.2,2.1,14.2,2.1z
			 M9.3,2.1V0.4h2.5v1.7C11.8,2.1,9.3,2.1,9.3,2.1z M4.3,2.1V0.4h2.5v1.7C6.8,2.1,4.3,2.1,4.3,2.1z M24,1.7V0.4h2v1.3
			C26,1.7,24,1.7,24,1.7z M1,6.4V5.1h24v1.3C25,6.4,1,6.4,1,6.4z M1.3,20.9v-1.3h23.5v1.3H1.3z"/>
	</g>
	<g id="Shape_Rectangle" transform="translate(3.000000, 707.000000)">
		<path id="Combined-Shape_28_" class="st0" d="M0,19.5V0.4h26v19.1H0z M2.6,17h20.8V3H2.6V17z"/>
	</g>
	<g id="Regression_Line" transform="translate(3.000000, 736.000000)">
		<path id="Combined-Shape_29_" class="st0" d="M24.7,11.1L1.3,18.4v-3l23.4-7.3V0.9H26v16.6h-1.3V11.1z M0,25.1V8.5h1.3v16.6H0z"/>
	</g>
	<g id="Shape_Check" transform="translate(3.000000, 771.000000)">
		<polygon id="Fill-1_6_" class="st0" points="22.9,0.5 9,13 3.2,7.5 0,11 8.9,19.5 26,4.1 		"/>
	</g>
	<g id="Shape_Cross" transform="translate(3.000000, 800.000000)">
		<polygon id="Combined-Shape_30_" class="st0" points="13,11 23.8,0.2 26,2.3 15.2,13.2 26,24 23.9,26.2 13,15.4 2.2,26.2 0,24.1 
			10.8,13.2 0,2.4 2.1,0.2 		"/>
	</g>
	<g id="Shape_Focus" transform="translate(3.000000, 833.000000)">
		<path id="Combined-Shape_31_" class="st0" d="M0,0.8L0,0.8l11,11.4L0,23.6V0.8z M2.6,7.3v9.9l4.7-4.9L2.6,7.3z M26,0.8L26,0.8v23
			L15,12.4L26,0.8z M18.7,12.2l4.7,4.9V7.2L18.7,12.2z"/>
	</g>
	<g id="Shape_Heart" transform="translate(2.000000, 864.000000)">
		<path id="Fill-1_7_" class="st0" d="M8.2,3.5c-0.8,0-1.6,0.2-2.3,0.6c-1.4,0.7-2.3,2.3-2.3,4v0.3c0,0.5,0.2,1.2,0.4,2
			c1.8,5,7.9,10.1,10.1,11.7c2.1-1.7,8.1-6.7,9.9-11.7c0.3-0.9,0.4-1.7,0.4-2.3V7.9c0-1.7-0.9-3.2-2.3-3.9c-1.5-0.8-3-0.8-4.3-0.2
			c-1.3,0.6-2.3,1.8-2.5,3.2c-0.2,0.6-0.6,1-1.3,1c-0.6,0-1.1-0.4-1.2-1c-0.3-1.4-1.3-2.6-2.5-3.2C9.5,3.7,8.9,3.5,8.2,3.5
			 M14.1,25.1c-0.3,0-0.5-0.1-0.8-0.3C13,24.5,4,18,1.6,11.3c0,0-0.1-0.1-0.1-0.2c-0.3-1-0.5-2-0.6-2.9V7.9c0-2.7,1.5-5.2,3.7-6.3
			s4.5-1.1,6.6-0.2c1,0.5,2,1.3,2.7,2.3c0.7-1,1.7-1.7,2.7-2.3c2.1-1,4.4-1,6.6,0.2c2.3,1.1,3.7,3.7,3.7,6.3v0.2c0,1-0.3,2-0.6,3.1
			C23.9,18,15.1,24.3,14.7,24.7C14.6,25,14.3,25.1,14.1,25.1"/>
	</g>
	<g id="Shape_Star" transform="translate(3.000000, 896.000000)">
		<path id="Combined-Shape_32_" class="st0" d="M13,0.9l4,8l9,1.3l-6.5,6.2l1.6,8.8L13,21l-8.1,4.2l1.6-8.8L0,10.2l9-1.3L13,0.9z
			 M8.9,16.7l-0.7,4l3.6-1.9l1.1-0.6l1.1,0.6l3.6,1.9l-0.7-4l-0.3-1.2l1-0.9l2.9-2.8l-4.1-0.6L15.1,11l-0.6-1.1l-1.8-3.6l-1.8,3.6
			L10.3,11L9,11.2l-4.1,0.6l2.9,2.8l1,0.9L8.9,16.7z"/>
	</g>
	<g id="Shape_Arrow" transform="translate(3.000000, 933.000000)">
		<polygon id="Combined-Shape_33_" class="st0" points="17.7,4.1 16,0.5 26.1,1 20.6,9.9 18.9,6.3 1.2,15.7 0.1,13.4 		"/>
	</g>
	<g id="SpeedResistance_Arc" transform="translate(2.000000, 964.000000)">
		<path id="Combined-Shape_34_" class="st0" d="M11.7,13.3l3,4.1l-1,0.7l-3-4.1c-1,0.9-1.6,2.1-1.6,3.5H6.6c0-2.2,1-4.1,2.6-5.4
			l-2.3-3c-0.5,0.4-1,1-1.6,1.5l-1-0.8C4.8,9.2,5.4,8.6,6,8.1l0.1,0.1l-5.3-7l1-0.7L10,11.4c1.1-0.7,2.5-1.1,4-1.1
			c4.1,0,7.6,3.3,7.6,7.3h-2.5c0-2.7-2.2-4.8-5-4.8C13.3,12.6,12.4,12.8,11.7,13.3z M2.8,17.4H1.5c0-0.4,0-0.9,0.1-1.3l1.2,0.1
			C2.8,16.6,2.8,17.1,2.8,17.4z M13.1,6.4L13,5.2c0.8-0.1,1.6-0.1,2.5,0l-0.1,1.2C14.6,6.3,13.8,6.3,13.1,6.4z M19.6,7.6
			c-0.7-0.3-1.4-0.6-2.1-0.8l0.3-1.1c0.8,0.3,1.6,0.5,2.3,1L19.6,7.6z M8.8,7.7l-0.6-1c0.7-0.3,1.5-0.7,2.3-1l0.3,1.1
			C10.2,7,9.5,7.4,8.8,7.7z M23.1,10.4c-0.5-0.5-1-1-1.6-1.6l0.8-1c0.6,0.5,1.2,1,1.7,1.6L23.1,10.4z M25.1,14.1
			c-0.3-0.7-0.5-1.4-0.9-2l1.1-0.6c0.4,0.7,0.7,1.5,1,2.2L25.1,14.1z M3.3,14.2l-1.2-0.3c0.3-0.8,0.6-1.5,1-2.2l1.1,0.6
			C3.8,12.8,3.5,13.5,3.3,14.2z M27,17.4h-1.3c0-0.3,0-0.8-0.1-1.1l1.2-0.1C27,16.5,27,17,27,17.4z"/>
	</g>
	<g id="Time_Cycle" transform="translate(3.000000, 991.000000)">
		<path id="Combined-Shape_35_" class="st0" d="M24.9,27V3h0.7v24H24.9z M12.8,27V3h1.3v24H12.8z M19.1,27V3h0.7v24H19.1z M0.4,27V3
			h2.7v24H0.4z M6.9,27V3h1.3v24H6.9z"/>
	</g>
	<g id="Tirone_Levels" transform="translate(3.000000, 1024.000000)">
		<path id="Combined-Shape_36_" class="st0" d="M1.4,20.6v-1.3h23.3v1.3H1.4z M1.4,6V4.7h23.3V6H1.4z M4.2,10.5V9.8h17.7v0.7H4.2z
			 M4.3,15.4v-0.6h17.3v0.6H4.3z M0,26.2v-26h26v26H0z M1.3,24.9h23.4V1.5H1.3V24.9z"/>
	</g>
	<g id="Trend_Line" transform="translate(3.000000, 1056.000000)">
		<path id="Combined-Shape_37_" class="st0" d="M10.1,5.8h-2v5.4H6.9V5.8H5v-1h5.1V5.8L10.1,5.8z M0,15.4V0.3h15v15.1
			C15,15.4,0,15.4,0,15.4z M1.3,14.1h12.5V1.5H1.3V14.1z M8.9,23.8l15.5-12.7L26,13L10.5,25.7L8.9,23.8z"/>
	</g>
	<g id="SpeedResistance_Line" transform="translate(2.000000, 1088.000000)">
		<path id="Combined-Shape_38_" class="st0" d="M5.2,22.8l1.7-0.9l0.5,1l-2,1l-0.5-1l-1,1l-0.8,1.6l-0.4-0.2l-0.4,0.2L2,25l-1.1-0.5
			L13.1,0.3l2.2,1L5.6,20.6L26.1,0.3L27,1.2L5.2,22.8z M21.7,16l-0.5-1l2-1l0.5,1L21.7,16z M17.6,18l-0.5-1l2-1l0.5,1L17.6,18z
			 M13.5,20.1l-0.5-1l2-1l0.5,1L13.5,20.1z M9.5,22.1l-0.5-1l2-1l0.5,1L9.5,22.1z M25.2,12.8l1.1-0.5l0.5,1l-1.1,0.5L25.2,12.8z"/>
	</g>
	<g id="Direct_Select2" transform="translate(2.000000, 1312.000000)">
		<path id="Combined-Shape_39_" class="st0" d="M18.1,19.3L12.7,25L6.1,5.2l19.8,6.6l-5.7,5.4L27,24l-2.2,2.2L18.1,19.3z M10.9,10.1
			l3.1,9.2l2.9-3.1l0.1-0.1l0.1-0.1l3.1-2.9L10.9,10.1z M1,0.2h7.9v3.7H7.4V1.7H2.5v4.9h2.2v1.5H0.9L1,0.2L1,0.2z"/>
	</g>
	<polygon id="Path_4_" class="st0" points="14.3,1358.2 10.6,1361.8 9,1347.2 21.1,1355.3 16.3,1357.1 22,1365.8 20,1367.2 	"/>
	<g id="Measure" transform="translate(3.000000, 1119.000000)">
		<path id="Combined-Shape_54_" class="st0" d="M10.1,11.9l-1.4,1.4l2.7,2.7l-0.9,0.9l-2.7-2.7l-1.4,1.4l2.7,2.7l-0.9,0.9l-2.7-2.7
			l-1.4,1.4l2.7,2.7l-0.9,0.9l-2.7-2.7l-1.4,1.4l5,5L24.1,7.9l-5-5l-1.4,1.4L20.4,7l-0.9,0.9L17,5l-1.4,1.4l2.7,2.7L17.4,10
			l-2.7-2.8l-1.4,1.4l2.7,2.7l-0.8,0.9l-2.7-2.7l-1.4,1.4l2.7,2.7l-0.9,0.9L10.1,11.9z M19.2,1L26,7.8L6.8,27L0,20.2L19.2,1z"/>
	</g>
	<g id="Restore_Default" transform="translate(3.000000, 1151.000000)">
		<path id="Combined-Shape_55_" class="st0" d="M6.2,6.4l3.3,1.3l-8,6.5L0,3.9l3.6,1.4C6.1,2.6,9.5,1,13.1,1C20.2,1,26,6.9,26,14.1
			s-5.7,13.1-12.8,13.1v-2.6c5.7,0,10.3-4.7,10.3-10.5S18.9,3.6,13.2,3.6C10.6,3.7,8.1,4.6,6.2,6.4z M16.1,14.2
			c0,1.4-1.1,2.5-2.5,2.5s-2.5-1.1-2.5-2.5s1.1-2.5,2.5-2.5C14.9,11.6,16.1,12.8,16.1,14.2z"/>
	</g>
	<g id="Clear-Drawings" transform="translate(5.000000, 1184.000000)">
		<path id="Combined-Shape_56_" class="st0" d="M0.1,6.8V4.3h21.7v2.5H0.1z M5.5,2.7V0.2h11v2.5H5.5z M1.9,8.9h18.3l-1.1,17.2H3
			L1.9,8.9z M3.2,10.2l1,14.7h13.7l1-14.7H3.2L3.2,10.2z M10.4,21.4v-8h1.2v8H10.4z M6.5,21.4v-8h1.2v8H6.5z M14.3,21.5v-8h1.2v8
			H14.3z"/>
	</g>
	<g id="Cancel-Copy" transform="translate(3.000000, 1215.000000)">
		<g id="Cancel">
			<path id="Combined-Shape_57_" class="st0" d="M4.9,20.4L19.3,5.8c-1.7-1.4-3.9-2.2-6.2-2.2C7.5,3.6,2.9,8.3,2.9,14
				C2.8,16.4,3.6,18.7,4.9,20.4z M6.8,22.2c1.7,1.4,3.9,2.2,6.2,2.2c5.6,0,10.2-4.7,10.2-10.4c0-2.4-0.8-4.6-2.2-6.4L6.8,22.2z
				 M13,27C6,27,0.3,21.2,0.3,14S6,1,13,1s12.7,5.8,12.7,13S20,27,13,27z"/>
		</g>
	</g>
	<g id="Undo" transform="translate(2.000000, 1254.000000)">
		<path id="Combined-Shape_58_" class="st0" d="M7.2,5.7L10.5,7l-7.8,6.8L0.9,3.3l3.6,1.4c2.3-2.8,5.5-4.2,9.6-4.2
			c12.6,0,12.7,13.3,12.7,13.3h-2.5h1.3h-1.3c0-0.4-0.2-10.7-10.2-10.7C11.3,3.1,9,4,7.2,5.7z"/>
	</g>
	<g id="Redo" transform="translate(3.000000, 1286.000000)">
		<path id="Combined-Shape_59_" class="st0" d="M22.4,4.8L26,3.5l-1.8,9.8l-7.8-6.4l3.3-1.2c-1.7-1.6-4.1-2.4-7-2.4
			c-10.1,0-10.2,9.6-10.2,10H0.1c0-0.1,0.2-12.5,12.7-12.5C16.8,0.9,20.1,2.2,22.4,4.8z"/>
	</g>
	<g id="Crosshair" transform="translate(3.000000, 128.000000)">
		<polygon id="Combined-Shape_3_" class="st0" points="13.7,16.6 0.3,16.6 0.3,13.8 13.7,13.8 13.7,0.2 16.4,0.2 16.4,13.8 
			25.8,13.8 25.8,16.6 16.4,16.6 16.4,26.2 13.7,26.2 		"/>
	</g>
	<g id="Group" transform="translate(2.000000, 1375.000000)">
		<rect id="Rectangle" y="0.2" class="st0" width="12" height="12"/>
		<rect id="Rectangle_1_" y="16.2" class="st0" width="12" height="12"/>
		<rect id="Rectangle_2_" x="16" y="0.2" class="st0" width="12" height="12"/>
		<rect id="Rectangle_3_" x="16" y="16.2" class="st0" width="12" height="12"/>
	</g>
	<g id="Group_1_" transform="translate(2.000000, 1406.000000)">
		<rect id="Rectangle_4_" y="1.1" class="st0" width="12" height="12"/>
		<rect id="Rectangle_5_" y="17.2" class="st0" width="11.9" height="11.9"/>
		<rect id="Rectangle_6_" x="15" y="6.1" class="st0" width="13" height="3.1"/>
		<rect id="Rectangle_7_" x="15" y="22.2" class="st0" width="13" height="3.1"/>
	</g>
	<path id="Path_5_" class="st0" d="M25.7,1498.2H5.2c-1.8,0-3.2-1.4-3.2-3.2v-20.5c0-1.8,1.4-3.2,3.2-3.2h12.1v2.8H5.2
		c-0.3,0-0.5,0.2-0.5,0.5v20.5c0,0.3,0.2,0.5,0.5,0.5h20.5c0.3,0,0.5-0.2,0.5-0.5v-12H29v12C28.9,1496.8,27.5,1498.2,25.7,1498.2z"
		/>
	<polygon id="Path_6_" class="st0" points="20.9,1489.2 20.9,1486.2 15.8,1486.2 29,1473.1 27,1471.2 13.8,1484.3 13.8,1479.2 
		11,1479.2 11,1489.2 	"/>
	<path id="Path_7_" class="st0" d="M25.7,1467.2H5.2c-1.8,0-3.2-1.4-3.2-3.2v-20.5c0-1.8,1.4-3.2,3.2-3.2h12.1v2.8H5.2
		c-0.3,0-0.5,0.2-0.5,0.5v20.5c0,0.3,0.2,0.5,0.5,0.5h20.5c0.3,0,0.5-0.2,0.5-0.5v-12H29v12C28.9,1465.8,27.5,1467.2,25.7,1467.2z"
		/>
	<polygon id="Path_8_" class="st0" points="19.1,1439.2 19.1,1442 24.2,1442 11,1455.2 12.9,1457.2 26.1,1444 26.1,1449.1 
		29,1449.1 29,1439.2 	"/>
	<path id="Shape" class="st0" d="M29.7,1520.6l-2.4-1.4c0.2-1.3,0.2-2.7,0-4l2.4-1.4c0.3-0.2,0.4-0.5,0.3-0.8
		c-0.6-2-1.7-3.8-3.1-5.3c-0.2-0.2-0.6-0.3-0.8-0.1l-2.4,1.4c-1-0.9-2.2-1.5-3.4-2v-2.8c0-0.3-0.2-0.6-0.5-0.7
		c-2.1-0.5-4.3-0.4-6.3,0c-0.3,0.1-0.5,0.3-0.5,0.7v2.8c-1.3,0.4-2.4,1.1-3.4,2l-2.4-1.4c-0.3-0.2-0.6-0.1-0.8,0.1
		c-1.4,1.5-2.5,3.3-3.1,5.3c-0.1,0.3,0,0.6,0.3,0.8l2.4,1.4c-0.2,1.3-0.2,2.7,0,4l-2.4,1.4c-0.3,0.2-0.4,0.5-0.3,0.8
		c0.6,2,1.7,3.8,3.1,5.3c0.2,0.2,0.6,0.3,0.8,0.1l2.4-1.4c1,0.9,2.2,1.5,3.4,2v2.8c0,0.3,0.2,0.6,0.5,0.7c2.1,0.5,4.3,0.4,6.3,0
		c0.3-0.1,0.5-0.3,0.5-0.7v-2.8c1.3-0.4,2.4-1.1,3.4-2l2.4,1.4c0.3,0.2,0.6,0.1,0.8-0.1c1.4-1.5,2.5-3.3,3.1-5.3
		C30.1,1521.1,29.9,1520.8,29.7,1520.6z M16.4,1521.8c-2.5,0-4.6-2-4.6-4.5s2-4.5,4.6-4.5s4.6,2,4.6,4.5S18.9,1521.8,16.4,1521.8z"
		/>
	<polygon id="Path_9_" class="st0" points="16,1537.2 20,1545.1 29,1546.3 22.5,1552.5 24.1,1561.2 16,1557.1 7.9,1561.2 
		9.5,1552.5 3,1546.3 12,1545.1 	"/>
	<path id="Shape_1_" class="st0" d="M16,1567.2c-7.2,0-13,5.7-13,12.8l1.8,15.1h6.7l-1.5-15c0-3.7,2.1-5.9,6-5.9s6,2.2,6,5.9
		l-1.5,15.1h6.7l1.8-15C29,1573,23.2,1567.2,16,1567.2z M10.2,1589.8l0.5,4.6H5.6l-0.5-4.6H10.2z M26.5,1594.3h-5.3l0.5-4.6H27
		L26.5,1594.3z"/>
	<polygon id="Stroke-68-Copy" class="st0" points="26,1601.2 28,1602.3 21.1,1613.8 18.5,1609.8 10.6,1623.2 8,1619.2 4,1626.2 
		2,1625.1 7.9,1614.8 10.5,1618.8 18.4,1605.6 21,1609.5 	"/>
</g>
<g id="Studies-_x26_-Weird-Chart-Elements">
	<g id="stx-sprite-drawing-tools-white" transform="translate(-1.000000, -1633.000000)">
		<path id="Combined-Shape_4_" class="st0" d="M3.5,3271.4h16.7v2.5H3.5V3271.4z M3.5,3276h25v2.5h-25V3276z M3.5,3280.4h16.7v2.5
			H3.5V3280.4z M3.5,3285h11v2.5h-11V3285z M3.5,3267h8.3v2.5H3.5V3267z"/>
	</g>
</g>
<path class="st0" d="M26.1,257.9c-1.6,0-3,1.3-3,3c0,0.2,0,0.3,0,0.5L8,270.7c-0.5-0.5-1.2-0.7-1.9-0.7c-1.6,0-3,1.3-3,3
	c0,1.6,1.3,3,3,3s3-1.3,3-3c0-0.1,0-0.3,0-0.4l15.1-9.3c0.5,0.4,1.2,0.7,1.9,0.7c1.6,0,3-1.3,3-3S27.7,257.9,26.1,257.9z"/>
<path class="st0" d="M25.1,679.1L10,688.4c-0.5-0.5-1.2-0.7-1.9-0.7c-1.6,0-3,1.3-3,3c0,1.6,1.3,3,3,3s3-1.3,3-3c0-0.1,0-0.3,0-0.4
	l15.1-9.3L25.1,679.1z"/>
<g>
	<g>
		<g>
			<defs>
				<path id="SVGID_1_" d="M24.8,1665.4l-1.1,1.1l2.1,2.1l-0.7,0.7l-2.1-2.1l-1.1,1.1l2.1,2.1l-0.7,0.7l-2.1-2.1l-1.1,1.1l2.1,2.1
					l-0.7,0.7l-2.1-2.1l-1.1,1.1l2.1,2.1l-0.7,0.7l-2.1-2.1l-1.1,1.1l2.1,2.1l-0.7,0.7l-2.1-2.1l-1.1,1.1l2.1,2.1l-0.7,0.7l-2.1-2.1
					l-1.1,1.1l2.1,2.1l-0.7,0.7l-2.1-2.1l-1.1,1.1l3.9,3.9l13.4-13.4L24.8,1665.4z M24.8,1664l5.3,5.3l-14.8,14.8l-5.3-5.3
					L24.8,1664z"/>
			</defs>
			<clipPath id="SVGID_00000006692300719291145120000005673468559285553557_">
				<use xlink:href="#SVGID_1_"  style="overflow:visible;"/>
			</clipPath>
			
				<rect x="8" y="1662" style="clip-path:url(#SVGID_00000006692300719291145120000005673468559285553557_);fill:#398DFF;" width="24.2" height="24.2"/>
		</g>
	</g>
</g>
<g>
	<g>
		<g>
			<defs>
				<rect id="SVGID_00000022532611861810038130000012352733218514987907_" x="4" y="1660.9" width="1.8" height="30.1"/>
			</defs>
			<use xlink:href="#SVGID_00000022532611861810038130000012352733218514987907_"  style="overflow:visible;fill:#398DFF;"/>
			<clipPath id="SVGID_00000077309675398065463770000000511678779102536864_">
				<use xlink:href="#SVGID_00000022532611861810038130000012352733218514987907_"  style="overflow:visible;"/>
			</clipPath>
			
				<rect x="1.9" y="1658.8" style="clip-path:url(#SVGID_00000077309675398065463770000000511678779102536864_);fill:#398DFF;" width="5.9" height="34.3"/>
		</g>
	</g>
</g>
</svg>
