<svg width="1920" height="653" viewBox="0 0 1920 653" fill="none" xmlns="http://www.w3.org/2000/svg">
<g opacity="0.2">
<path d="M-845 502.578L-820.629 518.432L-796.258 504.843H-752.391C-739.393 497.294 -711.447 482.648 -703.649 484.459C-695.85 486.271 -684.152 495.784 -679.278 500.314L-635.41 498.05L-613.476 368.954C-612.664 355.365 -607.14 330.904 -591.542 341.776C-572.046 355.365 -576.92 368.954 -552.549 368.954C-528.178 368.954 -484.31 362.16 -476.999 362.16C-469.688 362.16 -464.814 344.041 -455.065 346.306C-445.317 348.571 -435.569 346.305 -428.257 341.776C-420.946 337.246 -364.893 289.685 -345.396 321.392C-325.899 353.1 -333.211 378.014 -321.025 384.809C-308.84 391.603 -296.654 378.014 -277.158 353.101C-257.661 328.188 -245.476 330.45 -235.727 341.776C-225.979 353.101 -206.482 353.101 -199.171 364.425C-191.859 375.75 -189.422 407.457 -167.489 409.722C-145.555 411.987 -143.118 423.311 -133.369 416.517C-123.621 409.722 -118.747 391.603 -111.435 400.663C-104.124 409.722 -99.25 418.781 -91.9387 411.987C-86.0897 406.551 -71.6296 208.907 -65.1307 110.764C-62.6936 100.949 -52.4579 85.3974 -31.0115 101.704C-4.20345 122.088 -4.20344 67.732 10.4191 79.0562C25.0417 90.3804 39.6642 117.557 54.2868 101.704C68.9093 85.8514 78.6577 63.203 93.2802 74.5272C107.903 85.8514 115.214 101.704 139.585 74.5272C163.956 47.3502 166.393 72.2599 176.141 79.0562C185.89 85.8525 200.512 81.3221 217.572 58.6737C234.632 36.0253 237.069 60.9396 246.817 69.9979C256.565 79.0562 276.062 69.9971 280.936 67.7323C285.81 65.4674 315.056 63.2026 322.367 103.97C328.216 136.583 342.676 156.816 349.175 162.855C358.111 162.855 376.47 166.026 378.42 178.709C380.857 194.563 380.857 224.006 393.042 224.006C405.228 224.006 412.539 212.682 417.413 221.741C422.288 230.801 427.162 260.243 439.347 248.919C451.533 237.595 446.658 226.271 458.844 228.536C471.029 230.801 483.215 230.801 492.963 214.947C502.712 199.093 517.334 203.623 519.771 210.417C522.208 217.212 539.268 233.065 546.579 233.065C552.428 233.065 570.138 233.065 578.261 233.065C591.259 245.899 619.692 269.756 629.44 262.508C641.626 253.449 670.871 219.476 680.619 228.536C690.368 237.595 704.99 251.184 714.739 242.125C724.487 233.065 726.924 226.271 734.235 233.065C741.547 239.86 756.169 260.243 770.792 262.508C782.49 264.32 809.785 263.263 821.971 262.508C826.032 251.184 836.106 226.724 843.904 219.476C853.653 210.417 880.461 201.358 887.772 201.358C895.083 201.358 899.958 224.006 912.143 219.476C924.328 214.947 921.891 208.152 931.64 212.682C941.388 217.212 943.825 255.714 953.574 253.449C963.322 251.184 970.633 230.801 980.381 233.065C990.13 235.33 999.878 248.919 1007.19 237.595C1014.5 226.271 1019.37 210.417 1026.69 219.476C1034 228.536 1038.87 242.125 1051.06 237.595C1063.24 233.065 1075.43 228.536 1087.61 230.801C1099.8 233.065 1104.67 248.919 1114.42 244.39C1124.17 239.86 1150.98 224.006 1160.73 224.006C1170.47 224.006 1168.04 228.536 1180.22 226.271C1192.41 224.006 1199.72 214.947 1204.59 217.212C1209.47 219.476 1214.34 242.125 1226.53 237.595C1238.71 233.065 1243.59 210.417 1258.21 212.682C1272.83 214.947 1267.96 219.476 1287.46 221.741C1306.95 224.006 1316.7 203.623 1328.89 212.682C1341.07 221.741 1345.95 230.801 1360.57 228.536C1375.19 226.271 1380.06 233.065 1392.25 244.39C1404.44 255.714 1409.31 253.449 1414.18 253.449C1419.06 253.449 1426.37 473.297 1428.81 480.091C1431.24 486.886 1440.99 502.74 1450.74 495.945C1460.49 489.151 1470.24 452.913 1482.42 464.238C1494.61 475.562 1501.92 482.356 1511.67 473.297C1521.42 464.238 1523.85 461.973 1528.73 468.767C1533.6 475.562 1543.35 480.091 1545.79 468.767C1547.74 459.708 1557.97 183.239 1562.85 151.531C1565.28 142.472 1572.59 127.071 1582.34 137.942C1594.53 151.531 1599.4 160.591 1611.59 158.326C1623.77 156.061 1631.08 128.883 1650.58 133.413C1670.08 137.942 1670.08 156.061 1679.83 153.796C1689.58 151.531 1706.63 115.294 1726.13 119.824C1745.63 124.353 1755.38 151.531 1774.87 144.737C1794.37 137.942 1804.12 135.677 1813.87 133.413C1823.62 131.148 1850.42 79.0565 1877.23 79.0565C1904.04 79.0565 1904.04 85.851 1906.48 90.3806C1908.91 94.9103 1908.91 101.705 1916.22 97.1752C1923.54 92.6455 1923.54 65.4674 1940.6 72.2619C1957.66 79.0564 1986.9 133.413 2003.96 126.618C2021.02 119.824 2033.2 103.97 2040.52 106.235C2047.83 108.499 2050.26 88.1158 2067.32 81.3213C2084.38 74.5268 2074.64 85.851 2094.13 79.0565C2113.63 72.2619 2133.13 -0.212865 2138 2.05197" stroke="#0063F5" stroke-width="2.25"/>
<path d="M-820.629 519.899L-845 504V652.016H2138V2.05212C2133.13 -0.21915 2113.63 72.4615 2094.13 79.2753C2074.64 86.0891 2084.38 74.7328 2067.32 81.5466C2050.27 88.3604 2047.83 108.802 2040.52 106.531C2033.21 104.259 2021.02 120.158 2003.96 126.972C1986.9 133.786 1957.66 79.2753 1940.6 72.4615C1923.54 65.6477 1923.54 92.9029 1916.22 97.4455C1908.91 101.988 1908.91 95.1742 1906.48 90.6317C1904.04 86.0891 1904.04 79.2753 1877.23 79.2753C1850.42 79.2753 1823.62 131.514 1813.87 133.786C1804.12 136.057 1794.37 138.328 1774.87 145.142C1755.38 151.956 1745.63 124.701 1726.13 120.158C1706.63 115.616 1689.58 151.956 1679.83 154.227C1670.08 156.498 1670.08 138.328 1650.58 133.786C1631.08 129.243 1623.77 156.498 1611.59 158.77C1599.4 161.041 1594.53 151.956 1582.34 138.328C1572.59 127.426 1565.28 142.871 1562.85 151.956C1557.97 183.754 1547.74 461.008 1545.79 470.093C1543.35 481.449 1533.6 476.907 1528.73 470.093C1523.85 463.279 1521.42 465.55 1511.67 474.635C1501.92 483.721 1494.61 476.907 1482.42 465.55C1470.24 454.194 1460.49 490.534 1450.74 497.348C1440.99 504.162 1431.24 488.263 1428.81 481.449C1426.37 474.635 1419.06 254.163 1414.18 254.163C1409.31 254.163 1404.44 256.434 1392.25 245.078C1380.06 233.722 1375.19 226.908 1360.57 229.179C1345.95 231.45 1341.07 222.365 1328.89 213.28C1316.7 204.195 1306.95 224.637 1287.46 222.365C1267.96 220.094 1272.83 215.551 1258.21 213.28C1243.59 211.009 1238.71 233.722 1226.53 238.264C1214.34 242.807 1209.47 220.094 1204.59 217.823C1199.72 215.551 1192.41 224.637 1180.22 226.908C1168.04 229.179 1170.47 224.637 1160.73 224.637C1150.98 224.637 1124.17 240.535 1114.42 245.078C1104.67 249.621 1099.8 233.722 1087.61 231.45C1075.43 229.179 1063.24 233.722 1051.06 238.264C1038.87 242.807 1034 229.179 1026.69 220.094C1019.38 211.009 1014.5 226.908 1007.19 238.264C999.878 249.621 990.13 235.993 980.382 233.722C970.633 231.45 963.322 251.892 953.574 254.163C943.825 256.434 941.388 217.823 931.64 213.28C921.891 208.738 924.328 215.552 912.143 220.094C899.958 224.637 895.083 201.924 887.772 201.924C880.461 201.924 853.653 211.009 843.905 220.094C836.106 227.362 826.032 251.892 821.971 263.248C809.785 264.005 782.49 265.065 770.792 263.248C756.169 260.977 741.547 240.535 734.235 233.722C726.924 226.908 724.487 233.722 714.739 242.807C704.99 251.892 690.368 238.264 680.619 229.179C670.871 220.094 641.626 254.163 629.44 263.248C619.692 270.516 591.259 246.592 578.262 233.722H546.579C539.268 233.722 522.208 217.823 519.771 211.009C517.334 204.195 502.712 199.653 492.963 215.551C483.215 231.45 471.029 231.45 458.844 229.179C446.659 226.908 451.533 238.264 439.347 249.621C427.162 260.977 422.288 231.45 417.413 222.365C412.539 213.28 405.228 224.637 393.043 224.637C380.857 224.637 380.857 195.11 378.42 179.211C376.47 166.492 358.111 163.312 349.175 163.312C342.676 157.256 328.216 136.966 322.367 104.259C315.056 63.3764 285.81 65.6477 280.936 67.9189C276.062 70.1902 256.565 79.2751 246.817 70.191C237.069 61.107 234.632 36.122 217.572 58.8347C200.512 81.5474 185.89 86.0906 176.141 79.2751C166.393 72.4595 163.956 47.479 139.585 74.7332C115.214 101.987 107.903 86.0895 93.2803 74.7332C78.6577 63.3768 68.9094 86.0895 54.2868 101.987C39.6642 117.885 25.0417 90.6314 10.4191 79.2751C-4.20343 67.9187 -4.20343 122.429 -31.0114 101.987C-52.4578 85.6342 -62.6936 101.23 -65.1307 111.072C-71.6296 209.494 -86.0897 407.7 -91.9387 413.151C-99.2499 419.965 -104.124 410.88 -111.435 401.795C-118.747 392.71 -123.621 410.88 -133.369 417.694C-143.118 424.508 -145.555 413.151 -167.489 410.88C-189.422 408.609 -191.859 376.811 -199.171 365.455C-206.482 354.098 -225.979 354.098 -235.727 342.741C-245.475 331.383 -257.661 329.114 -277.158 354.098C-296.654 379.082 -308.84 392.71 -321.025 385.896C-333.211 379.082 -325.899 354.097 -345.396 322.3C-364.893 290.502 -420.946 338.198 -428.257 342.741C-435.569 347.283 -445.317 349.555 -455.065 347.284C-464.814 345.012 -469.688 363.182 -476.999 363.182C-484.31 363.182 -528.178 369.996 -552.549 369.996C-576.92 369.996 -572.046 356.368 -591.542 342.741C-607.14 331.839 -612.664 356.368 -613.476 369.996L-635.41 499.458L-679.278 501.73C-684.152 497.187 -695.85 487.647 -703.649 485.83C-711.447 484.013 -739.393 498.7 -752.391 506.271H-796.258L-820.629 519.899Z" fill="url(#paint0_linear_6002_4260)"/>
</g>
<defs>
<linearGradient id="paint0_linear_6002_4260" x1="646.5" y1="2" x2="646.5" y2="652.016" gradientUnits="userSpaceOnUse">
<stop stop-color="#0063F5" stop-opacity="0.3"/>
<stop offset="1" stop-color="#161D26" stop-opacity="0"/>
</linearGradient>
</defs>
</svg>
