<svg width="30" height="31" viewBox="0 0 30 31" fill="none" xmlns="http://www.w3.org/2000/svg">
      <path
        d="M27.7267 11.1896V26.6578C27.7276 26.8128 27.6977 26.9663 27.6388 27.1097C27.5798 27.253 27.4931 27.3832 27.3835 27.4927C27.274 27.6023 27.1438 27.6891 27.0004 27.748C26.8571 27.8069 26.7035 27.8368 26.5486 27.8359H14.7293C14.5746 27.8359 14.4214 27.8054 14.2784 27.7462C14.1355 27.687 14.0056 27.6003 13.8962 27.4909C13.7868 27.3815 13.7001 27.2516 13.6409 27.1087C13.5817 26.9657 13.5512 26.8125 13.5512 26.6578V24.5372L24.4598 13.6286C24.7457 13.3431 24.9563 12.9913 25.073 12.6046C25.1897 12.2179 25.2087 11.8083 25.1285 11.4124L24.74 8.29841L27.1663 10.2089C27.3344 10.3123 27.4738 10.4563 27.5717 10.6277C27.6696 10.799 27.7229 10.9922 27.7267 11.1896ZM23.5619 12.7306L12.6214 23.6711C12.4007 23.8909 12.1019 24.0142 11.7904 24.0142C11.4789 24.0142 11.1801 23.8909 10.9593 23.6711L2.59794 15.3098C2.37823 15.089 2.25488 14.7902 2.25488 14.4787C2.25488 14.1672 2.37823 13.8684 2.59794 13.6477L13.5384 2.70716C13.7552 2.491 14.0475 2.36766 14.3536 2.36328C14.4457 2.36478 14.5374 2.37545 14.6274 2.39512L22.0781 3.31851C22.2885 3.37229 22.4804 3.48167 22.6339 3.63516C22.7874 3.78866 22.8968 3.98063 22.9506 4.19094L23.9058 11.6226C23.9483 11.8213 23.939 12.0275 23.8788 12.2216C23.8186 12.4157 23.7095 12.591 23.5619 12.7306ZM19.671 7.87174C19.671 7.61984 19.5963 7.3736 19.4563 7.16415C19.3164 6.9547 19.1175 6.79146 18.8848 6.69506C18.652 6.59866 18.3959 6.57344 18.1489 6.62258C17.9018 6.67172 17.6749 6.79303 17.4968 6.97115C17.3186 7.14927 17.1973 7.37621 17.1482 7.62327C17.099 7.87033 17.1243 8.12641 17.2207 8.35914C17.3171 8.59186 17.4803 8.79078 17.6898 8.93073C17.8992 9.07067 18.1455 9.14537 18.3974 9.14537C18.7351 9.14537 19.0591 9.01119 19.2979 8.77233C19.5368 8.53348 19.671 8.20953 19.671 7.87174Z"
        fill="currentColor"
      />
    </svg>