<svg width="20" height="20" viewBox="0 0 20 20" fill="none" xmlns="http://www.w3.org/2000/svg">
<path d="M18.4052 9.39628H17.0265C16.9918 9.39632 16.9572 9.39934 16.9231 9.40531C16.6369 6.04283 13.9606 3.36248 10.6001 3.07091C10.6046 3.04146 10.6068 3.01173 10.6067 2.98195V1.60242C10.6067 1.44265 10.5433 1.28942 10.4303 1.17644C10.3173 1.06347 10.1641 1 10.0043 1C9.84455 1 9.69132 1.06347 9.57834 1.17644C9.46537 1.28942 9.4019 1.44265 9.4019 1.60242V2.98115C9.40194 3.01011 9.40402 3.03903 9.40813 3.06769C6.0368 3.34621 3.34721 6.02737 3.05565 9.39507C3.031 9.39195 3.00619 9.39034 2.98135 9.39025H1.60242C1.44265 9.39025 1.28942 9.45372 1.17644 9.5667C1.06347 9.67967 1 9.8329 1 9.99267C1 10.1524 1.06347 10.3057 1.17644 10.4186C1.28942 10.5316 1.44265 10.5951 1.60242 10.5951H2.98135C3.00558 10.5951 3.0298 10.5935 3.05384 10.5905C3.33557 13.9668 6.02837 16.658 9.40531 16.9385C9.40175 16.9652 9.39994 16.992 9.39989 17.0189V18.3976C9.39989 18.5574 9.46336 18.7106 9.57634 18.8236C9.68931 18.9365 9.84254 19 10.0023 19C10.1621 19 10.3153 18.9365 10.4283 18.8236C10.5413 18.7106 10.6047 18.5574 10.6047 18.3976V17.0181C10.6047 16.9907 10.6028 16.9634 10.5991 16.9363C13.963 16.6442 16.6415 13.959 16.9245 10.5923C16.9584 10.5981 16.9927 10.601 17.0271 10.6011H18.4058C18.4849 10.6011 18.5633 10.5855 18.6364 10.5553C18.7094 10.525 18.7759 10.4806 18.8318 10.4247C18.8877 10.3687 18.9321 10.3023 18.9624 10.2292C18.9927 10.1561 19.0082 10.0778 19.0082 9.99869C19.0082 9.91953 18.9926 9.84115 18.9623 9.76802C18.932 9.69489 18.8876 9.62846 18.8316 9.57251C18.7756 9.51656 18.7091 9.4722 18.6359 9.44196C18.5628 9.41172 18.4844 9.3962 18.4052 9.39628ZM15.2927 12.2429C14.7373 13.5637 13.7108 14.6309 12.4127 15.2373C11.1145 15.8438 9.63734 15.9462 8.26792 15.5248C6.8985 15.1033 5.73457 14.1879 5.00211 12.9565C4.26966 11.725 4.02095 10.2654 4.30427 8.86083C4.58759 7.4563 5.38273 6.20718 6.5353 5.35598C7.68787 4.50478 9.11563 4.11225 10.5414 4.25461C11.9671 4.39696 13.289 5.06404 14.2505 6.12633C15.2121 7.18861 15.7445 8.5703 15.7445 10.0031C15.7454 10.7725 15.5914 11.5342 15.2919 12.2429H15.2927Z" fill="currentColor"/>
<path d="M10 1C10.5523 1 11 1.44772 11 2V3C11 3.024 10.9978 3.04771 10.9961 3.07129C14.0645 3.50848 16.4901 5.93471 16.9277 9.00293C16.9516 9.00122 16.9757 9 17 9H18C18.5523 9 19 9.44771 19 10C19 10.5523 18.5523 11 18 11H17C16.9757 11 16.9516 10.9978 16.9277 10.9961C16.4904 14.0647 14.0647 16.4904 10.9961 16.9277C10.9978 16.9516 11 16.9757 11 17V18C11 18.5523 10.5523 19 10 19C9.44771 19 9 18.5523 9 18V17C9 16.9757 9.00122 16.9516 9.00293 16.9277C5.93471 16.4901 3.50848 14.0645 3.07129 10.9961C3.04771 10.9978 3.024 11 3 11H2C1.44772 11 1 10.5523 1 10C1 9.44771 1.44772 9 2 9H3C3.02398 9 3.04773 9.00127 3.07129 9.00293C3.50885 5.93497 5.93497 3.50885 9.00293 3.07129C9.00127 3.04773 9 3.02398 9 3V2C9 1.44772 9.44771 1 10 1ZM10 4.5C6.96243 4.5 4.5 6.96243 4.5 10C4.5 13.0376 6.96243 15.5 10 15.5C13.0376 15.5 15.5 13.0376 15.5 10C15.5 6.96243 13.0376 4.5 10 4.5ZM9.98926 6.45996C10.4544 6.46002 10.915 6.5515 11.3447 6.72949C11.7746 6.90756 12.1651 7.16902 12.4941 7.49805C12.8231 7.82704 13.0837 8.21763 13.2617 8.64746C13.4397 9.07726 13.5322 9.53773 13.5322 10.0029C13.5323 10.4682 13.4398 10.9295 13.2617 11.3594C13.0837 11.7891 12.8231 12.1799 12.4941 12.5088C12.1652 12.8377 11.7745 13.0983 11.3447 13.2764C10.915 13.4544 10.4544 13.5468 9.98926 13.5469C9.52396 13.5469 9.06269 13.4544 8.63281 13.2764C8.20304 13.0983 7.81234 12.8377 7.4834 12.5088C7.15448 12.1798 6.89386 11.7891 6.71582 11.3594C6.53778 10.9295 6.44626 10.4682 6.44629 10.0029C6.44629 9.53773 6.53782 9.07726 6.71582 8.64746C6.89383 8.21764 7.15447 7.82704 7.4834 7.49805C7.8124 7.16902 8.20294 6.90756 8.63281 6.72949C9.06269 6.55142 9.52396 6.45996 9.98926 6.45996Z" fill="currentColor"/>
</svg>
