<svg width="16" height="16" viewBox="0 0 16 16" fill="none" xmlns="http://www.w3.org/2000/svg">
  <path
    d="M8 0C12.4183 0 16 3.58172 16 8C16 12.4183 12.4183 16 8 16C3.58172 16 0 12.4183 0 8C0 3.58172 3.58172 0 8 0ZM6.96875 11.0322C6.9688 11.5859 7.43051 12.043 7.99805 12.043C8.56542 12.0428 9.02632 11.5904 9.02637 11.0322H6.96875ZM7.99805 3.95801C7.65669 3.95801 7.37907 4.2304 7.37891 4.5625V4.62695C6.0826 4.89929 5.11351 5.99312 5.11328 7.3125V9.1084C5.11314 9.39889 4.97969 9.65233 4.76758 9.81836C4.74451 9.83682 4.73062 9.84643 4.66602 9.89258C4.56466 9.96636 4.50009 10.0815 4.5 10.2197C4.5 10.4412 4.68503 10.626 4.91113 10.626H11.0889C11.315 10.626 11.5 10.4458 11.5 10.2197C11.4999 10.0768 11.4258 9.95269 11.3105 9.87891C11.2921 9.86969 11.2873 9.86008 11.2734 9.85547C11.0337 9.68933 10.8818 9.42133 10.8818 9.1123V7.3125C10.8816 5.99764 9.91265 4.8992 8.61621 4.62695V4.5625C8.61605 4.22591 8.33925 3.95819 7.99805 3.95801Z"
    fill="#697072" />
</svg>