<svg width="23" height="21" viewBox="0 0 23 21" fill="none" xmlns="http://www.w3.org/2000/svg">
<path d="M7.99976 18.8074C8.00028 18.7802 7.99996 18.753 7.99882 18.7256C7.98989 18.5119 7.93034 18.2964 7.82386 18.0923C7.71739 17.8882 7.56623 17.6999 7.37971 17.5389C7.19319 17.378 6.97525 17.2478 6.73934 17.1565C6.57746 17.54 6.60592 17.9834 6.81855 18.391C7.01133 18.7605 7.34148 19.0737 7.74793 19.276L7.99976 18.8074Z" fill="url(#paint0_linear_21313_17491)"/>
<path d="M7.66727 19.426C7.45815 19.2879 7.24492 19.1381 7.02092 18.9734C6.49711 18.5848 6.00082 18.1682 5.53568 17.7267C5.28056 17.4815 5.03802 17.2284 4.79866 16.9698C2.68391 14.701 1.49228 11.9489 1.44211 9.21758C1.39193 6.4863 2.48658 3.95882 4.52548 2.09824C4.70431 2.12298 4.88243 2.11694 5.04945 2.08049C5.21646 2.04405 5.36901 1.97793 5.49816 1.88599C5.62884 1.78935 5.73243 1.66843 5.8029 1.53031C5.87337 1.39218 5.90932 1.23959 5.90862 1.08145C5.54987 1.0396 5.20382 1.1166 4.9408 1.2968C4.67786 1.47694 4.51762 1.74671 4.49263 2.05131C3.85351 2.63474 3.29753 3.28418 2.83411 3.98859C1.49827 6.03833 1.02163 8.49514 1.47467 10.9957C1.9277 13.4963 3.28635 15.9079 5.34971 17.8739C5.82531 18.3281 6.33426 18.7558 6.87253 19.1535C7.11908 19.3332 7.34315 19.491 7.55617 19.6328L7.66727 19.426Z" fill="url(#paint1_linear_21313_17491)"/>
<path d="M5.88467 19.8417C5.39997 19.7044 4.9731 19.4124 4.69699 19.0293C4.89846 18.929 5.12703 18.8683 5.36869 18.851C5.61034 18.8338 5.85998 18.8603 6.10229 18.9289C6.34461 18.9976 6.5745 19.1069 6.77786 19.2502C6.98123 19.3936 7.15378 19.5679 7.28493 19.7625C6.87264 19.9505 6.36937 19.979 5.88467 19.8417Z" fill="url(#paint2_linear_21313_17491)"/>
<path d="M5.20035 16.8954C5.33264 17.3193 5.64691 17.7024 6.07529 17.9619C6.20363 17.7937 6.28713 17.5998 6.32065 17.3922C6.35416 17.1846 6.33698 16.9677 6.27017 16.7548C6.2044 16.5432 6.09038 16.34 5.93521 16.158C5.78004 15.9759 5.58704 15.8189 5.36825 15.6966C5.12837 16.0409 5.06805 16.4715 5.20035 16.8954Z" fill="url(#paint3_linear_21313_17491)"/>
<path d="M3.96434 18.1454C3.50433 17.939 3.13345 17.5937 2.9314 17.1837C3.15558 17.1185 3.39878 17.0957 3.6462 17.1165C3.89362 17.1373 4.14007 17.2013 4.37055 17.3047C4.60173 17.4063 4.81195 17.5462 4.98775 17.7154C5.16355 17.8847 5.30104 18.0795 5.39142 18.2875C4.93675 18.4028 4.42435 18.3518 3.96434 18.1454Z" fill="url(#paint4_linear_21313_17491)"/>
<path d="M4.01096 15.4815C4.06034 15.8635 4.281 16.2327 4.62481 16.5084C4.76912 16.3804 4.87668 16.224 4.94057 16.0491C5.00446 15.8742 5.02326 15.6848 4.99575 15.4931C4.97093 15.3028 4.90187 15.1138 4.79277 14.9377C4.68366 14.7616 4.53681 14.6021 4.36118 14.469C4.08747 14.7355 3.96157 15.0994 4.01096 15.4815Z" fill="url(#paint5_linear_21313_17491)"/>
<path d="M2.70317 16.4122C2.32357 16.178 2.04683 15.8349 1.9326 15.4567C2.14427 15.427 2.36651 15.4365 2.58539 15.4848C2.80426 15.5331 3.01506 15.619 3.20458 15.7372C3.3941 15.8545 3.55895 16.0011 3.68914 16.1681C3.81932 16.3351 3.91214 16.519 3.96197 16.7088C3.53483 16.7529 3.08276 16.6464 2.70317 16.4122Z" fill="url(#paint6_linear_21313_17491)"/>
<path d="M3.04983 13.8552C3.03131 14.2312 3.18606 14.6178 3.48088 14.932C3.64754 14.8265 3.78294 14.6895 3.87874 14.5295C3.97454 14.3695 4.02874 14.1898 4.03802 14.0015C4.0473 13.8131 4.01145 13.6201 3.93269 13.4343C3.85392 13.2484 3.7339 13.0736 3.57997 12.9206C3.25869 13.1436 3.06835 13.4791 3.04983 13.8552Z" fill="url(#paint7_linear_21313_17491)"/>
<path d="M1.55748 14.577C1.21707 14.2991 0.999753 13.9299 0.952278 13.5486C1.17078 13.5488 1.39271 13.5878 1.60469 13.663C1.81666 13.7383 2.01429 13.8483 2.18566 13.9864C2.35505 14.127 2.49428 14.2922 2.59511 14.4722C2.69594 14.6522 2.75633 14.8434 2.77267 15.0344C2.33424 15.0191 1.8979 14.8548 1.55748 14.577Z" fill="url(#paint8_linear_21313_17491)"/>
<path d="M2.3756 12.1509C2.28815 12.5124 2.37395 12.908 2.61452 13.2524L2.61336 13.2544C2.80059 13.1748 2.96213 13.0607 3.08821 12.9191C3.21429 12.7774 3.30229 12.6112 3.3469 12.4304C3.39143 12.2491 3.3909 12.057 3.34534 11.8659C3.29977 11.6748 3.21014 11.4888 3.08204 11.3194C2.71673 11.4907 2.46304 11.7893 2.3756 12.1509Z" fill="url(#paint9_linear_21313_17491)"/>
<path d="M0.739269 12.6419C0.446957 12.326 0.296581 11.9383 0.320867 11.5631C0.540885 11.594 0.757117 11.6629 0.956368 11.7656C1.15562 11.8683 1.33372 12.0026 1.47979 12.1605C1.62585 12.3183 1.73684 12.4963 1.80596 12.6836C1.87508 12.8709 1.90089 13.0636 1.88182 13.2499C1.4422 13.1763 1.03158 12.9578 0.739269 12.6419Z" fill="url(#paint10_linear_21313_17491)"/>
<path d="M2.00669 10.4088C1.8531 10.7457 1.86762 11.1389 2.04713 11.5039C2.25054 11.4546 2.43428 11.3676 2.58671 11.2484C2.73915 11.1291 2.85693 10.9803 2.93258 10.8113C3.00884 10.6421 3.04246 10.4568 3.03138 10.2664C3.02031 10.076 2.96478 9.88458 2.86815 9.70357C2.46969 9.81874 2.16028 10.072 2.00669 10.4088Z" fill="url(#paint11_linear_21313_17491)"/>
<path d="M0.267825 10.6653C0.0288625 10.3195 -0.0546503 9.92333 0.0353084 9.56201C0.253131 9.62024 0.460521 9.71544 0.644586 9.84168C0.828651 9.96792 0.985456 10.1225 1.10526 10.2958C1.22507 10.4692 1.30532 10.6575 1.34101 10.8492C1.37671 11.0409 1.36709 11.2318 1.31276 11.4101C0.882061 11.2785 0.506788 11.011 0.267825 10.6653Z" fill="url(#paint12_linear_21313_17491)"/>
<path d="M1.82783 8.87969C1.64116 9.15267 1.59668 9.49289 1.70399 9.82672C1.89269 9.80549 2.06932 9.75018 2.223 9.66419C2.37667 9.57821 2.50415 9.46337 2.59758 9.32673C2.69102 9.1901 2.74842 9.03456 2.76627 8.8697C2.78413 8.70483 2.76206 8.53413 2.70141 8.36808C2.32832 8.42292 2.01449 8.60671 1.82783 8.87969Z" fill="url(#paint13_linear_21313_17491)"/>
<path d="M0.244445 8.91194C0.082406 8.59027 0.0651798 8.24234 0.19648 7.94271L0.195856 7.9424C0.381223 8.01582 0.552026 8.11979 0.697647 8.24782C0.843267 8.37586 0.960601 8.52524 1.04239 8.68671C1.12123 8.84859 1.1637 9.01839 1.1673 9.18614C1.1709 9.35389 1.13556 9.51621 1.06336 9.66359C0.700444 9.50343 0.406484 9.23361 0.244445 8.91194Z" fill="url(#paint14_linear_21313_17491)"/>
<path d="M2.00939 7.35684C1.77861 7.60025 1.67941 7.9252 1.73293 8.26237C1.92736 8.26544 2.11519 8.23341 2.28462 8.1683C2.45404 8.1032 2.60139 8.00642 2.71741 7.88405C2.83343 7.76168 2.91561 7.61637 2.95878 7.45725C3.00195 7.29813 3.00518 7.12865 2.96826 6.95945C2.58426 6.97083 2.24017 7.11343 2.00939 7.35684Z" fill="url(#paint15_linear_21313_17491)"/>
<path d="M0.407971 7.19643C0.297283 6.86389 0.337117 6.52367 0.518914 6.2488C0.69268 6.34365 0.846674 6.46598 0.971476 6.60831C1.09628 6.75064 1.18924 6.90996 1.24468 7.0765C1.30011 7.24303 1.31685 7.41328 1.29385 7.57679C1.27085 7.74031 1.20861 7.89365 1.11094 8.02741C0.771048 7.82732 0.51866 7.52897 0.407971 7.19643Z" fill="url(#paint16_linear_21313_17491)"/>
<path d="M2.43838 5.89869C2.16618 6.10717 2.01347 6.41096 2.01283 6.74521L2.0137 6.7437C2.2081 6.76798 2.40113 6.75878 2.58151 6.71664C2.76189 6.67449 2.926 6.60024 3.06424 6.49825C3.20157 6.39349 3.30848 6.26222 3.37826 6.11268C3.44804 5.96315 3.47918 5.7986 3.46971 5.62936C3.08068 5.59356 2.71057 5.69021 2.43838 5.89869Z" fill="url(#paint17_linear_21313_17491)"/>
<path d="M0.847163 5.54827C0.788034 5.21087 0.883559 4.8841 1.11289 4.63923C1.27403 4.75157 1.41068 4.88883 1.5142 5.04237C1.61772 5.19591 1.68588 5.36239 1.71436 5.53129C1.74235 5.69973 1.73147 5.86695 1.68237 6.02309C1.63328 6.17923 1.54696 6.3211 1.42852 6.44032C1.11527 6.20635 0.90629 5.88568 0.847163 5.54827Z" fill="url(#paint18_linear_21313_17491)"/>
<path d="M2.99973 4.68708C2.71281 4.85244 2.52709 5.11766 2.48221 5.42612C2.66473 5.46885 2.85063 5.47959 3.02846 5.45769C3.20629 5.43579 3.37227 5.38171 3.51616 5.29878C3.66005 5.21586 3.77881 5.10584 3.8651 4.97552C3.95139 4.84519 4.00339 4.69733 4.0179 4.54105C3.65204 4.46932 3.28664 4.52172 2.99973 4.68708Z" fill="url(#paint19_linear_21313_17491)"/>
<path d="M1.53075 4.20227C1.52024 3.8851 1.65466 3.59324 1.90505 3.38961C2.04297 3.51009 2.15438 3.65077 2.23239 3.80297C2.3104 3.95517 2.35336 4.11567 2.35862 4.27455C2.36389 4.43343 2.33135 4.58733 2.26301 4.72675C2.19466 4.86617 2.09196 4.98816 1.96125 5.08518C1.69587 4.83652 1.54127 4.51944 1.53075 4.20227Z" fill="url(#paint20_linear_21313_17491)"/>
<path d="M3.74863 3.57249C3.43425 3.70277 3.20843 3.94274 3.12009 4.24038C3.29808 4.30168 3.48402 4.33222 3.66654 4.33012C3.84906 4.32802 4.02431 4.29333 4.18155 4.22818C4.33879 4.16302 4.47471 4.06877 4.58099 3.95119C4.68726 3.83361 4.76165 3.69519 4.7996 3.5444C4.44062 3.43213 4.06301 3.44222 3.74863 3.57249Z" fill="url(#paint21_linear_21313_17491)"/>
<path d="M2.33447 2.94021C2.36925 2.62891 2.54755 2.35823 2.83056 2.18712L2.82998 2.18813C2.9509 2.32141 3.04226 2.47123 3.09851 2.62851C3.15475 2.78579 3.17473 2.94725 3.15722 3.10311C3.14208 3.2587 3.08865 3.40551 3.00038 3.53404C2.91212 3.66258 2.79099 3.76995 2.64485 3.84921C2.41124 3.57823 2.29969 3.25151 2.33447 2.94021Z" fill="url(#paint22_linear_21313_17491)"/>
<path d="M4.6627 2.56651C4.32724 2.66007 4.06465 2.86919 3.93096 3.14928L3.9298 3.15129C4.10102 3.23104 4.28481 3.2816 4.46997 3.29988C4.65512 3.31816 4.83775 3.30378 5.00673 3.25762C5.17379 3.20789 5.32342 3.12846 5.44699 3.02391C5.57055 2.91936 5.6656 2.79177 5.72664 2.6485C5.37994 2.50238 4.99815 2.47296 4.6627 2.56651Z" fill="url(#paint23_linear_21313_17491)"/>
<path d="M3.32894 1.7987C3.40778 1.49882 3.62508 1.25358 3.93372 1.11615C4.03695 1.25843 4.10809 1.41381 4.14282 1.57283C4.17755 1.73185 4.17514 1.89118 4.13573 2.04107C4.09632 2.19097 4.02074 2.32831 3.91359 2.44471C3.80644 2.56111 3.66998 2.65412 3.51252 2.7181C3.31605 2.42892 3.25009 2.09858 3.32894 1.7987Z" fill="url(#paint24_linear_21313_17491)"/>
<path d="M7.714 7.664C7.75133 6.66533 8.078 5.89533 8.694 5.354C9.31 4.81267 10.1453 4.542 11.2 4.542C11.9 4.542 12.4973 4.66333 12.992 4.906C13.496 5.14867 13.874 5.48 14.126 5.9C14.3873 6.32 14.518 6.79133 14.518 7.314C14.518 7.93 14.364 8.434 14.056 8.826C13.748 9.20867 13.3887 9.47 12.978 9.61V9.666C13.51 9.84333 13.93 10.1373 14.238 10.548C14.546 10.9587 14.7 11.486 14.7 12.13C14.7 12.7087 14.5647 13.222 14.294 13.67C14.0327 14.1087 13.6453 14.454 13.132 14.706C12.628 14.958 12.026 15.084 11.326 15.084C10.206 15.084 9.31 14.8087 8.638 14.258C7.97533 13.7073 7.62533 12.8767 7.588 11.766H9.912C9.92133 12.1767 10.038 12.5033 10.262 12.746C10.486 12.9793 10.8127 13.096 11.242 13.096C11.606 13.096 11.886 12.9933 12.082 12.788C12.2873 12.5733 12.39 12.2933 12.39 11.948C12.39 11.5 12.2453 11.178 11.956 10.982C11.676 10.7767 11.2233 10.674 10.598 10.674H10.15V8.728H10.598C11.074 8.728 11.4567 8.64867 11.746 8.49C12.0447 8.322 12.194 8.028 12.194 7.608C12.194 7.272 12.1007 7.01067 11.914 6.824C11.7273 6.63733 11.4707 6.544 11.144 6.544C10.7893 6.544 10.5233 6.65133 10.346 6.866C10.178 7.08067 10.08 7.34667 10.052 7.664H7.714Z" fill="url(#paint25_linear_21313_17491)"/>
<path d="M15.0002 18.8074C14.9997 18.7802 15 18.753 15.0012 18.7256C15.0101 18.5119 15.0697 18.2964 15.1761 18.0923C15.2826 17.8882 15.4338 17.6999 15.6203 17.5389C15.8068 17.378 16.0247 17.2478 16.2607 17.1565C16.4225 17.54 16.3941 17.9834 16.1815 18.391C15.9887 18.7605 15.6585 19.0737 15.2521 19.276L15.0002 18.8074Z" fill="url(#paint26_linear_21313_17491)"/>
<path d="M15.3327 19.426C15.5418 19.2879 15.7551 19.1381 15.9791 18.9734C16.5029 18.5848 16.9992 18.1682 17.4643 17.7267C17.7194 17.4815 17.962 17.2284 18.2013 16.9698C20.3161 14.701 21.5077 11.9489 21.5579 9.21758C21.6081 6.4863 20.5134 3.95882 18.4745 2.09824C18.2957 2.12298 18.1176 2.11694 17.9506 2.08049C17.7835 2.04405 17.631 1.97793 17.5018 1.88599C17.3712 1.78935 17.2676 1.66843 17.1971 1.53031C17.1266 1.39218 17.0907 1.23959 17.0914 1.08145C17.4501 1.0396 17.7962 1.1166 18.0592 1.2968C18.3221 1.47694 18.4824 1.74671 18.5074 2.05131C19.1465 2.63474 19.7025 3.28418 20.1659 3.98859C21.5017 6.03833 21.9784 8.49514 21.5253 10.9957C21.0723 13.4963 19.7137 15.9079 17.6503 17.8739C17.1747 18.3281 16.6657 18.7558 16.1275 19.1535C15.8809 19.3332 15.6569 19.491 15.4438 19.6328L15.3327 19.426Z" fill="url(#paint27_linear_21313_17491)"/>
<path d="M17.1153 19.8417C17.6 19.7044 18.0269 19.4124 18.303 19.0293C18.1015 18.929 17.873 18.8683 17.6313 18.851C17.3897 18.8338 17.14 18.8603 16.8977 18.9289C16.6554 18.9976 16.4255 19.1069 16.2221 19.2502C16.0188 19.3936 15.8462 19.5679 15.7151 19.7625C16.1274 19.9505 16.6306 19.979 17.1153 19.8417Z" fill="url(#paint28_linear_21313_17491)"/>
<path d="M17.7997 16.8954C17.6674 17.3193 17.3531 17.7024 16.9247 17.9619C16.7964 17.7937 16.7129 17.5998 16.6794 17.3922C16.6458 17.1846 16.663 16.9677 16.7298 16.7548C16.7956 16.5432 16.9096 16.34 17.0648 16.158C17.22 15.9759 17.413 15.8189 17.6317 15.6966C17.8716 16.0409 17.9319 16.4715 17.7997 16.8954Z" fill="url(#paint29_linear_21313_17491)"/>
<path d="M19.0357 18.1454C19.4957 17.939 19.8666 17.5937 20.0686 17.1837C19.8444 17.1185 19.6012 17.0957 19.3538 17.1165C19.1064 17.1373 18.8599 17.2013 18.6294 17.3047C18.3983 17.4063 18.188 17.5462 18.0122 17.7154C17.8365 17.8847 17.699 18.0795 17.6086 18.2875C18.0633 18.4028 18.5757 18.3518 19.0357 18.1454Z" fill="url(#paint30_linear_21313_17491)"/>
<path d="M18.989 15.4815C18.9397 15.8635 18.719 16.2327 18.3752 16.5084C18.2309 16.3804 18.1233 16.224 18.0594 16.0491C17.9955 15.8742 17.9767 15.6848 18.0043 15.4931C18.0291 15.3028 18.0981 15.1138 18.2072 14.9377C18.3163 14.7616 18.4632 14.6021 18.6388 14.469C18.9125 14.7355 19.0384 15.0994 18.989 15.4815Z" fill="url(#paint31_linear_21313_17491)"/>
<path d="M20.2968 16.4122C20.6764 16.178 20.9532 15.8349 21.0674 15.4567C20.8557 15.427 20.6335 15.4365 20.4146 15.4848C20.1957 15.5331 19.9849 15.619 19.7954 15.7372C19.6059 15.8545 19.4411 16.0011 19.3109 16.1681C19.1807 16.3351 19.0879 16.519 19.038 16.7088C19.4652 16.7529 19.9172 16.6464 20.2968 16.4122Z" fill="url(#paint32_linear_21313_17491)"/>
<path d="M19.9502 13.8552C19.9687 14.2312 19.8139 14.6178 19.5191 14.932C19.3525 14.8265 19.2171 14.6895 19.1213 14.5295C19.0255 14.3695 18.9713 14.1898 18.962 14.0015C18.9527 13.8131 18.9885 13.6201 19.0673 13.4343C19.1461 13.2484 19.2661 13.0736 19.42 12.9206C19.7413 13.1436 19.9316 13.4791 19.9502 13.8552Z" fill="url(#paint33_linear_21313_17491)"/>
<path d="M21.4425 14.577C21.7829 14.2991 22.0002 13.9299 22.0477 13.5486C21.8292 13.5488 21.6073 13.5878 21.3953 13.663C21.1833 13.7383 20.9857 13.8483 20.8143 13.9864C20.645 14.127 20.5057 14.2922 20.4049 14.4722C20.3041 14.6522 20.2437 14.8434 20.2273 15.0344C20.6658 15.0191 21.1021 14.8548 21.4425 14.577Z" fill="url(#paint34_linear_21313_17491)"/>
<path d="M20.6244 12.1509C20.7118 12.5124 20.6261 12.908 20.3855 13.2524L20.3866 13.2544C20.1994 13.1748 20.0379 13.0607 19.9118 12.9191C19.7857 12.7774 19.6977 12.6112 19.6531 12.4304C19.6086 12.2491 19.6091 12.057 19.6547 11.8659C19.7002 11.6748 19.7899 11.4888 19.918 11.3194C20.2833 11.4907 20.537 11.7893 20.6244 12.1509Z" fill="url(#paint35_linear_21313_17491)"/>
<path d="M22.2607 12.6419C22.553 12.326 22.7034 11.9383 22.6791 11.5631C22.4591 11.594 22.2429 11.6629 22.0436 11.7656C21.8444 11.8683 21.6663 12.0026 21.5202 12.1605C21.3741 12.3183 21.2632 12.4963 21.194 12.6836C21.1249 12.8709 21.0991 13.0636 21.1182 13.2499C21.5578 13.1763 21.9684 12.9578 22.2607 12.6419Z" fill="url(#paint36_linear_21313_17491)"/>
<path d="M20.9933 10.4088C21.1469 10.7457 21.1324 11.1389 20.9529 11.5039C20.7495 11.4546 20.5657 11.3676 20.4133 11.2484C20.2609 11.1291 20.1431 10.9803 20.0674 10.8113C19.9912 10.6421 19.9575 10.4568 19.9686 10.2664C19.9797 10.076 20.0352 9.88458 20.1319 9.70357C20.5303 9.81874 20.8397 10.072 20.9933 10.4088Z" fill="url(#paint37_linear_21313_17491)"/>
<path d="M22.7322 10.6653C22.9711 10.3195 23.0547 9.92333 22.9647 9.56201C22.7469 9.62024 22.5395 9.71544 22.3554 9.84168C22.1713 9.96792 22.0145 10.1225 21.8947 10.2958C21.7749 10.4692 21.6947 10.6575 21.659 10.8492C21.6233 11.0409 21.6329 11.2318 21.6872 11.4101C22.1179 11.2785 22.4932 11.011 22.7322 10.6653Z" fill="url(#paint38_linear_21313_17491)"/>
<path d="M21.1722 8.87969C21.3588 9.15267 21.4033 9.49289 21.296 9.82672C21.1073 9.80549 20.9307 9.75018 20.777 9.66419C20.6233 9.57821 20.4958 9.46337 20.4024 9.32673C20.309 9.1901 20.2516 9.03456 20.2337 8.8697C20.2159 8.70483 20.2379 8.53413 20.2986 8.36808C20.6717 8.42292 20.9855 8.60671 21.1722 8.87969Z" fill="url(#paint39_linear_21313_17491)"/>
<path d="M22.7556 8.91194C22.9176 8.59027 22.9348 8.24234 22.8035 7.94271L22.8041 7.9424C22.6188 8.01582 22.448 8.11979 22.3024 8.24782C22.1567 8.37586 22.0394 8.52524 21.9576 8.68671C21.8788 8.84859 21.8363 9.01839 21.8327 9.18614C21.8291 9.35389 21.8644 9.51621 21.9366 9.66359C22.2996 9.50343 22.5935 9.23361 22.7556 8.91194Z" fill="url(#paint40_linear_21313_17491)"/>
<path d="M20.9906 7.35684C21.2214 7.60025 21.3206 7.9252 21.2671 8.26237C21.0726 8.26544 20.8848 8.23341 20.7154 8.1683C20.546 8.1032 20.3986 8.00642 20.2826 7.88405C20.1666 7.76168 20.0844 7.61637 20.0412 7.45725C19.9981 7.29813 19.9948 7.12865 20.0317 6.95945C20.4157 6.97083 20.7598 7.11343 20.9906 7.35684Z" fill="url(#paint41_linear_21313_17491)"/>
<path d="M22.592 7.19643C22.7027 6.86389 22.6629 6.52367 22.4811 6.2488C22.3073 6.34365 22.1533 6.46598 22.0285 6.60831C21.9037 6.75064 21.8108 6.90996 21.7553 7.0765C21.6999 7.24303 21.6831 7.41328 21.7061 7.57679C21.7291 7.74031 21.7914 7.89365 21.8891 8.02741C22.229 7.82732 22.4813 7.52897 22.592 7.19643Z" fill="url(#paint42_linear_21313_17491)"/>
<path d="M20.5616 5.89869C20.8338 6.10717 20.9865 6.41096 20.9872 6.74521L20.9863 6.7437C20.7919 6.76798 20.5989 6.75878 20.4185 6.71664C20.2381 6.67449 20.074 6.60024 19.9358 6.49825C19.7984 6.39349 19.6915 6.26222 19.6217 6.11268C19.552 5.96315 19.5208 5.7986 19.5303 5.62936C19.9193 5.59356 20.2894 5.69021 20.5616 5.89869Z" fill="url(#paint43_linear_21313_17491)"/>
<path d="M22.1528 5.54827C22.212 5.21087 22.1164 4.8841 21.8871 4.63923C21.726 4.75157 21.5893 4.88883 21.4858 5.04237C21.3823 5.19591 21.3141 5.36239 21.2856 5.53129C21.2576 5.69973 21.2685 5.86695 21.3176 6.02309C21.3667 6.17923 21.453 6.3211 21.5715 6.44032C21.8847 6.20635 22.0937 5.88568 22.1528 5.54827Z" fill="url(#paint44_linear_21313_17491)"/>
<path d="M20.0003 4.68708C20.2872 4.85244 20.4729 5.11766 20.5178 5.42612C20.3353 5.46885 20.1494 5.47959 19.9715 5.45769C19.7937 5.43579 19.6277 5.38171 19.4838 5.29878C19.34 5.21586 19.2212 5.10584 19.1349 4.97552C19.0486 4.84519 18.9966 4.69733 18.9821 4.54105C19.348 4.46932 19.7134 4.52172 20.0003 4.68708Z" fill="url(#paint45_linear_21313_17491)"/>
<path d="M21.4692 4.20227C21.4798 3.8851 21.3453 3.59324 21.0949 3.38961C20.957 3.51009 20.8456 3.65077 20.7676 3.80297C20.6896 3.95517 20.6466 4.11567 20.6414 4.27455C20.6361 4.43343 20.6686 4.58733 20.737 4.72675C20.8053 4.86617 20.908 4.98816 21.0388 5.08518C21.3041 4.83652 21.4587 4.51944 21.4692 4.20227Z" fill="url(#paint46_linear_21313_17491)"/>
<path d="M19.2514 3.57249C19.5658 3.70277 19.7916 3.94274 19.8799 4.24038C19.7019 4.30168 19.516 4.33222 19.3335 4.33012C19.1509 4.32802 18.9757 4.29333 18.8184 4.22818C18.6612 4.16302 18.5253 4.06877 18.419 3.95119C18.3127 3.83361 18.2383 3.69519 18.2004 3.5444C18.5594 3.43213 18.937 3.44222 19.2514 3.57249Z" fill="url(#paint47_linear_21313_17491)"/>
<path d="M20.6655 2.94021C20.6307 2.62891 20.4524 2.35823 20.1694 2.18712L20.17 2.18813C20.0491 2.32141 19.9577 2.47123 19.9015 2.62851C19.8452 2.78579 19.8253 2.94725 19.8428 3.10311C19.8579 3.2587 19.9114 3.40551 19.9996 3.53404C20.0879 3.66258 20.209 3.76995 20.3552 3.84921C20.5888 3.57823 20.7003 3.25151 20.6655 2.94021Z" fill="url(#paint48_linear_21313_17491)"/>
<path d="M18.3373 2.56651C18.6728 2.66007 18.9353 2.86919 19.069 3.14928L19.0702 3.15129C18.899 3.23104 18.7152 3.2816 18.53 3.29988C18.3449 3.31816 18.1623 3.30378 17.9933 3.25762C17.8262 3.20789 17.6766 3.12846 17.553 3.02391C17.4295 2.91936 17.3344 2.79177 17.2734 2.6485C17.6201 2.50238 18.0018 2.47296 18.3373 2.56651Z" fill="url(#paint49_linear_21313_17491)"/>
<path d="M19.6711 1.7987C19.5922 1.49882 19.3749 1.25358 19.0663 1.11615C18.9631 1.25843 18.8919 1.41381 18.8572 1.57283C18.8224 1.73185 18.8249 1.89118 18.8643 2.04107C18.9037 2.19097 18.9793 2.32831 19.0864 2.44471C19.1936 2.56111 19.33 2.65412 19.4875 2.7181C19.6839 2.42892 19.7499 2.09858 19.6711 1.7987Z" fill="url(#paint50_linear_21313_17491)"/>
<defs>
<linearGradient id="paint0_linear_21313_17491" x1="4" y1="1.07031" x2="4" y2="19.9275" gradientUnits="userSpaceOnUse">
<stop stop-color="#E38E5B"/>
<stop offset="0.313716" stop-color="#F0C2A2"/>
<stop offset="1" stop-color="#CC804F"/>
</linearGradient>
<linearGradient id="paint1_linear_21313_17491" x1="4" y1="1.07031" x2="4" y2="19.9275" gradientUnits="userSpaceOnUse">
<stop stop-color="#E38E5B"/>
<stop offset="0.313716" stop-color="#F0C2A2"/>
<stop offset="1" stop-color="#CC804F"/>
</linearGradient>
<linearGradient id="paint2_linear_21313_17491" x1="4" y1="1.07031" x2="4" y2="19.9275" gradientUnits="userSpaceOnUse">
<stop stop-color="#E38E5B"/>
<stop offset="0.313716" stop-color="#F0C2A2"/>
<stop offset="1" stop-color="#CC804F"/>
</linearGradient>
<linearGradient id="paint3_linear_21313_17491" x1="4" y1="1.07031" x2="4" y2="19.9275" gradientUnits="userSpaceOnUse">
<stop stop-color="#E38E5B"/>
<stop offset="0.313716" stop-color="#F0C2A2"/>
<stop offset="1" stop-color="#CC804F"/>
</linearGradient>
<linearGradient id="paint4_linear_21313_17491" x1="4" y1="1.07031" x2="4" y2="19.9275" gradientUnits="userSpaceOnUse">
<stop stop-color="#E38E5B"/>
<stop offset="0.313716" stop-color="#F0C2A2"/>
<stop offset="1" stop-color="#CC804F"/>
</linearGradient>
<linearGradient id="paint5_linear_21313_17491" x1="4" y1="1.07031" x2="4" y2="19.9275" gradientUnits="userSpaceOnUse">
<stop stop-color="#E38E5B"/>
<stop offset="0.313716" stop-color="#F0C2A2"/>
<stop offset="1" stop-color="#CC804F"/>
</linearGradient>
<linearGradient id="paint6_linear_21313_17491" x1="4" y1="1.07031" x2="4" y2="19.9275" gradientUnits="userSpaceOnUse">
<stop stop-color="#E38E5B"/>
<stop offset="0.313716" stop-color="#F0C2A2"/>
<stop offset="1" stop-color="#CC804F"/>
</linearGradient>
<linearGradient id="paint7_linear_21313_17491" x1="4" y1="1.07031" x2="4" y2="19.9275" gradientUnits="userSpaceOnUse">
<stop stop-color="#E38E5B"/>
<stop offset="0.313716" stop-color="#F0C2A2"/>
<stop offset="1" stop-color="#CC804F"/>
</linearGradient>
<linearGradient id="paint8_linear_21313_17491" x1="4" y1="1.07031" x2="4" y2="19.9275" gradientUnits="userSpaceOnUse">
<stop stop-color="#E38E5B"/>
<stop offset="0.313716" stop-color="#F0C2A2"/>
<stop offset="1" stop-color="#CC804F"/>
</linearGradient>
<linearGradient id="paint9_linear_21313_17491" x1="4" y1="1.07031" x2="4" y2="19.9275" gradientUnits="userSpaceOnUse">
<stop stop-color="#E38E5B"/>
<stop offset="0.313716" stop-color="#F0C2A2"/>
<stop offset="1" stop-color="#CC804F"/>
</linearGradient>
<linearGradient id="paint10_linear_21313_17491" x1="4" y1="1.07031" x2="4" y2="19.9275" gradientUnits="userSpaceOnUse">
<stop stop-color="#E38E5B"/>
<stop offset="0.313716" stop-color="#F0C2A2"/>
<stop offset="1" stop-color="#CC804F"/>
</linearGradient>
<linearGradient id="paint11_linear_21313_17491" x1="4" y1="1.07031" x2="4" y2="19.9275" gradientUnits="userSpaceOnUse">
<stop stop-color="#E38E5B"/>
<stop offset="0.313716" stop-color="#F0C2A2"/>
<stop offset="1" stop-color="#CC804F"/>
</linearGradient>
<linearGradient id="paint12_linear_21313_17491" x1="4" y1="1.07031" x2="4" y2="19.9275" gradientUnits="userSpaceOnUse">
<stop stop-color="#E38E5B"/>
<stop offset="0.313716" stop-color="#F0C2A2"/>
<stop offset="1" stop-color="#CC804F"/>
</linearGradient>
<linearGradient id="paint13_linear_21313_17491" x1="4" y1="1.07031" x2="4" y2="19.9275" gradientUnits="userSpaceOnUse">
<stop stop-color="#E38E5B"/>
<stop offset="0.313716" stop-color="#F0C2A2"/>
<stop offset="1" stop-color="#CC804F"/>
</linearGradient>
<linearGradient id="paint14_linear_21313_17491" x1="4" y1="1.07031" x2="4" y2="19.9275" gradientUnits="userSpaceOnUse">
<stop stop-color="#E38E5B"/>
<stop offset="0.313716" stop-color="#F0C2A2"/>
<stop offset="1" stop-color="#CC804F"/>
</linearGradient>
<linearGradient id="paint15_linear_21313_17491" x1="4" y1="1.07031" x2="4" y2="19.9275" gradientUnits="userSpaceOnUse">
<stop stop-color="#E38E5B"/>
<stop offset="0.313716" stop-color="#F0C2A2"/>
<stop offset="1" stop-color="#CC804F"/>
</linearGradient>
<linearGradient id="paint16_linear_21313_17491" x1="4" y1="1.07031" x2="4" y2="19.9275" gradientUnits="userSpaceOnUse">
<stop stop-color="#E38E5B"/>
<stop offset="0.313716" stop-color="#F0C2A2"/>
<stop offset="1" stop-color="#CC804F"/>
</linearGradient>
<linearGradient id="paint17_linear_21313_17491" x1="4" y1="1.07031" x2="4" y2="19.9275" gradientUnits="userSpaceOnUse">
<stop stop-color="#E38E5B"/>
<stop offset="0.313716" stop-color="#F0C2A2"/>
<stop offset="1" stop-color="#CC804F"/>
</linearGradient>
<linearGradient id="paint18_linear_21313_17491" x1="4" y1="1.07031" x2="4" y2="19.9275" gradientUnits="userSpaceOnUse">
<stop stop-color="#E38E5B"/>
<stop offset="0.313716" stop-color="#F0C2A2"/>
<stop offset="1" stop-color="#CC804F"/>
</linearGradient>
<linearGradient id="paint19_linear_21313_17491" x1="4" y1="1.07031" x2="4" y2="19.9275" gradientUnits="userSpaceOnUse">
<stop stop-color="#E38E5B"/>
<stop offset="0.313716" stop-color="#F0C2A2"/>
<stop offset="1" stop-color="#CC804F"/>
</linearGradient>
<linearGradient id="paint20_linear_21313_17491" x1="4" y1="1.07031" x2="4" y2="19.9275" gradientUnits="userSpaceOnUse">
<stop stop-color="#E38E5B"/>
<stop offset="0.313716" stop-color="#F0C2A2"/>
<stop offset="1" stop-color="#CC804F"/>
</linearGradient>
<linearGradient id="paint21_linear_21313_17491" x1="4" y1="1.07031" x2="4" y2="19.9275" gradientUnits="userSpaceOnUse">
<stop stop-color="#E38E5B"/>
<stop offset="0.313716" stop-color="#F0C2A2"/>
<stop offset="1" stop-color="#CC804F"/>
</linearGradient>
<linearGradient id="paint22_linear_21313_17491" x1="4" y1="1.07031" x2="4" y2="19.9275" gradientUnits="userSpaceOnUse">
<stop stop-color="#E38E5B"/>
<stop offset="0.313716" stop-color="#F0C2A2"/>
<stop offset="1" stop-color="#CC804F"/>
</linearGradient>
<linearGradient id="paint23_linear_21313_17491" x1="4" y1="1.07031" x2="4" y2="19.9275" gradientUnits="userSpaceOnUse">
<stop stop-color="#E38E5B"/>
<stop offset="0.313716" stop-color="#F0C2A2"/>
<stop offset="1" stop-color="#CC804F"/>
</linearGradient>
<linearGradient id="paint24_linear_21313_17491" x1="4" y1="1.07031" x2="4" y2="19.9275" gradientUnits="userSpaceOnUse">
<stop stop-color="#E38E5B"/>
<stop offset="0.313716" stop-color="#F0C2A2"/>
<stop offset="1" stop-color="#CC804F"/>
</linearGradient>
<linearGradient id="paint25_linear_21313_17491" x1="11.5" y1="2.5" x2="11.5" y2="15.5" gradientUnits="userSpaceOnUse">
<stop stop-color="#E38E5B"/>
<stop offset="0.313716" stop-color="#F0C2A2"/>
<stop offset="1" stop-color="#CC804F"/>
</linearGradient>
<linearGradient id="paint26_linear_21313_17491" x1="19" y1="1.07031" x2="19" y2="19.9275" gradientUnits="userSpaceOnUse">
<stop stop-color="#E38E5B"/>
<stop offset="0.313716" stop-color="#F0C2A2"/>
<stop offset="1" stop-color="#CC804F"/>
</linearGradient>
<linearGradient id="paint27_linear_21313_17491" x1="19" y1="1.07031" x2="19" y2="19.9275" gradientUnits="userSpaceOnUse">
<stop stop-color="#E38E5B"/>
<stop offset="0.313716" stop-color="#F0C2A2"/>
<stop offset="1" stop-color="#CC804F"/>
</linearGradient>
<linearGradient id="paint28_linear_21313_17491" x1="19" y1="1.07031" x2="19" y2="19.9275" gradientUnits="userSpaceOnUse">
<stop stop-color="#E38E5B"/>
<stop offset="0.313716" stop-color="#F0C2A2"/>
<stop offset="1" stop-color="#CC804F"/>
</linearGradient>
<linearGradient id="paint29_linear_21313_17491" x1="19" y1="1.07031" x2="19" y2="19.9275" gradientUnits="userSpaceOnUse">
<stop stop-color="#E38E5B"/>
<stop offset="0.313716" stop-color="#F0C2A2"/>
<stop offset="1" stop-color="#CC804F"/>
</linearGradient>
<linearGradient id="paint30_linear_21313_17491" x1="19" y1="1.07031" x2="19" y2="19.9275" gradientUnits="userSpaceOnUse">
<stop stop-color="#E38E5B"/>
<stop offset="0.313716" stop-color="#F0C2A2"/>
<stop offset="1" stop-color="#CC804F"/>
</linearGradient>
<linearGradient id="paint31_linear_21313_17491" x1="19" y1="1.07031" x2="19" y2="19.9275" gradientUnits="userSpaceOnUse">
<stop stop-color="#E38E5B"/>
<stop offset="0.313716" stop-color="#F0C2A2"/>
<stop offset="1" stop-color="#CC804F"/>
</linearGradient>
<linearGradient id="paint32_linear_21313_17491" x1="19" y1="1.07031" x2="19" y2="19.9275" gradientUnits="userSpaceOnUse">
<stop stop-color="#E38E5B"/>
<stop offset="0.313716" stop-color="#F0C2A2"/>
<stop offset="1" stop-color="#CC804F"/>
</linearGradient>
<linearGradient id="paint33_linear_21313_17491" x1="19" y1="1.07031" x2="19" y2="19.9275" gradientUnits="userSpaceOnUse">
<stop stop-color="#E38E5B"/>
<stop offset="0.313716" stop-color="#F0C2A2"/>
<stop offset="1" stop-color="#CC804F"/>
</linearGradient>
<linearGradient id="paint34_linear_21313_17491" x1="19" y1="1.07031" x2="19" y2="19.9275" gradientUnits="userSpaceOnUse">
<stop stop-color="#E38E5B"/>
<stop offset="0.313716" stop-color="#F0C2A2"/>
<stop offset="1" stop-color="#CC804F"/>
</linearGradient>
<linearGradient id="paint35_linear_21313_17491" x1="19" y1="1.07031" x2="19" y2="19.9275" gradientUnits="userSpaceOnUse">
<stop stop-color="#E38E5B"/>
<stop offset="0.313716" stop-color="#F0C2A2"/>
<stop offset="1" stop-color="#CC804F"/>
</linearGradient>
<linearGradient id="paint36_linear_21313_17491" x1="19" y1="1.07031" x2="19" y2="19.9275" gradientUnits="userSpaceOnUse">
<stop stop-color="#E38E5B"/>
<stop offset="0.313716" stop-color="#F0C2A2"/>
<stop offset="1" stop-color="#CC804F"/>
</linearGradient>
<linearGradient id="paint37_linear_21313_17491" x1="19" y1="1.07031" x2="19" y2="19.9275" gradientUnits="userSpaceOnUse">
<stop stop-color="#E38E5B"/>
<stop offset="0.313716" stop-color="#F0C2A2"/>
<stop offset="1" stop-color="#CC804F"/>
</linearGradient>
<linearGradient id="paint38_linear_21313_17491" x1="19" y1="1.07031" x2="19" y2="19.9275" gradientUnits="userSpaceOnUse">
<stop stop-color="#E38E5B"/>
<stop offset="0.313716" stop-color="#F0C2A2"/>
<stop offset="1" stop-color="#CC804F"/>
</linearGradient>
<linearGradient id="paint39_linear_21313_17491" x1="19" y1="1.07031" x2="19" y2="19.9275" gradientUnits="userSpaceOnUse">
<stop stop-color="#E38E5B"/>
<stop offset="0.313716" stop-color="#F0C2A2"/>
<stop offset="1" stop-color="#CC804F"/>
</linearGradient>
<linearGradient id="paint40_linear_21313_17491" x1="19" y1="1.07031" x2="19" y2="19.9275" gradientUnits="userSpaceOnUse">
<stop stop-color="#E38E5B"/>
<stop offset="0.313716" stop-color="#F0C2A2"/>
<stop offset="1" stop-color="#CC804F"/>
</linearGradient>
<linearGradient id="paint41_linear_21313_17491" x1="19" y1="1.07031" x2="19" y2="19.9275" gradientUnits="userSpaceOnUse">
<stop stop-color="#E38E5B"/>
<stop offset="0.313716" stop-color="#F0C2A2"/>
<stop offset="1" stop-color="#CC804F"/>
</linearGradient>
<linearGradient id="paint42_linear_21313_17491" x1="19" y1="1.07031" x2="19" y2="19.9275" gradientUnits="userSpaceOnUse">
<stop stop-color="#E38E5B"/>
<stop offset="0.313716" stop-color="#F0C2A2"/>
<stop offset="1" stop-color="#CC804F"/>
</linearGradient>
<linearGradient id="paint43_linear_21313_17491" x1="19" y1="1.07031" x2="19" y2="19.9275" gradientUnits="userSpaceOnUse">
<stop stop-color="#E38E5B"/>
<stop offset="0.313716" stop-color="#F0C2A2"/>
<stop offset="1" stop-color="#CC804F"/>
</linearGradient>
<linearGradient id="paint44_linear_21313_17491" x1="19" y1="1.07031" x2="19" y2="19.9275" gradientUnits="userSpaceOnUse">
<stop stop-color="#E38E5B"/>
<stop offset="0.313716" stop-color="#F0C2A2"/>
<stop offset="1" stop-color="#CC804F"/>
</linearGradient>
<linearGradient id="paint45_linear_21313_17491" x1="19" y1="1.07031" x2="19" y2="19.9275" gradientUnits="userSpaceOnUse">
<stop stop-color="#E38E5B"/>
<stop offset="0.313716" stop-color="#F0C2A2"/>
<stop offset="1" stop-color="#CC804F"/>
</linearGradient>
<linearGradient id="paint46_linear_21313_17491" x1="19" y1="1.07031" x2="19" y2="19.9275" gradientUnits="userSpaceOnUse">
<stop stop-color="#E38E5B"/>
<stop offset="0.313716" stop-color="#F0C2A2"/>
<stop offset="1" stop-color="#CC804F"/>
</linearGradient>
<linearGradient id="paint47_linear_21313_17491" x1="19" y1="1.07031" x2="19" y2="19.9275" gradientUnits="userSpaceOnUse">
<stop stop-color="#E38E5B"/>
<stop offset="0.313716" stop-color="#F0C2A2"/>
<stop offset="1" stop-color="#CC804F"/>
</linearGradient>
<linearGradient id="paint48_linear_21313_17491" x1="19" y1="1.07031" x2="19" y2="19.9275" gradientUnits="userSpaceOnUse">
<stop stop-color="#E38E5B"/>
<stop offset="0.313716" stop-color="#F0C2A2"/>
<stop offset="1" stop-color="#CC804F"/>
</linearGradient>
<linearGradient id="paint49_linear_21313_17491" x1="19" y1="1.07031" x2="19" y2="19.9275" gradientUnits="userSpaceOnUse">
<stop stop-color="#E38E5B"/>
<stop offset="0.313716" stop-color="#F0C2A2"/>
<stop offset="1" stop-color="#CC804F"/>
</linearGradient>
<linearGradient id="paint50_linear_21313_17491" x1="19" y1="1.07031" x2="19" y2="19.9275" gradientUnits="userSpaceOnUse">
<stop stop-color="#E38E5B"/>
<stop offset="0.313716" stop-color="#F0C2A2"/>
<stop offset="1" stop-color="#CC804F"/>
</linearGradient>
</defs>
</svg>
