<svg width="30" height="31" viewBox="0 0 30 31" fill="none" xmlns="http://www.w3.org/2000/svg">
      <path
        d="M28.2463 12.3078C28.5089 13.0272 28.4947 13.8341 28.1493 14.518C27.5908 15.6254 26.436 16.4016 25.1298 16.4016C23.2864 16.4016 21.753 14.8658 21.753 13.0248C21.753 14.8658 20.2172 16.4016 18.3762 16.4016C16.5351 16.4016 14.9994 14.8658 14.9994 13.0248C14.9994 14.8658 13.4636 16.4016 11.6226 16.4016C9.77915 16.4016 8.24575 14.8658 8.24575 13.0248C8.24575 14.8658 6.70997 16.4016 4.86894 16.4016C3.56507 16.4016 2.41265 15.6302 1.85182 14.5274C1.5016 13.8365 1.49214 13.0201 1.76427 12.2936L3.63607 7.30292C3.71001 7.10716 3.84172 6.9385 4.01373 6.81932C4.18574 6.70014 4.38991 6.63607 4.59917 6.63561H25.4611C25.8917 6.63561 26.2775 6.90537 26.4265 7.31002L28.2463 12.3078ZM24.2708 5.34594H5.72557C5.05115 5.34594 4.4359 4.79221 4.4359 4.05627C4.4359 3.38185 4.98963 2.82812 5.72557 2.82812H24.2708C24.9452 2.82812 25.5604 3.38185 25.5604 4.11779C25.5604 4.79221 25.0091 5.34594 24.2708 5.34594ZM5.29489 17.6274C5.41794 17.6274 5.54099 17.6274 5.66404 17.5659H5.72557C5.78709 17.5659 5.84862 17.5659 5.91014 17.5043C6.15624 17.4428 6.34082 17.3813 6.58456 17.3198V23.5835H23.4733V17.3198C23.7194 17.3813 23.904 17.4428 24.1477 17.5043C24.2093 17.5043 24.2708 17.5043 24.3323 17.5659H24.3938C24.5169 17.5659 24.6399 17.6274 24.763 17.6274H25.1937C25.5013 17.6274 25.7474 17.6274 26.0527 17.5659V26.1013C26.0527 26.7758 25.4989 27.391 24.763 27.391H5.29489C4.62047 27.391 4.00522 26.8373 4.00522 26.1013V17.5659C4.25132 17.6274 4.55895 17.6274 4.86421 17.6274H5.29489Z"
        fill="currentColor"
      />
    </svg>