<svg width="30" height="31" viewBox="0 0 30 31" fill="none" xmlns="http://www.w3.org/2000/svg">
      <path
        d="M10.6572 16.227C11.6855 16.227 12.5193 17.0608 12.5193 18.0891V25.3501C12.5193 26.3784 11.6855 27.2122 10.6572 27.2122H8.70452C7.16159 27.2122 5.91183 25.9615 5.91183 24.4195V19.0206C5.91183 17.4777 7.16249 16.2279 8.70452 16.2279H10.6572V16.227ZM21.377 16.227C22.9199 16.227 24.1697 17.4777 24.1697 19.0197V24.4186C24.1697 25.9615 22.919 27.2113 21.377 27.2113H19.4243C18.396 27.2113 17.5622 26.3775 17.5622 25.3492V18.0882C17.5622 17.0599 18.396 16.2261 19.4243 16.2261L21.377 16.227ZM15.0009 3.00586C22.3434 3.00586 28.317 8.84945 28.4963 16.1257L28.5008 16.4628V21.9594C28.5008 22.7179 27.884 23.3329 27.1228 23.3329C26.4092 23.3329 25.8229 22.7923 25.752 22.1002L25.7449 21.9594V16.4628C25.7449 10.5475 20.9341 5.75283 15 5.75283C9.16623 5.75283 4.4191 10.387 4.25952 16.1633L4.25504 16.4628V21.9764C4.25504 22.7349 3.63823 23.3499 2.87707 23.3499C2.16343 23.3499 1.5771 22.8093 1.50717 22.1172L1.5 21.9764V16.4628C1.5 9.03144 7.54441 3.00676 15 3.00676L15.0009 3.00586Z"
        fill="currentColor"
      />
    </svg>