<svg width="30" height="31" viewBox="0 0 30 31" fill="none" xmlns="http://www.w3.org/2000/svg">
      <path
        d="M15.0381 15.3889C16.3707 15.3821 17.6714 14.9807 18.7761 14.2354C19.8809 13.4901 20.7401 12.4343 21.2453 11.2012C21.7506 9.96807 21.8793 8.61292 21.6152 7.30674C21.351 6.00056 20.7059 4.80189 19.7612 3.86198C18.8165 2.92207 17.6146 2.28305 16.3071 2.02556C14.9996 1.76806 13.6451 1.90363 12.4146 2.41516C11.184 2.92668 10.1326 3.79124 9.39292 4.89974C8.65325 6.00823 8.2585 7.31098 8.25848 8.6436C8.25986 9.5319 8.43642 10.4112 8.77804 11.2312C9.11966 12.0512 9.61963 12.7957 10.2494 13.4223C10.8791 14.0488 11.6262 14.545 12.4479 14.8824C13.2696 15.2199 14.1498 15.392 15.0381 15.3889ZM16.3248 15.6716L15.3842 16.6306L17.3023 22.8871L15.0037 25.6269L12.6998 22.8871L14.618 16.6306L13.6774 15.6716C7.74063 16.3109 3.04564 21.1935 2.56742 27.2941C2.54764 27.544 2.6273 27.7916 2.78908 27.9831C2.95087 28.1745 3.1817 28.2944 3.43139 28.3166L3.50008 28.3192H26.4968C26.7475 28.3164 26.9868 28.2146 27.1625 28.0358C27.3383 27.8571 27.4362 27.6161 27.4348 27.3654L27.4321 27.2967C26.9565 21.1935 22.2589 16.3109 16.3248 15.6716Z"
        fill="currentColor"
      />
    </svg>