<svg width="16" height="16" viewBox="0 0 16 16" fill="none" xmlns="http://www.w3.org/2000/svg">
  <path
    d="M8 0C12.4183 0 16 3.58172 16 8C16 12.4183 12.4183 16 8 16C3.58172 16 0 12.4183 0 8C0 3.58172 3.58172 0 8 0ZM5.67676 4.42969C5.41849 4.42969 5.13477 4.6396 5.13477 4.89844V12.6152C5.13489 12.8729 5.41219 13.083 5.66992 13.083C5.92739 13.0829 6.21074 12.8728 6.21094 12.6152V4.89844C6.21094 4.6397 5.9344 4.42983 5.67676 4.42969ZM8.19629 4.4502C7.64046 4.4502 7.165 4.61506 6.8916 4.73535C6.73401 4.80471 6.64379 4.96454 6.64355 5.13672L6.63867 8.64746C6.63837 9.02995 7.07403 9.29526 7.44531 9.20312C7.66665 9.14819 7.92208 9.1084 8.19629 9.1084C9.71383 9.10843 9.714 9.73036 11.2314 9.73047C11.8714 9.73047 12.5137 9.50412 12.8643 9.35645C13.0332 9.28526 13.1348 9.1169 13.1348 8.93359V5.38672C13.1346 5.01715 12.7345 4.76523 12.3818 4.87598C12.0483 4.9807 11.6393 5.07227 11.2314 5.07227C9.71399 5.07216 9.71383 4.45023 8.19629 4.4502Z"
    fill="#697072" />
</svg>