<svg xmlns="http://www.w3.org/2000/svg" width="56" height="86" viewBox="0 0 56 86" fill="none">
  <path d="M7.74829 48.3064V70.8274H0.839844V38.2422C2.42614 42.0719 4.78993 45.4997 7.74829 48.3064Z" fill="#0C704E"/>
  <path d="M55.4571 37.1274V70.8392H48.5391V47.791C51.5239 44.8061 53.8708 41.1714 55.3464 37.125H55.4571V37.1274Z" fill="#0C704E"/>
  <path d="M43.8362 51.6016V70.8369H36.9277V54.9138C39.3854 54.117 41.7131 53.0001 43.8362 51.6016Z" fill="#0C704E"/>
  <path d="M31.6028 56.1094V70.8386H24.6943V56.1744C25.7366 56.2875 26.7982 56.3429 27.8766 56.3429C29.1331 56.3429 30.3824 56.2682 31.6028 56.1094Z" fill="#0C704E"/>
  <path d="M19.6798 55.1754V70.8338H12.7617V52.1328C14.9017 53.4278 17.2197 54.4605 19.6798 55.1754Z" fill="#0C704E"/>
  <path d="M30.4208 9.64062V10.1196C30.4208 10.1196 30.4111 10.045 30.4111 9.92226C30.4111 9.84764 30.4111 9.75376 30.4208 9.64062Z" fill="#E0BC6C"/>
  <path d="M26.3163 9.92226C26.3163 10.045 26.3066 10.1196 26.3066 10.1196V9.64062C26.3163 9.75376 26.3163 9.84764 26.3163 9.92226Z" fill="#E0BC6C"/>
  <path d="M30.4208 27.3125V27.7915C30.4111 27.6784 30.4111 27.5845 30.4111 27.5099C30.4111 27.3895 30.4208 27.3125 30.4208 27.3125Z" fill="#E0BC6C"/>
  <path d="M26.3163 27.5099C26.3163 27.5845 26.3163 27.6784 26.3066 27.7915V27.3125C26.3066 27.3125 26.3163 27.3895 26.3163 27.5099Z" fill="#E0BC6C"/>
  <path d="M46.5868 6.45109C48.6425 9.73682 49.8268 13.6147 49.8268 17.7646C49.8268 27.9973 42.6367 36.5594 33.013 38.6536C33.2489 38.579 33.4824 38.5044 33.7183 38.4273C33.8603 38.3816 33.9903 38.3431 34.1227 38.2853C36.7609 37.3176 39.0693 35.7313 40.8626 33.7045C41.8496 32.5973 42.6752 31.3576 43.3035 30.0144C44.2615 28.0141 44.7863 25.7996 44.7863 23.4622C44.7863 18.9561 42.8244 14.8808 39.6615 11.9995C40.93 13.9324 41.6522 16.2048 41.6522 18.6456C41.6522 24.4756 37.4927 29.3765 31.8407 30.7943C30.7238 29.9205 30.4711 28.5702 30.4229 27.8288V27.7902C30.4133 27.6771 30.4133 27.5832 30.4133 27.5086V9.92457C30.4133 9.84995 30.4133 9.75607 30.4229 9.64294V9.60442C30.4783 8.72101 30.8273 6.94696 32.6014 6.18631H30.3098C30.3098 6.18631 31.3425 5.63267 31.3136 4.28949C31.2943 2.94632 28.348 0 28.348 0C28.348 0 25.3993 2.94873 25.3824 4.28949C25.3535 5.63267 26.3862 6.18631 26.3862 6.18631H24.1331C25.9072 6.94696 26.2538 8.72101 26.3116 9.60442V9.64294C26.3212 9.75607 26.3212 9.84995 26.3212 9.92457L26.3116 27.8264C26.2658 28.5485 26.0203 29.8724 24.9491 30.7462C19.4007 29.273 15.3351 24.4082 15.3351 18.6456C15.3351 15.5933 16.4809 12.7866 18.3681 10.6106C14.2182 13.4919 11.515 18.1762 11.515 23.4622C11.515 25.7996 12.0397 28.0165 12.9978 30.0144C13.7031 31.4972 14.6322 32.8693 15.7684 34.0608C17.28 35.676 19.1383 36.9903 21.2229 37.9002C12.9617 34.9418 7.04736 27.0392 7.04736 17.7622C7.04736 12.5604 8.90566 7.79186 11.9844 4.08489C5.2348 8.99542 0.841797 16.9654 0.841797 25.9584C0.841797 29.9398 1.69633 33.7214 3.25374 37.1203C4.3899 39.655 5.9112 41.973 7.75024 44.0119C10.5762 47.1748 14.1436 49.6638 18.1707 51.2019C18.669 51.3993 19.1745 51.5774 19.6824 51.7363C21.2975 52.2514 22.9681 52.6197 24.6964 52.8171C25.7387 52.9399 26.8002 53.0049 27.8786 53.0049C29.1448 53.0049 30.3844 52.9206 31.6048 52.7425C33.4439 52.4994 35.2276 52.0565 36.927 51.4475C37.1533 51.3728 37.3675 51.2982 37.5841 51.2043C41.864 49.5603 45.6287 46.8571 48.539 43.4029C50.1349 41.5157 51.4781 39.4046 52.5011 37.1227C54.0585 33.7238 54.913 29.9398 54.913 25.9608C54.913 18.2893 51.7212 11.3616 46.5868 6.45109ZM29.7345 12.8733H26.9567V7.72927H29.7345V12.8733Z" fill="#E0BC6C"/>
  <path d="M0.836996 74.375H4.49342L6.37579 78.7151L8.63608 74.375H12.3166V85.4478H8.25575V81.7841L6.57799 85.4478L4.56082 81.7841V85.4478H0.5V74.375H0.836996Z" fill="#678F73"/>
  <path d="M14 74.375V79.0448L17.0691 85.4478H20.4198L21.2936 83.1201L22.1361 85.4478H25.5012L28.539 79.0448V74.375H24.8585V79.0617L24.0329 80.4482L23.472 79.0617V74.375H19.0814V79.0617L18.6193 80.4313L18.0584 79.0785V74.375H14Z" fill="#678F73"/>
  <path d="M41.7316 85.5104L37.6467 74.375H33.273L29.5371 85.5104H33.9783L33.959 84.8147H37.3386V85.5104H41.7316ZM35.5742 81.2016C34.8232 81.2016 34.2214 80.7876 34.2214 80.2725C34.2214 79.7646 34.8232 79.3529 35.5742 79.3529C36.3156 79.3529 36.927 79.767 36.927 80.2725C36.9246 80.7876 36.3156 81.2016 35.5742 81.2016Z" fill="#678F73"/>
  <path d="M42.0518 74.375H46.4255V81.7865H50.8474V85.5104H42.0518V74.375Z" fill="#678F73"/>
  <path d="M55.9285 74.375H51.8701V85.5104H55.9285V74.375Z" fill="#678F73"/>
</svg>