<svg width="22" height="21" viewBox="0 0 22 21" fill="none" xmlns="http://www.w3.org/2000/svg">
<path d="M7.46657 18.2186C7.46705 18.1933 7.46676 18.1679 7.46569 18.1423C7.45736 17.9429 7.40178 17.7417 7.3024 17.5512C7.20303 17.3607 7.06195 17.185 6.88786 17.0348C6.71377 16.8845 6.51036 16.7631 6.29018 16.6778C6.1391 17.0358 6.16566 17.4496 6.36411 17.83C6.54404 18.1749 6.85218 18.4672 7.23153 18.656L7.46657 18.2186Z" fill="url(#paint0_linear_21313_17461)"/>
<path d="M7.15625 18.7961C6.96107 18.6671 6.76206 18.5273 6.55299 18.3736C6.0641 18.0109 5.60089 17.6221 5.16677 17.21C4.92865 16.9812 4.70228 16.745 4.47888 16.5036C2.50511 14.3861 1.39292 11.8174 1.3461 9.26818C1.29927 6.71899 2.32094 4.36 4.22391 2.62346C4.39082 2.64655 4.55707 2.64092 4.71295 2.6069C4.86883 2.57288 5.01121 2.51117 5.13174 2.42536C5.25372 2.33516 5.3504 2.22231 5.41617 2.09339C5.48195 1.96447 5.51549 1.82206 5.51485 1.67446C5.18001 1.6354 4.85703 1.70727 4.61155 1.87545C4.36613 2.04358 4.21657 2.29537 4.19325 2.57966C3.59674 3.1242 3.07782 3.73034 2.6453 4.38779C1.39852 6.30088 0.953655 8.5939 1.37648 10.9278C1.79931 13.2617 3.06739 15.5125 4.99319 17.3474C5.43708 17.7714 5.91211 18.1705 6.4145 18.5417C6.6446 18.7094 6.85373 18.8567 7.05256 18.989L7.15625 18.7961Z" fill="url(#paint1_linear_21313_17461)"/>
<path d="M5.49249 19.184C5.0401 19.0559 4.64169 18.7834 4.38398 18.4258C4.57203 18.3322 4.78536 18.2755 5.0109 18.2594C5.23645 18.2433 5.46944 18.268 5.69561 18.3321C5.92177 18.3962 6.13633 18.4982 6.32614 18.632C6.51594 18.7658 6.67699 18.9285 6.7994 19.1101C6.4146 19.2856 5.94488 19.3122 5.49249 19.184Z" fill="url(#paint2_linear_21313_17461)"/>
<path d="M4.85379 16.4342C4.97726 16.8298 5.27058 17.1873 5.6704 17.4296C5.79018 17.2726 5.86812 17.0916 5.8994 16.8978C5.93068 16.7041 5.91464 16.5016 5.85229 16.3029C5.79091 16.1054 5.68449 15.9158 5.53966 15.7459C5.39483 15.576 5.2147 15.4294 5.0105 15.3153C4.78661 15.6366 4.73031 16.0385 4.85379 16.4342Z" fill="url(#paint3_linear_21313_17461)"/>
<path d="M3.70018 17.6008C3.27084 17.4081 2.92468 17.0858 2.73611 16.7032C2.94534 16.6424 3.17233 16.6211 3.40325 16.6405C3.63417 16.6599 3.86419 16.7197 4.07931 16.8162C4.29508 16.911 4.49129 17.0416 4.65536 17.1995C4.81944 17.3575 4.94776 17.5393 5.03212 17.7335C4.60776 17.8411 4.12952 17.7935 3.70018 17.6008Z" fill="url(#paint4_linear_21313_17461)"/>
<path d="M3.74369 15.1145C3.78978 15.471 3.99573 15.8156 4.31662 16.073C4.45131 15.9535 4.5517 15.8075 4.61133 15.6443C4.67096 15.4811 4.6885 15.3043 4.66283 15.1253C4.63967 14.9477 4.57521 14.7713 4.47338 14.6069C4.37155 14.4426 4.23448 14.2938 4.07057 14.1695C3.8151 14.4182 3.6976 14.7579 3.74369 15.1145Z" fill="url(#paint5_linear_21313_17461)"/>
<path d="M2.52308 15.9832C2.1688 15.7646 1.91051 15.4443 1.80389 15.0914C2.00145 15.0636 2.20888 15.0725 2.41316 15.1176C2.61744 15.1627 2.81418 15.2429 2.99107 15.3532C3.16796 15.4627 3.32182 15.5995 3.44332 15.7553C3.56483 15.9112 3.65146 16.0829 3.69797 16.2599C3.29931 16.3011 2.87737 16.2017 2.52308 15.9832Z" fill="url(#paint6_linear_21313_17461)"/>
<path d="M2.84664 13.5966C2.82935 13.9476 2.97378 14.3084 3.24895 14.6016C3.4045 14.5031 3.53087 14.3753 3.62029 14.226C3.7097 14.0766 3.76029 13.9089 3.76895 13.7331C3.77761 13.5574 3.74415 13.3772 3.67064 13.2037C3.59712 13.0303 3.4851 12.8671 3.34143 12.7244C3.04157 12.9325 2.86393 13.2456 2.84664 13.5966Z" fill="url(#paint7_linear_21313_17461)"/>
<path d="M1.45378 14.2703C1.13606 14.011 0.933234 13.6663 0.888923 13.3104C1.09285 13.3107 1.3 13.347 1.49784 13.4173C1.69568 13.4875 1.88014 13.5902 2.04008 13.7191C2.19817 13.8503 2.32812 14.0045 2.42223 14.1725C2.51634 14.3405 2.5727 14.519 2.58796 14.6972C2.17875 14.6829 1.7715 14.5296 1.45378 14.2703Z" fill="url(#paint8_linear_21313_17461)"/>
<path d="M2.21736 12.0059C2.13574 12.3434 2.21582 12.7126 2.44035 13.034L2.43927 13.0359C2.61401 12.9616 2.76478 12.8551 2.88246 12.7229C3.00013 12.5907 3.08226 12.4355 3.1239 12.2668C3.16546 12.0976 3.16497 11.9183 3.12245 11.7399C3.07992 11.5615 2.99627 11.3879 2.8767 11.2299C2.53575 11.3898 2.29897 11.6685 2.21736 12.0059Z" fill="url(#paint9_linear_21313_17461)"/>
<path d="M0.690115 12.4642C0.41729 12.1694 0.276939 11.8076 0.299606 11.4574C0.504957 11.4862 0.706773 11.5504 0.892741 11.6463C1.07871 11.7422 1.24493 11.8676 1.38126 12.0149C1.5176 12.1622 1.62118 12.3283 1.68569 12.5032C1.7502 12.678 1.7743 12.8578 1.7565 13.0317C1.34618 12.963 0.96294 12.759 0.690115 12.4642Z" fill="url(#paint10_linear_21313_17461)"/>
<path d="M1.87304 10.38C1.72969 10.6944 1.74325 11.0615 1.91079 11.4021C2.10063 11.3561 2.27213 11.2749 2.4144 11.1636C2.55667 11.0523 2.6666 10.9134 2.73721 10.7556C2.80839 10.5977 2.83976 10.4248 2.82942 10.2471C2.81908 10.0694 2.76726 9.89071 2.67707 9.72177C2.30517 9.82926 2.0164 10.0657 1.87304 10.38Z" fill="url(#paint11_linear_21313_17461)"/>
<path d="M0.2501 10.6193C0.0270686 10.2967 -0.0508761 9.92687 0.0330849 9.58964C0.236386 9.644 0.42995 9.73285 0.601744 9.85067C0.773538 9.9685 0.919889 10.1128 1.03171 10.2745C1.14353 10.4363 1.21843 10.6121 1.25174 10.791C1.28506 10.9699 1.27608 11.1481 1.22538 11.3145C0.823388 11.1917 0.473133 10.942 0.2501 10.6193Z" fill="url(#paint12_linear_21313_17461)"/>
<path d="M1.7061 8.95281C1.53188 9.20759 1.49036 9.52513 1.59052 9.83671C1.76665 9.8169 1.93149 9.76527 2.07493 9.68502C2.21836 9.60476 2.33734 9.49758 2.42454 9.37006C2.51174 9.24253 2.56532 9.09736 2.58198 8.94349C2.59865 8.78961 2.57805 8.63029 2.52144 8.47532C2.17323 8.5265 1.88032 8.69803 1.7061 8.95281Z" fill="url(#paint13_linear_21313_17461)"/>
<path d="M0.228279 8.98291C0.0770426 8.68269 0.0609651 8.35795 0.183512 8.0783L0.18293 8.07801C0.355938 8.14654 0.515355 8.24357 0.651268 8.36307C0.78718 8.48257 0.896691 8.622 0.973031 8.7727C1.04661 8.92379 1.08625 9.08227 1.08961 9.23884C1.09297 9.3954 1.05998 9.5469 0.992602 9.68446C0.653878 9.53497 0.379515 9.28314 0.228279 8.98291Z" fill="url(#paint14_linear_21313_17461)"/>
<path d="M1.87556 7.53149C1.66017 7.75867 1.56758 8.06195 1.61753 8.37665C1.799 8.37951 1.97431 8.34962 2.13244 8.28885C2.29057 8.22809 2.4281 8.13776 2.53638 8.02355C2.64467 7.90934 2.72137 7.77371 2.76166 7.6252C2.80195 7.47669 2.80496 7.31851 2.7705 7.16059C2.41211 7.17121 2.09096 7.30431 1.87556 7.53149Z" fill="url(#paint15_linear_21313_17461)"/>
<path d="M0.380903 7.38177C0.277594 7.0714 0.314773 6.75386 0.48445 6.49731C0.646632 6.58584 0.790359 6.70002 0.906841 6.83286C1.02332 6.9657 1.11009 7.1144 1.16183 7.26983C1.21357 7.42527 1.22919 7.58416 1.20772 7.73678C1.18626 7.88939 1.12817 8.03251 1.03701 8.15735C0.719775 7.9706 0.484212 7.69214 0.380903 7.38177Z" fill="url(#paint16_linear_21313_17461)"/>
<path d="M2.27595 6.17055C2.0219 6.36513 1.87937 6.64866 1.87877 6.96064L1.87958 6.95923C2.06102 6.98189 2.24118 6.9733 2.40954 6.93396C2.5779 6.89463 2.73107 6.82533 2.86008 6.73013C2.98826 6.63236 3.08805 6.50984 3.15317 6.37028C3.2183 6.23071 3.24737 6.07713 3.23852 5.91917C2.87543 5.88576 2.52999 5.97597 2.27595 6.17055Z" fill="url(#paint17_linear_21313_17461)"/>
<path d="M0.790815 5.84349C0.73563 5.52858 0.824785 5.2236 1.03883 4.99506C1.18923 5.0999 1.31676 5.22802 1.41338 5.37132C1.51 5.51462 1.57362 5.67 1.6002 5.82764C1.62633 5.98485 1.61617 6.14093 1.57035 6.28665C1.52452 6.43238 1.44396 6.5648 1.33341 6.67607C1.04105 6.45769 0.846001 6.15841 0.790815 5.84349Z" fill="url(#paint18_linear_21313_17461)"/>
<path d="M2.79987 5.03971C2.53209 5.19405 2.35875 5.44159 2.31686 5.72948C2.48721 5.76936 2.66072 5.77939 2.82669 5.75895C2.99267 5.73851 3.14758 5.68804 3.28188 5.61064C3.41618 5.53324 3.52702 5.43055 3.60756 5.30892C3.6881 5.18729 3.73663 5.04928 3.75017 4.90342C3.4087 4.83647 3.06766 4.88538 2.79987 5.03971Z" fill="url(#paint19_linear_21313_17461)"/>
<path d="M1.42883 4.58722C1.41902 4.2912 1.54448 4.01879 1.77818 3.82874C1.9069 3.94119 2.01088 4.07249 2.08369 4.21454C2.1565 4.3566 2.1966 4.50639 2.20151 4.65468C2.20643 4.80297 2.17606 4.94661 2.11227 5.07674C2.04848 5.20686 1.95263 5.32072 1.83063 5.41127C1.58294 5.17919 1.43865 4.88325 1.42883 4.58722Z" fill="url(#paint20_linear_21313_17461)"/>
<path d="M3.49885 3.99943C3.20543 4.12102 2.99466 4.34499 2.91222 4.62279C3.07834 4.68001 3.25188 4.70851 3.42224 4.70655C3.59259 4.70459 3.75615 4.67221 3.90291 4.6114C4.04967 4.55059 4.17653 4.46262 4.27572 4.35288C4.37491 4.24314 4.44434 4.11395 4.47976 3.97321C4.1447 3.86842 3.79227 3.87784 3.49885 3.99943Z" fill="url(#paint21_linear_21313_17461)"/>
<path d="M2.17897 3.4093C2.21143 3.11876 2.37785 2.86612 2.64199 2.70642L2.64145 2.70736C2.7543 2.83175 2.83957 2.97158 2.89207 3.11838C2.94457 3.26517 2.96321 3.41587 2.94687 3.56134C2.93273 3.70655 2.88287 3.84358 2.80049 3.96355C2.71811 4.08351 2.60505 4.18372 2.46866 4.2577C2.25062 4.00478 2.14651 3.69985 2.17897 3.4093Z" fill="url(#paint22_linear_21313_17461)"/>
<path d="M4.35198 3.06052C4.03889 3.14783 3.79381 3.34301 3.66902 3.60443L3.66795 3.60631C3.82775 3.68074 3.99929 3.72793 4.1721 3.74499C4.34491 3.76205 4.51536 3.74863 4.67308 3.70555C4.829 3.65913 4.96866 3.585 5.08398 3.48742C5.19931 3.38984 5.28802 3.27076 5.345 3.13704C5.02141 3.00066 4.66507 2.9732 4.35198 3.06052Z" fill="url(#paint23_linear_21313_17461)"/>
<path d="M3.10714 2.34389C3.18073 2.06401 3.38354 1.83511 3.6716 1.70684C3.76795 1.83964 3.83435 1.98466 3.86676 2.13308C3.89918 2.2815 3.89693 2.4302 3.86014 2.57011C3.82336 2.71001 3.75282 2.83819 3.65281 2.94683C3.55281 3.05547 3.42544 3.14229 3.27848 3.20199C3.09511 2.9321 3.03355 2.62378 3.10714 2.34389Z" fill="url(#paint24_linear_21313_17461)"/>
<path d="M8.62962 8.00378V5.92618H12.2491V15.4648H9.92322V8.00378H8.62962Z" fill="url(#paint25_linear_21313_17461)"/>
<path d="M14.0002 18.2186C13.9997 18.1933 14 18.1679 14.0011 18.1423C14.0094 17.9429 14.065 17.7417 14.1644 17.5512C14.2638 17.3607 14.4048 17.185 14.5789 17.0348C14.753 16.8845 14.9564 16.7631 15.1766 16.6778C15.3277 17.0358 15.3011 17.4496 15.1027 17.83C14.9228 18.1749 14.6146 18.4672 14.2353 18.656L14.0002 18.2186Z" fill="url(#paint26_linear_21313_17461)"/>
<path d="M14.3105 18.7961C14.5057 18.6671 14.7047 18.5273 14.9138 18.3736C15.4027 18.0109 15.8659 17.6221 16.3 17.21C16.5381 16.9812 16.7645 16.745 16.9879 16.5036C18.9617 14.3861 20.0739 11.8174 20.1207 9.26818C20.1675 6.71899 19.1459 4.36 17.2429 2.62346C17.076 2.64655 16.9097 2.64092 16.7538 2.6069C16.598 2.57288 16.4556 2.51117 16.3351 2.42536C16.2131 2.33516 16.1164 2.22231 16.0506 2.09339C15.9848 1.96447 15.9513 1.82206 15.952 1.67446C16.2868 1.6354 16.6098 1.70727 16.8553 1.87545C17.1007 2.04358 17.2502 2.29537 17.2735 2.57966C17.8701 3.1242 18.389 3.73034 18.8215 4.38779C20.0683 6.30088 20.5131 8.5939 20.0903 10.9278C19.6675 13.2617 18.3994 15.5125 16.4736 17.3474C16.0297 17.7714 15.5547 18.1705 15.0523 18.5417C14.8222 18.7094 14.6131 18.8567 14.4142 18.989L14.3105 18.7961Z" fill="url(#paint27_linear_21313_17461)"/>
<path d="M15.9743 19.184C16.4267 19.0559 16.8251 18.7834 17.0828 18.4258C16.8948 18.3322 16.6814 18.2755 16.4559 18.2594C16.2303 18.2433 15.9974 18.268 15.7712 18.3321C15.545 18.3962 15.3305 18.4982 15.1407 18.632C14.9509 18.7658 14.7898 18.9285 14.6674 19.1101C15.0522 19.2856 15.5219 19.3122 15.9743 19.184Z" fill="url(#paint28_linear_21313_17461)"/>
<path d="M16.613 16.4342C16.4895 16.8298 16.1962 17.1873 15.7964 17.4296C15.6766 17.2726 15.5987 17.0916 15.5674 16.8978C15.5361 16.7041 15.5522 16.5016 15.6145 16.3029C15.6759 16.1054 15.7823 15.9158 15.9271 15.7459C16.072 15.576 16.2521 15.4294 16.4563 15.3153C16.6802 15.6366 16.7365 16.0385 16.613 16.4342Z" fill="url(#paint29_linear_21313_17461)"/>
<path d="M17.7666 17.6008C18.196 17.4081 18.5421 17.0858 18.7307 16.7032C18.5215 16.6424 18.2945 16.6211 18.0635 16.6405C17.8326 16.6599 17.6026 16.7197 17.3875 16.8162C17.1717 16.911 16.9755 17.0416 16.8114 17.1995C16.6474 17.3575 16.519 17.5393 16.4347 17.7335C16.859 17.8411 17.3373 17.7935 17.7666 17.6008Z" fill="url(#paint30_linear_21313_17461)"/>
<path d="M17.7231 15.1145C17.677 15.471 17.4711 15.8156 17.1502 16.073C17.0155 15.9535 16.9151 15.8075 16.8555 15.6443C16.7958 15.4811 16.7783 15.3043 16.804 15.1253C16.8271 14.9477 16.8916 14.7713 16.9934 14.6069C17.0952 14.4426 17.2323 14.2938 17.3962 14.1695C17.6517 14.4182 17.7692 14.7579 17.7231 15.1145Z" fill="url(#paint31_linear_21313_17461)"/>
<path d="M18.9437 15.9832C19.298 15.7646 19.5563 15.4443 19.6629 15.0914C19.4653 15.0636 19.2579 15.0725 19.0536 15.1176C18.8494 15.1627 18.6526 15.2429 18.4757 15.3532C18.2988 15.4627 18.145 15.5995 18.0235 15.7553C17.902 15.9112 17.8153 16.0829 17.7688 16.2599C18.1675 16.3011 18.5894 16.2017 18.9437 15.9832Z" fill="url(#paint32_linear_21313_17461)"/>
<path d="M18.6202 13.5966C18.6374 13.9476 18.493 14.3084 18.2178 14.6016C18.0623 14.5031 17.9359 14.3753 17.8465 14.226C17.7571 14.0766 17.7065 13.9089 17.6978 13.7331C17.6892 13.5574 17.7226 13.3772 17.7962 13.2037C17.8697 13.0303 17.9817 12.8671 18.1254 12.7244C18.4252 12.9325 18.6029 13.2456 18.6202 13.5966Z" fill="url(#paint33_linear_21313_17461)"/>
<path d="M20.013 14.2703C20.3307 14.011 20.5336 13.6663 20.5779 13.3104C20.3739 13.3107 20.1668 13.347 19.969 13.4173C19.7711 13.4875 19.5867 13.5902 19.4267 13.7191C19.2686 13.8503 19.1387 14.0045 19.0446 14.1725C18.9505 14.3405 18.8941 14.519 18.8788 14.6972C19.288 14.6829 19.6953 14.5296 20.013 14.2703Z" fill="url(#paint34_linear_21313_17461)"/>
<path d="M19.2494 12.0059C19.3311 12.3434 19.251 12.7126 19.0264 13.034L19.0275 13.0359C18.8528 12.9616 18.702 12.8551 18.5843 12.7229C18.4667 12.5907 18.3845 12.4355 18.3429 12.2668C18.3013 12.0976 18.3018 11.9183 18.3444 11.7399C18.3869 11.5615 18.4705 11.3879 18.5901 11.2299C18.931 11.3898 19.1678 11.6685 19.2494 12.0059Z" fill="url(#paint35_linear_21313_17461)"/>
<path d="M20.7767 12.4642C21.0495 12.1694 21.1899 11.8076 21.1672 11.4574C20.9618 11.4862 20.76 11.5504 20.5741 11.6463C20.3881 11.7422 20.2219 11.8676 20.0855 12.0149C19.9492 12.1622 19.8456 12.3283 19.7811 12.5032C19.7166 12.678 19.6925 12.8578 19.7103 13.0317C20.1206 12.963 20.5039 12.759 20.7767 12.4642Z" fill="url(#paint36_linear_21313_17461)"/>
<path d="M19.5938 10.38C19.7371 10.6944 19.7236 11.0615 19.556 11.4021C19.3662 11.3561 19.1947 11.2749 19.0524 11.1636C18.9101 11.0523 18.8002 10.9134 18.7296 10.7556C18.6584 10.5977 18.627 10.4248 18.6374 10.2471C18.6477 10.0694 18.6995 9.89071 18.7897 9.72177C19.1616 9.82926 19.4504 10.0657 19.5938 10.38Z" fill="url(#paint37_linear_21313_17461)"/>
<path d="M21.2167 10.6193C21.4397 10.2967 21.5177 9.92687 21.4337 9.58964C21.2304 9.644 21.0368 9.73285 20.8651 9.85067C20.6933 9.9685 20.5469 10.1128 20.4351 10.2745C20.3233 10.4363 20.2484 10.6121 20.2151 10.791C20.1817 10.9699 20.1907 11.1481 20.2414 11.3145C20.6434 11.1917 20.9937 10.942 21.2167 10.6193Z" fill="url(#paint38_linear_21313_17461)"/>
<path d="M19.7607 8.95281C19.9349 9.20759 19.9764 9.52513 19.8763 9.83671C19.7002 9.8169 19.5353 9.76527 19.3919 9.68502C19.2484 9.60476 19.1295 9.49758 19.0423 9.37006C18.9551 9.24253 18.9015 9.09736 18.8848 8.94349C18.8681 8.78961 18.8887 8.63029 18.9454 8.47532C19.2936 8.5265 19.5865 8.69803 19.7607 8.95281Z" fill="url(#paint39_linear_21313_17461)"/>
<path d="M21.2385 8.98291C21.3898 8.68269 21.4058 8.35795 21.2833 8.0783L21.2839 8.07801C21.1109 8.14654 20.9514 8.24357 20.8155 8.36307C20.6796 8.48257 20.5701 8.622 20.4938 8.7727C20.4202 8.92379 20.3805 9.08227 20.3772 9.23884C20.3738 9.3954 20.4068 9.5469 20.4742 9.68446C20.8129 9.53497 21.0873 9.28314 21.2385 8.98291Z" fill="url(#paint40_linear_21313_17461)"/>
<path d="M19.5912 7.53149C19.8066 7.75867 19.8992 8.06195 19.8493 8.37665C19.6678 8.37951 19.4925 8.34962 19.3344 8.28885C19.1762 8.22809 19.0387 8.13776 18.9304 8.02355C18.8221 7.90934 18.7454 7.77371 18.7051 7.6252C18.6649 7.47669 18.6618 7.31851 18.6963 7.16059C19.0547 7.17121 19.3758 7.30431 19.5912 7.53149Z" fill="url(#paint41_linear_21313_17461)"/>
<path d="M21.0859 7.38177C21.1892 7.0714 21.152 6.75386 20.9823 6.49731C20.8202 6.58584 20.6764 6.70002 20.56 6.83286C20.4435 6.9657 20.3567 7.1144 20.305 7.26983C20.2532 7.42527 20.2376 7.58416 20.2591 7.73678C20.2805 7.88939 20.3386 8.03251 20.4298 8.15735C20.747 7.9706 20.9826 7.69214 21.0859 7.38177Z" fill="url(#paint42_linear_21313_17461)"/>
<path d="M19.1908 6.17055C19.4449 6.36513 19.5874 6.64866 19.588 6.96064L19.5872 6.95923C19.4058 6.98189 19.2256 6.9733 19.0573 6.93396C18.8889 6.89463 18.7357 6.82533 18.6067 6.73013C18.4785 6.63236 18.3787 6.50984 18.3136 6.37028C18.2485 6.23071 18.2194 6.07713 18.2283 5.91917C18.5914 5.88576 18.9368 5.97597 19.1908 6.17055Z" fill="url(#paint43_linear_21313_17461)"/>
<path d="M20.676 5.84349C20.7312 5.52858 20.642 5.2236 20.428 4.99506C20.2776 5.0999 20.15 5.22802 20.0534 5.37132C19.9568 5.51462 19.8932 5.67 19.8666 5.82764C19.8405 5.98485 19.8506 6.14093 19.8965 6.28665C19.9423 6.43238 20.0228 6.5648 20.1334 6.67607C20.4257 6.45769 20.6208 6.15841 20.676 5.84349Z" fill="url(#paint44_linear_21313_17461)"/>
<path d="M18.6669 5.03971C18.9347 5.19405 19.108 5.44159 19.1499 5.72948C18.9796 5.76936 18.8061 5.77939 18.6401 5.75895C18.4741 5.73851 18.3192 5.68804 18.1849 5.61064C18.0506 5.53324 17.9398 5.43055 17.8592 5.30892C17.7787 5.18729 17.7302 5.04928 17.7166 4.90342C18.0581 4.83647 18.3991 4.88538 18.6669 5.03971Z" fill="url(#paint45_linear_21313_17461)"/>
<path d="M20.038 4.58722C20.0478 4.2912 19.9223 4.01879 19.6886 3.82874C19.5599 3.94119 19.4559 4.07249 19.3831 4.21454C19.3103 4.3566 19.2702 4.50639 19.2653 4.65468C19.2604 4.80297 19.2907 4.94661 19.3545 5.07674C19.4183 5.20686 19.5142 5.32072 19.6362 5.41127C19.8839 5.17919 20.0282 4.88325 20.038 4.58722Z" fill="url(#paint46_linear_21313_17461)"/>
<path d="M17.9679 3.99943C18.2614 4.12102 18.4721 4.34499 18.5546 4.62279C18.3885 4.68001 18.2149 4.70851 18.0446 4.70655C17.8742 4.70459 17.7106 4.67221 17.5639 4.6114C17.4171 4.55059 17.2903 4.46262 17.1911 4.35288C17.0919 4.24314 17.0225 4.11395 16.987 3.97321C17.3221 3.86842 17.6745 3.87784 17.9679 3.99943Z" fill="url(#paint47_linear_21313_17461)"/>
<path d="M19.2878 3.4093C19.2554 3.11876 19.089 2.86612 18.8248 2.70642L18.8254 2.70736C18.7125 2.83175 18.6272 2.97158 18.5747 3.11838C18.5222 3.26517 18.5036 3.41587 18.5199 3.56134C18.5341 3.70655 18.5839 3.84358 18.6663 3.96355C18.7487 4.08351 18.8617 4.18372 18.9981 4.2577C19.2162 4.00478 19.3203 3.69985 19.2878 3.4093Z" fill="url(#paint48_linear_21313_17461)"/>
<path d="M17.1148 3.06052C17.4279 3.14783 17.673 3.34301 17.7978 3.60443L17.7988 3.60631C17.639 3.68074 17.4675 3.72793 17.2947 3.74499C17.1219 3.76205 16.9514 3.74863 16.7937 3.70555C16.6378 3.65913 16.4981 3.585 16.3828 3.48742C16.2675 3.38984 16.1788 3.27076 16.1218 3.13704C16.4454 3.00066 16.8017 2.9732 17.1148 3.06052Z" fill="url(#paint49_linear_21313_17461)"/>
<path d="M18.3597 2.34389C18.2861 2.06401 18.0833 1.83511 17.7952 1.70684C17.6989 1.83964 17.6324 1.98466 17.6 2.13308C17.5676 2.2815 17.5699 2.4302 17.6067 2.57011C17.6434 2.71001 17.714 2.83819 17.814 2.94683C17.914 3.05547 18.0414 3.14229 18.1883 3.20199C18.3717 2.9321 18.4332 2.62378 18.3597 2.34389Z" fill="url(#paint50_linear_21313_17461)"/>
<defs>
<linearGradient id="paint0_linear_21313_17461" x1="3.73346" y1="1.66406" x2="3.73346" y2="19.2641" gradientUnits="userSpaceOnUse">
<stop stop-color="#E9B167"/>
<stop offset="0.3125" stop-color="#EDD494"/>
<stop offset="1" stop-color="#987043"/>
</linearGradient>
<linearGradient id="paint1_linear_21313_17461" x1="3.73346" y1="1.66406" x2="3.73346" y2="19.2641" gradientUnits="userSpaceOnUse">
<stop stop-color="#E9B167"/>
<stop offset="0.3125" stop-color="#EDD494"/>
<stop offset="1" stop-color="#987043"/>
</linearGradient>
<linearGradient id="paint2_linear_21313_17461" x1="3.73346" y1="1.66406" x2="3.73346" y2="19.2641" gradientUnits="userSpaceOnUse">
<stop stop-color="#E9B167"/>
<stop offset="0.3125" stop-color="#EDD494"/>
<stop offset="1" stop-color="#987043"/>
</linearGradient>
<linearGradient id="paint3_linear_21313_17461" x1="3.73346" y1="1.66406" x2="3.73346" y2="19.2641" gradientUnits="userSpaceOnUse">
<stop stop-color="#E9B167"/>
<stop offset="0.3125" stop-color="#EDD494"/>
<stop offset="1" stop-color="#987043"/>
</linearGradient>
<linearGradient id="paint4_linear_21313_17461" x1="3.73346" y1="1.66406" x2="3.73346" y2="19.2641" gradientUnits="userSpaceOnUse">
<stop stop-color="#E9B167"/>
<stop offset="0.3125" stop-color="#EDD494"/>
<stop offset="1" stop-color="#987043"/>
</linearGradient>
<linearGradient id="paint5_linear_21313_17461" x1="3.73346" y1="1.66406" x2="3.73346" y2="19.2641" gradientUnits="userSpaceOnUse">
<stop stop-color="#E9B167"/>
<stop offset="0.3125" stop-color="#EDD494"/>
<stop offset="1" stop-color="#987043"/>
</linearGradient>
<linearGradient id="paint6_linear_21313_17461" x1="3.73346" y1="1.66406" x2="3.73346" y2="19.2641" gradientUnits="userSpaceOnUse">
<stop stop-color="#E9B167"/>
<stop offset="0.3125" stop-color="#EDD494"/>
<stop offset="1" stop-color="#987043"/>
</linearGradient>
<linearGradient id="paint7_linear_21313_17461" x1="3.73346" y1="1.66406" x2="3.73346" y2="19.2641" gradientUnits="userSpaceOnUse">
<stop stop-color="#E9B167"/>
<stop offset="0.3125" stop-color="#EDD494"/>
<stop offset="1" stop-color="#987043"/>
</linearGradient>
<linearGradient id="paint8_linear_21313_17461" x1="3.73346" y1="1.66406" x2="3.73346" y2="19.2641" gradientUnits="userSpaceOnUse">
<stop stop-color="#E9B167"/>
<stop offset="0.3125" stop-color="#EDD494"/>
<stop offset="1" stop-color="#987043"/>
</linearGradient>
<linearGradient id="paint9_linear_21313_17461" x1="3.73346" y1="1.66406" x2="3.73346" y2="19.2641" gradientUnits="userSpaceOnUse">
<stop stop-color="#E9B167"/>
<stop offset="0.3125" stop-color="#EDD494"/>
<stop offset="1" stop-color="#987043"/>
</linearGradient>
<linearGradient id="paint10_linear_21313_17461" x1="3.73346" y1="1.66406" x2="3.73346" y2="19.2641" gradientUnits="userSpaceOnUse">
<stop stop-color="#E9B167"/>
<stop offset="0.3125" stop-color="#EDD494"/>
<stop offset="1" stop-color="#987043"/>
</linearGradient>
<linearGradient id="paint11_linear_21313_17461" x1="3.73346" y1="1.66406" x2="3.73346" y2="19.2641" gradientUnits="userSpaceOnUse">
<stop stop-color="#E9B167"/>
<stop offset="0.3125" stop-color="#EDD494"/>
<stop offset="1" stop-color="#987043"/>
</linearGradient>
<linearGradient id="paint12_linear_21313_17461" x1="3.73346" y1="1.66406" x2="3.73346" y2="19.2641" gradientUnits="userSpaceOnUse">
<stop stop-color="#E9B167"/>
<stop offset="0.3125" stop-color="#EDD494"/>
<stop offset="1" stop-color="#987043"/>
</linearGradient>
<linearGradient id="paint13_linear_21313_17461" x1="3.73346" y1="1.66406" x2="3.73346" y2="19.2641" gradientUnits="userSpaceOnUse">
<stop stop-color="#E9B167"/>
<stop offset="0.3125" stop-color="#EDD494"/>
<stop offset="1" stop-color="#987043"/>
</linearGradient>
<linearGradient id="paint14_linear_21313_17461" x1="3.73346" y1="1.66406" x2="3.73346" y2="19.2641" gradientUnits="userSpaceOnUse">
<stop stop-color="#E9B167"/>
<stop offset="0.3125" stop-color="#EDD494"/>
<stop offset="1" stop-color="#987043"/>
</linearGradient>
<linearGradient id="paint15_linear_21313_17461" x1="3.73346" y1="1.66406" x2="3.73346" y2="19.2641" gradientUnits="userSpaceOnUse">
<stop stop-color="#E9B167"/>
<stop offset="0.3125" stop-color="#EDD494"/>
<stop offset="1" stop-color="#987043"/>
</linearGradient>
<linearGradient id="paint16_linear_21313_17461" x1="3.73346" y1="1.66406" x2="3.73346" y2="19.2641" gradientUnits="userSpaceOnUse">
<stop stop-color="#E9B167"/>
<stop offset="0.3125" stop-color="#EDD494"/>
<stop offset="1" stop-color="#987043"/>
</linearGradient>
<linearGradient id="paint17_linear_21313_17461" x1="3.73346" y1="1.66406" x2="3.73346" y2="19.2641" gradientUnits="userSpaceOnUse">
<stop stop-color="#E9B167"/>
<stop offset="0.3125" stop-color="#EDD494"/>
<stop offset="1" stop-color="#987043"/>
</linearGradient>
<linearGradient id="paint18_linear_21313_17461" x1="3.73346" y1="1.66406" x2="3.73346" y2="19.2641" gradientUnits="userSpaceOnUse">
<stop stop-color="#E9B167"/>
<stop offset="0.3125" stop-color="#EDD494"/>
<stop offset="1" stop-color="#987043"/>
</linearGradient>
<linearGradient id="paint19_linear_21313_17461" x1="3.73346" y1="1.66406" x2="3.73346" y2="19.2641" gradientUnits="userSpaceOnUse">
<stop stop-color="#E9B167"/>
<stop offset="0.3125" stop-color="#EDD494"/>
<stop offset="1" stop-color="#987043"/>
</linearGradient>
<linearGradient id="paint20_linear_21313_17461" x1="3.73346" y1="1.66406" x2="3.73346" y2="19.2641" gradientUnits="userSpaceOnUse">
<stop stop-color="#E9B167"/>
<stop offset="0.3125" stop-color="#EDD494"/>
<stop offset="1" stop-color="#987043"/>
</linearGradient>
<linearGradient id="paint21_linear_21313_17461" x1="3.73346" y1="1.66406" x2="3.73346" y2="19.2641" gradientUnits="userSpaceOnUse">
<stop stop-color="#E9B167"/>
<stop offset="0.3125" stop-color="#EDD494"/>
<stop offset="1" stop-color="#987043"/>
</linearGradient>
<linearGradient id="paint22_linear_21313_17461" x1="3.73346" y1="1.66406" x2="3.73346" y2="19.2641" gradientUnits="userSpaceOnUse">
<stop stop-color="#E9B167"/>
<stop offset="0.3125" stop-color="#EDD494"/>
<stop offset="1" stop-color="#987043"/>
</linearGradient>
<linearGradient id="paint23_linear_21313_17461" x1="3.73346" y1="1.66406" x2="3.73346" y2="19.2641" gradientUnits="userSpaceOnUse">
<stop stop-color="#E9B167"/>
<stop offset="0.3125" stop-color="#EDD494"/>
<stop offset="1" stop-color="#987043"/>
</linearGradient>
<linearGradient id="paint24_linear_21313_17461" x1="3.73346" y1="1.66406" x2="3.73346" y2="19.2641" gradientUnits="userSpaceOnUse">
<stop stop-color="#E9B167"/>
<stop offset="0.3125" stop-color="#EDD494"/>
<stop offset="1" stop-color="#987043"/>
</linearGradient>
<linearGradient id="paint25_linear_21313_17461" x1="11.4332" y1="4.47898" x2="11.1089" y2="15.4425" gradientUnits="userSpaceOnUse">
<stop stop-color="#E9B167"/>
<stop offset="0.413462" stop-color="#EDD494"/>
<stop offset="1" stop-color="#BA913F"/>
</linearGradient>
<linearGradient id="paint26_linear_21313_17461" x1="17.7333" y1="1.66406" x2="17.7333" y2="19.2641" gradientUnits="userSpaceOnUse">
<stop stop-color="#E9B167"/>
<stop offset="0.3125" stop-color="#EDD494"/>
<stop offset="1" stop-color="#987043"/>
</linearGradient>
<linearGradient id="paint27_linear_21313_17461" x1="17.7333" y1="1.66406" x2="17.7333" y2="19.2641" gradientUnits="userSpaceOnUse">
<stop stop-color="#E9B167"/>
<stop offset="0.3125" stop-color="#EDD494"/>
<stop offset="1" stop-color="#987043"/>
</linearGradient>
<linearGradient id="paint28_linear_21313_17461" x1="17.7333" y1="1.66406" x2="17.7333" y2="19.2641" gradientUnits="userSpaceOnUse">
<stop stop-color="#E9B167"/>
<stop offset="0.3125" stop-color="#EDD494"/>
<stop offset="1" stop-color="#987043"/>
</linearGradient>
<linearGradient id="paint29_linear_21313_17461" x1="17.7333" y1="1.66406" x2="17.7333" y2="19.2641" gradientUnits="userSpaceOnUse">
<stop stop-color="#E9B167"/>
<stop offset="0.3125" stop-color="#EDD494"/>
<stop offset="1" stop-color="#987043"/>
</linearGradient>
<linearGradient id="paint30_linear_21313_17461" x1="17.7333" y1="1.66406" x2="17.7333" y2="19.2641" gradientUnits="userSpaceOnUse">
<stop stop-color="#E9B167"/>
<stop offset="0.3125" stop-color="#EDD494"/>
<stop offset="1" stop-color="#987043"/>
</linearGradient>
<linearGradient id="paint31_linear_21313_17461" x1="17.7333" y1="1.66406" x2="17.7333" y2="19.2641" gradientUnits="userSpaceOnUse">
<stop stop-color="#E9B167"/>
<stop offset="0.3125" stop-color="#EDD494"/>
<stop offset="1" stop-color="#987043"/>
</linearGradient>
<linearGradient id="paint32_linear_21313_17461" x1="17.7333" y1="1.66406" x2="17.7333" y2="19.2641" gradientUnits="userSpaceOnUse">
<stop stop-color="#E9B167"/>
<stop offset="0.3125" stop-color="#EDD494"/>
<stop offset="1" stop-color="#987043"/>
</linearGradient>
<linearGradient id="paint33_linear_21313_17461" x1="17.7333" y1="1.66406" x2="17.7333" y2="19.2641" gradientUnits="userSpaceOnUse">
<stop stop-color="#E9B167"/>
<stop offset="0.3125" stop-color="#EDD494"/>
<stop offset="1" stop-color="#987043"/>
</linearGradient>
<linearGradient id="paint34_linear_21313_17461" x1="17.7333" y1="1.66406" x2="17.7333" y2="19.2641" gradientUnits="userSpaceOnUse">
<stop stop-color="#E9B167"/>
<stop offset="0.3125" stop-color="#EDD494"/>
<stop offset="1" stop-color="#987043"/>
</linearGradient>
<linearGradient id="paint35_linear_21313_17461" x1="17.7333" y1="1.66406" x2="17.7333" y2="19.2641" gradientUnits="userSpaceOnUse">
<stop stop-color="#E9B167"/>
<stop offset="0.3125" stop-color="#EDD494"/>
<stop offset="1" stop-color="#987043"/>
</linearGradient>
<linearGradient id="paint36_linear_21313_17461" x1="17.7333" y1="1.66406" x2="17.7333" y2="19.2641" gradientUnits="userSpaceOnUse">
<stop stop-color="#E9B167"/>
<stop offset="0.3125" stop-color="#EDD494"/>
<stop offset="1" stop-color="#987043"/>
</linearGradient>
<linearGradient id="paint37_linear_21313_17461" x1="17.7333" y1="1.66406" x2="17.7333" y2="19.2641" gradientUnits="userSpaceOnUse">
<stop stop-color="#E9B167"/>
<stop offset="0.3125" stop-color="#EDD494"/>
<stop offset="1" stop-color="#987043"/>
</linearGradient>
<linearGradient id="paint38_linear_21313_17461" x1="17.7333" y1="1.66406" x2="17.7333" y2="19.2641" gradientUnits="userSpaceOnUse">
<stop stop-color="#E9B167"/>
<stop offset="0.3125" stop-color="#EDD494"/>
<stop offset="1" stop-color="#987043"/>
</linearGradient>
<linearGradient id="paint39_linear_21313_17461" x1="17.7333" y1="1.66406" x2="17.7333" y2="19.2641" gradientUnits="userSpaceOnUse">
<stop stop-color="#E9B167"/>
<stop offset="0.3125" stop-color="#EDD494"/>
<stop offset="1" stop-color="#987043"/>
</linearGradient>
<linearGradient id="paint40_linear_21313_17461" x1="17.7333" y1="1.66406" x2="17.7333" y2="19.2641" gradientUnits="userSpaceOnUse">
<stop stop-color="#E9B167"/>
<stop offset="0.3125" stop-color="#EDD494"/>
<stop offset="1" stop-color="#987043"/>
</linearGradient>
<linearGradient id="paint41_linear_21313_17461" x1="17.7333" y1="1.66406" x2="17.7333" y2="19.2641" gradientUnits="userSpaceOnUse">
<stop stop-color="#E9B167"/>
<stop offset="0.3125" stop-color="#EDD494"/>
<stop offset="1" stop-color="#987043"/>
</linearGradient>
<linearGradient id="paint42_linear_21313_17461" x1="17.7333" y1="1.66406" x2="17.7333" y2="19.2641" gradientUnits="userSpaceOnUse">
<stop stop-color="#E9B167"/>
<stop offset="0.3125" stop-color="#EDD494"/>
<stop offset="1" stop-color="#987043"/>
</linearGradient>
<linearGradient id="paint43_linear_21313_17461" x1="17.7333" y1="1.66406" x2="17.7333" y2="19.2641" gradientUnits="userSpaceOnUse">
<stop stop-color="#E9B167"/>
<stop offset="0.3125" stop-color="#EDD494"/>
<stop offset="1" stop-color="#987043"/>
</linearGradient>
<linearGradient id="paint44_linear_21313_17461" x1="17.7333" y1="1.66406" x2="17.7333" y2="19.2641" gradientUnits="userSpaceOnUse">
<stop stop-color="#E9B167"/>
<stop offset="0.3125" stop-color="#EDD494"/>
<stop offset="1" stop-color="#987043"/>
</linearGradient>
<linearGradient id="paint45_linear_21313_17461" x1="17.7333" y1="1.66406" x2="17.7333" y2="19.2641" gradientUnits="userSpaceOnUse">
<stop stop-color="#E9B167"/>
<stop offset="0.3125" stop-color="#EDD494"/>
<stop offset="1" stop-color="#987043"/>
</linearGradient>
<linearGradient id="paint46_linear_21313_17461" x1="17.7333" y1="1.66406" x2="17.7333" y2="19.2641" gradientUnits="userSpaceOnUse">
<stop stop-color="#E9B167"/>
<stop offset="0.3125" stop-color="#EDD494"/>
<stop offset="1" stop-color="#987043"/>
</linearGradient>
<linearGradient id="paint47_linear_21313_17461" x1="17.7333" y1="1.66406" x2="17.7333" y2="19.2641" gradientUnits="userSpaceOnUse">
<stop stop-color="#E9B167"/>
<stop offset="0.3125" stop-color="#EDD494"/>
<stop offset="1" stop-color="#987043"/>
</linearGradient>
<linearGradient id="paint48_linear_21313_17461" x1="17.7333" y1="1.66406" x2="17.7333" y2="19.2641" gradientUnits="userSpaceOnUse">
<stop stop-color="#E9B167"/>
<stop offset="0.3125" stop-color="#EDD494"/>
<stop offset="1" stop-color="#987043"/>
</linearGradient>
<linearGradient id="paint49_linear_21313_17461" x1="17.7333" y1="1.66406" x2="17.7333" y2="19.2641" gradientUnits="userSpaceOnUse">
<stop stop-color="#E9B167"/>
<stop offset="0.3125" stop-color="#EDD494"/>
<stop offset="1" stop-color="#987043"/>
</linearGradient>
<linearGradient id="paint50_linear_21313_17461" x1="17.7333" y1="1.66406" x2="17.7333" y2="19.2641" gradientUnits="userSpaceOnUse">
<stop stop-color="#E9B167"/>
<stop offset="0.3125" stop-color="#EDD494"/>
<stop offset="1" stop-color="#987043"/>
</linearGradient>
</defs>
</svg>
