<svg width="1920" height="621" viewBox="0 0 1920 621" fill="none" xmlns="http://www.w3.org/2000/svg">
<g opacity="0.3">
<path d="M-845 502.578L-822.261 518.432L-799.522 504.843H-758.593C-746.465 497.294 -720.392 482.648 -713.115 484.459C-705.839 486.271 -694.924 495.784 -690.376 500.314L-649.447 498.05L-628.982 368.954C-628.224 355.365 -623.07 330.904 -608.517 341.776C-590.326 355.365 -594.874 368.954 -572.135 368.954C-549.396 368.954 -508.466 362.16 -501.645 362.16C-494.823 362.16 -490.275 344.041 -481.18 346.306C-472.084 348.571 -462.989 346.305 -456.167 341.776C-449.346 337.246 -397.046 289.685 -378.855 321.392C-360.664 353.1 -367.486 378.014 -356.117 384.809C-344.747 391.603 -333.378 378.014 -315.187 353.101C-296.996 328.188 -285.626 330.45 -276.531 341.776C-267.435 353.101 -249.244 353.101 -242.423 364.425C-235.601 375.75 -233.327 407.457 -212.862 409.722C-192.397 411.987 -190.124 423.311 -181.028 416.517C-171.933 409.722 -167.385 391.603 -160.563 400.663C-153.742 409.722 -149.194 418.781 -142.372 411.987C-136.915 406.551 -123.423 208.907 -117.36 110.764C-115.086 100.949 -105.535 85.3974 -85.5253 101.704C-60.5127 122.088 -60.5126 67.732 -46.8694 79.0562C-33.2261 90.3804 -19.5829 117.557 -5.9396 101.704C7.70366 85.8514 16.7992 63.203 30.4424 74.5272C44.0857 85.8514 50.9073 101.704 73.646 74.5272C96.3848 47.3502 98.6587 72.2599 107.754 79.0562C116.85 85.8525 130.493 81.3221 146.41 58.6737C162.327 36.0253 164.601 60.9396 173.697 69.9979C182.792 79.0562 200.983 69.9971 205.531 67.7323C210.079 65.4674 237.365 63.2026 244.187 103.97C249.644 136.583 263.136 156.816 269.199 162.855C277.537 162.855 294.667 166.026 296.486 178.709C298.76 194.563 298.76 224.006 310.129 224.006C321.499 224.006 328.32 212.682 332.868 221.741C337.416 230.801 341.964 260.243 353.333 248.919C364.702 237.595 360.154 226.271 371.524 228.536C382.893 230.801 394.263 230.801 403.358 214.947C412.454 199.093 426.097 203.623 428.371 210.417C430.645 217.212 446.562 233.065 453.383 233.065C458.841 233.065 475.364 233.065 482.944 233.065C495.071 245.899 521.6 269.756 530.695 262.508C542.065 253.449 569.351 219.476 578.447 228.536C587.542 237.595 601.185 251.184 610.281 242.125C619.376 233.065 621.65 226.271 628.472 233.065C635.294 239.86 648.937 260.243 662.58 262.508C673.495 264.32 698.962 263.263 710.331 262.508C714.121 251.184 723.52 226.724 730.796 219.476C739.892 210.417 764.904 201.358 771.726 201.358C778.548 201.358 783.096 224.006 794.465 219.476C805.834 214.947 803.56 208.152 812.656 212.682C821.751 217.212 824.025 255.714 833.121 253.449C842.216 251.184 849.038 230.801 858.133 233.065C867.229 235.33 876.324 248.919 883.146 237.595C889.968 226.271 894.515 210.417 901.337 219.476C908.159 228.536 912.706 242.125 924.076 237.595C935.445 233.065 946.815 228.536 958.184 230.801C969.553 233.065 974.101 248.919 983.197 244.39C992.292 239.86 1017.3 224.006 1026.4 224.006C1035.5 224.006 1033.22 228.536 1044.59 226.271C1055.96 224.006 1062.78 214.947 1067.33 217.212C1071.88 219.476 1076.43 242.125 1087.79 237.595C1099.16 233.065 1103.71 210.417 1117.36 212.682C1131 214.947 1126.45 219.476 1144.64 221.741C1162.83 224.006 1171.93 203.623 1183.3 212.682C1194.67 221.741 1199.21 230.801 1212.86 228.536C1226.5 226.271 1231.05 233.065 1242.42 244.39C1253.79 255.714 1258.34 253.449 1262.88 253.449C1267.43 253.449 1274.25 473.297 1276.53 480.091C1278.8 486.886 1287.9 502.74 1296.99 495.945C1306.09 489.151 1315.18 452.913 1326.55 464.238C1337.92 475.562 1344.74 482.356 1353.84 473.297C1362.93 464.238 1365.21 461.973 1369.76 468.767C1374.3 475.562 1383.4 480.091 1385.67 468.767C1387.49 459.708 1397.04 183.239 1401.59 151.531C1403.86 142.472 1410.69 127.071 1419.78 137.942C1431.15 151.531 1435.7 160.591 1447.07 158.326C1458.44 156.061 1465.26 128.883 1483.45 133.413C1501.64 137.942 1501.64 156.061 1510.74 153.796C1519.83 151.531 1535.75 115.294 1553.94 119.824C1572.13 124.353 1581.23 151.531 1599.42 144.737C1617.61 137.942 1626.7 135.677 1635.8 133.413C1644.89 131.148 1669.91 79.0565 1694.92 79.0565C1719.93 79.0565 1719.93 85.851 1722.21 90.3806C1724.48 94.9103 1724.48 101.705 1731.3 97.1752C1738.12 92.6455 1738.12 65.4674 1754.04 72.2619C1769.96 79.0564 1797.24 133.413 1813.16 126.618C1829.08 119.824 1840.45 103.97 1847.27 106.235C1854.09 108.499 1856.37 88.1158 1872.28 81.3213C1888.2 74.5268 1879.1 85.851 1897.29 79.0565C1915.49 72.2619 1933.68 -0.212865 1938.22 2.05197" stroke="#0063F5" stroke-width="2.25"/>
<path d="M-822.261 519.899L-845 504V652.016H1938.22V2.05212C1933.68 -0.21915 1915.49 72.4615 1897.3 79.2753C1879.1 86.0891 1888.2 74.7328 1872.28 81.5466C1856.37 88.3604 1854.09 108.802 1847.27 106.531C1840.45 104.259 1829.08 120.158 1813.16 126.972C1797.24 133.786 1769.96 79.2753 1754.04 72.4615C1738.12 65.6477 1738.12 92.9029 1731.3 97.4455C1724.48 101.988 1724.48 95.1742 1722.21 90.6317C1719.93 86.0891 1719.93 79.2753 1694.92 79.2753C1669.91 79.2753 1644.89 131.514 1635.8 133.786C1626.7 136.057 1617.61 138.328 1599.42 145.142C1581.23 151.956 1572.13 124.701 1553.94 120.158C1535.75 115.616 1519.83 151.956 1510.74 154.227C1501.64 156.498 1501.64 138.328 1483.45 133.786C1465.26 129.243 1458.44 156.498 1447.07 158.77C1435.7 161.041 1431.15 151.956 1419.78 138.328C1410.69 127.426 1403.86 142.871 1401.59 151.956C1397.04 183.754 1387.49 461.008 1385.67 470.093C1383.4 481.449 1374.3 476.907 1369.76 470.093C1365.21 463.279 1362.93 465.55 1353.84 474.635C1344.74 483.721 1337.92 476.907 1326.55 465.55C1315.18 454.194 1306.09 490.534 1296.99 497.348C1287.9 504.162 1278.8 488.263 1276.53 481.449C1274.25 474.635 1267.43 254.163 1262.88 254.163C1258.34 254.163 1253.79 256.434 1242.42 245.078C1231.05 233.722 1226.5 226.908 1212.86 229.179C1199.21 231.45 1194.67 222.365 1183.3 213.28C1171.93 204.195 1162.83 224.637 1144.64 222.365C1126.45 220.094 1131 215.551 1117.36 213.28C1103.71 211.009 1099.16 233.722 1087.79 238.264C1076.43 242.807 1071.88 220.094 1067.33 217.823C1062.78 215.551 1055.96 224.637 1044.59 226.908C1033.22 229.179 1035.5 224.637 1026.4 224.637C1017.3 224.637 992.292 240.535 983.197 245.078C974.101 249.621 969.553 233.722 958.184 231.45C946.815 229.179 935.445 233.722 924.076 238.264C912.706 242.807 908.159 229.179 901.337 220.094C894.515 211.009 889.968 226.908 883.146 238.264C876.324 249.621 867.229 235.993 858.133 233.722C849.038 231.45 842.216 251.892 833.121 254.163C824.025 256.434 821.751 217.823 812.656 213.28C803.56 208.738 805.834 215.552 794.465 220.094C783.096 224.637 778.548 201.924 771.726 201.924C764.905 201.924 739.892 211.009 730.796 220.094C723.52 227.362 714.121 251.892 710.331 263.248C698.962 264.005 673.495 265.065 662.58 263.248C648.937 260.977 635.294 240.535 628.472 233.722C621.65 226.908 619.376 233.722 610.281 242.807C601.185 251.892 587.542 238.264 578.447 229.179C569.351 220.094 542.065 254.163 530.695 263.248C521.6 270.516 495.071 246.592 482.944 233.722H453.383C446.562 233.722 430.645 217.823 428.371 211.009C426.097 204.195 412.454 199.653 403.358 215.551C394.263 231.45 382.893 231.45 371.524 229.179C360.154 226.908 364.702 238.264 353.333 249.621C341.964 260.977 337.416 231.45 332.868 222.365C328.32 213.28 321.499 224.637 310.129 224.637C298.76 224.637 298.76 195.11 296.486 179.211C294.667 166.492 277.537 163.312 269.199 163.312C263.136 157.256 249.644 136.966 244.187 104.259C237.365 63.3764 210.079 65.6477 205.531 67.9189C200.983 70.1902 182.792 79.2751 173.697 70.191C164.601 61.107 162.327 36.122 146.41 58.8347C130.493 81.5474 116.85 86.0906 107.754 79.2751C98.6587 72.4595 96.3848 47.479 73.646 74.7332C50.9072 101.987 44.0857 86.0895 30.4424 74.7332C16.7992 63.3768 7.70367 86.0895 -5.93958 101.987C-19.5828 117.885 -33.2261 90.6314 -46.8694 79.2751C-60.5127 67.9187 -60.5126 122.429 -85.5253 101.987C-105.535 85.6342 -115.086 101.23 -117.36 111.072C-123.423 209.494 -136.915 407.7 -142.372 413.151C-149.194 419.965 -153.742 410.88 -160.563 401.795C-167.385 392.71 -171.933 410.88 -181.028 417.694C-190.124 424.508 -192.397 413.151 -212.862 410.88C-233.327 408.609 -235.601 376.811 -242.423 365.455C-249.244 354.098 -267.435 354.098 -276.531 342.741C-285.626 331.383 -296.996 329.114 -315.187 354.098C-333.378 379.082 -344.747 392.71 -356.117 385.896C-367.486 379.082 -360.664 354.097 -378.855 322.3C-397.046 290.502 -449.346 338.198 -456.167 342.741C-462.989 347.283 -472.084 349.555 -481.18 347.284C-490.275 345.012 -494.823 363.182 -501.645 363.182C-508.466 363.182 -549.396 369.996 -572.135 369.996C-594.874 369.996 -590.326 356.368 -608.517 342.741C-623.07 331.839 -628.224 356.368 -628.982 369.996L-649.447 499.458L-690.376 501.73C-694.924 497.187 -705.839 487.647 -713.115 485.83C-720.392 484.013 -746.465 498.7 -758.593 506.271H-799.522L-822.261 519.899Z" fill="url(#paint0_linear_1284_16216)"/>
</g>
<defs>
<linearGradient id="paint0_linear_1284_16216" x1="546.612" y1="2" x2="546.612" y2="652.016" gradientUnits="userSpaceOnUse">
<stop stop-color="#0063F5" stop-opacity="0.3"/>
<stop offset="1" stop-color="#161D26" stop-opacity="0"/>
</linearGradient>
</defs>
</svg>
