<svg t="1751877997174" class="icon" viewBox="0 0 1024 1024" version="1.1"
  xmlns="http://www.w3.org/2000/svg" p-id="4667" width="200" height="200">
  <path
    d="M310.272 512.6144c-93.3888 0-168.96 75.5712-168.96 168.7552h0.8192c-0.2048 1.4336-0.8192 2.4576-0.8192 3.8912 0 16.384 13.5168 29.9008 29.9008 29.9008h278.1184c16.5888 0 29.9008-13.312 29.9008-29.9008 0-1.4336-0.6144-2.6624-0.8192-3.8912h0.8192c0-93.184-75.5712-168.7552-168.96-168.7552z m101.376-101.376c0-55.9104-45.4656-101.376-101.376-101.376S208.896 355.1232 208.896 411.2384c0 55.9104 45.4656 101.1712 101.376 101.1712 55.9104 0.2048 101.376-45.2608 101.376-101.1712z m168.96 33.792h202.752c18.6368 0 33.792-15.1552 33.792-33.792 0-18.432-15.1552-33.792-33.792-33.792h-202.752c-18.6368 0-33.792 15.36-33.792 33.792 0 18.6368 15.1552 33.792 33.792 33.792z m270.336 67.584h-270.336c-18.6368 0-33.792 15.1552-33.792 33.792s15.1552 33.792 33.792 33.792h270.336c18.6368 0 33.792-15.1552 33.792-33.792s-15.1552-33.792-33.792-33.792zM884.736 106.496H141.312C66.7648 106.496 6.144 167.1168 6.144 241.664v540.672c0 74.5472 60.6208 135.168 135.168 135.168h743.424c74.5472 0 135.168-60.6208 135.168-135.168V241.664c0-74.752-60.6208-135.168-135.168-135.168z m67.584 675.84c0 37.2736-30.3104 67.584-67.584 67.584H141.312c-37.2736 0-67.584-30.3104-67.584-67.584V241.664c0-37.2736 30.3104-67.584 67.584-67.584h743.424c37.2736 0 67.584 30.3104 67.584 67.584v540.672z m-168.96-134.7584h-202.752c-18.6368 0-33.792 15.1552-33.792 33.792 0 18.432 15.1552 33.792 33.792 33.792h202.752c18.6368 0 33.792-15.1552 33.792-33.792s-15.1552-33.792-33.792-33.792z m0 0"
    fill="currentColor" p-id="4668"></path>
</svg>