<svg width="16" height="16" viewBox="0 0 16 16" fill="none" xmlns="http://www.w3.org/2000/svg">
  <path
    d="M8 0C12.4183 0 16 3.58172 16 8C16 12.4183 12.4183 16 8 16C3.58172 16 0 12.4183 0 8C0 3.58172 3.58172 0 8 0ZM4.12012 5.42188C4.042 5.54005 4.00003 5.67865 4 5.82031V10.1836C4 10.3765 4.0765 10.5619 4.21289 10.6982C4.34927 10.8346 4.53471 10.9111 4.72754 10.9111H11.2725C11.4653 10.9111 11.6507 10.8346 11.7871 10.6982C11.9235 10.5619 12 10.3765 12 10.1836V5.82031C11.9999 5.67953 11.9581 5.54153 11.8809 5.42383L8.48242 8.73438C8.34823 8.84949 8.17679 8.91217 8 8.91113C7.91221 8.915 7.82457 8.90067 7.74219 8.87012C7.65971 8.83948 7.58359 8.79274 7.51953 8.73242L4.12012 5.42188ZM4.58398 5.08887L7.47266 8.06738C7.54004 8.13967 7.62135 8.19775 7.71191 8.2373C7.80261 8.27687 7.90105 8.29764 8 8.29785C8.19716 8.28937 8.3847 8.20864 8.52734 8.07227L11.4229 5.08887H4.58398Z"
    fill="#697072" />
</svg>