<svg width="32" height="32" viewBox="0 0 32 32" fill="none" xmlns="http://www.w3.org/2000/svg">
<path d="M28.7879 5.18984H26.0629V3.23047C26.0629 2.54297 25.5004 1.98047 24.8129 1.98047H23.4129C22.7254 1.98047 22.1629 2.54297 22.1629 3.23047V5.18984H9.93164V3.23047C9.93164 2.54297 9.36914 1.98047 8.68164 1.98047H7.28164C6.59414 1.98047 6.03164 2.54297 6.03164 3.23047V5.18984H3.30664C2.61914 5.18984 2.05664 5.75234 2.05664 6.43984V28.6742C2.05664 29.3617 2.61914 29.9242 3.30664 29.9242H28.7848C29.4723 29.9242 30.0348 29.3617 30.0348 28.6742V6.43984C30.0379 5.75234 29.4754 5.18984 28.7879 5.18984ZM3.99414 27.9867V11.9273H28.1004V27.9867H3.99414Z" fill="currentColor"/>
<path d="M6 18.0078C6 18.5382 6.21071 19.047 6.58579 19.422C6.96086 19.7971 7.46957 20.0078 8 20.0078C8.53043 20.0078 9.03914 19.7971 9.41421 19.422C9.78929 19.047 10 18.5382 10 18.0078C10 17.4774 9.78929 16.9687 9.41421 16.5936C9.03914 16.2185 8.53043 16.0078 8 16.0078C7.46957 16.0078 6.96086 16.2185 6.58579 16.5936C6.21071 16.9687 6 17.4774 6 18.0078Z" fill="currentColor"/>
<path d="M14.0098 18.0078C14.0098 18.5382 14.2205 19.047 14.5956 19.422C14.9706 19.7971 15.4793 20.0078 16.0098 20.0078C16.5402 20.0078 17.0489 19.7971 17.424 19.422C17.7991 19.047 18.0098 18.5382 18.0098 18.0078C18.0098 17.4774 17.7991 16.9687 17.424 16.5936C17.0489 16.2185 16.5402 16.0078 16.0098 16.0078C15.4793 16.0078 14.9706 16.2185 14.5956 16.5936C14.2205 16.9687 14.0098 17.4774 14.0098 18.0078Z" fill="currentColor"/>
<path d="M22.0342 18.0078C22.0342 18.5382 22.2449 19.047 22.62 19.422C22.995 19.7971 23.5037 20.0078 24.0342 20.0078C24.5646 20.0078 25.0733 19.7971 25.4484 19.422C25.8235 19.047 26.0342 18.5382 26.0342 18.0078C26.0342 17.4774 25.8235 16.9687 25.4484 16.5936C25.0733 16.2185 24.5646 16.0078 24.0342 16.0078C23.5037 16.0078 22.995 16.2185 22.62 16.5936C22.2449 16.9687 22.0342 17.4774 22.0342 18.0078Z" fill="currentColor"/>
<path d="M6 23.9883C6 24.5187 6.21071 25.0274 6.58579 25.4025C6.96086 25.7776 7.46957 25.9883 8 25.9883C8.53043 25.9883 9.03914 25.7776 9.41421 25.4025C9.78929 25.0274 10 24.5187 10 23.9883C10 23.4578 9.78929 22.9491 9.41421 22.5741C9.03914 22.199 8.53043 21.9883 8 21.9883C7.46957 21.9883 6.96086 22.199 6.58579 22.5741C6.21071 22.9491 6 23.4578 6 23.9883Z" fill="currentColor"/>
<path d="M14.0098 23.9883C14.0098 24.5187 14.2205 25.0274 14.5956 25.4025C14.9706 25.7776 15.4793 25.9883 16.0098 25.9883C16.5402 25.9883 17.0489 25.7776 17.424 25.4025C17.7991 25.0274 18.0098 24.5187 18.0098 23.9883C18.0098 23.4578 17.7991 22.9491 17.424 22.5741C17.0489 22.199 16.5402 21.9883 16.0098 21.9883C15.4793 21.9883 14.9706 22.199 14.5956 22.5741C14.2205 22.9491 14.0098 23.4578 14.0098 23.9883Z" fill="currentColor"/>
<path d="M22.0342 23.9883C22.0342 24.5187 22.2449 25.0274 22.62 25.4025C22.995 25.7776 23.5037 25.9883 24.0342 25.9883C24.5646 25.9883 25.0733 25.7776 25.4484 25.4025C25.8235 25.0274 26.0342 24.5187 26.0342 23.9883C26.0342 23.4578 25.8235 22.9491 25.4484 22.5741C25.0733 22.199 24.5646 21.9883 24.0342 21.9883C23.5037 21.9883 22.995 22.199 22.62 22.5741C22.2449 22.9491 22.0342 23.4578 22.0342 23.9883Z" fill="currentColor"/>
</svg>
