<svg width="30" height="30" viewBox="0 0 30 30" fill="none" xmlns="http://www.w3.org/2000/svg">
      <path
        d="M15.5817 21.9902C16.597 21.9899 17.4203 21.1667 17.4206 20.1514V9.85254H22.7936C23.6127 9.85244 24.0228 8.86253 23.444 8.2832L16.2536 1.09277C15.8945 0.73365 15.3119 0.73365 14.9528 1.09277L7.76237 8.2832C7.18341 8.86243 7.59289 9.85217 8.41178 9.85254L13.7428 9.85254L13.7428 20.1514C13.7431 21.1669 14.5661 21.9902 15.5817 21.9902Z"
        fill="currentColor"
      />
      <path
        d="M25.2998 20.4199C26.2388 20.4199 27 21.1812 27 22.1201V26.9912C27 27.9302 26.2388 28.6914 25.2998 28.6914C25.233 28.6914 25.1673 28.6862 25.1025 28.6787C25.0284 28.6866 24.9532 28.6914 24.877 28.6914L5.12891 28.6914C5.05136 28.6914 4.97481 28.6868 4.89941 28.6787C4.83432 28.6863 4.7683 28.6914 4.70117 28.6914C3.76221 28.6914 3.00098 27.9302 3.00098 26.9912L3.00098 22.1201C3.00098 21.1812 3.76221 20.4199 4.70117 20.4199C5.6401 20.42 6.40137 21.1812 6.40137 22.1201V24.4482L23.5996 24.4482V22.1201C23.5996 21.1812 24.3609 20.4199 25.2998 20.4199Z"
        fill="currentColor"
      />
    </svg>