<svg width="30" height="31" viewBox="0 0 30 31" fill="none" xmlns="http://www.w3.org/2000/svg">
      <path
        d="M24.6738 4.20536C25.479 4.22288 26.2467 4.59771 26.8125 5.25028C27.3784 5.90298 27.6982 6.78234 27.7031 7.6995V11.4817H27.4678C26.5609 11.4818 25.6911 11.8931 25.0498 12.6233C24.4087 13.3535 24.0479 14.3437 24.0479 15.3763C24.0479 16.4089 24.4086 17.3999 25.0498 18.1302C25.6911 18.8602 26.561 19.2707 27.4678 19.2708L27.5654 19.2483H27.7031V22.5198C27.7006 22.9833 27.6167 23.4416 27.458 23.8684C27.2993 24.2953 27.0679 24.6824 26.7773 25.0071C26.4867 25.3318 26.1425 25.5884 25.7646 25.761C25.387 25.9335 24.9831 26.0188 24.5762 26.013H5.4043C4.99727 26.0159 4.59359 25.9275 4.2168 25.7522C3.83991 25.5769 3.49681 25.3183 3.20801 24.9915C2.91926 24.6647 2.69056 24.2759 2.53418 23.8479C2.37781 23.4199 2.29688 22.9609 2.29688 22.4974V19.2268H2.53125C3.43824 19.2268 4.30786 18.8155 4.94922 18.0852C5.59058 17.3549 5.95117 16.3642 5.95117 15.3313C5.95105 14.2987 5.59045 13.3086 4.94922 12.5784C4.30787 11.8482 3.4382 11.4378 2.53125 11.4378H2.29688V7.6995C2.29942 7.23589 2.38226 6.77681 2.54102 6.34989C2.69976 5.92302 2.93112 5.53591 3.22168 5.21122C3.51218 4.88664 3.85669 4.63095 4.23438 4.45829C4.61219 4.28566 5.01677 4.1995 5.42383 4.20536H24.6738ZM14.9717 9.83915V10.8196C14.2135 10.8923 13.6007 11.1504 13.1328 11.594C12.6648 12.0297 12.4307 12.5825 12.4307 13.2522C12.4307 13.7847 12.5473 14.2044 12.7812 14.511C13.0232 14.8175 13.3136 15.0435 13.6523 15.1888C13.9911 15.3259 14.4313 15.4628 14.9717 15.5999V18.263C14.641 18.2065 14.3874 18.0769 14.21 17.8753C14.0325 17.6656 13.9315 17.4037 13.9072 17.0891H12.4307C12.4307 17.7507 12.6649 18.2834 13.1328 18.6868C13.6007 19.09 14.2136 19.328 14.9717 19.4007V20.3811H15.7588V19.4007C16.2832 19.3523 16.7351 19.2071 17.1143 18.9651C17.5014 18.7232 17.7917 18.4244 17.9854 18.0696C18.187 17.7147 18.288 17.3352 18.2881 16.9319C18.2881 16.3994 18.1715 15.9834 17.9375 15.6849C17.7035 15.3782 17.417 15.156 17.0781 15.0188C16.7392 14.8736 16.2994 14.7368 15.7588 14.6077V11.9934C16.0411 12.066 16.2671 12.203 16.4365 12.4046C16.606 12.5982 16.7024 12.8205 16.7266 13.0706H18.2041C18.1476 12.4009 17.9006 11.8766 17.4648 11.4974C17.0372 11.1101 16.4687 10.8842 15.7588 10.8196V9.83915H14.9717ZM15.7588 15.8059C16.1219 15.9189 16.4001 16.0686 16.5938 16.2542C16.7954 16.4317 16.8965 16.6815 16.8965 17.0042C16.8965 17.3269 16.7955 17.6052 16.5938 17.8391C16.392 18.0651 16.1138 18.2065 15.7588 18.263V15.8059ZM14.9717 14.4016C14.6089 14.2887 14.3266 14.1398 14.125 13.9544C13.9314 13.7689 13.8341 13.5106 13.834 13.18C13.834 12.825 13.9351 12.5421 14.1367 12.3323C14.3464 12.1226 14.6249 11.9977 14.9717 11.9573V14.4016Z"
        fill="currentColor"
      />
    </svg>