<svg
  className="detrade-icon"
  xmlns="http://www.w3.org/2000/svg"
  width="25"
  height="25"
  viewBox="0 0 25 25"
  fill="none"
>
  <path
    d="M20.6479 13.2178C21.5441 13.218 22.2289 13.9036 22.229 14.7998V20.7588C22.1762 21.6022 21.4913 22.2879 20.5952 22.2881H14.689C13.7926 22.2881 13.1071 21.6024 13.1069 20.7061V14.7998C13.107 13.9035 13.7926 13.2178 14.689 13.2178H20.6479ZM17.6519 1.39551C17.8308 1.39551 18.0086 1.432 18.1733 1.50195C18.3379 1.57188 18.4867 1.6741 18.6108 1.80273L22.2251 5.41602C22.7685 5.95951 22.7685 6.79046 22.2251 7.33398L18.6763 10.8838C18.1002 11.3957 17.2374 11.4264 16.6938 10.8838L13.1118 7.30273C12.983 7.17849 12.8811 7.029 12.811 6.86426C12.7411 6.69959 12.7046 6.52266 12.7046 6.34375C12.7046 6.16469 12.741 5.98706 12.811 5.82227C12.881 5.65773 12.9832 5.5089 13.1118 5.38477L16.6938 1.80273C16.818 1.6741 16.9668 1.57188 17.1313 1.50195C17.2959 1.43206 17.4731 1.39557 17.6519 1.39551ZM9.25732 1.82812C10.1538 1.82812 10.8394 2.51373 10.8394 3.41016V9.36914C10.7864 10.2126 10.1008 10.8975 9.20459 10.8975H3.29932C2.40305 10.8975 1.71753 10.2126 1.71729 9.31641V3.41016C1.71729 2.51373 2.40289 1.82812 3.29932 1.82812H9.25732Z"
    fill="currentColor"
  />
  <circle cx="6.42968" cy="17.5351" r="5.07714" fill="currentColor" />
</svg>