<svg width="8" height="16" viewBox="0 0 8 16" fill="none" xmlns="http://www.w3.org/2000/svg">
      <path
        d="M7.49979 15.0496C7.50023 15.0266 7.49997 15.0035 7.49899 14.9802C7.49137 14.7989 7.44056 14.616 7.3497 14.4429C7.25884 14.2697 7.12985 14.1099 6.97068 13.9734C6.81152 13.8368 6.62554 13.7264 6.42423 13.6489C6.28609 13.9743 6.31038 14.3505 6.49182 14.6963C6.65633 15.0098 6.93806 15.2756 7.2849 15.4472L7.49979 15.0496Z"
        fill="currentColor"
      />
      <path
        d="M7.21607 15.5746C7.03762 15.4573 6.85566 15.3302 6.66451 15.1905C6.21753 14.8608 5.79402 14.5073 5.3971 14.1327C5.17939 13.9246 4.97242 13.7099 4.76817 13.4905C2.96357 11.5655 1.94671 9.23029 1.90389 6.91284C1.86108 4.59538 2.79518 2.45086 4.53505 0.872184C4.68766 0.89317 4.83966 0.888048 4.98218 0.857124C5.1247 0.8262 5.25488 0.770096 5.36508 0.692086C5.4766 0.610088 5.56499 0.507497 5.62513 0.390298C5.68527 0.273098 5.71594 0.143633 5.71535 0.00945016C5.40921 -0.0260554 5.11391 0.0392752 4.88947 0.192168C4.66508 0.345018 4.52835 0.573916 4.50702 0.832359C3.96164 1.3274 3.48719 1.87843 3.09174 2.47612C1.95182 4.21529 1.54508 6.29986 1.93167 8.42157C2.31826 10.5433 3.47765 12.5895 5.2384 14.2576C5.64425 14.643 6.07856 15.0059 6.53789 15.3433C6.74827 15.4958 6.93948 15.6297 7.12127 15.75L7.21607 15.5746Z"
        fill="currentColor"
      />
      <path
        d="M5.69491 15.9273C5.28129 15.8107 4.91703 15.563 4.68141 15.238C4.85334 15.1528 5.04838 15.1013 5.2546 15.0867C5.46081 15.072 5.67383 15.0945 5.88061 15.1527C6.08739 15.211 6.28356 15.3038 6.4571 15.4254C6.63064 15.547 6.77789 15.6949 6.88981 15.86C6.53798 16.0196 6.10852 16.0438 5.69491 15.9273Z"
        fill="currentColor"
      />
      <path
        d="M5.11094 13.4274C5.22384 13.787 5.49202 14.112 5.85757 14.3323C5.96709 14.1895 6.03834 14.025 6.06694 13.8489C6.09554 13.6727 6.08088 13.4887 6.02387 13.308C5.96775 13.1285 5.87045 12.9561 5.73803 12.8017C5.60562 12.6472 5.44093 12.5139 5.25423 12.4102C5.04952 12.7023 4.99805 13.0677 5.11094 13.4274Z"
        fill="currentColor"
      />
      <path
        d="M4.05621 14.4879C3.66367 14.3128 3.34718 14.0198 3.17477 13.6719C3.36606 13.6167 3.5736 13.5973 3.78473 13.6149C3.99586 13.6326 4.20617 13.6869 4.40285 13.7747C4.60012 13.8609 4.77951 13.9795 4.92953 14.1231C5.07954 14.2667 5.19687 14.4321 5.27399 14.6085C4.88601 14.7064 4.44875 14.6631 4.05621 14.4879Z"
        fill="currentColor"
      />
      <path
        d="M4.09599 12.2277C4.13813 12.5518 4.32643 12.865 4.61981 13.099C4.74296 12.9904 4.83475 12.8577 4.88927 12.7093C4.94379 12.5609 4.95983 12.4002 4.93635 12.2375C4.91518 12.076 4.85625 11.9157 4.76314 11.7663C4.67004 11.6169 4.54472 11.4816 4.39486 11.3686C4.16128 11.5947 4.05385 11.9035 4.09599 12.2277Z"
        fill="currentColor"
      />
      <path
        d="M2.98 13.0174C2.65608 12.8186 2.41993 12.5275 2.32244 12.2066C2.50308 12.1814 2.69272 12.1895 2.8795 12.2305C3.06627 12.2714 3.24615 12.3444 3.40788 12.4447C3.5696 12.5442 3.71028 12.6686 3.82137 12.8102C3.93246 12.9519 4.01167 13.108 4.05419 13.269C3.6897 13.3064 3.30393 13.2161 2.98 13.0174Z"
        fill="currentColor"
      />
      <path
        d="M3.27583 10.8478C3.26002 11.1668 3.39207 11.4949 3.64365 11.7614C3.78587 11.6719 3.90141 11.5557 3.98316 11.4199C4.06492 11.2841 4.11117 11.1317 4.11908 10.9719C4.127 10.8121 4.09641 10.6483 4.0292 10.4906C3.96199 10.3329 3.85956 10.1846 3.72821 10.0548C3.45405 10.244 3.29163 10.5287 3.27583 10.8478Z"
        fill="currentColor"
      />
      <path
        d="M2.00235 11.4602C1.71186 11.2245 1.52641 10.9111 1.4859 10.5876C1.67235 10.5878 1.86174 10.6209 2.04263 10.6847C2.22352 10.7486 2.39216 10.8419 2.5384 10.9591C2.68294 11.0784 2.80175 11.2186 2.88779 11.3713C2.97384 11.5241 3.02537 11.6863 3.03931 11.8483C2.66518 11.8353 2.29284 11.696 2.00235 11.4602Z"
        fill="currentColor"
      />
      <path
        d="M2.70048 9.40168C2.62586 9.70845 2.69907 10.0441 2.90436 10.3363L2.90337 10.338C3.06314 10.2705 3.20098 10.1737 3.30857 10.0535C3.41616 9.9333 3.49126 9.79224 3.52932 9.63882C3.56732 9.48506 3.56687 9.32203 3.52799 9.15987C3.48911 8.99771 3.41263 8.83989 3.30331 8.69623C2.99158 8.84158 2.7751 9.09492 2.70048 9.40168Z"
        fill="currentColor"
      />
      <path
        d="M1.30413 9.81833C1.05469 9.55031 0.926368 9.22136 0.947093 8.903C1.13484 8.92918 1.31936 8.98762 1.48939 9.07476C1.65942 9.1619 1.8114 9.27592 1.93604 9.40984C2.06069 9.54377 2.1554 9.6948 2.21438 9.85372C2.27336 10.0126 2.29539 10.1761 2.27912 10.3342C1.90397 10.2717 1.55357 10.0863 1.30413 9.81833Z"
        fill="currentColor"
      />
      <path
        d="M2.38567 7.92361C2.25461 8.20938 2.267 8.54308 2.42018 8.85273C2.59376 8.81093 2.75056 8.7371 2.88063 8.63593C3.0107 8.53476 3.11122 8.40846 3.17577 8.26505C3.24085 8.12153 3.26953 7.96427 3.26008 7.80275C3.25063 7.64122 3.20325 7.47877 3.12079 7.32519C2.78077 7.42291 2.51674 7.63784 2.38567 7.92361Z"
        fill="currentColor"
      />
      <path
        d="M0.90183 8.14117C0.697914 7.84784 0.626649 7.51165 0.703414 7.20507C0.889291 7.25449 1.06626 7.33526 1.22333 7.44237C1.3804 7.54949 1.51421 7.68065 1.61645 7.82771C1.71868 7.97478 1.78716 8.1346 1.81762 8.29724C1.84808 8.45989 1.83988 8.62189 1.79352 8.77317C1.42598 8.66147 1.10575 8.4345 0.90183 8.14117Z"
        fill="currentColor"
      />
      <path
        d="M2.23304 6.62614C2.07375 6.85776 2.03579 7.14642 2.12736 7.42968C2.2884 7.41167 2.43912 7.36474 2.57025 7.29178C2.70139 7.21882 2.81018 7.12138 2.88991 7.00545C2.96963 6.88952 3.01862 6.75754 3.03385 6.61766C3.04909 6.47777 3.03026 6.33293 2.9785 6.19205C2.66013 6.23858 2.39233 6.39452 2.23304 6.62614Z"
        fill="currentColor"
      />
      <path
        d="M0.881879 6.6535C0.743604 6.38057 0.728905 6.08536 0.840949 5.83113L0.840416 5.83086C0.998596 5.89316 1.14435 5.98137 1.26861 6.09001C1.39288 6.19864 1.493 6.3254 1.5628 6.4624C1.63007 6.59975 1.66631 6.74382 1.66939 6.88616C1.67246 7.02849 1.6423 7.16622 1.58069 7.29127C1.271 7.15537 1.02015 6.92643 0.881879 6.6535Z"
        fill="currentColor"
      />
      <path
        d="M2.38798 5.33403C2.19104 5.54055 2.10639 5.81627 2.15206 6.10235C2.31798 6.10495 2.47826 6.07778 2.62284 6.02254C2.76742 5.9673 2.89316 5.88518 2.99216 5.78135C3.09116 5.67753 3.16129 5.55423 3.19813 5.41922C3.23496 5.28421 3.23772 5.14041 3.20622 4.99684C2.87854 5.0065 2.58491 5.1275 2.38798 5.33403Z"
        fill="currentColor"
      />
      <path
        d="M1.02142 5.19792C0.926967 4.91576 0.960959 4.62709 1.11609 4.39386C1.26438 4.47434 1.39578 4.57814 1.50228 4.69891C1.60878 4.81967 1.68811 4.95485 1.73542 5.09616C1.78272 5.23746 1.797 5.38191 1.77738 5.52065C1.75775 5.65939 1.70464 5.7895 1.62129 5.90299C1.33125 5.73321 1.11588 5.48007 1.02142 5.19792Z"
        fill="currentColor"
      />
      <path
        d="M2.75405 4.09681C2.52177 4.2737 2.39145 4.53146 2.39091 4.81507L2.39165 4.81379C2.55754 4.83438 2.72226 4.82658 2.87619 4.79082C3.03012 4.75506 3.17016 4.69206 3.28812 4.60552C3.40531 4.51664 3.49654 4.40525 3.55609 4.27838C3.61563 4.1515 3.64221 4.01188 3.63412 3.86828C3.30215 3.83791 2.98632 3.91992 2.75405 4.09681Z"
        fill="currentColor"
      />
      <path
        d="M1.3962 3.79948C1.34575 3.5132 1.42726 3.23594 1.62296 3.02818C1.76047 3.12349 1.87707 3.23996 1.96541 3.37023C2.05375 3.5005 2.11191 3.64176 2.13622 3.78507C2.1601 3.92799 2.15082 4.06988 2.10892 4.20236C2.06702 4.33484 1.99337 4.45521 1.89229 4.55637C1.62499 4.35785 1.44666 4.08577 1.3962 3.79948Z"
        fill="currentColor"
      />
      <path
        d="M3.23307 3.06877C2.98823 3.20908 2.82975 3.43411 2.79145 3.69583C2.9472 3.73209 3.10584 3.74121 3.25759 3.72263C3.40934 3.70404 3.55097 3.65816 3.67376 3.58779C3.79655 3.51743 3.89789 3.42408 3.97153 3.31351C4.04516 3.20293 4.08954 3.07747 4.10191 2.94487C3.78971 2.88401 3.47791 2.92847 3.23307 3.06877Z"
        fill="currentColor"
      />
      <path
        d="M1.97954 2.65742C1.97057 2.3883 2.08527 2.14066 2.29894 1.96789C2.41663 2.07012 2.5117 2.18948 2.57827 2.31862C2.64484 2.44776 2.6815 2.58394 2.68599 2.71875C2.69049 2.85355 2.66272 2.98413 2.6044 3.10243C2.54607 3.22073 2.45844 3.32423 2.34689 3.40655C2.12043 3.19557 1.98851 2.92653 1.97954 2.65742Z"
        fill="currentColor"
      />
      <path
        d="M3.87214 2.12306C3.60386 2.2336 3.41116 2.43721 3.33578 2.68975C3.48767 2.74177 3.64634 2.76768 3.80209 2.7659C3.95784 2.76412 4.10739 2.73468 4.24157 2.6794C4.37575 2.62411 4.49173 2.54414 4.58242 2.44438C4.67311 2.34462 4.73659 2.22717 4.76897 2.09923C4.46264 2.00396 4.14041 2.01253 3.87214 2.12306Z"
        fill="currentColor"
      />
      <path
        d="M2.66538 1.58658C2.69506 1.32245 2.84721 1.09278 3.08871 0.947596L3.08822 0.948451C3.1914 1.06153 3.26936 1.18866 3.31736 1.3221C3.36536 1.45555 3.3824 1.59255 3.36746 1.7248C3.35454 1.85681 3.30895 1.98138 3.23363 2.09044C3.15831 2.1995 3.05494 2.2906 2.93024 2.35786C2.73089 2.12793 2.6357 1.85072 2.66538 1.58658Z"
        fill="currentColor"
      />
      <path
        d="M4.65215 1.2695C4.36589 1.34888 4.14181 1.52632 4.02772 1.76397L4.02674 1.76568C4.17285 1.83334 4.32969 1.87624 4.48768 1.89175C4.64568 1.90726 4.80153 1.89506 4.94572 1.8559C5.08828 1.8137 5.21597 1.7463 5.32141 1.6576C5.42685 1.56889 5.50796 1.46063 5.56006 1.33907C5.2642 1.21509 4.93841 1.19012 4.65215 1.2695Z"
        fill="currentColor"
      />
      <path
        d="M3.514 0.618029C3.58128 0.363585 3.76671 0.155501 4.03008 0.0388883C4.11817 0.159613 4.17888 0.291455 4.20852 0.426381C4.23815 0.561307 4.2361 0.69649 4.20246 0.823676C4.16883 0.950862 4.10434 1.06739 4.0129 1.16615C3.92147 1.26492 3.80502 1.34384 3.67066 1.39812C3.503 1.15276 3.44671 0.872473 3.514 0.618029Z"
        fill="currentColor"
      />
    </svg>