<svg width="30" height="30" viewBox="0 0 30 30" fill="none" xmlns="http://www.w3.org/2000/svg">
<path d="M25.0166 20.457C25.9209 20.4571 26.6543 21.1904 26.6543 22.0947V26.7871C26.6543 27.6914 25.9209 28.4247 25.0166 28.4248C24.9488 28.4248 24.882 28.4191 24.8164 28.4111C24.7481 28.418 24.6785 28.4219 24.6084 28.4219L5.58887 28.4219C5.51774 28.4219 5.44718 28.4172 5.37793 28.4102C5.31192 28.4183 5.24496 28.4248 5.17676 28.4248C4.27241 28.4248 3.53909 27.6915 3.53906 26.7871L3.53906 22.0947C3.53906 21.1904 4.27239 20.457 5.17676 20.457C6.08104 20.4571 6.81445 21.1904 6.81445 22.0947V24.335L23.3789 24.335V22.0947C23.3789 21.1904 24.1122 20.457 25.0166 20.457Z" fill="currentColor"/>
<path d="M20.8325 15.2242C20.8325 16.3633 20.4475 17.3433 19.6776 18.1657C18.9068 18.9873 17.9069 19.4956 16.6761 19.689V21.6413C16.6777 21.689 16.6692 21.7365 16.6513 21.7807C16.6333 21.8249 16.6063 21.8649 16.5719 21.898C16.5364 21.9316 16.4945 21.9579 16.4487 21.9752C16.403 21.9925 16.3542 22.0005 16.3053 21.9988H14.7371C14.6887 21.9994 14.6408 21.9903 14.596 21.9721C14.5512 21.954 14.5105 21.9271 14.4762 21.893C14.4411 21.8612 14.4131 21.8224 14.394 21.779C14.3749 21.7356 14.3651 21.6887 14.3654 21.6413V19.689C13.8617 19.6234 13.3659 19.5073 12.8855 19.3423C12.4801 19.2089 12.0861 19.0431 11.7072 18.8465C11.4096 18.6866 11.1227 18.5076 10.8481 18.3107C10.661 18.1804 10.4808 18.0405 10.3082 17.8916C10.2371 17.8283 10.1693 17.7615 10.1048 17.6916C9.97317 17.5349 9.96567 17.3824 10.0815 17.2333L11.2773 15.7267C11.3314 15.6517 11.4206 15.6075 11.5439 15.5934C11.6606 15.5784 11.7531 15.6117 11.8231 15.6934L11.8464 15.7159C12.7213 16.4525 13.6613 16.9175 14.6679 17.1108C14.9537 17.1699 15.2404 17.1999 15.5262 17.1999C16.1536 17.1999 16.7053 17.0399 17.1811 16.72C17.6569 16.4 17.8952 15.9467 17.8952 15.3584C17.8952 15.1501 17.8369 14.9534 17.7202 14.7668C17.6141 14.5927 17.4833 14.435 17.3319 14.2984C17.1886 14.1718 16.9628 14.0318 16.6528 13.8801C16.4005 13.7541 16.1448 13.6349 15.8862 13.5227C15.5792 13.3956 15.2697 13.2748 14.9579 13.1602C14.6562 13.041 14.4179 12.9477 14.2438 12.881C14.0039 12.7869 13.7658 12.6883 13.5296 12.5852C13.2827 12.4813 13.0408 12.3659 12.8047 12.2394C12.5816 12.1142 12.3627 11.9819 12.148 11.8428C11.9264 11.705 11.7185 11.5462 11.5272 11.3686C11.3494 11.1954 11.1808 11.013 11.0223 10.822C10.8548 10.6268 10.7159 10.4088 10.6098 10.1745C10.5063 9.93515 10.4246 9.68694 10.3657 9.4329C10.2988 9.14751 10.2658 8.85523 10.2673 8.56212C10.2673 7.53552 10.6465 6.63474 11.4048 5.86145C12.163 5.08733 13.1505 4.58903 14.3654 4.36571V2.35833C14.3654 2.26167 14.4021 2.1775 14.4762 2.10668C14.5104 2.07246 14.5511 2.04541 14.5959 2.02709C14.6407 2.00878 14.6887 1.99958 14.7371 2.00002H16.3045C16.4128 2.00002 16.5019 2.03335 16.5711 2.10001C16.6411 2.16667 16.6761 2.25333 16.6761 2.35749V4.32154C17.1177 4.36571 17.5452 4.45153 17.9594 4.57819C18.3735 4.70485 18.7093 4.82901 18.9693 4.9515C19.2276 5.07483 19.4743 5.21399 19.7059 5.37065C19.9392 5.52647 20.0892 5.6348 20.1592 5.69396C20.2284 5.75312 20.2867 5.80562 20.3334 5.85062C20.465 5.98394 20.4842 6.1256 20.3917 6.27393L19.4509 7.90383C19.4264 7.9546 19.3887 7.9979 19.3419 8.02925C19.295 8.0606 19.2406 8.07886 19.1843 8.08215C19.1294 8.09298 19.0728 8.09157 19.0185 8.07803C18.9642 8.0645 18.9135 8.03916 18.8701 8.00382C18.8161 7.95686 18.7599 7.91237 18.7018 7.8705C18.5553 7.76552 18.4043 7.66683 18.2493 7.57468C18.0307 7.44131 17.8039 7.32192 17.5702 7.2172C17.2907 7.09598 17.0013 6.99897 16.7053 6.92722C16.3811 6.84328 16.0477 6.80017 15.7128 6.79889C14.977 6.79889 14.3771 6.95888 13.9129 7.27886C13.4488 7.59885 13.2163 8.01215 13.2163 8.51712C13.2163 8.71128 13.2496 8.8896 13.3146 9.05292C13.3813 9.21708 13.4946 9.37124 13.6571 9.51623C13.8196 9.66122 13.9729 9.78455 14.1154 9.88454C14.2596 9.98454 14.4762 10.1004 14.7662 10.2304C15.0562 10.3603 15.2912 10.4612 15.4687 10.532C15.647 10.6028 15.9178 10.7045 16.2811 10.8387C16.6919 10.9878 17.0053 11.1053 17.2219 11.1903C17.4386 11.2761 17.7327 11.4061 18.1044 11.5811C18.476 11.7561 18.7676 11.9144 18.981 12.0552C19.1935 12.1969 19.4334 12.3827 19.7009 12.6135C19.9676 12.8435 20.1726 13.0802 20.3159 13.3218C20.4592 13.5635 20.5809 13.8485 20.6817 14.176C20.7817 14.5026 20.8325 14.8526 20.8325 15.2251V15.2242Z" fill="currentColor"/>
</svg>
