<svg width="375" height="1665" viewBox="0 0 375 1665" fill="none"
  xmlns="http://www.w3.org/2000/svg">
  <g opacity="0.35">
    <path d="M-6.33678 144.28L-14.804 177.715C-76.1037 419.773 144.799 638.833 386.402 575.575L421.126 566.483C648.217 507.025 855.357 713.948 796.074 941.038L775.336 1020.47C732.444 1184.78 863.593 1342.64 1033.01 1330.64V1330.64" stroke="#8D8D8D"/>
    <path d="M-22.2284 160.705L-30.6956 194.14C-91.9953 436.197 128.907 655.257 370.51 592L405.235 582.908C632.326 523.45 839.466 730.373 780.182 957.463L759.445 1036.9C716.552 1201.2 847.701 1359.07 1017.12 1347.07V1347.07" stroke="#8D8D8D"/>
    <path d="M-38.12 177.13L-46.5872 210.565C-107.887 452.622 113.016 671.682 354.619 608.425L389.343 599.333C616.434 539.875 823.574 746.798 764.291 973.888L743.553 1053.32C700.66 1217.63 831.81 1375.49 1001.23 1363.49V1363.49" stroke="#8D8D8D"/>
    <path d="M-55.0839 193.268L-63.5511 226.703C-124.851 468.76 96.0517 687.82 337.655 624.562L372.379 615.47C599.47 556.012 806.61 762.936 747.327 990.025L726.589 1069.46C683.696 1233.77 814.846 1391.63 984.268 1379.63V1379.63" stroke="#8D8D8D"/>
    <path d="M-70.6883 208.62L-79.1556 242.055C-140.455 484.113 80.4472 703.173 322.05 639.915L356.775 630.823C583.866 571.365 791.006 778.288 731.722 1005.38L710.985 1084.81C668.092 1249.12 799.241 1406.98 968.663 1394.98V1394.98" stroke="#8D8D8D"/>
    <path d="M-86.5799 225.045L-95.0472 258.48C-156.347 500.538 64.5556 719.598 306.159 656.34L340.883 647.248C567.974 587.79 775.114 794.713 715.831 1021.8L695.093 1101.24C652.2 1265.54 783.35 1423.41 952.772 1411.41V1411.41" stroke="#8D8D8D"/>
    <path d="M-103.544 241.183L-112.011 274.618C-173.311 516.675 47.5917 735.735 289.195 672.477L323.919 663.386C551.01 603.928 758.15 810.851 698.867 1037.94L678.129 1117.38C635.237 1281.68 766.386 1439.55 935.808 1427.55V1427.55" stroke="#8D8D8D"/>
    <path d="M-119.435 257.608L-127.903 291.043C-189.202 533.1 31.7001 752.16 273.303 688.902L308.028 679.81C535.119 620.352 742.259 827.275 682.975 1054.37L662.238 1133.8C619.345 1298.11 750.494 1455.97 919.916 1443.97V1443.97" stroke="#8D8D8D"/>
    <path d="M-135.327 274.032L-143.794 307.468C-205.094 549.525 15.8085 768.585 257.412 705.327L292.136 696.235C519.227 636.777 726.367 843.7 667.084 1070.79L646.346 1150.23C603.453 1314.53 734.603 1472.4 904.025 1460.4V1460.4" stroke="#8D8D8D"/>
    <path d="M-152.29 290.17L-160.757 323.605C-222.057 565.662 -1.15435 784.722 240.449 721.465L275.173 712.373C502.264 652.915 709.404 859.838 650.121 1086.93L629.383 1166.36C586.49 1330.67 717.64 1488.53 887.062 1476.53V1476.53" stroke="#8D8D8D"/>
    <path d="M-168.182 306.595L-176.649 340.03C-237.948 582.087 -17.046 801.147 224.557 737.89L259.282 728.798C486.373 669.34 693.513 876.263 634.229 1103.35L613.492 1182.79C570.599 1347.09 701.748 1504.96 871.17 1492.96V1492.96" stroke="#8D8D8D"/>
    <path d="M-183.786 321.948L-192.253 355.383C-253.553 597.44 -32.6504 816.5 208.953 753.242L243.677 744.151C470.768 684.693 677.908 891.616 618.625 1118.71L597.887 1198.14C554.994 1362.45 686.144 1520.31 855.566 1508.31V1508.31" stroke="#8D8D8D"/>
    <path d="M-200.75 338.085L-209.217 371.52C-270.517 613.578 -49.6143 832.638 191.989 769.38L226.713 760.288C453.804 700.83 660.944 907.753 601.661 1134.84L580.923 1214.28C538.03 1378.58 669.18 1536.45 838.602 1524.45V1524.45" stroke="#8D8D8D"/>
    <path d="M-216.641 354.51L-225.109 387.945C-286.408 630.002 -65.5059 849.062 176.097 785.805L210.822 776.713C437.913 717.255 645.053 924.178 585.769 1151.27L565.032 1230.7C522.139 1395.01 653.288 1552.87 822.71 1540.87V1540.87" stroke="#8D8D8D"/>
    <path d="M-232.533 370.935L-241 404.37C-302.3 646.427 -81.3975 865.487 160.206 802.23L194.93 793.138C422.021 733.68 629.161 940.603 569.878 1167.69L549.14 1247.13C506.247 1411.43 637.397 1569.3 806.819 1557.3V1557.3" stroke="#8D8D8D"/>
    <path d="M-248.138 386.288L-256.605 419.723C-317.904 661.78 -97.002 880.84 144.601 817.582L179.326 808.491C406.417 749.033 613.557 955.956 554.273 1183.05L533.536 1262.48C490.643 1426.79 621.792 1584.65 791.214 1572.65V1572.65" stroke="#8D8D8D"/>
    <path d="M-264.029 402.713L-272.496 436.148C-333.796 678.205 -112.894 897.265 128.71 834.007L163.434 824.916C390.525 765.457 597.665 972.381 538.382 1199.47L517.644 1278.91C474.751 1443.21 605.901 1601.08 775.323 1589.08V1589.08" stroke="#8D8D8D"/>
    <path d="M-279.634 418.065L-288.101 451.501C-349.401 693.558 -128.498 912.618 113.105 849.36L147.829 840.268C374.921 780.81 582.06 987.733 522.777 1214.82L502.04 1294.26C459.147 1458.56 590.296 1616.43 759.718 1604.43V1604.43" stroke="#8D8D8D"/>
    <path d="M-295.525 434.49L-303.993 467.925C-365.292 709.983 -144.39 929.043 97.2134 865.785L131.938 856.693C359.029 797.235 566.169 1004.16 506.885 1231.25L486.148 1310.68C443.255 1474.99 574.404 1632.85 743.826 1620.85V1620.85" stroke="#8D8D8D"/>
    <path d="M-312.201 449.556L-320.668 482.991C-381.968 725.048 -161.065 944.108 80.5376 880.85L115.262 871.759C342.353 812.301 549.493 1019.22 490.21 1246.31L469.472 1325.75C426.579 1490.06 557.729 1647.92 727.151 1635.92V1635.92" stroke="#8D8D8D"/>
    <path d="M-328.093 465.981L-336.56 499.416C-397.86 741.473 -176.957 960.533 64.646 897.275L99.3704 888.183C326.462 828.725 533.601 1035.65 474.318 1262.74L453.581 1342.18C410.688 1506.48 541.837 1664.34 711.259 1652.34V1652.34" stroke="#8D8D8D"/>
    <path d="M-343.697 481.333L-352.164 514.769C-413.464 756.826 -192.562 975.886 49.0415 912.628L83.7659 903.536C310.857 844.078 517.997 1051 458.714 1278.09L437.976 1357.53C395.083 1521.83 526.233 1679.7 695.655 1667.7V1667.7" stroke="#8D8D8D"/>
    <path d="M-359.302 496.686L-367.769 530.121C-429.069 772.178 -208.166 991.238 33.4371 927.981L68.1615 918.889C295.253 859.431 502.392 1066.35 443.109 1293.44L422.372 1372.88C379.479 1537.19 510.628 1695.05 680.05 1683.05V1683.05" stroke="#8D8D8D"/>
    <path d="M-375.193 513.111L-383.66 546.546C-444.96 788.603 -224.058 1007.66 17.5454 944.406L52.2699 935.314C279.361 875.856 486.501 1082.78 427.218 1309.87L406.48 1389.31C363.587 1553.61 494.736 1711.48 664.158 1699.47V1699.47" stroke="#8D8D8D"/>
    <path d="M-390.798 528.464L-399.265 561.899C-460.565 803.956 -239.662 1023.02 1.94096 959.758L36.6654 950.667C263.756 891.209 470.896 1098.13 411.613 1325.22L390.876 1404.66C347.983 1568.96 479.132 1726.83 648.554 1714.83V1714.83" stroke="#8D8D8D"/>
    <path d="M-406.689 544.889L-415.157 578.324C-476.456 820.381 -255.554 1039.44 -13.9506 976.183L20.7738 967.092C247.865 907.633 455.005 1114.56 395.721 1341.65L374.984 1421.08C332.091 1585.39 463.24 1743.25 632.662 1731.25V1731.25" stroke="#8D8D8D"/>
    <path d="M-422.293 560.241L-430.76 593.676C-492.06 835.734 -271.157 1054.79 -29.5542 991.536L5.17024 982.444C232.261 922.986 439.401 1129.91 380.118 1357L359.38 1436.44C316.487 1600.74 447.637 1758.61 617.059 1746.6V1746.6" stroke="#8D8D8D"/>
    <path d="M-438.184 576.666L-446.652 610.101C-507.951 852.159 -287.049 1071.22 -45.4458 1007.96L-10.7214 998.869C216.37 939.411 423.51 1146.33 364.226 1373.42L343.489 1452.86C300.596 1617.17 431.745 1775.03 601.167 1763.03V1763.03" stroke="#8D8D8D"/>
    <path d="M-453.789 592.019L-462.256 625.454C-523.556 867.511 -302.653 1086.57 -61.0503 1023.31L-26.3259 1014.22C200.765 954.764 407.905 1161.69 348.622 1388.78L327.884 1468.21C284.991 1632.52 416.141 1790.38 585.563 1778.38V1778.38" stroke="#8D8D8D"/>
  </g>
</svg>
