<svg xmlns="http://www.w3.org/2000/svg" width="21" height="20" viewBox="0 0 21 20" fill="none">
<path fill-rule="evenodd" clip-rule="evenodd" d="M10.2049 18.0022C5.82557 18.0022 2.20508 14.3818 2.20508 10.0024C2.20348 5.62147 5.82557 2.00098 10.2049 2.00098C14.5843 2.00098 18.2048 5.62147 18.2048 10.0008C18.2048 14.3802 14.5843 18.0022 10.2049 18.0022ZM10.2049 3.68608C6.75182 3.68608 3.88858 6.54772 3.88858 10.0008C3.88858 13.4539 6.75182 16.3171 10.2049 16.3171C13.658 16.3171 16.5212 13.4539 16.5212 10.0008C16.5197 6.54772 13.658 3.68608 10.2049 3.68608ZM9.36304 10.8417H7.0876C6.58223 10.8417 6.24585 10.5053 6.24585 9.99996C6.24585 9.49459 6.58223 9.1582 7.0876 9.1582H9.36304V6.80171C9.36304 6.29634 9.69942 5.95996 10.2048 5.95996C10.7102 5.95996 11.0465 6.29634 11.0465 6.80171V9.1582H13.4039C13.9093 9.1582 14.2457 9.49459 14.2457 9.99996C14.2457 10.5053 13.9093 10.8417 13.4039 10.8417H11.0465V13.2025C11.0465 13.7079 10.7102 14.0443 10.2048 14.0443C9.69942 14.0443 9.36304 13.7079 9.36304 13.2025V10.8417Z" fill="currentColor"/>
</svg>