<svg xmlns="http://www.w3.org/2000/svg" width="24" height="25" viewBox="0 0 24 25" fill="none">
<g clip-path="url(#clip0_20213_239296)">
<path d="M15.1045 0.976074C15.5368 0.976074 15.8875 1.32605 15.8877 1.7583V8.02197C15.8877 8.45436 15.5369 8.80518 15.1045 8.80518H13.0547V10.7026H19.1406C19.681 10.7026 20.1199 11.1408 20.1201 11.6812V14.6763H22.2812C22.7136 14.6763 23.0645 15.0271 23.0645 15.4595V21.7222C23.0645 22.1546 22.7136 22.5054 22.2812 22.5054H16.0176C15.5854 22.5052 15.2354 22.1544 15.2354 21.7222V15.4595C15.2354 15.0272 15.5854 14.6765 16.0176 14.6763H18.1621V12.6597H6.50098V14.6763H8.58008C9.01247 14.6763 9.36328 15.0271 9.36328 15.4595V21.7222C9.36328 22.1546 9.01247 22.5054 8.58008 22.5054H2.31738C1.88499 22.5054 1.53418 22.1546 1.53418 21.7222V15.4595C1.53418 15.0271 1.88499 14.6763 2.31738 14.6763H4.54395V11.6812C4.54416 11.141 4.98232 10.7029 5.52246 10.7026H11.0977V8.80518H8.8418C8.40941 8.80518 8.0586 8.45436 8.05859 8.02197V1.7583C8.05876 1.32605 8.4095 0.976074 8.8418 0.976074H15.1045Z" fill="currentColor"/>
</g>
<defs>
<clipPath id="clip0_20213_239296">
<rect width="24" height="24" fill="currentColor" transform="translate(0 0.0410156)"/>
</clipPath>
</defs>
</svg>