<svg xmlns="http://www.w3.org/2000/svg" width="20" height="20" viewBox="0 0 20 20" fill="none"><path d="M19 8.70209C18.6728 4.38158 14.7216 1 10.005 1C5.24253 1.00144 1.29131 4.41625 1.00115 8.77287C0.994391 8.87479 1.01754 8.97648 1.06788 9.06602C1.11822 9.15556 1.19367 9.22925 1.28539 9.27845C1.332 9.30416 1.38174 9.32406 1.43343 9.33768L6.49348 14.2649C6.34799 14.4163 6.26746 14.6163 6.26846 14.8239V18.2979C6.26727 18.3903 6.28502 18.482 6.32066 18.5676C6.3563 18.6532 6.40912 18.731 6.47601 18.7964C6.5429 18.8618 6.62252 18.9135 6.71017 18.9485C6.79783 18.9834 6.89177 19.0009 6.98646 19H12.957C13.0513 19.0004 13.1447 18.9824 13.2319 18.9472C13.319 18.912 13.3981 18.8602 13.4645 18.7949C13.5309 18.7295 13.5834 18.6519 13.6187 18.5666C13.6541 18.4813 13.6717 18.39 13.6705 18.2979V14.8225C13.6702 14.6142 13.5887 14.4138 13.4425 14.262L18.5011 9.2799C18.6435 9.26321 18.7739 9.19411 18.8658 9.08672C18.9577 8.97933 19.0041 8.84175 18.9956 8.70209H19ZM12.8119 14.0106H11.7208L13.2012 9.52257C13.9344 8.88531 14.8841 8.53676 15.866 8.54464C16.5604 8.54124 17.2438 8.71343 17.8497 9.04444L12.8119 14.0106ZM7.12857 14.0106L2.10998 9.11956C2.75517 8.74387 3.4934 8.54755 4.24473 8.55187C5.2053 8.54352 6.13785 8.86747 6.8769 9.46624L8.39581 14.0106H7.12857ZM9.0694 14.0106L7.53569 9.41423C8.24987 8.84769 9.14383 8.54128 10.0642 8.54753C10.3629 8.54751 10.6607 8.57899 10.9525 8.64143C11.0398 8.6602 11.1257 8.68043 11.2101 8.70498C11.4241 8.76473 11.6326 8.84205 11.8333 8.9361C11.9207 8.97655 12.0051 9.02133 12.0865 9.06755L12.1797 9.121C12.3151 9.20205 12.4452 9.29131 12.5691 9.38823L11.0457 14.0106H9.0694Z" fill="currentColor"></path></svg>