<svg xmlns="http://www.w3.org/2000/svg" width="20" height="20" viewBox="0 0 20 20" fill="none">
    <path
    d="M3.75 7.39648L9.99844 2.18945L16.2469 7.39648"
    stroke="currentColor"
    stroke-width="1.56211"
    stroke-linecap="round"
    stroke-linejoin="round"
    />
    <path
    d="M15.208 5.31445C16.3581 5.3146 17.2908 6.24644 17.291 7.39648V15.7285C17.2908 16.8785 16.358 17.8104 15.208 17.8105H4.79395C3.64378 17.8105 2.71117 16.8786 2.71094 15.7285V7.39648C2.71113 6.24634 3.64376 5.31445 4.79395 5.31445H15.208ZM5.57422 12.6035C5.14322 12.6038 4.79421 12.9528 4.79395 13.3838C4.79395 13.815 5.14306 14.1648 5.57422 14.165H12.3438C12.7751 14.165 13.125 13.8152 13.125 13.3838C13.1247 12.9526 12.775 12.6035 12.3438 12.6035H5.57422ZM5.57422 8.4375C5.14306 8.43774 4.79395 8.78754 4.79395 9.21875C4.79395 9.64997 5.14306 9.99976 5.57422 10H14.4268C14.8581 9.99992 15.208 9.65007 15.208 9.21875C15.208 8.78744 14.8581 8.43758 14.4268 8.4375H5.57422Z"
    fill="currentColor"
    />
</svg>