   <svg width="20" height="20" viewBox="0 0 20 20" fill="none" xmlns="http://www.w3.org/2000/svg" >
      <path
        d="M9.81508 5.25465C9.44311 5.67622 9.70655 6.39704 10.2326 6.39704H11.0544C11.4094 6.39704 11.6971 6.67571 11.6971 7.01947V10.6824C11.6971 11.0261 11.9848 11.3048 12.3398 11.3048H15.1573C15.5123 11.3048 15.8 11.0261 15.8 10.6824V7.01947C15.8 6.67571 16.0877 6.39703 16.4427 6.39703H17.3948C17.9208 6.39703 18.1843 5.67622 17.8123 5.25465L14.2312 1.196C14.0006 0.934666 13.6268 0.934666 13.3962 1.196L9.81508 5.25465Z"
        fill="currentColor"
      />
      <path
        d="M11.5204 14.0135C11.8969 13.5957 11.6302 12.8813 11.0979 12.8813L10.2839 12.8813C9.92896 12.8813 9.64123 12.6026 9.64123 12.2589V8.5982C9.64123 8.25444 9.3535 7.97577 8.99856 7.97577H5.99174C5.63681 7.97577 5.34908 8.25444 5.34908 8.5982L5.34908 12.2589C5.34908 12.6026 5.06135 12.8813 4.70641 12.8813H3.75863C3.22626 12.8813 2.95965 13.5957 3.33609 14.0135L7.00571 18.0865C7.23908 18.3455 7.61743 18.3455 7.85079 18.0865L11.5204 14.0135Z"
        fill="currentColor"
      />
      <path
        d="M8.37782 1.83937C8.84313 1.75678 9.25939 2.09889 9.30006 2.55536C9.34074 3.01182 8.9899 3.4089 8.52661 3.50155C7.87229 3.6324 7.23831 3.85005 6.64291 4.14938C5.79351 4.57639 5.03927 5.16126 4.42325 5.87059C3.80723 6.57992 3.3415 7.39982 3.05264 8.28347C2.85017 8.90288 2.73738 9.54511 2.71637 10.1919C2.70149 10.6498 2.35768 11.0526 1.88637 11.092C1.41507 11.1314 0.995738 10.7928 1.00003 10.3347C1.00814 9.47009 1.14903 8.60991 1.41943 7.78269C1.77619 6.69131 2.35141 5.67868 3.11224 4.80261C3.87306 3.92653 4.80461 3.20418 5.85368 2.67678C6.64884 2.27703 7.49972 1.99523 8.37782 1.83937Z"
        fill="currentColor"
      />
      <path
        d="M11.6222 18.9877C11.1569 19.0702 10.7406 18.7281 10.6999 18.2717C10.6593 17.8152 11.0101 17.4181 11.4734 17.3255C12.1277 17.1946 12.7617 16.977 13.3571 16.6776C14.2065 16.2506 14.9607 15.6658 15.5768 14.9564C16.1928 14.2471 16.6585 13.4272 16.9474 12.5435C17.1498 11.9241 17.2626 11.2819 17.2836 10.6351C17.2985 10.1772 17.6423 9.77441 18.1136 9.73501C18.5849 9.69562 19.0043 10.0342 19 10.4923C18.9919 11.3569 18.851 12.2171 18.5806 13.0443C18.2238 14.1357 17.6486 15.1483 16.8878 16.0244C16.1269 16.9005 15.1954 17.6228 14.1463 18.1502C13.3512 18.55 12.5003 18.8318 11.6222 18.9877Z"
        fill="currentColor"
      />
    </svg>