<svg width="20" height="20" viewBox="0 0 20 20" fill="currentColor"
  xmlns="http://www.w3.org/2000/svg">
  <path
    d="M6.24288 8.2551C6.40602 8.2551 6.5625 8.31988 6.67786 8.43524C6.79321 8.55059 6.858 8.70707 6.858 8.87021C6.858 9.03335 6.79321 9.18983 6.67786 9.30518C6.5625 9.42054 6.40602 9.48532 6.24288 9.48532H4.46784C4.3047 9.48532 4.14822 9.42054 4.03286 9.30518C3.91751 9.18983 3.85272 9.03335 3.85272 8.87021C3.85272 8.70707 3.91751 8.55059 4.03286 8.43524C4.14822 8.31988 4.3047 8.2551 4.46784 8.2551H6.24288Z"
    fill="currentColor" />
  <path
    d="M15.5547 8.2551C15.7178 8.2551 15.8743 8.31988 15.9896 8.43524C16.105 8.55059 16.1698 8.70707 16.1698 8.87021C16.1698 9.03335 16.105 9.18983 15.9896 9.30518C15.8743 9.42054 15.7178 9.48532 15.5547 9.48532H13.7805C13.6174 9.48532 13.4609 9.42054 13.3455 9.30518C13.2302 9.18983 13.1654 9.03335 13.1654 8.87021C13.1654 8.70707 13.2302 8.55059 13.3455 8.43524C13.4609 8.31988 13.6174 8.2551 13.7805 8.2551H15.5547Z"
    fill="currentColor" />
  <path
    d="M7.37118 5.57935C7.53432 5.57935 7.69079 5.64413 7.80615 5.75949C7.92151 5.87485 7.98629 6.03132 7.98629 6.19446C7.98629 6.3576 7.92151 6.51408 7.80615 6.62944C7.69079 6.74479 7.53432 6.80958 7.37118 6.80958H4.46872C4.30558 6.80958 4.1491 6.74479 4.03374 6.62944C3.91839 6.51408 3.8536 6.3576 3.8536 6.19446C3.8536 6.03132 3.91839 5.87485 4.03374 5.75949C4.1491 5.64413 4.30558 5.57935 4.46872 5.57935H7.37118Z"
    fill="currentColor" />
  <path
    d="M15.5547 5.57935C15.7178 5.57935 15.8743 5.64413 15.9896 5.75949C16.105 5.87485 16.1698 6.03132 16.1698 6.19446C16.1698 6.3576 16.105 6.51408 15.9896 6.62944C15.8743 6.74479 15.7178 6.80958 15.5547 6.80958H12.6524C12.4892 6.80958 12.3328 6.74479 12.2174 6.62944C12.102 6.51408 12.0373 6.3576 12.0373 6.19446C12.0373 6.03132 12.102 5.87485 12.2174 5.75949C12.3328 5.64413 12.4892 5.57935 12.6524 5.57935H15.5547Z"
    fill="currentColor" />
  <path fill-rule="evenodd" clip-rule="evenodd"
    d="M7.31002 2.14648C8.18875 2.14648 9.01687 2.46652 9.64042 3.04771C9.77679 3.17478 9.90181 3.3135 10.0141 3.4623C10.1256 3.31548 10.2494 3.17842 10.3842 3.05264C11.009 2.46898 11.8367 2.14736 12.7151 2.14736H17.1914C18.1886 2.14736 19 2.92364 19 3.87777V14.9913C19 15.9454 18.1886 16.7215 17.1914 16.7215H11.6086C11.5873 16.7206 11.5661 16.7246 11.5466 16.733C11.527 16.7415 11.5096 16.7544 11.4958 16.7706L11.1278 17.2878C10.8756 17.6421 10.4587 17.8537 10.0127 17.8537C9.56661 17.8537 9.14974 17.6428 8.89754 17.2876L8.52935 16.7704C8.51551 16.7542 8.49816 16.7414 8.47865 16.733C8.45913 16.7245 8.43796 16.7205 8.4167 16.7214L2.80861 16.7516C1.81142 16.7516 1 15.9755 1 15.0212V3.90694C1 2.95264 1.81142 2.17671 2.80861 2.17671L7.31002 2.14648ZM12.7151 3.37671C11.5641 3.37671 10.6278 4.23365 10.6278 5.28673V13.3887C10.6278 13.5518 10.563 13.7083 10.4476 13.8236C10.3323 13.939 10.1758 14.0038 10.0127 14.0038C9.84952 14.0038 9.69304 13.939 9.57768 13.8236C9.46232 13.7083 9.39754 13.5518 9.39754 13.3887V5.28673C9.39754 4.78128 9.18664 4.30571 8.80176 3.94771C8.40668 3.57865 7.87698 3.37671 7.31002 3.37671L2.80861 3.40729C2.48963 3.40729 2.23023 3.63155 2.23023 3.90729V15.0212C2.23023 15.2969 2.48963 15.5214 2.80861 15.5214L8.4167 15.4911C8.86274 15.4911 9.27961 15.702 9.53181 16.057L9.89982 16.5744C9.93216 16.6198 9.99438 16.6235 10.0127 16.6235C10.0309 16.6235 10.093 16.6198 10.1253 16.5744L10.4944 16.057C10.7466 15.7027 11.1633 15.4911 11.6095 15.4911H17.1914C17.5104 15.4911 17.7698 15.2669 17.7698 14.9911V3.87689C17.7698 3.60114 17.5104 3.37671 17.1914 3.37671H12.7151Z"
    fill="currentColor" />
</svg>