<svg xmlns="http://www.w3.org/2000/svg" width="20" height="20" viewBox="0 0 20 20" fill="none">
<path fill-rule="evenodd" clip-rule="evenodd" d="M7.84437 3.58818C7.84437 4.33205 7.24134 4.93508 6.49746 4.93508C5.75359 4.93508 5.15056 4.33205 5.15056 3.58818C5.15056 3.45723 5.16925 3.33064 5.2041 3.21094H2.24088C1.70523 3.21094 1.271 3.64517 1.271 4.18082V15.8194C1.271 16.3551 1.70523 16.7893 2.24088 16.7893H5.4198C5.38506 16.6698 5.36644 16.5434 5.36644 16.4127C5.36644 15.6688 5.96947 15.0658 6.71334 15.0658C7.45722 15.0658 8.06024 15.6688 8.06024 16.4127C8.06024 16.5434 8.04162 16.6698 8.00688 16.7893H17.759C18.2946 16.7893 18.7289 16.3551 18.7289 15.8194V4.18082C18.7289 3.64517 18.2946 3.21094 17.759 3.21094H7.79083C7.82568 3.33064 7.84437 3.45723 7.84437 3.58818ZM10.9699 7.09068C10.4343 7.09068 10.0001 7.52491 10.0001 8.06057C10.0001 8.59622 10.4343 9.03045 10.9699 9.03045H14.8495C15.3851 9.03045 15.8193 8.59622 15.8193 8.06057C15.8193 7.52491 15.3851 7.09068 14.8495 7.09068H10.9699ZM7.09032 9.03058C7.62598 9.03058 8.06021 8.59635 8.06021 8.0607C8.06021 7.52505 7.62598 7.09082 7.09032 7.09082C6.55467 7.09082 6.12044 7.52505 6.12044 8.0607C6.12044 8.59635 6.55467 9.03058 7.09032 9.03058ZM8.06029 11.9406C8.06029 12.4762 7.62606 12.9105 7.09041 12.9105C6.55475 12.9105 6.12052 12.4762 6.12052 11.9406C6.12052 11.4049 6.55475 10.9707 7.09041 10.9707C7.62606 10.9707 8.06029 11.4049 8.06029 11.9406ZM10.0001 11.9406C10.0001 11.4049 10.4343 10.9707 10.9699 10.9707H14.8495C15.3851 10.9707 15.8193 11.4049 15.8193 11.9406C15.8193 12.4762 15.3851 12.9105 14.8495 12.9105H10.9699C10.4343 12.9105 10.0001 12.4762 10.0001 11.9406Z" fill="currentColor"/>
</svg>