<svg width="20" height="20" viewBox="0 0 20 20" fill="none" xmlns="http://www.w3.org/2000/svg"><path d="M5.44979 10.4598C5.21969 10.2297 5.09042 9.9176 5.09042 9.59219C5.09042 9.26677 5.21969 8.95469 5.44979 8.72458C5.67989 8.49448 5.99198 8.36521 6.31739 8.36521C6.64281 8.36521 6.95489 8.49448 7.18499 8.72458C7.4151 8.95469 7.54437 9.26677 7.54437 9.59219C7.54437 9.9176 7.4151 10.2297 7.18499 10.4598C6.95489 10.6899 6.64281 10.8192 6.31739 10.8192C5.99198 10.8192 5.67989 10.6899 5.44979 10.4598Z" fill="currentColor"></path><path d="M9.15525 10.4598C8.92514 10.2297 8.79587 9.9176 8.79587 9.59219C8.79587 9.26677 8.92514 8.95469 9.15525 8.72458C9.38535 8.49448 9.69743 8.36521 10.0228 8.36521C10.3483 8.36521 10.6603 8.49448 10.8905 8.72458C11.1206 8.95469 11.2498 9.26677 11.2498 9.59219C11.2498 9.9176 11.1206 10.2297 10.8905 10.4598C10.6603 10.6899 10.3483 10.8192 10.0228 10.8192C9.69743 10.8192 9.38535 10.6899 9.15525 10.4598Z" fill="currentColor"></path><path d="M12.4539 9.59219C12.4539 9.9176 12.5831 10.2297 12.8132 10.4598C13.0433 10.6899 13.3554 10.8192 13.6808 10.8192C14.0063 10.8192 14.3183 10.6899 14.5484 10.4598C14.7786 10.2297 14.9078 9.9176 14.9078 9.59219C14.9078 9.26677 14.7786 8.95469 14.5484 8.72458C14.3183 8.49448 14.0063 8.36521 13.6808 8.36521C13.3554 8.36521 13.0433 8.49448 12.8132 8.72458C12.5831 8.95469 12.4539 9.26677 12.4539 9.59219Z" fill="currentColor"></path><path fill-rule="evenodd" clip-rule="evenodd" d="M10.0194 1.0033C12.4657 0.938119 14.8564 1.89478 16.5703 3.61446C18.1922 5.23828 19.053 7.36057 18.9974 9.58829C19.0511 11.8199 18.1903 13.9402 16.5703 15.566C14.9062 17.2358 12.5961 18.181 10.2015 18.181C10.1268 18.181 10.0539 18.181 9.97915 18.179C8.62756 18.179 7.32965 17.9145 6.13527 17.3988L3.6008 17.8665C3.4896 17.8876 3.37841 17.8972 3.26721 17.8972C2.75342 17.8972 2.26454 17.6767 1.91754 17.278C1.49577 16.7929 1.36348 16.1392 1.5667 15.5295L2.12076 13.8597C1.39224 12.5867 1.00306 11.1201 1.00306 9.59213C0.941712 7.37399 1.80443 5.24403 3.42825 3.61446C5.1441 1.89478 7.54629 0.936201 10.0194 1.0033ZM10.0002 16.5456C12.0401 16.5993 14.0128 15.8171 15.4123 14.4138C16.7179 13.1043 17.41 11.4 17.3621 9.61321V9.56912C17.41 7.78234 16.7179 6.07799 15.4123 4.76858C14.0109 3.36715 12.0554 2.60029 10.0194 2.63863C7.94889 2.60029 5.98765 3.36523 4.58621 4.76858C3.28063 6.07799 2.58854 7.78234 2.63647 9.56912C2.63839 10.9265 2.99498 12.2014 3.67173 13.2788C3.71582 13.3497 3.74458 13.4264 3.76567 13.5031C3.83085 13.6737 3.84236 13.8635 3.78101 14.0495L3.11959 16.0452C3.0985 16.1047 3.11001 16.1584 3.15027 16.2044C3.19053 16.2504 3.24229 16.2676 3.30364 16.2581L6.08925 15.7443C6.27905 15.7078 6.46502 15.7462 6.62222 15.8305C6.62582 15.8323 6.62941 15.8333 6.63281 15.8342C6.63666 15.8352 6.64026 15.8362 6.64331 15.8382C7.6709 16.306 8.8001 16.5437 10.0002 16.5456Z" fill="currentColor"></path></svg>