<svg xmlns="http://www.w3.org/2000/svg" width="20" height="20" viewBox="0 0 20 20" fill="none">
<path fill-rule="evenodd" clip-rule="evenodd" d="M16.1149 4.02314C14.5197 2.42262 12.2947 1.53225 10.018 1.59292C7.71621 1.53047 5.48048 2.42262 3.88353 4.02314C2.37222 5.53979 1.56929 7.52215 1.62638 9.58659C1.62638 11.0087 1.9886 12.3737 2.66663 13.5584L2.15097 15.1126C1.96183 15.68 2.08495 16.2884 2.4775 16.7399C2.80045 17.111 3.25545 17.3162 3.73364 17.3162C3.83713 17.3162 3.94062 17.3073 4.04411 17.2876L6.40296 16.8523C7.51458 17.3322 8.72255 17.5785 9.98049 17.5785C10.05 17.5803 10.1178 17.5803 10.1874 17.5803H10.1875C12.4161 17.5803 14.5661 16.7006 16.1149 15.1465C17.6227 13.6334 18.4238 11.66 18.3738 9.58302C18.4256 7.50966 17.6244 5.53444 16.1149 4.02314ZM6.04428 11.653C6.76711 11.653 7.35308 11.0671 7.35308 10.3442C7.35308 9.62141 6.76711 9.03545 6.04428 9.03545C5.32145 9.03545 4.73548 9.62141 4.73548 10.3442C4.73548 11.0671 5.32145 11.653 6.04428 11.653ZM11.5412 10.3442C11.5412 11.0671 10.9553 11.653 10.2324 11.653C9.5096 11.653 8.92363 11.0671 8.92363 10.3442C8.92363 9.62141 9.5096 9.03545 10.2324 9.03545C10.9553 9.03545 11.5412 9.62141 11.5412 10.3442ZM14.4206 11.653C15.1434 11.653 15.7294 11.0671 15.7294 10.3442C15.7294 9.62141 15.1434 9.03545 14.4206 9.03545C13.6978 9.03545 13.1118 9.62141 13.1118 10.3442C13.1118 11.0671 13.6978 11.653 14.4206 11.653Z" fill="currentColor"/>
</svg>