<svg xmlns="http://www.w3.org/2000/svg" width="14" height="15" viewBox="0 0 14 15" fill="none">
      <g clipPath="url(#clip0_12397_135035)">
        <circle cx="7" cy="7.5" r="7" fill="#24EE89" />
        <path
          fillRule="evenodd"
          clipRule="evenodd"
          d="M10.5702 5.06633C10.1797 4.67581 9.54654 4.67581 9.15602 5.06633L5.74981 8.47253L4.15526 6.70161C3.78571 6.29118 3.15341 6.25804 2.74299 6.62759C2.33256 6.99714 2.29942 7.62944 2.66897 8.03987L4.67636 10.2693C4.77448 10.3783 4.89111 10.4606 5.01719 10.5159C5.03303 10.5343 5.04965 10.5521 5.06704 10.5695C5.45757 10.96 6.09073 10.96 6.48126 10.5695L10.5702 6.48054C10.9608 6.09002 10.9608 5.45685 10.5702 5.06633Z"
          fill="currentColor"
        />
      </g>
      <defs>
        <clipPath id="clip0_12397_135035">
          <rect width="14" height="14" fill="white" transform="translate(0 0.5)" />
        </clipPath>
      </defs>
    </svg>