    <svg xmlns="http://www.w3.org/2000/svg" width="24" height="24" viewBox="0 0 24 24" fill="none" >
      <path
        d="M20.2521 13.0001C20.0029 12.3598 20.0029 11.6493 20.2521 11.009L20.3981 10.6142C20.6542 9.94536 20.6448 9.20394 20.3719 8.54179C20.0989 7.87963 19.583 7.34683 18.9298 7.05249L18.5434 6.85509C17.9289 6.57192 17.4356 6.07892 17.1523 5.46474L16.9806 5.07853C16.6861 4.42564 16.153 3.90998 15.4906 3.63714C14.8281 3.3643 14.0863 3.35492 13.4171 3.61093L13.0221 3.75683C12.3815 4.0059 11.6707 4.0059 11.03 3.75683L10.635 3.61093C9.96273 3.34725 9.21464 3.35263 8.54621 3.62594C7.87778 3.89925 7.34042 4.41949 7.04579 5.07853L6.84829 5.46474C6.56498 6.07892 6.07173 6.57192 5.45725 6.85509L5.07085 7.02674C4.41764 7.32108 3.90172 7.85388 3.62874 8.51604C3.35577 9.1782 3.34639 9.91961 3.60252 10.5885L3.7485 10.9832C3.99769 11.6236 3.99769 12.334 3.7485 12.9744L3.60252 13.3692C3.34639 14.038 3.35577 14.7794 3.62874 15.4416C3.90172 16.1037 4.41764 16.6365 5.07085 16.9309L5.45725 17.1025C6.0807 17.3984 6.57514 17.9109 6.84829 18.5444L7.02003 18.9306C7.31451 19.5835 7.84757 20.0991 8.51006 20.372C9.17255 20.6448 9.91433 20.6542 10.5835 20.3982L10.9785 20.2523C11.6192 20.0032 12.3299 20.0032 12.9706 20.2523L13.3656 20.3982C14.0348 20.6542 14.7766 20.6448 15.439 20.372C16.1015 20.0991 16.6346 19.5835 16.9291 18.9306L17.1008 18.5444C17.3968 17.9212 17.9096 17.427 18.5434 17.154L18.9298 16.9824C19.583 16.688 20.0989 16.1552 20.3719 15.4931C20.6448 14.8309 20.6542 14.0895 20.3981 13.4207L20.2521 13.0001ZM15.7355 10.0563L10.9098 14.8797C10.8713 14.9207 10.8247 14.9534 10.773 14.9758C10.7213 14.9982 10.6656 15.0097 10.6093 15.0097C10.5529 15.0097 10.4972 14.9982 10.4455 14.9758C10.3938 14.9534 10.3473 14.9207 10.3087 14.8797L8.2651 12.8628C8.22486 12.8229 8.19292 12.7754 8.17112 12.7232C8.14932 12.6709 8.1381 12.6148 8.1381 12.5581C8.1381 12.5015 8.14932 12.4454 8.17112 12.3931C8.19292 12.3408 8.22486 12.2933 8.2651 12.2534L8.72019 11.7986C8.75874 11.7575 8.80529 11.7248 8.85698 11.7024C8.90867 11.6801 8.9644 11.6685 9.02073 11.6685C9.07705 11.6685 9.13278 11.6801 9.18447 11.7024C9.23616 11.7248 9.28271 11.7575 9.32126 11.7986L10.6093 13.0774L14.6794 9.00929C14.7596 8.93066 14.8675 8.88662 14.9799 8.88662C15.0923 8.88662 15.2002 8.93066 15.2804 9.00929L15.7355 9.46416C15.8116 9.54396 15.8541 9.64999 15.8541 9.76025C15.8541 9.87051 15.8116 9.97654 15.7355 10.0563Z"
        fill="#24EE89"
      />
    </svg>