<svg id="icon-clock" viewBox="0 0 32 32">
  <path
    fill="currentColor" d="M13.178 2.287c1.862-0.383 3.783-0.383 5.645 0 0.902 0.184 1.784 0.457 2.632 0.816 0.834 0.345 1.633 0.772 2.383 1.274 0.146 0.090 0.272 0.21 0.371 0.35s0.169 0.299 0.204 0.467c0.036 0.168 0.037 0.341 0.005 0.51s-0.099 0.329-0.195 0.471c-0.096 0.142-0.22 0.263-0.365 0.356s-0.306 0.156-0.475 0.186c-0.169 0.029-0.342 0.023-0.509-0.016s-0.325-0.112-0.463-0.214c-1.892-1.281-4.124-1.966-6.41-1.966s-4.518 0.685-6.41 1.966c-1.224 0.825-2.278 1.879-3.103 3.103-0.413 0.615-0.768 1.268-1.058 1.949-0.887 2.14-1.108 4.499-0.637 6.767 0.142 0.737 0.355 1.458 0.637 2.154 0.881 2.041 2.332 3.784 4.18 5.020 1.892 1.281 4.124 1.966 6.409 1.966s4.518-0.685 6.41-1.966c1.224-0.825 2.278-1.879 3.103-3.103 0.413-0.615 0.767-1.268 1.057-1.949 0.888-2.142 1.11-4.503 0.637-6.773-0.142-0.737-0.355-1.458-0.637-2.154-0.293-0.668-0.647-1.308-1.057-1.911-0.102-0.138-0.175-0.296-0.215-0.463s-0.045-0.34-0.016-0.509c0.029-0.169 0.092-0.331 0.185-0.475s0.215-0.268 0.357-0.365c0.142-0.096 0.302-0.163 0.471-0.195s0.342-0.031 0.51 0.005c0.168 0.036 0.327 0.106 0.467 0.204s0.259 0.225 0.35 0.371c0.504 0.749 0.93 1.548 1.274 2.383 0.359 0.848 0.632 1.729 0.816 2.632l-0.020-0.007c0.573 2.78 0.289 5.668-0.815 8.283-0.344 0.835-0.771 1.633-1.274 2.383-1.003 1.496-2.289 2.782-3.785 3.785-0.75 0.502-1.549 0.929-2.383 1.274-1.726 0.729-3.58 1.104-5.454 1.104s-3.728-0.375-5.454-1.104c-0.834-0.345-1.633-0.772-2.383-1.274-1.496-1.003-2.782-2.289-3.785-3.785-0.504-0.749-0.93-1.548-1.274-2.383-0.729-1.726-1.104-3.58-1.104-5.454s0.375-3.728 1.104-5.454c0.344-0.835 0.771-1.633 1.274-2.383 1.003-1.496 2.289-2.782 3.785-3.785 0.75-0.502 1.549-0.929 2.383-1.274 0.848-0.359 1.73-0.632 2.632-0.816zM14.725 7.077c0.338 0 0.662 0.134 0.901 0.373s0.373 0.563 0.373 0.901v7.646h7.646c0.338 0 0.662 0.134 0.901 0.373s0.373 0.563 0.373 0.901-0.134 0.662-0.373 0.901c-0.239 0.239-0.563 0.373-0.901 0.373h-8.92c-0.338 0-0.662-0.134-0.901-0.373s-0.374-0.563-0.374-0.901v-8.92c0-0.338 0.135-0.662 0.374-0.901s0.563-0.373 0.901-0.373z">
  </path>
</svg>
