<svg xmlns="http://www.w3.org/2000/svg" width="24" height="25" viewBox="0 0 24 25" fill="none">
    <path fill-rule="evenodd" clip-rule="evenodd"
        d="M20.2714 1.58447C21.0063 1.58449 21.431 1.73149 21.872 2.18864C24.045 4.44328 18.9802 11.2079 14.9284 15.276C11.4322 18.8865 6.51495 22.4968 3.75387 22.4971C3.01874 22.4971 2.59348 22.3503 2.15241 21.8929C1.27016 20.8473 1.41737 19.1803 2.87145 16.6316C2.29964 15.2756 1.85798 13.7726 1.85798 12.1225C1.85798 6.25713 6.35161 1.58447 12.0045 1.58447C13.7526 1.58452 15.3534 2.04218 16.7911 2.79365C18.2451 2.04211 19.4055 1.58447 20.2714 1.58447ZM3.88406 18.1352C3.16554 19.7846 3.16532 20.3893 3.31223 20.5365C3.45928 20.6836 3.60683 20.6837 3.75387 20.6837C4.17856 20.6836 4.76658 20.3897 5.61572 20.0957C5.04392 19.4913 4.45586 18.8867 3.88406 18.1352ZM5.91014 12.3999C5.46912 12.3999 5.19155 12.5637 4.89753 12.8577C4.60345 13.1518 4.45589 13.4624 4.45589 13.9035C4.45593 14.3445 4.60348 14.6552 4.89753 14.9493C5.19149 15.2595 5.4692 15.4062 5.91014 15.4062C6.35108 15.4062 6.62881 15.2431 6.92276 14.9493C7.20047 14.6389 7.36435 14.3445 7.36439 13.9035C7.36439 13.4624 7.21684 13.1518 6.92276 12.8577C6.62874 12.5474 6.35117 12.3999 5.91014 12.3999ZM16.546 6.92665C16.2683 6.92673 15.974 7.07407 15.827 7.22108C15.68 7.515 15.5334 7.67853 15.5334 7.97245C15.5497 8.25002 15.6475 8.51151 15.827 8.72383C16.1046 8.87083 16.2684 9.01817 16.546 9.01825C16.8237 9.01825 17.118 8.87087 17.265 8.72383C17.412 8.57673 17.5595 8.26644 17.5595 7.97245C17.5594 7.67842 17.4121 7.36809 17.265 7.22108C16.9873 7.07404 16.8237 6.92665 16.546 6.92665ZM20.2876 3.23444C20.0098 3.23444 19.4216 3.23499 18.4087 3.83945C18.9805 4.44391 19.5686 5.04853 20.1404 5.80001C20.8592 4.44396 21.0061 3.69207 20.7283 3.38165C20.7283 3.23461 20.5653 3.23444 20.2876 3.23444Z"
        fill="currentColor" />
    <path fill-rule="evenodd" clip-rule="evenodd"
        d="M21.4312 7.90693C21.8723 9.0996 22.1669 10.4558 22.2813 11.9753C22.2812 17.8405 17.7876 22.4971 12.1347 22.4971C10.6972 22.497 9.24312 22.2029 7.93622 21.5985C10.1091 20.2425 12.8705 18.1348 15.1905 15.8802C17.8045 13.3152 20.1242 10.3086 21.4312 7.90693ZM19.389 13.8048C19.1113 13.8048 18.8169 13.9522 18.6699 14.0992C18.5229 14.3931 18.3764 14.5566 18.3764 14.8506C18.3927 15.1282 18.4904 15.3896 18.6699 15.6019C18.9476 15.749 19.1113 15.8963 19.389 15.8964C19.6667 15.8964 19.961 15.749 20.108 15.6019C20.255 15.4549 20.4024 15.1446 20.4024 14.8506C20.4024 14.5565 20.255 14.2463 20.108 14.0992C19.8303 13.9522 19.6667 13.8048 19.389 13.8048Z"
        fill="currentColor" />
</svg>