<svg width="25" height="25" viewBox="0 0 25 25" fill="none" xmlns="http://www.w3.org/2000/svg">
<path d="M20.7521 13.4972C20.5029 12.8568 20.5029 12.1464 20.7521 11.5061L20.8981 11.1113C21.1542 10.4424 21.1448 9.70101 20.8719 9.03886C20.5989 8.3767 20.083 7.8439 19.4298 7.54956L19.0434 7.35216C18.4289 7.06899 17.9356 6.57599 17.6523 5.96181L17.4806 5.5756C17.1861 4.92271 16.653 4.40705 15.9906 4.13421C15.3281 3.86137 14.5863 3.85199 13.9171 4.108L13.5221 4.2539C12.8815 4.50297 12.1707 4.50297 11.53 4.2539L11.135 4.108C10.4627 3.84432 9.71464 3.8497 9.04621 4.12301C8.37778 4.39633 7.84042 4.91656 7.54579 5.5756L7.34829 5.96181C7.06498 6.57599 6.57173 7.06899 5.95725 7.35216L5.57085 7.52381C4.91764 7.81815 4.40172 8.35095 4.12874 9.01311C3.85577 9.67527 3.84639 10.4167 4.10252 11.0855L4.2485 11.4803C4.49769 12.1207 4.49769 12.8311 4.2485 13.4714L4.10252 13.8662C3.84639 14.5351 3.85577 15.2765 4.12874 15.9387C4.40172 16.6008 4.91764 17.1336 5.57085 17.4279L5.95725 17.5996C6.5807 17.8955 7.07514 18.408 7.34829 19.0414L7.52003 19.4277C7.81451 20.0805 8.34757 20.5962 9.01006 20.869C9.67255 21.1419 10.4143 21.1513 11.0835 20.8953L11.4785 20.7494C12.1192 20.5003 12.8299 20.5003 13.4706 20.7494L13.8656 20.8953C14.5348 21.1513 15.2766 21.1419 15.939 20.869C16.6015 20.5962 17.1346 20.0805 17.4291 19.4277L17.6008 19.0414C17.8968 18.4183 18.4096 17.9241 19.0434 17.6511L19.4298 17.4794C20.083 17.1851 20.5989 16.6523 20.8719 15.9901C21.1448 15.328 21.1542 14.5866 20.8981 13.9177L20.7521 13.4972ZM16.2355 10.5534L11.4098 15.3767C11.3713 15.4178 11.3247 15.4505 11.273 15.4729C11.2213 15.4952 11.1656 15.5068 11.1093 15.5068C11.0529 15.5068 10.9972 15.4952 10.9455 15.4729C10.8938 15.4505 10.8473 15.4178 10.8087 15.3767L8.7651 13.3599C8.72486 13.32 8.69292 13.2725 8.67112 13.2202C8.64932 13.1679 8.6381 13.1118 8.6381 13.0552C8.6381 12.9985 8.64932 12.9425 8.67112 12.8902C8.69292 12.8379 8.72486 12.7904 8.7651 12.7505L9.22019 12.2956C9.25874 12.2546 9.30529 12.2219 9.35698 12.1995C9.40867 12.1771 9.4644 12.1656 9.52073 12.1656C9.57705 12.1656 9.63278 12.1771 9.68447 12.1995C9.73616 12.2219 9.78271 12.2546 9.82126 12.2956L11.1093 13.5744L15.1794 9.50636C15.2596 9.42773 15.3675 9.38369 15.4799 9.38369C15.5923 9.38369 15.7002 9.42773 15.7804 9.50636L16.2355 9.96123C16.3116 10.041 16.3541 10.1471 16.3541 10.2573C16.3541 10.3676 16.3116 10.4736 16.2355 10.5534Z" fill="#24EE89"/>
</svg>
