  <svg width="20" height="20" viewBox="0 0 20 20" fill="none" xmlns="http://www.w3.org/2000/svg" >
      <path
        d="M13.8516 8.81919C15.9601 8.81919 17.6693 7.0688 17.6693 4.90959C17.6693 2.75039 15.9601 1 13.8516 1C11.7431 1 10.0339 2.75039 10.0339 4.90959C10.0339 7.0688 11.7431 8.81919 13.8516 8.81919ZM13.8516 7.10319C12.6686 7.10319 11.7096 6.12108 11.7096 4.90959C11.7096 3.69811 12.6686 2.716 13.8516 2.716C15.0346 2.716 15.9937 3.69811 15.9937 4.90959C15.9937 6.12108 15.0346 7.10319 13.8516 7.10319Z"
        fill="currentColor"
      />
      <path
        d="M3.76388 12.1973C5.29033 12.1973 6.52776 10.9301 6.52776 9.36692C6.52776 7.80374 5.29033 6.53653 3.76388 6.53653C2.23743 6.53653 1 7.80374 1 9.36692C1 10.9301 2.23743 12.1973 3.76388 12.1973Z"
        fill="currentColor"
      />
      <path
        d="M5.12418 17.5353C4.59637 18.0758 4.97019 19 5.71662 19H14.2976C15.0441 19 15.4179 18.0758 14.8901 17.5353L10.7666 13.3126L18.1218 10.9313C18.7836 10.717 19.1504 9.99389 18.9412 9.31616C18.732 8.63844 18.0259 8.26273 17.3641 8.47699L1.94542 13.469C1.28362 13.6832 0.916741 14.4063 1.12597 15.0841C1.3352 15.7618 2.04131 16.1375 2.70311 15.9232L8.54544 14.0317L5.12418 17.5353Z"
        fill="currentColor"
      />
    </svg>