<svg width="25" height="24" viewBox="0 0 25 24" fill="none" xmlns="http://www.w3.org/2000/svg">
<path fill-rule="evenodd" clip-rule="evenodd" d="M6.1667 4.33301C5.52235 4.33301 5 4.85536 5 5.49971V15.8336C5 16.4779 5.52235 17.0003 6.1667 17.0003H7.66602V18.4996C7.66602 19.1439 8.18836 19.6663 8.83271 19.6663H19.1666C19.8109 19.6663 20.3333 19.1439 20.3333 18.4996V8.16572C20.3333 7.52137 19.8109 6.99902 19.1666 6.99902H17.6673V5.49971C17.6673 4.85536 17.1449 4.33301 16.5006 4.33301H6.1667ZM16.3339 6.99902H16.3331V8.33242H16.3339V15.6669H8.99941V15.6661H7.66602V15.6669H6.3334V5.6664H16.3339V6.99902ZM8.99941 17.0003H16.5006C17.1449 17.0003 17.6673 16.4779 17.6673 15.8336V8.33242H18.9999V18.3329H8.99941V17.0003Z" fill="currentColor"/>
</svg>
