    <svg xmlns="http://www.w3.org/2000/svg" width="20" height="20" viewBox="0 0 20 20" fill="none" >
      <path
        fillRule="evenodd"
        clipRule="evenodd"
        d="M1.22663 6.17342L2.50208 17.2273C2.61852 18.2365 3.47302 18.998 4.48889 18.998H15.7299C16.7457 18.998 17.6002 18.2365 17.7167 17.2273L18.9921 6.17342C19.0932 5.29767 18.2037 4.64408 17.3981 5.00211L15.0279 6.05557C14.4972 6.29141 13.8741 6.09026 13.5815 5.58868L11.0932 1.32286C10.6537 0.569462 9.56509 0.569462 9.1256 1.32286L6.63721 5.58868C6.34462 6.09026 5.72151 6.29141 5.19087 6.05557L2.8206 5.00211C2.01502 4.64408 1.12558 5.29767 1.22663 6.17342ZM7.82947 10.4558L10.1073 8.74742H11.2462V16.7199H9.53785V11.0253L8.96839 11.5947L7.82947 10.4558Z"
        fill="currentColor"
      />
    </svg>