  <svg xmlns="http://www.w3.org/2000/svg" width="21" height="20" viewBox="0 0 21 20" fill="currentColor" >
      <path
        d="M17.4173 10.8055L16.7329 10.9633C16.3051 11.0618 15.8714 11.111 15.4318 11.111C14.6951 11.111 13.9843 10.9755 13.2995 10.7044C12.5557 10.4099 11.9009 9.97987 11.3351 9.4143C10.7695 8.84872 10.3394 8.19392 10.0449 7.44988C9.77386 6.76474 9.63833 6.05382 9.63833 5.31711C9.63833 4.87813 9.68756 4.44457 9.78603 4.01643L9.94383 3.33203L9.25899 3.48984C8.54543 3.65394 7.87699 3.92837 7.25369 4.31314C6.59229 4.72106 6.01954 5.22905 5.53543 5.83711C5.05191 6.44518 4.6856 7.11713 4.43652 7.85296C4.20149 8.54689 4.08398 9.26016 4.08398 9.99276C4.08398 10.8414 4.24018 11.6602 4.55256 12.4491C4.89161 13.3056 5.38686 14.0598 6.03829 14.7115C6.69002 15.3629 7.44417 15.8582 8.30073 16.1972C9.08961 16.5093 9.90822 16.6654 10.7566 16.6654C11.4892 16.6654 12.2022 16.548 12.8955 16.3133C13.6316 16.0642 14.3037 15.6976 14.9118 15.2135C15.5199 14.73 16.0279 14.1574 16.4358 13.4957C16.8205 12.8724 17.095 12.2039 17.2591 11.4904L17.4173 10.8055ZM16.2155 11.944C15.9562 11.9748 15.6951 11.9901 15.4322 11.9901C14.5836 11.9901 13.7648 11.834 12.976 11.5216C12.1191 11.1825 11.3649 10.6873 10.7135 10.0358C10.0621 9.38441 9.56683 8.63026 9.22778 7.7734C8.91539 6.98453 8.7592 6.16576 8.7592 5.31711C8.7592 5.05425 8.77444 4.79315 8.80492 4.5338C7.78102 4.89132 6.9205 5.50817 6.22335 6.38437C5.38319 7.44021 4.96311 8.64301 4.96311 9.99276C4.96311 10.7295 5.09865 11.4404 5.36971 12.1255C5.66422 12.8693 6.09441 13.5239 6.66028 14.0895C7.22585 14.6551 7.88051 15.0853 8.62425 15.3801C9.30939 15.6511 10.0203 15.7867 10.757 15.7867C12.1065 15.7867 13.3091 15.3666 14.365 14.5264C15.2412 13.829 15.858 12.9685 16.2155 11.9449V11.944Z"
        fill="currentColor"
      />
    </svg>