<svg width="32" height="33" viewBox="0 0 32 33" fill="none" xmlns="http://www.w3.org/2000/svg">
<path d="M24.9386 11.1524L22.3357 12.9718C22.2233 13.0503 22.0961 13.1052 21.9619 13.1331C21.8276 13.161 21.6891 13.1614 21.5547 13.1342C21.4203 13.1069 21.2929 13.0527 21.18 12.9748C21.0672 12.8968 20.9714 12.7968 20.8984 12.6807L17.7919 7.74138C17.3143 6.98204 16.2073 6.98204 15.7297 7.74138L12.6238 12.6819C12.5508 12.798 12.455 12.898 12.3422 12.9759C12.2293 13.0538 12.1019 13.108 11.9675 13.1352C11.8331 13.1624 11.6946 13.1621 11.5604 13.1342C11.4262 13.1063 11.299 13.0514 11.1866 12.973L8.58395 11.1524C7.75274 10.5716 6.61732 11.2013 6.66972 12.2139L7.20869 22.6166C7.24429 23.3127 7.54575 23.9686 8.05088 24.4489C8.556 24.9293 9.22624 25.1974 9.92328 25.1979H23.5984C24.2955 25.1979 24.966 24.9303 25.4715 24.4502C25.977 23.9701 26.2788 23.3143 26.3148 22.6181L26.8537 12.2154C26.9052 11.2013 25.771 10.5716 24.9386 11.1524Z" stroke="currentColor" stroke-width="2.47053"/>
<path d="M21.5261 21.8385H11.8098C11.507 21.8385 11.2165 21.6981 11.0024 21.448C10.7883 21.198 10.668 20.8588 10.668 20.5052C10.668 20.1516 10.7883 19.8124 11.0024 19.5624C11.2165 19.3124 11.507 19.1719 11.8098 19.1719H21.5261C21.829 19.1719 22.1194 19.3124 22.3335 19.5624C22.5477 19.8124 22.668 20.1516 22.668 20.5052C22.668 20.8588 22.5477 21.198 22.3335 21.448C22.1194 21.6981 21.829 21.8385 21.5261 21.8385Z" fill="currentColor"/>
</svg>