<svg xmlns="http://www.w3.org/2000/svg" width="24" height="25" viewBox="0 0 24 25" fill="none">
<path fill-rule="evenodd" clip-rule="evenodd" d="M14.0684 2.87984C14.0684 2.02609 13.3763 1.33398 12.5225 1.33398C11.6688 1.33398 10.9767 2.02609 10.9767 2.87984L10.9767 10.8169H7.15338C6.46478 10.8169 6.11992 11.6495 6.60684 12.1364L11.9922 17.5218C12.294 17.8236 12.7834 17.8236 13.0853 17.5218L18.4706 12.1364C18.9576 11.6495 18.6127 10.8169 17.9241 10.8169H14.0684L14.0684 2.87984Z" fill="currentColor"/>
<path fill-rule="evenodd" clip-rule="evenodd" d="M4.14008 22.7773C3.41659 22.7773 2.83008 22.1908 2.83008 21.4673L2.83008 17.7133C2.83008 16.9898 3.41659 16.4033 4.14008 16.4033C4.86358 16.4033 5.45009 16.9898 5.45009 17.7133V19.5078L18.702 19.5078V17.7133C18.702 16.9898 19.2885 16.4033 20.012 16.4033C20.7355 16.4033 21.322 16.9898 21.322 17.7133V21.4673C21.322 22.1908 20.7355 22.7773 20.012 22.7773C19.9601 22.7773 19.909 22.7743 19.8588 22.7685C19.802 22.7745 19.7443 22.7775 19.6859 22.7775L4.46962 22.7775C4.41059 22.7775 4.35229 22.7744 4.29488 22.7683C4.24411 22.7743 4.19246 22.7773 4.14008 22.7773Z" fill="currentColor"/>
</svg>