<svg xmlns="http://www.w3.org/2000/svg" width="24" height="24" viewBox="0 0 20 20" fill="none">
    <path
    d="M15.2871 10.8153C15.5683 10.6918 15.6806 10.6916 15.6807 11.1239C15.6807 11.9269 15.6244 12.7301 15.6807 13.5331C15.7932 15.1392 15.1187 16.128 13.9375 16.8075C11.4063 18.1666 8.81889 18.2278 6.23145 16.9306C4.93771 16.3128 4.14961 15.201 4.31836 13.5331V11.0624C4.31836 10.7535 4.375 10.6918 4.65625 10.8153C6.17483 11.5566 7.69333 12.2362 9.21191 12.9774C9.77433 13.2245 10.2247 13.2244 10.7871 12.9774C12.2495 12.2362 13.7684 11.5566 15.2871 10.8153ZM9.5498 3.09266C9.83105 2.96911 10.1123 2.96911 10.3936 3.09266C13.0934 4.38992 15.7933 5.62549 18.4932 6.92274C18.7743 7.04626 18.9999 7.16954 19 7.53993C19 7.91059 18.7744 8.09632 18.4932 8.15809C17.7623 8.3435 17.6494 8.83781 17.6494 9.57899C17.7619 11.4321 17.7061 13.347 17.7061 15.2001C17.7061 15.6325 17.5934 15.6942 17.2559 15.6942C16.9185 15.6942 16.8057 15.5707 16.8057 15.2001V8.96083C15.1745 9.70211 13.656 10.4442 12.0811 11.1854C11.6874 11.3707 11.2935 11.494 10.9561 11.7411C10.2811 12.1735 9.66227 12.1117 8.9873 11.7411C6.51235 10.5056 4.03745 9.39335 1.5625 8.21962C1.28127 8.09607 1 7.97233 1 7.53993C1.00015 7.10786 1.28139 6.98471 1.5625 6.86122C4.20616 5.62573 6.90614 4.38993 9.5498 3.09266Z"
    fill="currentColor"
    />
</svg>