<svg xmlns="http://www.w3.org/2000/svg" width="40" height="40" viewBox="0 0 40 40" fill="none">
    <path
        d="M26.9419 13.2966C25.6473 12.6909 24.263 12.2507 22.8157 12C22.638 12.3213 22.4304 12.7536 22.2872 13.0974C20.7487 12.866 19.2245 12.866 17.7143 13.0974C17.5712 12.7536 17.3588 12.3213 17.1795 12C15.7307 12.2507 14.3448 12.6925 13.0502 13.2998C10.4389 17.2458 9.73099 21.0938 10.0849 24.8872C11.8169 26.1805 13.4953 26.9662 15.1455 27.4804C15.5529 26.9196 15.9163 26.3235 16.2293 25.6953C15.6331 25.4688 15.0621 25.1892 14.5226 24.8647C14.6657 24.7586 14.8057 24.6478 14.941 24.5337C18.2318 26.0729 21.8074 26.0729 25.0589 24.5337C25.1958 24.6478 25.3358 24.7586 25.4774 24.8647C24.9362 25.1908 24.3637 25.4704 23.7675 25.697C24.0805 26.3235 24.4423 26.9212 24.8513 27.4819C26.503 26.9678 28.183 26.1822 29.915 24.8872C30.3303 20.4897 29.2056 16.6771 26.9419 13.2966ZM16.6776 22.5543C15.6898 22.5543 14.8796 21.632 14.8796 20.509C14.8796 19.3859 15.6725 18.4621 16.6776 18.4621C17.6829 18.4621 18.493 19.3843 18.4757 20.509C18.4772 21.632 17.6829 22.5543 16.6776 22.5543ZM23.3223 22.5543C22.3344 22.5543 21.5243 21.632 21.5243 20.509C21.5243 19.3859 22.3171 18.4621 23.3223 18.4621C24.3275 18.4621 25.1376 19.3843 25.1203 20.509C25.1203 21.632 24.3275 22.5543 23.3223 22.5543Z"
        fill="currentColor" />
</svg>