<svg xmlns="http://www.w3.org/2000/svg" width="40" height="40" viewBox="0 0 40 40" fill="none">
  <path
    d="M28.5634 16.3003V25.4214C28.5634 25.8382 28.3979 26.2379 28.1032 26.5326C27.8085 26.8273 27.4088 26.9928 26.992 26.9928H12.3253C11.9086 26.9928 11.5089 26.8273 11.2142 26.5326C10.9195 26.2379 10.7539 25.8382 10.7539 25.4214V16.3003L17.2874 21.8396C17.9498 22.4013 18.7902 22.7096 19.6587 22.7096C20.5272 22.7096 21.3675 22.4013 22.03 21.8396L28.5634 16.3003ZM26.992 12.3262C27.1835 12.3264 27.3734 12.3612 27.5525 12.4288C27.81 12.5269 28.037 12.6914 28.2104 12.9055C28.3043 13.0207 28.3816 13.1485 28.4398 13.2853C28.5079 13.4466 28.5498 13.6216 28.5603 13.8054L28.5634 13.8976V14.4214L20.6785 21.1471C20.4072 21.3786 20.0651 21.5109 19.7086 21.5222C19.3521 21.5335 19.0024 21.4232 18.7169 21.2095L18.6388 21.1466L10.7539 14.4214V13.8976C10.7533 13.6067 10.8336 13.3214 10.986 13.0737C11.1384 12.8259 11.3567 12.6255 11.6166 12.4948C11.8363 12.3837 12.0791 12.326 12.3253 12.3262H26.992Z"
    fill="#24EE89" />
</svg>