<svg width="24" height="24" viewBox="0 0 24 24" fill="none" xmlns="http://www.w3.org/2000/svg">
<path fill-rule="evenodd" clip-rule="evenodd" d="M21 12C21 16.9706 16.9706 21 12 21C7.02944 21 3 16.9706 3 12C3 7.02944 7.02944 3 12 3C16.9706 3 21 7.02944 21 12ZM15.7447 9.43516L13.181 11.9988L15.7447 14.5624C16.0679 14.8857 16.0679 15.4207 15.7447 15.7439C15.5775 15.9111 15.3657 15.9891 15.1539 15.9891C14.9421 15.9891 14.7303 15.9111 14.5632 15.7439L11.9995 13.1803L9.43589 15.7439C9.2687 15.9111 9.05692 15.9891 8.84514 15.9891C8.63336 15.9891 8.42159 15.9111 8.25439 15.7439C7.93115 15.4207 7.93115 14.8857 8.25439 14.5624L10.818 11.9988L8.25439 9.43516C7.93115 9.11192 7.93115 8.5769 8.25439 8.25366C8.57763 7.93042 9.11265 7.93042 9.43589 8.25366L11.9995 10.8173L14.5632 8.25366C14.8864 7.93042 15.4214 7.93042 15.7447 8.25366C16.0679 8.5769 16.0679 9.11192 15.7447 9.43516Z" fill="currentColor"/>
</svg>