<svg width="24" height="24" viewBox="0 0 24 24" fill="none" xmlns="http://www.w3.org/2000/svg">
<circle cx="11.8921" cy="12.2583" r="1.27393" fill="#5F6D6D"/>
<rect x="11.2202" y="6.64062" width="1.34473" height="6" rx="0.672363" fill="#5F6D6D"/>
<rect x="7.40869" y="15.4453" width="1" height="6" rx="0.5" transform="rotate(-120 7.40869 15.4453)" fill="#5F6D6D"/>
<path d="M16.3921 13.5156C18.8772 13.5156 20.892 15.5306 20.8921 18.0156C20.8921 20.5008 18.8772 22.5156 16.3921 22.5156C13.9071 22.5155 11.8931 20.5007 11.8931 18.0156C11.8932 15.5307 13.9071 13.5158 16.3921 13.5156ZM16.3823 19.5439C16.0354 19.5441 15.7537 19.801 15.7534 20.1182C15.7536 20.4354 16.0353 20.6933 16.3823 20.6934C16.7294 20.6934 17.0111 20.4354 17.0112 20.1182C17.011 19.801 16.7294 19.5439 16.3823 19.5439ZM16.3921 15.3379C15.9808 15.338 15.658 15.6606 15.6929 16.0352L15.936 18.6436C15.9582 18.8783 16.1733 19.0586 16.4312 19.0586C16.6939 19.0583 16.9109 18.8707 16.9263 18.6309L17.0933 16.0176C17.1167 15.649 16.796 15.3379 16.3921 15.3379Z" fill="#5F6D6D"/>
<path d="M11.6846 2.74219C16.6551 2.74219 20.6846 6.77162 20.6846 11.7422C20.6846 12.5062 20.5884 13.2477 20.4092 13.9561C20.0196 13.5634 19.5734 13.2271 19.084 12.96C19.1487 12.5635 19.1846 12.157 19.1846 11.7422C19.1846 7.60005 15.8267 4.24219 11.6846 4.24219C7.54243 4.24219 4.18457 7.60005 4.18457 11.7422C4.18457 15.5654 7.04557 18.7174 10.7432 19.1807C10.8598 19.7313 11.055 20.2527 11.3174 20.7324C6.51712 20.5397 2.68457 16.5897 2.68457 11.7422C2.68457 6.77162 6.71401 2.74219 11.6846 2.74219Z" fill="#5F6D6D"/>
</svg>
