   <svg xmlns="http://www.w3.org/2000/svg" width="21" height="21" viewBox="0 0 21 21" fill="none">
      <path
        d="M5.17957 13.3421C3.71289 13.3421 2.52637 12.1227 2.52637 10.6148C2.52637 10.5077 2.60876 10.4253 2.70764 10.4253H7.65149C7.75037 10.4253 7.83276 10.5077 7.83276 10.6065C7.83276 12.1227 6.638 13.3421 5.17957 13.3421ZM7.81628 17.8822C7.81628 17.2066 8.34363 16.6628 9.00281 16.6628H10.0987V6.33835H5.48444L7.43726 9.52713C7.53613 9.69193 7.48669 9.90616 7.33014 10.005C7.17358 10.1039 6.96759 10.0545 6.86871 9.89792L5.17957 7.12936L3.48218 9.89792C3.41626 10.005 3.30914 10.0627 3.19379 10.0627C3.13611 10.0627 3.07019 10.0462 3.01251 10.0133C2.85596 9.9144 2.80652 9.70016 2.9054 9.53537L4.85822 6.34659H4.8335C4.5451 6.34659 4.31439 6.10764 4.31439 5.811C4.31439 5.51437 4.5451 5.27542 4.8335 5.27542H8.66498C8.87921 4.95407 9.20056 4.70688 9.57135 4.59152C9.62079 3.9653 10.1317 3.47916 10.7496 3.47916C11.3676 3.47916 11.8785 3.9653 11.9279 4.59152C12.2987 4.70688 12.6201 4.95407 12.8343 5.27542H16.6658C16.9542 5.27542 17.1849 5.51437 17.1849 5.811C17.1849 6.10764 16.9542 6.34659 16.6658 6.34659H16.6411L18.5939 9.53537C18.6927 9.70016 18.6433 9.9144 18.4868 10.0133C18.3302 10.1122 18.1242 10.0627 18.0253 9.90616L16.3527 7.12936L14.6635 9.89792C14.5976 10.005 14.4905 10.0627 14.3751 10.0627C14.3174 10.0627 14.2515 10.0462 14.1938 10.0133C14.0373 9.9144 13.9879 9.70016 14.0867 9.53537L16.0396 6.34659H11.4335V16.671H12.5294C13.1804 16.671 13.7159 17.2148 13.7159 17.8905H7.81628V17.8822ZM16.3527 13.3421C14.8942 13.3421 13.6995 12.1144 13.6995 10.6065C13.6995 10.5077 13.7819 10.4253 13.8807 10.4253H18.8246C18.9235 10.4253 19.0059 10.5077 19.0059 10.6065C19.0059 12.1227 17.8193 13.3421 16.3527 13.3421Z"
        fill="currentColor"
      />
    </svg>