<svg width="20" height="20" viewBox="0 0 20 20" fill="none" xmlns="http://www.w3.org/2000/svg">
<path d="M7.63041 18.1608C7.62513 17.6258 7.62269 17.1591 7.62269 16.7608L7.27038 16.8234C7.04578 16.8657 6.76242 16.8836 6.4203 16.8785C6.07837 16.8736 5.72341 16.8368 5.3559 16.7684C4.9882 16.7006 4.64619 16.5433 4.32969 16.2968C4.01325 16.0503 3.78871 15.7277 3.6559 15.3294L3.50272 14.9673C3.40066 14.7263 3.2399 14.4586 3.02034 14.1651C2.80081 13.8714 2.57876 13.6722 2.35411 13.5673L2.24688 13.4885C2.17541 13.4361 2.10909 13.3729 2.04783 13.2995C1.98657 13.2262 1.94073 13.1528 1.91004 13.0793C1.87937 13.0057 1.90476 12.9454 1.9866 12.8981C2.06844 12.8507 2.21629 12.8277 2.4308 12.8277L2.73701 12.8747C2.9412 12.9167 3.19389 13.0423 3.49519 13.2522C3.79632 13.4619 4.04397 13.7346 4.23798 14.0701C4.47289 14.5002 4.75599 14.8279 5.08806 15.0534C5.41983 15.279 5.75428 15.3915 6.09121 15.3915C6.42813 15.3915 6.71908 15.3654 6.96423 15.3131C7.20912 15.2606 7.43884 15.1817 7.65346 15.077C7.74536 14.374 7.99558 13.8339 8.40382 13.4565C7.82192 13.3936 7.29866 13.2991 6.83392 13.1732C6.3695 13.0473 5.88956 12.8428 5.39436 12.5594C4.89896 12.2763 4.48799 11.9248 4.16131 11.5055C3.83458 11.086 3.5665 10.5352 3.35739 9.85363C3.14816 9.17184 3.04347 8.38527 3.04347 7.49383C3.04347 6.22458 3.44685 5.14447 4.25352 4.25292C3.87564 3.29865 3.9113 2.22894 4.36062 1.0438C4.65672 0.949271 5.09588 1.02023 5.67777 1.25612C6.2598 1.49217 6.68602 1.69425 6.95662 1.86195C7.22732 2.02954 7.44422 2.17153 7.60762 2.28663C8.55739 2.01404 9.53757 1.87773 10.5483 1.87773C11.559 1.87773 12.5395 2.01407 13.4893 2.28663L14.0713 1.90922C14.4693 1.65744 14.9392 1.42663 15.4801 1.21689C16.0213 1.00728 16.4351 0.949481 16.7211 1.04401C17.1804 2.22917 17.2214 3.29884 16.8434 4.25313C17.65 5.14468 18.0536 6.22503 18.0536 7.49404C18.0536 8.38548 17.9486 9.17448 17.7396 9.86149C17.5304 10.5486 17.2599 11.0989 16.9282 11.5134C16.5961 11.9278 16.1825 12.2766 15.6874 12.5596C15.1922 12.8428 14.712 13.0472 14.2475 13.1732C13.7829 13.2991 13.2597 13.3938 12.6777 13.4567C13.2084 13.9285 13.4739 14.6732 13.4739 15.6905L13.4684 18.0305C13.4672 18.5663 13.0325 19 12.4967 19H8.46965C8.00636 19 7.63486 18.624 7.63041 18.1608V18.1608Z" fill="#B3BEC1"/>
</svg>
