<svg width="40" height="40" viewBox="0 0 40 40" fill="none" xmlns="http://www.w3.org/2000/svg">
  <g clip-path="url(#clip0_23280_246009)">
    <path
      d="M14.4212 19.6602C14.4212 19.0887 14.5187 18.5405 14.6912 18.0267L11.6627 15.7617C11.0543 16.9711 10.7383 18.3064 10.7402 19.6602C10.7402 21.0612 11.0717 22.3827 11.6612 23.5557L14.6882 21.287C14.5117 20.7628 14.4216 20.2133 14.4212 19.6602Z"
      fill="#FBBC05" />
    <path
      d="M19.7406 14.4613C21.0081 14.4613 22.1533 14.9008 23.0533 15.6208L25.6716 13.0611C24.0763 11.7013 22.0311 10.8613 19.7406 10.8613C16.1841 10.8613 13.1271 12.8526 11.6631 15.7626L14.6931 18.0276C15.3906 15.9531 17.3796 14.4613 19.7406 14.4613Z"
      fill="#EA4335" />
    <path
      d="M19.7406 24.8592C17.3788 24.8592 15.3898 23.3675 14.6916 21.293L11.6631 23.558C13.1263 26.468 16.1833 28.4592 19.7406 28.4592C21.9351 28.4592 24.0306 27.6965 25.6041 26.2662L22.7286 24.0897C21.9178 24.59 20.8963 24.8592 19.7398 24.8592"
      fill="#34A853" />
    <path
      d="M28.3315 19.6603C28.3315 19.1405 28.249 18.5803 28.1267 18.0605H19.7402V21.4603H24.5672C24.3265 22.6198 23.6695 23.5108 22.7297 24.0905L25.6045 26.267C27.2567 24.7655 28.3315 22.529 28.3315 19.6603Z"
      fill="#4285F4" />
  </g>
  <defs>
    <clipPath id="clip0_23280_246009">
      <rect width="18" height="18" fill="white" transform="translate(10.6582 10.6602)" />
    </clipPath>
  </defs>
</svg>
  