<svg xmlns="http://www.w3.org/2000/svg" width="20" height="20" viewBox="0 0 20 20" fill="none">
<path d="M17.2208 18.3961L2.8587 18.3965C2.51509 18.3961 2.20015 18.0514 2.19929 17.677V13.2349C2.19929 12.5134 2.53144 12.1358 2.88016 12.4975L4.82241 14.1655C5.08331 14.4092 5.47551 14.7409 5.69378 14.4518L7.91989 11.5027C8.1382 11.2136 8.53199 10.8054 8.79502 11.0467L10.7107 12.8664C10.9736 13.1074 11.5179 13.5282 11.7319 13.2349L16.4982 6.96777C17.142 6.166 17.86 6.35409 17.86 7.33641V17.677C17.86 18.0514 17.5642 18.3965 17.2207 18.3961H17.2208ZM11.6312 10.6989C11.4547 10.9456 11.1942 11.1029 10.9093 11.1357C10.6238 11.1726 10.3394 11.0729 10.1203 10.8719L7.95956 8.88641L5.7893 12.0117C5.61589 12.2608 5.35766 12.4231 5.073 12.46C5.03171 12.4653 4.99016 12.4679 4.94856 12.468C4.70664 12.468 4.47028 12.3766 4.28094 12.2073L2.38697 10.5166C1.93605 10.1144 1.86958 9.38903 2.23834 8.89692C2.60692 8.40432 3.27154 8.33232 3.72236 8.73483L4.76931 9.66932L6.94873 6.53014C7.12362 6.27826 7.38497 6.11629 7.67224 6.08113C7.96155 6.04673 8.24763 6.14192 8.4688 6.34425L10.6414 8.34097L13.4485 4.49968L12.6662 3.79081C12.111 3.28788 12.2344 2.74306 12.9401 2.58017L17.0081 1.6414C17.7139 1.47849 17.9322 1.85633 17.4933 2.48129L11.6312 10.6989V10.6989Z" fill="currentColor"/>
</svg>