<svg xmlns="http://www.w3.org/2000/svg" width="24" height="25" viewBox="0 0 24 25" fill="none">
<path fill-rule="evenodd" clip-rule="evenodd" d="M14.0684 16.2022C14.0684 17.0559 13.3763 17.748 12.5225 17.748C11.6688 17.748 10.9767 17.0559 10.9767 16.2022L10.9767 8.26509H7.15338C6.46478 8.26509 6.11992 7.43254 6.60684 6.94562L11.9922 1.56026C12.294 1.25841 12.7834 1.25841 13.0853 1.56026L18.4706 6.94562C18.9576 7.43254 18.6127 8.26509 17.9241 8.26509H14.0684L14.0684 16.2022Z" fill="currentColor"/>
<path fill-rule="evenodd" clip-rule="evenodd" d="M4.14008 22.7773C3.41659 22.7773 2.83008 22.1908 2.83008 21.4673L2.83008 17.7133C2.83008 16.9898 3.41659 16.4033 4.14008 16.4033C4.86358 16.4033 5.45009 16.9898 5.45009 17.7133V19.5078L18.702 19.5078V17.7133C18.702 16.9898 19.2885 16.4033 20.012 16.4033C20.7355 16.4033 21.322 16.9898 21.322 17.7133V21.4673C21.322 22.1908 20.7355 22.7773 20.012 22.7773C19.9601 22.7773 19.909 22.7743 19.8588 22.7685C19.802 22.7745 19.7443 22.7775 19.6859 22.7775L4.46962 22.7775C4.41059 22.7775 4.35229 22.7744 4.29488 22.7683C4.24411 22.7743 4.19246 22.7773 4.14008 22.7773Z" fill="currentColor"/>
</svg>