<svg width="20" height="20" viewBox="0 0 20 20" fill="none" xmlns="http://www.w3.org/2000/svg">
<path id="Subtract" fill-rule="evenodd" clip-rule="evenodd" d="M10.2639 2.06774L17.4171 7.09694C17.9947 7.4975 18.1724 8.29861 17.817 8.87719C17.5949 9.27775 17.195 9.54479 16.7507 9.54479H16.6618V17.1109C16.6618 17.6004 16.262 18.001 15.8177 18.001H4.17706C3.68833 18.001 3.33289 17.6004 3.33289 17.1109V9.54479H3.24403C2.57759 9.54479 2 8.96621 2 8.2096C2 7.76454 2.22215 7.31947 2.57759 7.09694L9.77521 2.06774C9.9085 1.97872 10.1307 1.97872 10.2639 2.06774ZM10.0002 10.6641C9.5093 10.6641 9.11133 11.062 9.11133 11.553V15.5642C9.11133 16.0552 9.5093 16.4531 10.0002 16.4531C10.4911 16.4531 10.8891 16.0552 10.8891 15.5642V11.553C10.8891 11.062 10.4911 10.6641 10.0002 10.6641Z" fill="currentColor"/>
</svg>