<svg xmlns="http://www.w3.org/2000/svg" width="32" height="32" viewBox="0 0 32 32" fill="none">
<path d="M13.8291 2.28711C16.4081 4.29473 18.2115 6.24368 19.2393 8.13397C20.2131 9.92444 20.6039 11.7561 20.4127 13.6288L20.3746 13.9412L20.5651 13.7858C21.2505 13.1995 21.7794 12.452 22.1041 11.6105L22.1879 11.3789L22.4287 10.6589C25.0001 12.4006 26.2862 15.3484 26.2862 19.5046C26.2862 25.7363 20.8066 29.7157 16.3022 29.7157C11.7986 29.7157 6.67021 27.049 5.84125 21.4696C5.01154 15.8902 8.45002 13.2852 10.7921 9.65092C12.3533 7.22806 13.3658 4.7732 13.8291 2.28711Z" fill="currentColor"/>
</svg>