<svg xmlns="http://www.w3.org/2000/svg" width="32" height="32" viewBox="0 0 32 32" fill="none">
<path d="M28.8296 3.37427C23.6388 2.26105 17.9373 3.63117 13.9378 7.48461C13.3422 7.9984 12.8316 8.59783 12.4061 9.28288C12.2359 9.45415 12.0657 9.62541 11.8955 9.62541C9.76813 10.1392 7.72582 11.1668 6.0239 12.7938C5.25804 13.5645 4.57727 14.3352 4.06669 15.1915C3.64121 15.9622 4.40708 16.8185 5.25804 16.5616C6.61957 16.0478 8.06621 15.8766 9.51284 15.8766C9.51284 15.9622 9.42774 16.1334 9.42774 16.2191C10.4489 17.4179 11.5551 18.5311 12.7465 19.6444C13.8527 20.7576 15.0441 21.7852 16.3205 22.8127C16.4056 22.8127 16.5758 22.7271 16.6609 22.7271C16.6609 24.1829 16.4056 25.553 15.895 26.8375C15.5547 27.6938 16.4907 28.3788 17.2566 27.9507C18.1926 27.4369 19.0436 26.7518 19.8095 26.0668C21.5114 24.4398 22.6176 22.4702 23.1282 20.4151C23.2133 20.2438 23.2984 19.9869 23.4686 19.9013C24.1494 19.4731 24.745 18.9593 25.3407 18.3599C29.3402 14.4208 30.7868 9.02599 29.5955 3.9737C29.4253 3.7168 29.17 3.4599 28.8296 3.37427ZM18.4479 9.62541C19.7244 8.42656 21.7667 8.42656 23.0431 9.62541C24.3195 10.8243 24.3195 12.7938 23.0431 14.0783C21.7667 15.2771 19.7244 15.2771 18.4479 14.0783C17.1715 12.7938 17.1715 10.8243 18.4479 9.62541ZM11.3849 24.9536C12.4061 24.0116 12.2359 22.299 11.0446 21.1857C9.85322 20.0725 8.1513 19.9013 7.13015 20.8432C6.109 21.7852 2.02439 27.6081 3.21573 28.807C4.32198 29.9202 10.4489 25.8955 11.3849 24.9536Z" fill="currentColor"/>
</svg>

