<svg xmlns="http://www.w3.org/2000/svg" width="40" height="40" viewBox="0 0 40 40" fill="none">
    <path
        d="M20.0009 10C17.2851 10 16.9442 10.0119 15.8776 10.0604C14.813 10.1092 14.0863 10.2777 13.4505 10.525C12.7927 10.7804 12.2348 11.1221 11.679 11.6781C11.1227 12.234 10.781 12.7919 10.5248 13.4494C10.2769 14.0855 10.1081 14.8123 10.0602 15.8765C10.0125 16.9432 10 17.2842 10 20.0001C10 22.716 10.0121 23.0558 10.0604 24.1224C10.1094 25.187 10.2779 25.9137 10.525 26.5495C10.7806 27.2073 11.1223 27.7652 11.6784 28.321C12.234 28.8773 12.7919 29.2198 13.4492 29.4752C14.0855 29.7225 14.8123 29.891 15.8767 29.9398C16.9434 29.9883 17.284 30.0002 19.9997 30.0002C22.7158 30.0002 23.0556 29.9883 24.1222 29.9398C25.1868 29.891 25.9143 29.7225 26.5506 29.4752C27.2081 29.2198 27.7652 28.8773 28.3208 28.321C28.8771 27.7652 29.2187 27.2073 29.475 26.5498C29.7208 25.9137 29.8896 25.1868 29.9396 24.1226C29.9875 23.056 30 22.716 30 20.0001C30 17.2842 29.9875 16.9434 29.9396 15.8767C29.8896 14.8121 29.7208 14.0855 29.475 13.4496C29.2187 12.7919 28.8771 12.234 28.3208 11.6781C27.7646 11.1219 27.2083 10.7802 26.55 10.525C25.9125 10.2777 25.1854 10.1092 24.1208 10.0604C23.0541 10.0119 22.7145 10 19.9978 10H20.0009ZM19.1038 11.8021C19.3701 11.8017 19.6672 11.8021 20.0009 11.8021C22.671 11.8021 22.9874 11.8117 24.0418 11.8596C25.0168 11.9042 25.546 12.0671 25.8985 12.204C26.3652 12.3852 26.6979 12.6019 27.0477 12.9519C27.3977 13.3019 27.6143 13.6352 27.796 14.1019C27.9329 14.454 28.096 14.9832 28.1404 15.9582C28.1883 17.0124 28.1987 17.329 28.1987 19.9978C28.1987 22.6666 28.1883 22.9833 28.1404 24.0374C28.0958 25.0124 27.9329 25.5416 27.796 25.8937C27.6148 26.3604 27.3977 26.6927 27.0477 27.0425C26.6977 27.3925 26.3654 27.6091 25.8985 27.7904C25.5464 27.9279 25.0168 28.0904 24.0418 28.135C22.9876 28.1829 22.671 28.1933 20.0009 28.1933C17.3307 28.1933 17.0142 28.1829 15.9601 28.135C14.9851 28.09 14.4559 27.9271 14.1032 27.7902C13.6365 27.6089 13.3032 27.3923 12.9532 27.0423C12.6032 26.6923 12.3865 26.3598 12.2048 25.8929C12.0679 25.5408 11.9048 25.0116 11.8604 24.0366C11.8125 22.9824 11.8029 22.6658 11.8029 19.9953C11.8029 17.3249 11.8125 17.0099 11.8604 15.9557C11.905 14.9807 12.0679 14.4515 12.2048 14.099C12.3861 13.6323 12.6032 13.299 12.9532 12.949C13.3032 12.599 13.6365 12.3823 14.1032 12.2006C14.4557 12.0631 14.9851 11.9006 15.9601 11.8559C16.8826 11.8142 17.2401 11.8017 19.1038 11.7996V11.8021ZM25.3389 13.4625C24.6764 13.4625 24.1389 13.9994 24.1389 14.6621C24.1389 15.3246 24.6764 15.8621 25.3389 15.8621C26.0014 15.8621 26.5389 15.3246 26.5389 14.6621C26.5389 13.9996 26.0014 13.4621 25.3389 13.4621V13.4625ZM20.0009 14.8646C17.1649 14.8646 14.8655 17.164 14.8655 20.0001C14.8655 22.8362 17.1649 25.1345 20.0009 25.1345C22.837 25.1345 25.1356 22.8362 25.1356 20.0001C25.1356 17.164 22.837 14.8646 20.0009 14.8646ZM20.0009 16.6667C21.8418 16.6667 23.3343 18.159 23.3343 20.0001C23.3343 21.841 21.8418 23.3335 20.0009 23.3335C18.1599 23.3335 16.6676 21.841 16.6676 20.0001C16.6676 18.159 18.1599 16.6667 20.0009 16.6667Z"
        fill="currentColor" />
</svg>