<svg xmlns="http://www.w3.org/2000/svg" width="24" height="24" viewBox="0 0 24 24" fill="none">
<path d="M18.9585 11.4548L20.337 9.92505C21.274 8.88151 21.8002 7.46834 21.8002 5.99513C21.8002 4.52191 21.274 3.10875 20.337 2.0652C19.3968 1.02477 18.1231 0.440637 16.7953 0.440918C15.4676 0.441199 14.1941 1.02587 13.2542 2.0667L11.2966 4.23917L11.2925 4.23468L8.40463 7.46941C7.77143 8.17209 7.75928 9.62241 8.38843 10.3206C9.02028 11.0203 10.3893 11.0577 11.0401 10.4L14.5018 6.51952L15.2173 7.3061L15.2187 7.3046L18.9585 11.4548Z" fill="currentColor"/>
<path d="M0.579486 8.12407C0.831392 8.79837 1.20129 9.41055 1.66778 9.92519L10.0439 19.2234C10.5367 19.7672 11.3738 19.7762 11.8936 19.2713C11.903 19.2622 11.9139 19.2557 11.9248 19.2493C11.9372 19.2419 11.9496 19.2346 11.9597 19.2234L18.1838 12.3164L14.5587 8.29358L11.8922 11.2122C11.0929 11.8609 10.6218 12.2175 9.78198 12.2175C8.94491 12.2175 8.06328 11.9688 7.52729 11.3021C6.41209 9.91919 6.45395 7.83362 7.59074 6.54362L10.16 3.63401L8.74914 2.06983C6.85628 -0.0307282 3.55795 -0.0292302 1.66778 2.06833C0.722704 3.11711 0.200209 4.51348 0.200209 5.99676C0.198668 6.72671 0.327579 7.44976 0.579486 8.12407Z" fill="currentColor"/>
</svg>