<svg width="20" height="20" viewBox="0 0 20 20" fill="none" xmlns="http://www.w3.org/2000/svg" ><path d="M7.10459 10.8138C7.79012 10.8138 8.34595 11.3697 8.34595 12.0552V16.8957C8.34595 17.5812 7.79012 18.1371 7.10459 18.1371H5.80287C4.77428 18.1371 3.94113 17.3033 3.94113 16.2753V12.6762C3.94113 11.6476 4.77488 10.8144 5.80287 10.8144H7.10459V10.8138ZM14.2509 10.8138C15.2795 10.8138 16.1127 11.6476 16.1127 12.6756V16.2747C16.1127 17.3033 15.2789 18.1365 14.2509 18.1365H12.9492C12.2637 18.1365 11.7078 17.5806 11.7078 16.8951V12.0546C11.7078 11.3691 12.2637 10.8132 12.9492 10.8132L14.2509 10.8138ZM10.0003 2C14.8952 2 18.8775 5.89561 18.997 10.7463L19 10.971V14.6353C19 15.141 18.5888 15.551 18.0814 15.551C17.6056 15.551 17.2148 15.1906 17.1675 14.7292L17.1628 14.6353V10.971C17.1628 7.02759 13.9557 3.83126 9.9997 3.83126C6.11067 3.83126 2.94601 6.92061 2.83963 10.7714L2.83664 10.971V14.6467C2.83664 15.1523 2.42544 15.5623 1.91802 15.5623C1.44228 15.5623 1.0514 15.2019 1.00478 14.7405L1 14.6467V10.971C1 6.01693 5.02948 2.0006 9.9997 2.0006L10.0003 2Z" fill="currentColor"></path></svg>