<svg xmlns="http://www.w3.org/2000/svg" width="16" height="16" viewBox="0 0 16 16" fill="none"><path d="M14.2402 8.41797C14.2402 12.0941 11.2601 15.0742 7.58398 15.0742C3.90784 15.0742 0.927734 12.0941 0.927734 8.41797C0.927734 4.74182 3.90784 1.76172 7.58398 1.76172C11.2601 1.76172 14.2402 4.74182 14.2402 8.41797Z" stroke="currentColor" stroke-width="1.6875"></path><path d="M10.4902 8.41797C10.4902 10.3865 10.0895 12.1269 9.48096 13.3439C8.84719 14.6115 8.12776 15.0742 7.58398 15.0742C7.04021 15.0742 6.32078 14.6115 5.68701 13.3439C5.07847 12.1269 4.67773 10.3865 4.67773 8.41797C4.67773 6.44949 5.07847 4.70907 5.68701 3.492C6.32078 2.22447 7.04021 1.76172 7.58398 1.76172C8.12776 1.76172 8.84719 2.22447 9.48096 3.492C10.0895 4.70907 10.4902 6.44949 10.4902 8.41797Z" stroke="currentColor" stroke-width="1.6875"></path><line x1="1.02148" y1="8.51172" x2="14.1465" y2="8.51172" stroke="currentColor" stroke-width="1.6875"></line></svg>