<svg width="24" height="25" viewBox="0 0 24 25" fill="currentColor"
    xmlns="http://www.w3.org/2000/svg">
    <g clip-path="url(#clip0_20218_244183)">
        <rect x="1.25977" y="12.1084" width="6.36" height="10.9647" rx="1.56" fill="currentColor" />
        <rect x="8.81934" y="9.03857" width="6.36" height="14.0344" rx="1.56" fill="currentColor" />
        <rect x="16.3799" y="10.7563" width="6.36" height="12.3166" rx="1.56" fill="currentColor" />
        <path
            d="M11.8765 0.778677C12.0033 0.494101 12.4072 0.494101 12.5341 0.778677L13.2841 2.46127C13.3364 2.57864 13.4473 2.65922 13.5751 2.67271L15.4071 2.86607C15.717 2.89877 15.8418 3.28293 15.6103 3.49151L14.2419 4.72476C14.1464 4.81079 14.1041 4.94118 14.1307 5.06688L14.5129 6.86898C14.5776 7.17376 14.2508 7.41118 13.9809 7.25552L12.3851 6.33512C12.2738 6.27092 12.1367 6.27092 12.0254 6.33512L10.4296 7.25552C10.1597 7.41118 9.83296 7.17376 9.8976 6.86898L10.2798 5.06688C10.3065 4.94118 10.2641 4.81079 10.1687 4.72476L8.8002 3.49151C8.56875 3.28293 8.69357 2.89877 9.00341 2.86607L10.8354 2.67271C10.9632 2.65922 11.0741 2.57864 11.1264 2.46127L11.8765 0.778677Z"
            fill="currentColor" />
    </g>
    <defs>
        <clipPath id="clip0_20218_244183">
            <rect width="24" height="24" fill="white" transform="translate(0 0.0410156)" />
        </clipPath>
    </defs>
</svg>