  <svg xmlns="http://www.w3.org/2000/svg" width="21" height="20" viewBox="0 0 21 20" fill="currentColor" >
    <path
      d="M10.2143 4.10714V2.5H11.2857V4.10714H10.2143ZM13.2325 4.62893L14.0361 3.23714L14.9639 3.77286L14.1604 5.16464L13.2325 4.62893ZM10.75 13.75C11.7446 13.75 12.6984 13.3549 13.4016 12.6516C14.1049 11.9484 14.5 10.9946 14.5 10C14.5 9.00544 14.1049 8.05161 13.4016 7.34835C12.6984 6.64509 11.7446 6.25 10.75 6.25C9.75544 6.25 8.80161 6.64509 8.09835 7.34835C7.39509 8.05161 7 9.00544 7 10C7 10.9946 7.39509 11.9484 8.09835 12.6516C8.80161 13.3549 9.75544 13.75 10.75 13.75ZM10.75 14.8214C12.0287 14.8214 13.2551 14.3135 14.1593 13.4093C15.0635 12.5051 15.5714 11.2787 15.5714 10C15.5714 8.72128 15.0635 7.49493 14.1593 6.59073C13.2551 5.68654 12.0287 5.17857 10.75 5.17857C9.47128 5.17857 8.24493 5.68654 7.34073 6.59073C6.43654 7.49493 5.92857 8.72128 5.92857 10C5.92857 11.2787 6.43654 12.5051 7.34073 13.4093C8.24493 14.3135 9.47128 14.8214 10.75 14.8214ZM16.6429 9.46429H18.25V10.5357H16.6429V9.46429ZM16.9771 5.78607L15.5854 6.58964L16.1211 7.5175L17.5129 6.71393L16.9771 5.78607ZM6.53607 3.77286L7.33964 5.16464L8.2675 4.62893L7.46393 3.23714L6.53607 3.77286ZM5.37893 7.5175L3.98714 6.71393L4.52286 5.78607L5.91464 6.58964L5.37893 7.5175ZM10.2143 15.8929V17.5H11.2857V15.8929H10.2143ZM4.85714 9.46429H3.25V10.5357H4.85714V9.46429ZM3.98714 13.2861L5.37893 12.4825L5.91464 13.4104L4.52286 14.2139L3.98714 13.2861ZM7.33964 14.8354L6.53607 16.2277L7.46393 16.7634L8.2675 15.3711L7.33964 14.8354ZM14.0361 16.7634L13.2325 15.3711L14.1604 14.8354L14.9639 16.2277L14.0361 16.7634ZM15.5854 13.4104L16.9771 14.2139L17.5129 13.2861L16.1211 12.4825L15.5854 13.4104Z"
    />
  </svg>