<svg id="icon-like" viewBox="0 0 32 32">
  <path
    fill="currentColor" d="M12.872 4.805c0.619-1.976 1.693-2.82 3.813-2.208l0.053 0.017c0.62 0.191 1.333 0.553 2.003 1.161 1.053 0.96 1.68 2.291 1.68 3.963 0 1.493-0.087 2.416-0.34 3.463l-0.008 0.029h5.484c3.352 0 4.684 2.261 3.841 6.021l-0.072 0.308-0.171 0.563-0.644 2.097-0.301 0.959-0.287 0.896-0.533 1.613-0.364 1.051-0.225 0.627-0.312 0.824-0.191 0.476c-0.923 2.227-2.827 3.249-5.316 2.956l-12.097-0.9c-0.077-0.004-0.154-0.008-0.231-0.011l-0.48-0.011h-1.361l-0.391-0.007-0.312-0.013-0.26-0.024-0.116-0.017-0.223-0.044-0.36-0.095c-1.855-0.551-2.82-2.123-2.82-4.363v-8.86c0-2.829 1.717-4.444 4.643-4.444l2.368-0.001 0.163-0.124c0.926-0.764 1.693-1.701 2.257-2.76l0.191-0.373c0.191-0.392 0.347-0.803 0.495-1.281l0.024-0.081 0.4-1.407zM15.643 5.057c-0.057-0.013-0.083 0.005-0.111 0.087l-0.121 0.467-0.333 1.201-0.080 0.267c-0.171 0.57-0.386 1.125-0.643 1.661-0.577 1.183-1.344 2.265-2.269 3.201-0.469 0.487-0.985 0.927-1.54 1.313l0.172-0.123v13.044l10.521 0.792c1.309 0.153 2.051-0.191 2.507-1.128l0.089-0.195 0.18-0.449 0.297-0.787 0.216-0.603 0.351-1.015 0.252-0.752 0.543-1.68 0.6-1.917 0.483-1.589c0.593-2.377 0.244-2.956-1.199-2.956h-6.803c-0.267 0-0.53-0.064-0.768-0.186s-0.442-0.3-0.598-0.517c-0.155-0.217-0.256-0.469-0.294-0.733s-0.013-0.534 0.074-0.787l0.068-0.2 0.104-0.341c0.321-1.117 0.413-1.848 0.413-3.395 0-1.513-0.84-2.28-1.783-2.571l-0.116-0.036-0.213-0.075zM8.051 13.498h-1.075c-1.488 0-1.976 0.46-1.976 1.779v8.86c0 1.188 0.311 1.667 1.056 1.844l0.047 0.011 0.117 0.017 0.16 0.013 0.361 0.008h0.893l0.416 0.003v-12.535z">
  </path>
</svg>
