  <svg xmlns="http://www.w3.org/2000/svg" width="20" height="20" viewBox="0 0 20 20" fill="none" >
      <path
        d="M17.6271 9.20609L12.1116 3.68747C11.7684 3.34535 11.3583 3.24335 10.9344 3.40166C10.4998 3.56528 10.2512 3.95416 10.2501 4.47053V6.96316L6.07238 6.96422C5.42213 6.96634 4.96845 7.4179 4.96632 8.0639C4.9642 9.36546 4.9642 10.666 4.96632 11.9665C4.96845 12.5923 5.42745 13.0502 6.05857 13.0566L10.2501 13.0576L10.2491 13.54C10.2469 14.2168 10.2448 14.8915 10.2586 15.5673C10.2629 15.8318 10.367 16.1198 10.5285 16.3174C10.7261 16.5607 10.9971 16.6946 11.2914 16.6946C11.5825 16.6946 11.8757 16.5618 12.1169 16.3216C13.9572 14.4835 15.7953 12.6443 17.6334 10.8041C18.1243 10.3143 18.1222 9.70121 17.6271 9.20609Z"
        fill="currentColor"
      />
      <path
        d="M7.43455 14.8883H7.43348L6.22861 14.8904L4.50417 14.8894C3.63292 14.8894 3.13249 14.3889 3.13249 13.5166V6.50093C3.13249 5.63075 3.63292 5.13137 4.5063 5.13137L5.64848 5.13031L6.9033 5.13137L7.60136 5.13031C8.10073 5.13031 8.37379 4.87956 8.41311 4.38656C8.42798 4.20275 8.42373 4.01575 8.41736 3.8075C8.40461 3.28794 8.11348 3.00106 7.60029 3H6.33273C5.6538 3 4.97486 3 4.29699 3.00425C4.08874 3.00531 3.87517 3.02869 3.66161 3.07437C2.13055 3.40056 1.0128 4.77331 1.0043 6.33837C1.00005 7.18199 1.00112 8.02668 1.00218 8.86924L1.00324 9.9923L1.00112 11.1706C1.00005 12.0174 0.997928 12.8632 1.00537 13.711C1.02024 15.5003 2.47905 16.9825 4.25767 17.0154C4.69542 17.0239 5.13424 17.026 5.57199 17.026L7.65342 17.0218C8.06461 17.0218 8.35254 16.7721 8.40354 16.3705C8.42161 16.2239 8.42373 16.074 8.42479 15.9242V15.8499C8.42692 15.6289 8.42904 15.326 8.21654 15.1114C8.01148 14.9064 7.71611 14.8883 7.43455 14.8883Z"
        fill="currentColor"
      />
    </svg>