<svg width="21" height="21" viewBox="0 0 21 21" fill="none" xmlns="http://www.w3.org/2000/svg">
<path fill-rule="evenodd" clip-rule="evenodd" d="M2.57812 3.875C2.57812 3.18464 3.13777 2.625 3.82812 2.625H16.906C17.5964 2.625 18.156 3.18464 18.156 3.875C18.156 4.56536 17.5964 5.125 16.906 5.125H3.82812C3.13777 5.125 2.57812 4.56536 2.57812 3.875ZM2.57812 9.70801C2.57812 9.01765 3.13777 8.45801 3.82812 8.45801H16.906C17.5964 8.45801 18.156 9.01765 18.156 9.70801C18.156 10.3984 17.5964 10.958 16.906 10.958H3.82812C3.13777 10.958 2.57812 10.3984 2.57812 9.70801ZM3.82812 14.291C3.13777 14.291 2.57812 14.8507 2.57812 15.541C2.57812 16.2314 3.13777 16.791 3.82812 16.791H16.906C17.5964 16.791 18.156 16.2314 18.156 15.541C18.156 14.8507 17.5964 14.291 16.906 14.291H3.82812Z" fill="currentColor"/>
</svg>