<svg xmlns="http://www.w3.org/2000/svg" width="32" height="32" viewBox="0 0 32 32" fill="none">
<path d="M24.7436 4H6.98629C5.50535 4.07428 4.32617 5.31381 4.32617 6.81332V27.8064C4.32617 28.0525 4.4608 28.28 4.65114 28.4146C4.78577 28.4889 4.91576 28.5492 5.05039 28.5492C5.14324 28.5492 5.24073 28.5307 5.35679 28.4935L15.8255 23.9671L26.4938 28.475C26.7213 28.5724 26.9859 28.5492 27.1995 28.4192C27.4084 28.266 27.5244 28.0571 27.5244 27.8111V14.7844C27.543 14.6498 27.543 14.5383 27.543 14.4037V6.79475C27.5384 5.2581 26.3035 4 24.7436 4ZM21.986 13.3174L18.9452 15.5225L20.1058 19.0787C20.2033 19.3851 20.1058 19.7054 19.8412 19.8957C19.7066 19.9886 19.558 20.0489 19.4048 20.0489C19.2516 20.0489 19.0984 20.0118 18.9684 19.8957L15.9276 17.6906L12.8868 19.8957C12.6222 20.0861 12.2787 20.0861 12.0141 19.8957C11.7494 19.7054 11.6519 19.3804 11.7494 19.0787L12.91 15.5225L9.86925 13.3174C9.60463 13.127 9.50714 12.8021 9.60463 12.5003C9.69748 12.1939 9.98531 11.985 10.3103 11.985H14.0567L15.2173 8.41032C15.3102 8.10392 15.598 7.89501 15.923 7.89501C16.248 7.89501 16.5311 8.10392 16.6286 8.41032L17.7893 11.9664H21.5357C21.8607 11.9664 22.1253 12.1753 22.2414 12.4817C22.3481 12.8067 22.2367 13.127 21.986 13.3174Z" fill="currentColor"/>
</svg>