<svg xmlns="http://www.w3.org/2000/svg" width="16" height="18" viewBox="0 0 16 18" fill="none">
<path d="M8.02475 9.17986C8.88206 9.1755 9.71887 8.91729 10.4296 8.43781C11.1403 7.95834 11.693 7.27909 12.0181 6.48578C12.3432 5.69247 12.426 4.82065 12.256 3.98034C12.0861 3.14003 11.6711 2.36887 11.0633 1.7642C10.4556 1.15952 9.68231 0.748415 8.84114 0.582758C7.99998 0.417102 7.12859 0.504318 6.33694 0.833402C5.54529 1.16249 4.86886 1.71869 4.39301 2.43182C3.91715 3.14496 3.66319 3.98307 3.66318 4.84039C3.66407 5.41187 3.77765 5.97756 3.99743 6.50509C4.21721 7.03262 4.53886 7.51162 4.94398 7.91469C5.3491 8.31776 5.82974 8.63698 6.35837 8.85407C6.88701 9.07117 7.45327 9.18188 8.02475 9.17986ZM8.85253 9.36174L8.24741 9.97875L9.48144 14.0038L8.00265 15.7664L6.52046 14.0038L7.75449 9.97875L7.14937 9.36174C3.33003 9.77308 0.309566 12.9142 0.00191038 16.839C-0.010818 16.9997 0.0404303 17.159 0.144513 17.2822C0.248596 17.4054 0.397097 17.4825 0.55773 17.4968L0.601923 17.4985H15.3966C15.5578 17.4967 15.7118 17.4311 15.8249 17.3161C15.9379 17.2012 16.0009 17.0461 16 16.8848L15.9983 16.8407C15.6923 12.9142 12.6702 9.77308 8.85253 9.36174Z" fill="currentColor"/>
</svg>