<svg width="24" height="24" viewBox="0 0 24 24" fill="none" xmlns="http://www.w3.org/2000/svg">
<g clip-path="url(#clip0_20379_227225)">
<g filter="url(#filter0_d_20379_227225)">
<path d="M19.691 12.9319C19.4588 12.335 19.4588 11.6729 19.691 11.0761L19.8271 10.7081C20.0658 10.0847 20.0571 9.39367 19.8026 8.77652C19.5482 8.15936 19.0674 7.66277 18.4585 7.38843L18.0984 7.20445C17.5257 6.94052 17.0659 6.48102 16.8019 5.90858L16.6418 5.54862C16.3674 4.9401 15.8705 4.45949 15.2531 4.20519C14.6356 3.95089 13.9442 3.94215 13.3205 4.18076L12.9524 4.31675C12.3553 4.54889 11.6928 4.54889 11.0956 4.31675L10.7275 4.18076C10.1009 3.935 9.40364 3.94001 8.78064 4.19475C8.15764 4.44949 7.65679 4.93437 7.38218 5.54862L7.19811 5.90858C6.93405 6.48102 6.47433 6.94052 5.9016 7.20445L5.54146 7.36444C4.93264 7.63877 4.45179 8.13536 4.19736 8.75252C3.94294 9.36968 3.93419 10.0607 4.17292 10.6841L4.30898 11.0521C4.54123 11.6489 4.54123 12.311 4.30898 12.9079L4.17292 13.2758C3.93419 13.8992 3.94294 14.5903 4.19736 15.2074C4.45179 15.8246 4.93264 16.3212 5.54146 16.5955L5.9016 16.7555C6.48268 17.0312 6.94352 17.5089 7.19811 18.0993L7.35818 18.4593C7.63264 19.0678 8.12948 19.5484 8.74695 19.8027C9.36441 20.057 10.0558 20.0658 10.6795 19.8272L11.0476 19.6912C11.6447 19.459 12.3072 19.459 12.9044 19.6912L13.2725 19.8272C13.8962 20.0658 14.5876 20.057 15.205 19.8027C15.8225 19.5484 16.3193 19.0678 16.5938 18.4593L16.7539 18.0993C17.0298 17.5185 17.5077 17.0579 18.0984 16.8035L18.4585 16.6435C19.0674 16.3692 19.5482 15.8726 19.8026 15.2554C20.0571 14.6382 20.0658 13.9472 19.8271 13.3238L19.691 12.9319ZM15.4814 10.1881L10.9836 14.6837C10.9477 14.7219 10.9043 14.7524 10.8561 14.7733C10.8079 14.7941 10.756 14.8049 10.7035 14.8049C10.651 14.8049 10.5991 14.7941 10.5509 14.7733C10.5027 14.7524 10.4593 14.7219 10.4234 14.6837L8.51863 12.8039C8.48113 12.7667 8.45136 12.7225 8.43104 12.6737C8.41073 12.625 8.40027 12.5727 8.40027 12.5199C8.40027 12.4671 8.41073 12.4148 8.43104 12.3661C8.45136 12.3174 8.48113 12.2731 8.51863 12.2359L8.9428 11.812C8.97872 11.7737 9.02212 11.7432 9.07029 11.7224C9.11847 11.7015 9.17041 11.6908 9.22291 11.6908C9.27541 11.6908 9.32735 11.7015 9.37552 11.7224C9.4237 11.7432 9.46709 11.7737 9.50302 11.812L10.7035 13.0039L14.497 9.21225C14.5718 9.13896 14.6723 9.09792 14.7771 9.09792C14.8818 9.09792 14.9824 9.13896 15.0572 9.21225L15.4814 9.6362C15.5523 9.71059 15.5919 9.80941 15.5919 9.91217C15.5919 10.0149 15.5523 10.1138 15.4814 10.1881Z" fill="#24EE89"/>
</g>
</g>
<defs>
<filter id="filter0_d_20379_227225" x="-1.13674" y="-1.13674" width="26.2735" height="26.2735" filterUnits="userSpaceOnUse" color-interpolation-filters="sRGB">
<feFlood flood-opacity="0" result="BackgroundImageFix"/>
<feColorMatrix in="SourceAlpha" type="matrix" values="0 0 0 0 0 0 0 0 0 0 0 0 0 0 0 0 0 0 127 0" result="hardAlpha"/>
<feOffset/>
<feGaussianBlur stdDeviation="2.56837"/>
<feComposite in2="hardAlpha" operator="out"/>
<feColorMatrix type="matrix" values="0 0 0 0 0.133333 0 0 0 0 0.882353 0 0 0 0 0.298039 0 0 0 0.5 0"/>
<feBlend mode="normal" in2="BackgroundImageFix" result="effect1_dropShadow_20379_227225"/>
<feBlend mode="normal" in="SourceGraphic" in2="effect1_dropShadow_20379_227225" result="shape"/>
</filter>
<clipPath id="clip0_20379_227225">
<rect width="24" height="24" fill="white"/>
</clipPath>
</defs>
</svg>
