<svg id="icon-point" viewBox="0 0 32 32">
  <path
    fill="currentColor" d="M11 1c1.795 0 3.5 1.455 3.5 3.25l-0 4.499c0.385-0.16 0.807-0.249 1.25-0.249 1.005 0 1.904 0.456 2.5 1.173 0.596-0.717 1.495-1.173 2.5-1.173 1.19 0 2.231 0.64 2.798 1.595 0.558-0.376 1.229-0.595 1.952-0.595 1.694 0 3.107 1.204 3.431 2.803 0.005 0.008 0.010 0.018 0.015 0.029l0.004 0.011 0.004 0.012c0.002 0.006 0.004 0.013 0.005 0.019l0.003 0.014 0.003 0.015 0.002 0.008 0.003 0.017 0.003 0.018 0.003 0.018 0.003 0.019 0.004 0.031 0.002 0.022 0.002 0.023c0.010 0.29 0.015 0.437 0.015 0.441l-2.564 15.52c-0.252 1.434-1.498 2.48-2.955 2.48h-12.482c-0.527 0-1.044-0.139-1.5-0.402s-0.835-0.642-1.098-1.099l-5.944-11.56c-0.897-1.554-0.365-3.542 1.19-4.44l0.433-0.25c1.103-0.637 2.425-0.554 3.42 0.104l0-9.105c0-1.795 1.455-3.25 3.25-3.25h0.25zM11 3c-0.82 0-1.487 0.658-1.5 1.475l-0 0.025v11.906c0 0.552-0.448 1-1 1-0.176 0-0.348-0.046-0.5-0.134s-0.278-0.214-0.366-0.366l-0.722-1.25c-0.414-0.717-1.332-0.963-2.049-0.549-0.71 0.41-0.958 1.313-0.561 2.027l5.827 11.357c0.087 0.154 0.214 0.283 0.367 0.372s0.327 0.136 0.504 0.136h12.653c0.489 0 0.906-0.353 0.986-0.836l2.361-15.164c0-0.828-0.672-1.5-1.5-1.5-0.82 0-1.487 0.658-1.5 1.475l-0 0.025v2.5c0 0.552-0.448 1-1 1-0.547 0-0.991-0.439-1-0.983l-0-0.017v-3.75c0-0.69-0.56-1.25-1.25-1.25-0.683 0-1.239 0.548-1.25 1.229l-0 0.021v3.75c0 0.552-0.448 1-1 1-0.547 0-0.991-0.439-1-0.983l-0-0.017v-3.5c0-0.828-0.672-1.5-1.5-1.5-0.82 0-1.487 0.658-1.5 1.475l-0 0.025v3.5c0 0.552-0.448 1-1 1-0.547 0-0.991-0.439-1-0.983l-0-0.017v-11c0-0.828-0.672-1.5-1.5-1.5z">
  </path>
</svg>
