<svg xmlns="http://www.w3.org/2000/svg" width="24" height="25" viewBox="0 0 24 25" fill="none"><rect y="0.929688" width="24" height="24" rx="8" fill="none"></rect><path d="M12 5.92969C10.3453 5.92969 9 7.27637 9 8.93285C9 10.5577 10.2695 11.8728 11.9242 11.9297C11.9747 11.9234 12.0253 11.9234 12.0632 11.9297C12.0758 11.9297 12.0821 11.9297 12.0947 11.9297C12.1011 11.9297 12.1011 11.9297 12.1074 11.9297C13.7242 11.8728 14.9937 10.5577 15 8.93285C15 7.27637 13.6547 5.92969 12 5.92969Z" fill="currentColor"></path><path d="M15.608 13.835C13.6264 12.6279 10.3949 12.6279 8.39915 13.835C7.49716 14.3867 7 15.133 7 15.9313C7 16.7296 7.49716 17.4694 8.39205 18.0146C9.38637 18.6247 10.6932 18.9297 12 18.9297C13.3068 18.9297 14.6136 18.6247 15.608 18.0146C16.5028 17.4629 17 16.7231 17 15.9183C16.9929 15.1201 16.5028 14.3802 15.608 13.835Z" fill="currentColor"></path></svg>