<svg fill="currentColor" viewBox="0 0 32 32"><path d="M15.997 28.237c-3.155-0.001-6.028-1.207-8.184-3.183l0.009 0.008c-0.148-0.137-0.24-0.332-0.24-0.549s0.092-0.412 0.24-0.549v0l0.774-0.754c0.131-0.121 0.306-0.196 0.499-0.196s0.369 0.075 0.5 0.196v0c1.699 1.516 3.952 2.443 6.422 2.443 5.335 0 9.661-4.324 9.663-9.659v0h2.573c0 6.762-5.481 12.243-12.243 12.243-0.005 0-0.009 0-0.014 0h0.001z"></path><path d="M6.34 15.994h-2.573c0 0 0-0.001 0-0.001 0-6.754 5.475-12.23 12.23-12.23 3.061 0 5.86 1.125 8.005 2.984l-0.015-0.013c0.165 0.142 0.269 0.351 0.269 0.584 0 0.208-0.083 0.396-0.217 0.534v0l-0.741 0.747c-0.137 0.142-0.329 0.229-0.542 0.229-0.182 0-0.348-0.064-0.478-0.171l0.001 0.001c-1.678-1.444-3.878-2.324-6.283-2.324-5.333 0-9.657 4.323-9.657 9.657 0 0.001 0 0.002 0 0.002v0z"></path><path d="M5.93 22.059l2.831-4.908c0.086-0.146 0.137-0.322 0.137-0.509 0-0.559-0.453-1.012-1.012-1.012-0.002 0-0.004 0-0.005 0h-5.655c-0.002 0-0.003 0-0.005 0-0.559 0-1.012 0.453-1.012 1.012 0 0.188 0.051 0.363 0.14 0.514l-0.003-0.005 2.831 4.908c0.178 0.305 0.504 0.506 0.876 0.506s0.698-0.201 0.874-0.501l0.003-0.005z"></path><path d="M26.070 9.572l-2.831 4.901c-0.086 0.146-0.137 0.322-0.137 0.509 0 0.559 0.453 1.012 1.012 1.012 0.002 0 0.004 0 0.006 0h5.655c0.002 0 0.003 0 0.005 0 0.559 0 1.012-0.453 1.012-1.012 0-0.188-0.051-0.363-0.14-0.514l0.003 0.005-2.831-4.901c-0.178-0.305-0.504-0.506-0.876-0.506s-0.698 0.201-0.874 0.501l-0.003 0.005z"></path></svg>