<svg width="24" height="25" viewBox="0 0 24 25" fill="none" xmlns="http://www.w3.org/2000/svg">
<g clip-path="url(#clip0_20213_239287)">
<path d="M17.2571 13.0031C16.2366 13.1407 15.2759 13.5643 14.4859 14.2248C13.6959 14.8853 13.1089 15.7558 12.7927 16.7358C12.4765 17.7158 12.444 18.7652 12.6989 19.7629C12.9539 20.7606 13.4859 21.6658 14.2335 22.3739C13.1926 22.4753 12.1552 22.526 11.1203 22.526C8.18788 22.526 5.22845 22.1188 2.24283 21.306C1.70214 21.306 1.26367 20.8414 1.26367 20.2694V20.2382C1.26705 20.2297 1.26705 20.2238 1.26705 20.2188C1.26959 20.1782 1.27212 20.1419 1.27719 20.1047C1.65145 16.3925 3.85392 13.2599 6.91219 11.7367C8.08572 12.7271 9.56543 13.2816 11.1009 13.3064C12.6833 13.3365 14.2248 12.8022 15.4492 11.7992C16.0938 12.1312 16.6995 12.5367 17.2571 13.0031ZM5.58666 6.52071C5.59072 5.77535 5.74268 5.03822 6.03374 4.35203C6.32479 3.66584 6.74915 3.04424 7.28221 2.52326C7.81527 2.00229 8.44643 1.59229 9.13911 1.31705C9.8318 1.0418 10.5722 0.90678 11.3175 0.919805C12.0627 0.932831 12.798 1.09365 13.4806 1.39293C14.1633 1.69221 14.7797 2.12401 15.2942 2.6633C15.8088 3.20258 16.2111 3.83863 16.478 4.53457C16.7449 5.23052 16.8711 5.97251 16.8491 6.71755C16.8053 8.199 16.1795 9.60352 15.1072 10.6266C14.0348 11.6497 12.6025 12.2089 11.1206 12.183C9.63875 12.1571 8.22681 11.5482 7.19089 10.4883C6.15498 9.42831 5.57858 8.00278 5.58666 6.52071ZM17.9845 23.1638C16.7242 23.1638 15.5154 22.6632 14.6242 21.772C13.733 20.8807 13.2324 19.672 13.2324 18.4117C13.2324 17.1513 13.733 15.9426 14.6242 15.0514C15.5154 14.1602 16.7242 13.6595 17.9845 13.6595C19.2449 13.6595 20.4536 14.1602 21.3448 15.0514C22.236 15.9426 22.7367 17.1513 22.7367 18.4117C22.7367 19.672 22.236 20.8807 21.3448 21.772C20.4536 22.6632 19.2449 23.1638 17.9845 23.1638ZM17.6322 17.8836H15.5202C15.3801 17.8836 15.2458 17.9393 15.1468 18.0383C15.0478 18.1373 14.9921 18.2716 14.9921 18.4117C14.9921 18.5517 15.0478 18.686 15.1468 18.785C15.2458 18.8841 15.3801 18.9397 15.5202 18.9397H17.6322V21.0518C17.6322 21.1918 17.6879 21.3261 17.7869 21.4251C17.8859 21.5241 18.0202 21.5798 18.1602 21.5798C18.3003 21.5798 18.4346 21.5241 18.5336 21.4251C18.6326 21.3261 18.6883 21.1918 18.6883 21.0518V18.9397H20.8003C20.9404 18.9397 21.0747 18.8841 21.1737 18.785C21.2727 18.686 21.3283 18.5517 21.3283 18.4117C21.3283 18.2716 21.2727 18.1373 21.1737 18.0383C21.0747 17.9393 20.9404 17.8836 20.8003 17.8836H18.6883V15.7716C18.6883 15.6315 18.6326 15.4972 18.5336 15.3982C18.4346 15.2992 18.3003 15.2436 18.1602 15.2436C18.0202 15.2436 17.8859 15.2992 17.7869 15.3982C17.6879 15.4972 17.6322 15.6315 17.6322 15.7716V17.8836Z" fill="currentColor"/>
</g>
<defs>
<clipPath id="clip0_20213_239287">
<rect width="24" height="24" fill="currentColor" transform="translate(0 0.0410156)"/>
</clipPath>
</defs>
</svg>
