<svg xmlns="http://www.w3.org/2000/svg" width="33" height="32" viewBox="0 0 33 32" fill="none" >
  <path
    d="M16.5005 4C23.1282 4 28.501 9.37279 28.501 16.0005C28.501 22.6282 23.1282 28.001 16.5005 28.001C9.87279 28.001 4.5 22.6282 4.5 16.0005C4.5 9.37279 9.87279 4 16.5005 4ZM16.3393 20.2572C15.9433 20.2572 15.6193 20.3832 15.3493 20.6352C15.0793 20.8873 14.9533 21.2113 14.9533 21.6073C14.9533 22.0033 15.0793 22.3273 15.3493 22.5793C15.6193 22.8313 15.9433 22.9753 16.3393 22.9753C16.7354 22.9753 17.0594 22.8493 17.3294 22.5973C17.5994 22.3453 17.7434 22.0033 17.7434 21.6073C17.7434 21.2113 17.5994 20.8873 17.3474 20.6352C17.0774 20.3832 16.7354 20.2572 16.3393 20.2572ZM16.2999 8.74019C16.2768 8.74019 16.2536 8.74105 16.2313 8.74191C15.3313 8.77962 14.6327 9.53994 14.6713 10.44L15.0013 18.2506H17.5651L17.9234 10.4391C17.9243 10.4143 17.9251 10.3894 17.9251 10.3645C17.9251 9.46708 17.1974 8.74019 16.3008 8.74019H16.2999Z"
    fill="currentColor"
  />
</svg>