<svg width="16" height="16" viewBox="0 0 16 16" fill="none" xmlns="http://www.w3.org/2000/svg">
<path d="M11.086 2.84741C11.7033 2.94103 12.337 2.82066 12.835 2.91325C13.6447 3.06346 14.0562 3.81039 13.9667 4.91021H12.9862C12.9595 6.86499 12.9708 8.79302 12.9708 10.7519C12.9708 11.7396 13.0469 12.7777 12.9553 13.6645C12.9311 14.0256 12.7851 14.3678 12.5412 14.6352C12.2974 14.9026 11.97 15.0794 11.6127 15.1368C10.835 15.2096 10.0526 15.2203 9.27316 15.1687C7.6939 15.1687 6.0951 15.2026 4.54876 15.1687C4.23215 15.1873 3.91589 15.1268 3.62851 14.9926C3.34112 14.8584 3.09167 14.6548 2.90263 14.4002C2.60875 13.7321 2.50412 12.9961 2.60016 12.2725V4.91021H1.66392C1.55331 4.52284 1.58729 4.10847 1.75953 3.74429C1.93178 3.38012 2.23054 3.09098 2.60016 2.93074C3.22423 2.83452 3.85696 2.80692 4.48703 2.84843C4.42839 1.7589 4.48703 0.932751 5.34714 0.81958C5.80497 0.794515 6.26382 0.794515 6.72165 0.81958H9.46863C9.99231 0.81958 10.5283 0.765052 10.7969 1.01712C11.1703 1.3628 11.0736 2.16426 11.086 2.84741ZM5.42739 1.89779V2.88033H10.1518V1.8515H5.43973C5.42224 1.85253 5.4243 1.87413 5.42533 1.89779H5.42739ZM4.50144 5.02338V11.2581C4.50144 11.79 4.38929 12.9258 4.68354 13.1563C4.76867 13.2047 4.86493 13.2302 4.96287 13.2302C5.06081 13.2302 5.15707 13.2047 5.2422 13.1563C5.55084 12.9269 5.4387 11.824 5.4387 11.2746V4.97503H4.51275C4.49424 4.97503 4.49526 4.99972 4.49629 5.02338H4.50144ZM7.30912 5.02338V11.0606C7.24248 11.7043 7.26811 12.3542 7.38525 12.9907C7.46141 13.1024 7.57802 13.1803 7.71046 13.2077C7.84291 13.2352 7.98083 13.2101 8.09514 13.1378C8.36264 12.9114 8.24535 11.717 8.24535 11.2231V4.974H7.31941C7.30912 4.97709 7.31117 5.00075 7.3122 5.0275L7.30912 5.02338ZM10.1466 5.02338V11.3384C10.1466 11.9855 10.0304 12.9773 10.4182 13.1542C10.5073 13.1846 10.6018 13.1959 10.6955 13.1876C10.7892 13.1793 10.8802 13.1514 10.9625 13.1059C11.2166 12.8795 11.0983 11.6655 11.0983 11.1912V4.97503H10.1621C10.1477 4.97709 10.1487 5.00075 10.1497 5.0275L10.1466 5.02338Z" fill="#849194"/>
</svg>
