<svg xmlns="http://www.w3.org/2000/svg" width="22" height="22" viewBox="0 0 22 22" fill="none">
<path d="M21.7407 3.25559C21.7407 2.40836 20.989 1.6566 19.6167 1.14349C18.4115 0.690042 16.8125 0.439453 15.13 0.439453C13.4474 0.439453 11.8485 0.690042 10.6432 1.14349C9.25904 1.6566 8.50727 2.40836 8.50727 3.25559V7.3008C7.98223 7.25307 7.43332 7.21728 6.87248 7.21728C5.18996 7.21728 3.59097 7.46786 2.38575 7.92131C1.01348 8.44635 0.261719 9.19812 0.261719 10.0453V18.7443C0.261719 19.5916 1.01348 20.3433 2.38575 20.8564C3.59097 21.3099 5.18996 21.5605 6.87248 21.5605C8.55501 21.5605 10.154 21.3099 11.3592 20.8564C12.5525 20.403 13.2804 19.7825 13.4474 19.0665C13.9964 19.1262 14.5572 19.1501 15.118 19.1501C16.8006 19.1501 18.3996 18.8995 19.6048 18.446C20.977 17.9329 21.7288 17.1812 21.7288 16.3339V16.2981V16.2623L21.7407 3.25559ZM20.6787 13.1001C20.6787 13.828 18.507 14.8662 15.118 14.8662C14.5572 14.8662 14.0083 14.8423 13.4832 14.7827V12.6109C14.0202 12.6706 14.5572 12.6944 15.118 12.6944C16.8006 12.6944 18.3996 12.4438 19.6048 11.9904C20.0224 11.8353 20.3804 11.6563 20.6787 11.4653V13.1001ZM12.4332 13.0763C12.4332 13.8042 10.2614 14.8423 6.87248 14.8423C3.48357 14.8423 1.3118 13.7922 1.3118 13.0763V11.6324C1.61012 11.8233 1.96811 12.0023 2.38575 12.1574C3.59097 12.6109 5.18996 12.8615 6.87248 12.8615C8.55501 12.8615 10.154 12.6109 11.3592 12.1574C11.7769 12.0023 12.1348 11.8233 12.4332 11.6324V13.0763ZM1.3118 14.6633C1.61012 14.8543 1.96811 15.0332 2.38575 15.1884C3.59097 15.6418 5.18996 15.8924 6.87248 15.8924C8.55501 15.8924 10.154 15.6418 11.3592 15.1884C11.7769 15.0332 12.1348 14.8543 12.4332 14.6633V15.9163C12.4332 16.6442 10.2614 17.6823 6.87248 17.6823C3.48357 17.6823 1.3118 16.6322 1.3118 15.9163V14.6633ZM20.6787 9.87829C20.6787 10.6062 18.507 11.6443 15.118 11.6443C14.5572 11.6443 14.0083 11.6205 13.4832 11.5608V10.0453C13.4832 9.81862 13.4236 9.5919 13.3162 9.37711C13.9009 9.43677 14.4975 9.47257 15.118 9.47257C16.8006 9.47257 18.3996 9.22198 19.6048 8.76854C20.0224 8.61341 20.3804 8.43442 20.6787 8.24349V9.87829ZM20.6787 6.6445C20.6787 7.3724 18.507 8.41055 15.118 8.41055C11.7291 8.41055 9.55736 7.36047 9.55736 6.6445V4.84265C9.85568 5.03358 10.2137 5.21257 10.6313 5.36769C11.8365 5.82114 13.4355 6.07173 15.118 6.07173C16.8006 6.07173 18.3996 5.82114 19.6048 5.36769C20.0224 5.21257 20.3804 5.03358 20.6787 4.84265V6.6445ZM15.118 1.47761C18.507 1.47761 20.6787 2.52769 20.6787 3.24366C20.6787 3.95962 18.5189 5.02164 15.118 5.02164C11.7291 5.02164 9.55736 3.97156 9.55736 3.25559C9.55736 2.53962 11.7291 1.47761 15.118 1.47761ZM6.87248 8.26736C7.62425 8.26736 8.30442 8.31509 8.92492 8.41055C8.94879 8.41055 8.96072 8.42249 8.98459 8.42249C11.1325 8.73274 12.4332 9.48451 12.4332 10.0453C12.4332 10.7732 10.2614 11.8114 6.87248 11.8114C3.48357 11.8114 1.3118 10.7613 1.3118 10.0453C1.3118 9.32938 3.47164 8.26736 6.87248 8.26736ZM6.87248 20.5223C3.48357 20.5223 1.3118 19.4722 1.3118 18.7563V18.7205V17.5033C1.61012 17.6943 1.96811 17.8733 2.38575 18.0284C3.59097 18.4818 5.18996 18.7324 6.87248 18.7324C8.55501 18.7324 10.154 18.4818 11.3592 18.0284C11.7769 17.8733 12.1348 17.6943 12.4332 17.5033V18.7563C12.4332 19.4722 10.2614 20.5223 6.87248 20.5223ZM15.118 18.1C14.5572 18.1 14.0083 18.0761 13.4832 18.0164V15.8447C14.0202 15.9043 14.5572 15.9282 15.118 15.9282C16.8006 15.9282 18.3996 15.6776 19.6048 15.2242C20.0224 15.069 20.3804 14.8901 20.6787 14.6991V16.3459C20.6787 17.0499 18.5189 18.1 15.118 18.1Z" fill="currentColor"/>
</svg>