<svg width="42" height="41" viewBox="0 0 42 41" fill="none" xmlns="http://www.w3.org/2000/svg">
<path d="M22.6492 18.0713V8.61577C22.2094 8.61577 21.6597 8.50582 21.3298 8.50582H21.2199C20.6702 8.61577 20.1204 8.61577 19.3508 8.72571V18.0713H0V10.5948C0 9.3854 0.989529 8.50582 2.089 8.50582H10.8848C8.57592 7.95608 6.81675 6.96655 6.70681 5.09744C6.59686 2.89849 9.12566 -0.729783 12.7539 0.149798C16.4921 1.02938 19.1309 3.88802 21.1099 6.41681C23.089 3.88802 26.0576 0.589589 29.9058 0.0398506C33.3141 -0.39994 35.9529 2.89849 35.623 5.09744C35.2932 6.96655 33.534 8.06603 31.2251 8.50582H39.911C41.1204 8.50582 42 9.49535 42 10.5948V18.0713H22.6492ZM13.1937 2.12886C11.4346 1.46917 10.3351 2.2388 9.56544 3.44823C9.12565 4.10791 8.68586 5.09744 9.34555 5.75713C11.1047 7.51629 15.8325 7.40634 19.1309 7.0765C17.5916 5.20739 15.7225 3.11838 13.1937 2.12886ZM32.9843 5.75713C34.1937 4.10791 31.7749 0.809484 29.1361 2.01891C26.6073 3.22833 24.8482 5.09744 23.199 7.0765C24.5183 7.18645 25.9476 7.18645 27.267 7.18645C29.0262 7.0765 32.1047 6.96655 32.9843 5.75713ZM19.4607 40.6105H3.73822C2.63874 40.6105 1.75916 39.7309 1.75916 38.6315V19.6105H19.4607V40.6105ZM40.2408 38.6315C40.2408 39.7309 39.3613 40.6105 38.2618 40.6105H22.5393V19.7205H40.2408V38.6315Z" fill="currentColor"/>
</svg>
