<svg xmlns="http://www.w3.org/2000/svg" width="24" height="24" viewBox="0 0 20 20" fill="none">
    <path
    d="M9.40003 17H15.4002C15.8048 17 16.2003 16.5915 16.2003 16.2003V9.79972H9.40003V17ZM1.80005 16.2C1.80005 16.6045 2.1959 16.9997 2.6001 16.9997H8.60031V9.79972H1.80005V16.2ZM15.8001 4.60036H14.1049C15.0201 3.41149 14.9473 1.98065 14.3716 1.41191C13.4994 0.551805 11.3182 1.10752 10.0395 2.62114C9.60763 3.13246 9.27019 3.74926 8.9975 4.34302C8.7238 3.74726 8.3877 3.12979 7.95279 2.6168C6.66844 1.10151 4.47623 0.545129 3.60041 1.40624C3.02099 1.97597 3.0033 3.40982 3.91516 4.60036H2.19991C1.39986 4.60036 1 5.01255 1 5.80023V8.59984C1 8.59984 1.20627 8.99969 1.39986 8.99969H16.6001C16.7877 8.99969 17 8.59984 17 8.59984V5.80023C17.0003 5.01255 16.5754 4.60036 15.8001 4.60036ZM7.29593 4.60036H7.00021C4.79865 4.60036 4.04733 2.40019 5.00025 2.40019C6.39208 2.40019 7.40608 4.00492 7.60033 4.60036H7.29593ZM10.7999 4.60036H10.7318H10.2001C10.393 4.00559 11.5969 2.40019 13.0001 2.40019C13.9911 2.40019 13.0969 4.60036 10.7999 4.60036Z"
    fill="currentColor"
    />
</svg>