<svg xmlns="http://www.w3.org/2000/svg" width="22" height="22" viewBox="0 0 22 22" fill="none">
<path d="M11.4804 20.6004H18.6807C19.1661 20.6004 19.6407 20.1102 19.6407 19.6408V11.9601H11.4804V20.6004ZM2.36045 19.6404C2.36045 20.1258 2.83547 20.6 3.32051 20.6H10.5208V11.9601H2.36045V19.6404ZM19.1605 5.72082H17.1262C18.2245 4.29418 18.1372 2.57717 17.4463 1.89469C16.3997 0.862556 13.7822 1.52942 12.2478 3.34576C11.7295 3.95935 11.3246 4.6995 10.9974 5.41202C10.669 4.6971 10.2656 3.95614 9.74374 3.34055C8.20252 1.52221 5.57187 0.854546 4.52089 1.88788C3.82557 2.57156 3.80435 4.29218 4.89858 5.72082H2.84028C1.88022 5.72082 1.40039 6.21545 1.40039 7.16067V10.5202C1.40039 10.5202 1.64792 11 1.88022 11H20.1206C20.3457 11 20.6004 10.5202 20.6004 10.5202V7.16067C20.6008 6.21545 20.0909 5.72082 19.1605 5.72082ZM8.95551 5.72082H8.60064C5.95877 5.72082 5.05719 3.08061 6.20069 3.08061C7.87088 3.08061 9.08768 5.0063 9.32079 5.72082H8.95551ZM13.1602 5.72082H13.0785H12.4405C12.672 5.0071 14.1167 3.08061 15.8005 3.08061C16.9897 3.08061 15.9166 5.72082 13.1602 5.72082Z" fill="currentColor"/>
</svg>