<svg
    xmlns="http://www.w3.org/2000/svg"
    width="16"
    height="16"
    viewBox="0 0 16 16"
    fill="none"
  >
    <path
      d="M12.0213 11.078L14.8765 13.9332L13.9337 14.876L11.0785 12.0208C10.0519 12.8422 8.74999 13.3335 7.33399 13.3335C4.02198 13.3335 1.33398 10.6455 1.33398 7.3335C1.33398 4.0215 4.02198 1.3335 7.33399 1.3335C10.646 1.3335 13.334 4.0215 13.334 7.3335C13.334 8.7495 12.8427 10.0514 12.0213 11.078ZM10.6838 10.5834C11.499 9.74323 12.0007 8.59723 12.0007 7.3335C12.0007 4.75516 9.91232 2.66683 7.33399 2.66683C4.75565 2.66683 2.66732 4.75516 2.66732 7.3335C2.66732 9.91183 4.75565 12.0002 7.33399 12.0002C8.59772 12.0002 9.74372 11.4985 10.5839 10.6833L10.6838 10.5834Z"
      fill="currentColor"
    />
  </svg>