<svg width="16" height="16" viewBox="0 0 16 16" fill="none" xmlns="http://www.w3.org/2000/svg">
<path d="M15.5646 15.5643C15.5646 15.5642 15.5645 15.5642 15.5644 15.5642C14.9772 16.1512 14.026 16.1511 13.4389 15.5641L10.9558 13.081C10.8567 12.9819 10.7023 12.9657 10.5819 13.0375C9.53575 13.6605 8.31983 14.0276 7.01432 14.0276C3.14026 14.0276 0 10.8878 0 7.01379C0 3.13974 3.14026 0 7.01432 0C10.8884 0 14.0281 3.14026 14.0281 7.01379C14.0281 8.31984 13.661 9.53537 13.0379 10.5819C12.9662 10.7023 12.9824 10.8567 13.0815 10.9558L15.5646 13.4389C16.1517 14.026 16.1517 14.9778 15.5648 15.5644C15.5647 15.5645 15.5646 15.5644 15.5646 15.5643ZM7.01484 2.00409C4.24773 2.00409 2.00461 4.24721 2.00461 7.01379C2.00461 9.78038 4.24773 12.0235 7.01484 12.0235C9.78142 12.0235 12.0245 9.78038 12.0245 7.01379C12.0256 4.24721 9.78142 2.00409 7.01484 2.00409Z" fill="currentColor"/>
</svg>
