<svg xmlns="http://www.w3.org/2000/svg" width="20" height="20" viewBox="0 0 20 20" fill="none">
  <path d="M17.071 3.31239C15.903 3.31239 14.959 2.36839 14.959 1.20039C14.959 0.760391 14.599 0.400391 14.159 0.400391H5.83895C5.39895 0.400391 5.03895 0.760391 5.03895 1.20039C5.03895 2.36839 4.09495 3.31239 2.92695 3.31239C2.48695 3.31239 2.12695 3.67239 2.12695 4.11239V6.27239C2.12741 8.93068 2.81394 11.5439 4.12013 13.8591C5.42631 16.1744 7.30793 18.1133 9.58295 19.4884C9.71095 19.5604 9.85495 19.6004 9.99895 19.6004C10.143 19.6004 10.287 19.5604 10.415 19.4884C15.015 16.7124 17.871 11.6484 17.871 6.27239V4.11239C17.871 3.67239 17.511 3.31239 17.071 3.31239ZM9.99895 3.76839C10.999 3.76839 11.815 4.58439 11.815 5.58439C11.815 6.06496 11.624 6.52585 11.2842 6.86567C10.9444 7.20548 10.4835 7.39639 10.003 7.39639C9.52238 7.39639 9.06149 7.20548 8.72167 6.86567C8.38186 6.52585 8.19095 6.06496 8.19095 5.58439C8.19095 4.58439 8.99895 3.76839 9.99895 3.76839ZM13.239 11.8724C12.951 12.2964 12.479 12.5524 11.967 12.5524H8.03095C7.51895 12.5524 7.04695 12.3044 6.75895 11.8804C6.48695 11.4644 6.42295 10.9444 6.60695 10.4884C6.87723 9.80989 7.3451 9.22824 7.94992 8.81884C8.55474 8.40945 9.2686 8.1912 9.99895 8.19239C11.503 8.19239 12.831 9.09639 13.383 10.4884C13.567 10.9364 13.511 11.4564 13.239 11.8724Z" fill="currentColor"/>
</svg>