 <svg
  xmlns="http://www.w3.org/2000/svg"
  width="16"
  height="17"
  viewBox="0 0 16 17"
  fill="none"
>
  <g>
    <path
      d="M2.47042 11.7501C2.19564 11.2749 1.98205 10.7669 1.83472 10.2382C2.15537 10.0751 2.42465 9.82646 2.61279 9.51984C2.80092 9.21321 2.90056 8.86052 2.9007 8.50078C2.90083 8.14104 2.80145 7.78827 2.61355 7.48151C2.42565 7.17474 2.15654 6.92593 1.83602 6.76261C2.12984 5.70017 2.68929 4.73002 3.46167 3.94356C3.76333 4.13968 4.11337 4.24851 4.47305 4.25801C4.83274 4.26752 5.18804 4.17732 5.49963 3.9974C5.81123 3.81748 6.06697 3.55485 6.23855 3.23859C6.41013 2.92233 6.49087 2.56476 6.47182 2.20546C7.53919 1.92961 8.65922 1.93006 9.72637 2.20676C9.70749 2.56605 9.78838 2.92357 9.96009 3.23974C10.1318 3.55591 10.3876 3.81841 10.6993 3.9982C11.011 4.17798 11.3663 4.26803 11.7259 4.25838C12.0856 4.24874 12.4356 4.13978 12.7372 3.94356C13.1135 4.32706 13.4476 4.76321 13.7284 5.25006C14.0099 5.73691 14.2205 6.24456 14.3641 6.76196C14.0435 6.92504 13.7742 7.17365 13.586 7.48027C13.3979 7.7869 13.2983 8.13959 13.2981 8.49933C13.298 8.85907 13.3974 9.21184 13.5853 9.51861C13.7732 9.82537 14.0423 10.0742 14.3628 10.2375C14.069 11.2999 13.5095 12.2701 12.7372 13.0566C12.4355 12.8604 12.0855 12.7516 11.7258 12.7421C11.3661 12.7326 11.0108 12.8228 10.6992 13.0027C10.3876 13.1826 10.1319 13.4453 9.96029 13.7615C9.7887 14.0778 9.70797 14.4354 9.72702 14.7947C8.65965 15.0705 7.53962 15.0701 6.47247 14.7934C6.49135 14.4341 6.41046 14.0765 6.23874 13.7604C6.06703 13.4442 5.81118 13.1817 5.49953 13.0019C5.18787 12.8221 4.83255 12.7321 4.47289 12.7417C4.11323 12.7514 3.76324 12.8603 3.46167 13.0566C3.07751 12.6646 2.74445 12.2256 2.47042 11.7501ZM6.14942 11.8775C6.84207 12.277 7.36287 12.9181 7.61192 13.678C7.93627 13.7085 8.26192 13.7092 8.58627 13.6786C8.83548 12.9187 9.35651 12.2775 10.0494 11.8781C10.7418 11.4775 11.5578 11.3467 12.3407 11.5109C12.5292 11.2457 12.6917 10.9629 12.8269 10.6672C12.2935 10.0714 11.9988 9.29969 11.9994 8.50006C11.9994 7.68106 12.3049 6.91601 12.8269 6.33296C12.6907 6.0373 12.5275 5.75487 12.3394 5.48926C11.557 5.65326 10.7415 5.52272 10.0494 5.12266C9.35676 4.72315 8.83597 4.08199 8.58692 3.32216C8.26257 3.29161 7.93692 3.29096 7.61257 3.32151C7.36336 4.08145 6.84232 4.72262 6.14942 5.12201C5.45703 5.52261 4.64108 5.65339 3.85817 5.48926C3.67003 5.75464 3.50725 6.03712 3.37197 6.33296C3.90534 6.92872 4.19999 7.70042 4.19942 8.50006C4.19942 9.31906 3.89392 10.0841 3.37197 10.6672C3.50812 10.9628 3.67132 11.2452 3.85947 11.5109C4.64188 11.3469 5.4573 11.4774 6.14942 11.8775ZM8.09942 10.4501C7.58225 10.4501 7.08625 10.2446 6.72056 9.87891C6.35486 9.51322 6.14942 9.01723 6.14942 8.50006C6.14942 7.98288 6.35486 7.48689 6.72056 7.1212C7.08625 6.7555 7.58225 6.55006 8.09942 6.55006C8.61659 6.55006 9.11258 6.7555 9.47828 7.1212C9.84397 7.48689 10.0494 7.98288 10.0494 8.50006C10.0494 9.01723 9.84397 9.51322 9.47828 9.87891C9.11258 10.2446 8.61659 10.4501 8.09942 10.4501ZM8.09942 9.15006C8.27181 9.15006 8.43714 9.08157 8.55904 8.95968C8.68093 8.83778 8.74942 8.67245 8.74942 8.50006C8.74942 8.32767 8.68093 8.16234 8.55904 8.04044C8.43714 7.91854 8.27181 7.85006 8.09942 7.85006C7.92703 7.85006 7.7617 7.91854 7.6398 8.04044C7.5179 8.16234 7.44942 8.32767 7.44942 8.50006C7.44942 8.67245 7.5179 8.83778 7.6398 8.95968C7.7617 9.08157 7.92703 9.15006 8.09942 9.15006Z"
      fill="currentColor"
    />
  </g>
  <defs>
    <clipPath id="clip0_274_5399">
      <rect width="15.6" height="15.6" fill="white" transform="translate(0.299561 0.700195)" />
    </clipPath>
  </defs>
</svg>