   <svg xmlns="http://www.w3.org/2000/svg" width="20" height="20" viewBox="0 0 20 20" fill="none" >
      <path
        d="M11.3195 2.02346C13.0689 2.40497 14.6171 3.32522 15.7815 4.60165C15.3926 5.22663 15.3521 6.04018 15.7459 6.72221C16.14 7.40491 16.8659 7.77672 17.6023 7.75167C17.8607 8.56429 18 9.43002 18 10.3283C18 11.2265 17.8607 12.0922 17.6024 12.905C16.8659 12.8798 16.14 13.2516 15.7459 13.9343C15.3521 14.6163 15.3925 15.4299 15.7814 16.0549C14.6171 17.3313 13.0689 18.2516 11.3195 18.6331L11.3195 18.6329C10.9729 17.9828 10.2881 17.5404 9.5 17.5404C8.71191 17.5404 8.02714 17.9828 7.68052 18.6329L7.6805 18.6331C5.93105 18.2516 4.38288 17.3313 3.21854 16.0549C3.60744 15.4299 3.64787 14.6163 3.25411 13.9343C2.85996 13.2516 2.13413 12.8798 1.39767 12.9049C1.13933 12.0923 1 11.2265 1 10.3283C1 9.43 1.13933 8.56429 1.39756 7.75156C2.13413 7.77672 2.85996 7.40491 3.25411 6.72221C3.64788 6.04018 3.60746 5.22661 3.21859 4.60161C4.38288 3.32522 5.93105 2.40497 7.6805 2.02344L7.68054 2.0237C8.02716 2.67372 8.71191 3.11614 9.5 3.11614C10.2853 3.11614 10.9679 2.67691 11.3157 2.03073L11.3195 2.02346ZM9.5 8.26766C8.36196 8.26766 7.43939 9.19022 7.43939 10.3283C7.43939 11.4663 8.36196 12.3889 9.5 12.3889C10.638 12.3889 11.5606 11.4663 11.5606 10.3283C11.5606 9.19022 10.638 8.26766 9.5 8.26766Z"
        fill="currentColor"
      />
    </svg>