<svg width="24" height="24" viewBox="0 0 24 24" fill="none" xmlns="http://www.w3.org/2000/svg">
<path d="M11.9902 24C18.6122 24 23.9803 18.6274 23.9803 12C23.9803 5.37258 18.6122 0 11.9902 0C5.36818 0 0 5.37258 0 12C0 18.6274 5.36818 24 11.9902 24Z" fill="#02C39A"/>
<path fill-rule="evenodd" clip-rule="evenodd" d="M13.4322 13.0382C13.3497 13.0442 12.9248 13.0697 11.9769 13.0697C11.22 13.0697 10.6872 13.0472 10.4998 13.0382C7.58622 12.91 5.4115 12.4022 5.4115 11.7947C5.4115 11.1872 7.58472 10.6802 10.4998 10.5497V12.5335C10.6902 12.547 11.2357 12.5792 11.9896 12.5792C12.8941 12.5792 13.3475 12.5417 13.4322 12.5342V10.552C16.3398 10.6817 18.5093 11.1895 18.5093 11.7955C18.5093 12.4015 16.336 12.9092 13.4322 13.0382ZM13.4322 10.3457V8.57123H17.4894V5.86523H6.4464V8.57123H10.5036V10.345C7.20628 10.495 4.72656 11.1505 4.72656 11.9335C4.72656 12.7165 7.20628 13.3697 10.5036 13.522V19.2085H13.4359V13.5205C16.728 13.3705 19.2017 12.7157 19.2017 11.9335C19.2017 11.1512 16.7287 10.498 13.4359 10.3457" fill="white"/>
</svg>
