<svg viewBox="0 0 34 32">
  <path fill="currentColor" stroke-linejoin="miter" stroke-linecap="butt" stroke-miterlimit="4" stroke-width="2.56" d="M2.897 20v-8.577c0-0.884 0.716-1.6 1.6-1.6h3.465c0.347 0 0.685-0.113 0.962-0.322l5.811-4.373c1.054-0.794 2.562-0.041 2.562 1.278v19.193c0 1.318-1.505 2.071-2.56 1.28l-6.613-4.96c-0.277-0.208-0.614-0.32-0.96-0.32h-2.667c-0.884 0-1.6-0.716-1.6-1.6z"></path>
  <path fill="currentColor" d="M29.915 11.551c0.468-0.468 1.228-0.468 1.697 0s0.469 1.228 0 1.697l-2.884 2.884 2.772 2.772c0.468 0.468 0.468 1.228 0 1.697s-1.228 0.469-1.697 0l-2.772-2.772-2.772 2.773c-0.468 0.468-1.228 0.468-1.697 0s-0.469-1.228 0-1.697l2.772-2.773-2.886-2.884c-0.468-0.469-0.468-1.228 0-1.697s1.228-0.469 1.697 0l2.884 2.884 2.886-2.884z"></path>
</svg>