<svg width="20" height="20" viewBox="0 0 20 20" fill="none" xmlns="http://www.w3.org/2000/svg">
<path d="M0.71875 12.8125V6.78193C0.71875 6.16061 1.22243 5.65693 1.84375 5.65693H4.2802C4.52426 5.65693 4.76171 5.57756 4.95671 5.43079L9.04224 2.35588C9.78364 1.79788 10.8438 2.32682 10.8438 3.25474V16.75C10.8438 17.677 9.78539 18.2062 9.04375 17.65L4.39375 14.1625C4.19902 14.0164 3.96217 13.9375 3.71875 13.9375H1.84375C1.22243 13.9375 0.71875 13.4338 0.71875 12.8125Z" fill="#B3BEC1"/>
<mask id="path-2-inside-1_23839_215831" fill="white">
<path d="M13.5826 14.2007C13.8069 14.4861 14.2231 14.538 14.4823 14.2838C14.9818 13.794 15.393 13.2194 15.6958 12.585C16.0933 11.7524 16.2935 10.8393 16.2807 9.91676C16.2679 8.99421 16.0425 8.08703 15.622 7.26576C15.3017 6.64004 14.8747 6.07703 14.3618 5.60125C14.0957 5.35436 13.6811 5.41782 13.4648 5.70935C13.2485 6.00088 13.3134 6.40961 13.5718 6.66456C13.9263 7.01422 14.2237 7.41916 14.4519 7.86483C14.7802 8.50616 14.9562 9.21457 14.9662 9.935C14.9762 10.6554 14.8199 11.3684 14.5095 12.0186C14.2938 12.4705 14.0077 12.8835 13.6631 13.2429C13.4118 13.5049 13.3583 13.9153 13.5826 14.2007Z"/>
</mask>
<path d="M13.5826 14.2007C13.8069 14.4861 14.2231 14.538 14.4823 14.2838C14.9818 13.794 15.393 13.2194 15.6958 12.585C16.0933 11.7524 16.2935 10.8393 16.2807 9.91676C16.2679 8.99421 16.0425 8.08703 15.622 7.26576C15.3017 6.64004 14.8747 6.07703 14.3618 5.60125C14.0957 5.35436 13.6811 5.41782 13.4648 5.70935C13.2485 6.00088 13.3134 6.40961 13.5718 6.66456C13.9263 7.01422 14.2237 7.41916 14.4519 7.86483C14.7802 8.50616 14.9562 9.21457 14.9662 9.935C14.9762 10.6554 14.8199 11.3684 14.5095 12.0186C14.2938 12.4705 14.0077 12.8835 13.6631 13.2429C13.4118 13.5049 13.3583 13.9153 13.5826 14.2007Z" stroke="#B3BEC1" stroke-width="2" mask="url(#path-2-inside-1_23839_215831)"/>
<mask id="path-3-inside-2_23839_215831" fill="white">
<path d="M15.4158 16.5333C15.6514 16.8331 16.0876 16.8871 16.3685 16.6291C17.2149 15.8519 17.9062 14.9183 18.4031 13.8775C18.9994 12.6286 19.2996 11.259 19.2804 9.87514C19.2612 8.49131 18.9231 7.13055 18.2924 5.89864C17.7668 4.87204 17.0499 3.95796 16.1823 3.20456C15.8943 2.9545 15.4598 3.02051 15.2326 3.32678C15.0053 3.63306 15.0718 4.06333 15.3563 4.31736C16.0551 4.94146 16.6343 5.6905 17.0631 6.52801C17.597 7.57087 17.8832 8.72282 17.8994 9.8943C17.9157 11.0658 17.6616 12.2252 17.1568 13.2825C16.7514 14.1316 16.1932 14.8964 15.512 15.5396C15.2347 15.8015 15.1801 16.2334 15.4158 16.5333Z"/>
</mask>
<path d="M15.4158 16.5333C15.6514 16.8331 16.0876 16.8871 16.3685 16.6291C17.2149 15.8519 17.9062 14.9183 18.4031 13.8775C18.9994 12.6286 19.2996 11.259 19.2804 9.87514C19.2612 8.49131 18.9231 7.13055 18.2924 5.89864C17.7668 4.87204 17.0499 3.95796 16.1823 3.20456C15.8943 2.9545 15.4598 3.02051 15.2326 3.32678C15.0053 3.63306 15.0718 4.06333 15.3563 4.31736C16.0551 4.94146 16.6343 5.6905 17.0631 6.52801C17.597 7.57087 17.8832 8.72282 17.8994 9.8943C17.9157 11.0658 17.6616 12.2252 17.1568 13.2825C16.7514 14.1316 16.1932 14.8964 15.512 15.5396C15.2347 15.8015 15.1801 16.2334 15.4158 16.5333Z" stroke="#B3BEC1" stroke-width="2" mask="url(#path-3-inside-2_23839_215831)"/>
</svg>
