<svg viewBox="0 0 34 32">
<path fill="currentColor" stroke-linejoin="miter" stroke-linecap="butt" stroke-miterlimit="4" stroke-width="2.56" d="M3.030 20v-8.577c0-0.884 0.716-1.6 1.6-1.6h3.465c0.347 0 0.685-0.113 0.962-0.322l5.811-4.373c1.054-0.794 2.562-0.041 2.562 1.278v19.193c0 1.318-1.505 2.071-2.56 1.28l-6.613-4.96c-0.277-0.208-0.614-0.32-0.96-0.32h-2.667c-0.884 0-1.6-0.716-1.6-1.6z"></path>
<path fill="currentColor" stroke-linejoin="miter" stroke-linecap="butt" stroke-miterlimit="4" stroke-width="3.2" d="M22.712 22.721c0.359 0.457 1.025 0.54 1.44 0.133 0.799-0.784 1.457-1.703 1.942-2.718 0.636-1.332 0.956-2.793 0.936-4.269s-0.381-2.928-1.054-4.242c-0.512-1.001-1.196-1.902-2.016-2.663-0.426-0.395-1.089-0.293-1.435 0.173s-0.242 1.12 0.171 1.528c0.567 0.559 1.043 1.207 1.408 1.92 0.525 1.026 0.807 2.16 0.823 3.312s-0.234 2.293-0.731 3.334c-0.345 0.723-0.803 1.384-1.354 1.959-0.402 0.419-0.488 1.076-0.129 1.532z"></path>
<path fill="currentColor" stroke-linejoin="miter" stroke-linecap="butt" stroke-miterlimit="4" stroke-width="3.2" d="M25.645 26.453c0.377 0.48 1.075 0.566 1.524 0.153 1.354-1.244 2.46-2.737 3.255-4.403 0.954-1.998 1.434-4.19 1.404-6.404s-0.572-4.391-1.581-6.362c-0.841-1.643-1.988-3.105-3.376-4.311-0.461-0.4-1.156-0.294-1.52 0.196s-0.257 1.178 0.198 1.585c1.118 0.999 2.045 2.197 2.731 3.537 0.854 1.669 1.312 3.512 1.338 5.386s-0.381 3.729-1.188 5.421c-0.649 1.359-1.542 2.582-2.632 3.611-0.444 0.419-0.531 1.11-0.154 1.59z"></path>
</svg>
