  <svg width="20" height="20" viewBox="0 0 20 20" fill="none" xmlns="http://www.w3.org/2000/svg" >
      <path
        d="M19 10C19 5.02988 14.9701 1 10 1C5.02988 0.999999 0.999999 5.02988 0.999999 10C0.999998 14.9701 5.02988 19 10 19C14.9701 19 19 14.9722 19 10ZM7.12212 15.3153C7.09247 15.2941 7.06494 15.2687 7.04376 15.2391L4.28659 11.512C4.17223 11.3574 4.204 11.1393 4.35859 11.0249C4.41788 10.9805 4.492 10.9572 4.56612 10.9572L6.34071 10.9572L6.34071 7.912C6.328 5.74141 7.40165 4.564 9.55953 4.37553C9.36259 4.564 8.19788 5.38776 8.19788 7.912C8.19788 9.59341 8.21694 10.6099 8.25506 10.9572L9.95765 10.9572C10.1504 10.9572 10.3049 11.1139 10.3049 11.3045C10.3049 11.3765 10.2816 11.4464 10.2414 11.5056L7.60918 15.2306C7.49694 15.3894 7.27882 15.4254 7.12212 15.3153ZM11.8064 12.0901C11.8064 10.4087 11.7873 9.39223 11.7492 9.04494L10.0466 9.04494C9.85388 9.04494 9.69929 8.88824 9.69929 8.69765C9.69929 8.62565 9.72259 8.55576 9.76282 8.49647L12.3929 4.76941C12.5031 4.61271 12.7212 4.57459 12.8779 4.68682C12.9075 4.708 12.9351 4.73341 12.9562 4.76306L15.7134 8.488C15.8278 8.64259 15.796 8.86071 15.6414 8.97506C15.5821 9.01953 15.508 9.04282 15.4339 9.04282L13.6593 9.04282L13.6593 12.088C13.672 14.2586 12.5984 15.436 10.4405 15.6245C10.6416 15.436 11.8064 14.6122 11.8064 12.0901Z"
        fill="currentColor"
      />
    </svg>