<svg xmlns="http://www.w3.org/2000/svg" width="14" height="14" viewBox="0 0 14 14" fill="none">
<path d="M6.45011 0.944101C6.69558 0.522658 7.30442 0.522659 7.54989 0.944101L9.12184 3.64297C9.21176 3.79735 9.36243 3.90682 9.53705 3.94463L12.5896 4.60565C13.0662 4.70887 13.2544 5.28791 12.9294 5.6516L10.8484 7.98061C10.7294 8.11383 10.6718 8.29096 10.6898 8.46871L11.0044 11.5761C11.0536 12.0613 10.561 12.4192 10.1147 12.2225L7.25661 10.9631C7.09312 10.891 6.90688 10.891 6.74339 10.9631L3.8853 12.2225C3.439 12.4192 2.94643 12.0613 2.99556 11.5761L3.31018 8.46871C3.32818 8.29096 3.27063 8.11383 3.15159 7.98061L1.07057 5.6516C0.745611 5.28791 0.933754 4.70887 1.41042 4.60565L4.46296 3.94463C4.63757 3.90682 4.78824 3.79735 4.87816 3.64297L6.45011 0.944101Z" fill="currentColor"/>
</svg>