   <svg xmlns="http://www.w3.org/2000/svg" width="20" height="20" viewBox="0 0 20 20" fill="none" >
      <path
        d="M5.40313 17.3411V7.25543C5.40313 6.85324 5.09369 6.54389 4.72253 6.54389H2.6806C2.30944 6.54389 2 6.88415 2 7.25543V17.3411H5.40313ZM9.73438 17.3411V2.9242C9.73438 2.52198 9.42504 2.18164 9.05376 2.18164H7.01182C6.64066 2.18164 6.33122 2.52198 6.33122 2.9242V17.3411H9.73438ZM14.0656 17.3411V10.9679C14.0656 10.5657 13.7563 10.2255 13.385 10.2255H11.3432C10.9719 10.2255 10.6624 10.5657 10.6624 10.9679V17.3411H14.0656ZM18.3968 17.3411V7.25543C18.3968 6.85324 18.0875 6.54389 17.7162 6.54389H15.6744C15.3031 6.54389 14.9938 6.88415 14.9938 7.25543V17.3411H18.3968Z"
        fill="currentColor"
      />
    </svg>