<svg xmlns="http://www.w3.org/2000/svg" width="22" height="24" viewBox="0 0 22 24" fill="none">
<path fill-rule="evenodd" clip-rule="evenodd" d="M21.0127 15.4003C21.2248 15.6769 21.38 15.9928 21.4692 16.3297C21.5602 16.666 21.5845 17.017 21.5392 17.3624C21.4939 17.7079 21.3807 18.0409 21.2061 18.3424C21.0328 18.6448 20.8012 18.9097 20.5247 19.122C20.2483 19.3342 19.9325 19.4895 19.5956 19.5789C19.3666 19.6398 19.1347 19.6702 18.9042 19.6702C18.4935 19.6687 18.0888 19.5719 17.7218 19.3876C17.3548 19.2033 17.0355 18.9365 16.7889 18.6081C16.5424 18.2797 16.3753 17.8986 16.3008 17.4947C16.2263 17.0908 16.2463 16.6752 16.3595 16.2804L14.1634 15.0127L11.2852 16.7363C11.1878 16.7945 11.0765 16.8257 10.963 16.8266C10.8495 16.8275 10.7378 16.7981 10.6394 16.7414L7.74244 15.0693L5.64562 16.2797C5.78037 16.7438 5.78489 17.236 5.65867 17.7024C5.56926 18.0393 5.41394 18.3551 5.2017 18.6315C4.98946 18.9079 4.72451 19.1395 4.42218 19.3129C4.12068 19.4878 3.78751 19.6013 3.44192 19.6467C3.09633 19.6921 2.74516 19.6686 2.40871 19.5775C2.07192 19.4881 1.75618 19.3329 1.47975 19.1208C1.20332 18.9087 0.971678 18.6439 0.79823 18.3417C0.623136 18.0404 0.509535 17.7074 0.464001 17.3619C0.418467 17.0164 0.441905 16.6653 0.532957 16.329C0.62228 15.992 0.777558 15.6761 0.989803 15.3995C1.20205 15.1229 1.46704 14.8912 1.76945 14.7178C2.28305 14.4227 2.88048 14.3077 3.46692 14.3909C4.05335 14.4742 4.59517 14.7509 5.00636 15.1773L7.15174 13.9379L7.2061 10.5763C7.20788 10.468 7.23723 10.3619 7.29138 10.2681C7.34553 10.1742 7.42269 10.0957 7.51558 10.04L10.3799 8.32366V5.82531C9.80502 5.68199 9.29447 5.35066 8.9294 4.88395C8.56434 4.41725 8.3657 3.84193 8.36503 3.24941C8.3658 2.5461 8.64553 1.87181 9.14285 1.37449C9.64017 0.877177 10.3145 0.597447 11.0178 0.59668C11.7211 0.597447 12.3954 0.877177 12.8927 1.37449C13.39 1.87181 13.6697 2.5461 13.6705 3.24941C13.6696 3.842 13.4707 4.4173 13.1053 4.88388C12.74 5.35046 12.2292 5.68157 11.6541 5.82459V8.24538L14.5707 9.92907C14.6691 9.98572 14.7506 10.0677 14.8067 10.1665C14.8628 10.2652 14.8914 10.3772 14.8896 10.4908L14.8338 13.9292L16.9951 15.1765C17.4065 14.75 17.9487 14.4732 18.5355 14.3902C19.1222 14.3072 19.7199 14.4228 20.2335 14.7185C20.5357 14.892 20.8006 15.1238 21.0127 15.4003ZM11.017 1.87086C10.2567 1.87086 9.63849 2.48911 9.63849 3.24941C9.63887 3.61497 9.78421 3.96546 10.0426 4.22402C10.3011 4.48258 10.6515 4.62811 11.017 4.62868C11.7773 4.62868 12.3956 4.01044 12.3956 3.24941C12.3956 2.48911 11.7781 1.87086 11.017 1.87086ZM4.18907 17.856C4.29943 17.7122 4.38014 17.5479 4.42653 17.3727C4.49937 17.0269 4.43619 16.6665 4.2513 16.3654C4.0664 16.0644 3.77314 15.8456 3.43186 15.7542C3.09058 15.6629 2.72726 15.7058 2.41667 15.8742C2.10608 16.0426 1.87185 16.3236 1.7622 16.6595C1.71479 16.8344 1.70256 17.0169 1.72619 17.1966C1.74983 17.3762 1.80888 17.5494 1.89991 17.7061C1.99015 17.8632 2.11068 18.0009 2.2545 18.1111C2.39832 18.2213 2.56258 18.3019 2.73777 18.3482C2.91255 18.3955 3.09497 18.4077 3.27449 18.3841C3.45401 18.3604 3.62706 18.3015 3.78364 18.2105C3.94091 18.1203 4.07871 17.9999 4.18907 17.856ZM10.9511 15.4512L13.5603 13.8871L13.6096 10.8452L11.0837 9.38693L8.47375 10.9503L8.42519 13.993L10.9511 15.4512ZM19.7467 18.1106C19.8904 18.0003 20.0107 17.8625 20.1008 17.7053C20.2718 17.3894 20.3127 17.0192 20.2149 16.6736C20.1172 16.3279 19.8884 16.034 19.5773 15.8544C19.2662 15.6749 18.8973 15.6237 18.549 15.7119C18.2008 15.8002 17.9007 16.0207 17.7126 16.3268C17.5772 16.5631 17.5147 16.8341 17.5329 17.1059C17.5511 17.3776 17.6493 17.6379 17.8151 17.8539C17.9809 18.07 18.2069 18.2322 18.4646 18.3202C18.7224 18.4081 19.0004 18.4179 19.2637 18.3482C19.4388 18.3018 19.603 18.221 19.7467 18.1106Z" fill="currentColor"/>
<path fill-rule="evenodd" clip-rule="evenodd" d="M15.799 10.0519C15.9096 10.1353 16.0445 10.1802 16.1831 10.18C16.3011 10.1803 16.4168 10.1476 16.5172 10.0858L17.2304 9.64437C17.6166 9.98904 18.116 10.1797 18.6336 10.18C19.0006 10.18 19.3611 10.0832 19.6787 9.8995C20.1644 9.619 20.5123 9.16673 20.6572 8.62532C20.8022 8.08462 20.7275 7.51856 20.447 7.0344C20.1684 6.55318 19.7104 6.20208 19.1733 6.05806C18.6362 5.91404 18.0639 5.98887 17.5819 6.26613C17.1945 6.49046 16.8889 6.83261 16.7095 7.24275C16.5301 7.65288 16.4864 8.10958 16.5846 8.54632L15.8475 9.00221C15.7296 9.07503 15.6387 9.18433 15.5886 9.31353C15.5385 9.44272 15.5319 9.58474 15.5699 9.718C15.6079 9.85127 15.6883 9.9685 15.799 10.0519ZM17.8644 7.86848C17.9142 7.66273 18.0411 7.48399 18.219 7.36926C18.3437 7.2971 18.4852 7.2591 18.6292 7.25909C18.8103 7.25962 18.9861 7.31971 19.1296 7.43009C19.2732 7.54046 19.3764 7.69499 19.4234 7.86983C19.4703 8.04467 19.4585 8.23012 19.3896 8.39757C19.3208 8.56501 19.1988 8.70515 19.0424 8.79637C18.854 8.89293 18.6357 8.91339 18.4327 8.85349C18.2297 8.79359 18.0574 8.65793 17.9517 8.47457C17.8459 8.29122 17.8146 8.07422 17.8644 7.86848Z" fill="currentColor"/>
<path fill-rule="evenodd" clip-rule="evenodd" d="M2.98679 10.1634C2.71358 10.1273 2.45024 10.0374 2.21204 9.89877L2.21276 9.8995C1.73135 9.62089 1.3801 9.1627 1.23607 8.62544C1.09204 8.08819 1.16699 7.51574 1.44449 7.03368C1.72322 6.55239 2.18146 6.20129 2.71871 6.0574C3.25595 5.91351 3.82833 5.98858 4.3103 6.26613C4.54912 6.40334 4.75837 6.58653 4.92594 6.80511C5.09352 7.02369 5.2161 7.27333 5.2866 7.53958C5.37568 7.86841 5.3829 8.21405 5.30761 8.54632L6.044 9.00148C6.11515 9.0455 6.17693 9.10311 6.22582 9.171C6.2747 9.2389 6.30974 9.31576 6.32892 9.3972C6.3481 9.47864 6.35105 9.56305 6.33761 9.64563C6.32417 9.72821 6.29459 9.80733 6.25057 9.87848C6.20675 9.94985 6.14924 10.0118 6.08136 10.0609C6.01349 10.1099 5.93657 10.1451 5.85506 10.1643C5.77354 10.1835 5.68903 10.1864 5.6064 10.1728C5.52376 10.1592 5.44463 10.1294 5.37357 10.085L4.6611 9.6451C4.41975 9.86253 4.12766 10.022 3.80368 10.109C3.53766 10.181 3.26001 10.1994 2.98679 10.1634ZM2.75975 7.4291C2.67386 7.49494 2.60177 7.57706 2.54762 7.67077C2.49346 7.76452 2.45757 7.86802 2.44341 7.97537C2.42926 8.08271 2.43638 8.19179 2.46438 8.29638C2.49238 8.40097 2.5407 8.49902 2.60659 8.58493C2.67248 8.67084 2.75465 8.74293 2.8484 8.79709C2.94216 8.85125 3.04566 8.88641 3.153 8.90057C3.26034 8.91473 3.36942 8.9076 3.47401 8.87961C3.5786 8.85161 3.67665 8.80328 3.76256 8.73739C3.84848 8.6715 3.92057 8.58933 3.97473 8.49558C4.02888 8.40187 4.06405 8.29842 4.07823 8.19112C4.09241 8.08382 4.08531 7.97478 4.05735 7.87023C4.02938 7.76567 3.9811 7.66765 3.91525 7.58176C3.8494 7.49586 3.76728 7.42378 3.67358 7.36962C3.57987 7.31546 3.47642 7.28029 3.36912 7.26611C3.26182 7.25194 3.15278 7.25904 3.04823 7.287C2.94367 7.31496 2.84565 7.36325 2.75975 7.4291Z" fill="currentColor"/>
<path fill-rule="evenodd" clip-rule="evenodd" d="M11.5582 18.4614L11.5481 19.2993C11.8633 19.3959 12.1512 19.5658 12.3881 19.795C12.5868 19.9859 12.7458 20.2143 12.8558 20.4669C12.9658 20.7196 13.0246 20.9916 13.0288 21.2671C13.0345 21.5426 12.9854 21.8165 12.8845 22.0729C12.7836 22.3293 12.6329 22.5631 12.441 22.7609C12.2503 22.9597 12.0221 23.1187 11.7695 23.2288C11.517 23.3389 11.2451 23.3979 10.9697 23.4023H10.9305C10.3872 23.4035 9.86496 23.1923 9.47515 22.8138C9.07217 22.4253 8.84459 21.902 8.83444 21.3417C8.82875 21.0663 8.87777 20.7924 8.97867 20.536C9.07957 20.2795 9.23034 20.0457 9.42224 19.848C9.65837 19.6023 9.95099 19.4182 10.2746 19.3116L10.2847 18.4462C10.2831 18.3609 10.2986 18.2761 10.3303 18.1968C10.362 18.1176 10.4094 18.0456 10.4695 17.985C10.5296 17.9244 10.6013 17.8765 10.6803 17.8442C10.7593 17.8118 10.844 17.7957 10.9293 17.7967C11.0147 17.7977 11.0989 17.8159 11.1771 17.8501C11.2553 17.8843 11.3259 17.9339 11.3845 17.9959C11.4432 18.0579 11.4888 18.1311 11.5186 18.211C11.5484 18.291 11.5619 18.3762 11.5582 18.4614ZM11.2601 22.0602C11.3594 22.0171 11.4491 21.9547 11.5241 21.8766C11.6771 21.7179 11.759 21.5099 11.7553 21.2896C11.7503 21.0692 11.6611 20.8634 11.5038 20.7112C11.3487 20.5619 11.1458 20.4807 10.9313 20.4807H10.9168C10.8085 20.4823 10.7017 20.5054 10.6024 20.5485C10.5031 20.5917 10.4134 20.6541 10.3384 20.7322C10.2629 20.8099 10.2037 20.9018 10.164 21.0026C10.1243 21.1034 10.105 21.211 10.1072 21.3193C10.1089 21.4274 10.132 21.5341 10.1752 21.6332C10.2184 21.7324 10.2807 21.822 10.3587 21.8969C10.4364 21.9724 10.5283 22.0317 10.6291 22.0713C10.7298 22.111 10.8375 22.1303 10.9458 22.1281C11.054 22.1265 11.1608 22.1034 11.2601 22.0602Z" fill="currentColor"/>
</svg>