<svg width="24" height="25" viewBox="0 0 24 25" fill="none" xmlns="http://www.w3.org/2000/svg">
<g clip-path="url(#clip0_20226_245036)">
<path d="M17.0459 0.996094C20.3595 0.996094 23.0457 3.68258 23.0459 6.99609V17.0869C23.0459 20.4006 20.3596 23.0869 17.0459 23.0869H6.95508C3.64157 23.0867 0.955078 20.4005 0.955078 17.0869V6.99609C0.95531 3.68273 3.64171 0.996326 6.95508 0.996094H17.0459ZM11.498 7.14844C11.3489 7.15055 11.2014 7.18223 11.0645 7.24121C10.9276 7.30021 10.8031 7.38534 10.6992 7.49219C10.5953 7.5991 10.5131 7.72575 10.458 7.86426C10.4029 8.00286 10.3758 8.15164 10.3779 8.30078V14.1436L9.68848 13.4453C9.47552 13.2415 9.19128 13.1279 8.89648 13.1279C8.60199 13.128 8.31927 13.2418 8.10645 13.4453C7.87249 13.6634 7.73154 13.9638 7.71484 14.2832C7.69823 14.6025 7.80676 14.916 8.0166 15.1572L11.1562 18.4033C11.2188 18.4666 11.29 18.5212 11.3672 18.5654C12.1048 19.151 13.0442 19.4224 13.9805 19.3203C17.1533 19.3203 17.4463 17.5507 17.4463 15.376V12.9609C17.4409 12.8514 17.4186 12.7431 17.3809 12.6396C17.3303 12.5012 17.2521 12.3732 17.1514 12.2656C17.0506 12.1581 16.9287 12.0722 16.7939 12.0127C16.6592 11.9532 16.5135 11.921 16.3662 11.9189C16.1639 11.9154 15.9648 11.9754 15.7979 12.0898C15.7378 11.8611 15.6048 11.6571 15.4189 11.5107C15.2331 11.3646 15.004 11.283 14.7676 11.2783C14.5558 11.2788 14.3485 11.3385 14.168 11.4492C14.1214 11.2912 14.0385 11.1454 13.9268 11.0244C13.815 10.9035 13.6762 10.8108 13.5225 10.752C13.3687 10.6931 13.203 10.6701 13.0391 10.6855C12.8752 10.7011 12.7162 10.7543 12.5762 10.8408V8.30078C12.5816 8.15417 12.5582 8.00754 12.5068 7.87012C12.4555 7.73282 12.3775 7.60702 12.2773 7.5C12.1771 7.39295 12.0566 7.30638 11.9229 7.24609C11.7892 7.18586 11.6446 7.15268 11.498 7.14844ZM11.417 4.74414C9.57122 4.74448 8.07545 6.24079 8.0752 8.08789C8.07522 8.98484 8.42943 9.79883 9.00391 10.3994C9.27162 10.6784 9.74381 10.4902 9.74512 10.1025C9.74632 10.0127 9.70926 9.9252 9.64551 9.86133L9.64453 9.85938C9.17221 9.38556 8.91125 8.75639 8.91113 8.08691C8.91126 7.41745 9.17222 6.78826 9.64453 6.31445C10.1183 5.84199 10.7474 5.58024 11.417 5.58008C12.0868 5.58008 12.7165 5.8418 13.1904 6.31445C13.6629 6.78828 13.9247 7.41735 13.9248 8.08691C13.9247 8.75652 13.6629 9.38586 13.1904 9.8584L13.1895 9.85938C13.1333 9.91682 13.1016 9.99361 13.1016 10.0732L13.1025 10.3848C13.1026 10.4813 13.1828 10.5604 13.2793 10.5605H13.3203C13.546 10.5657 13.764 10.4778 13.9141 10.3096C14.4402 9.71951 14.7597 8.93935 14.7598 8.08691C14.7595 6.24091 13.2631 4.74414 11.417 4.74414Z" fill="currentColor"/>
</g>
<defs>
<clipPath id="clip0_20226_245036">
<rect width="24" height="24" fill="white" transform="translate(0 0.0410156)"/>
</clipPath>
</defs>
</svg>
