<svg xmlns="http://www.w3.org/2000/svg" width="40" height="40" viewBox="0 0 40 40" fill="none">
    <path
        d="M10.8508 19.0465L26.4318 11.7248C27.0215 11.4478 27.7111 11.7316 27.9716 12.359C28.0644 12.5813 28.0931 12.8273 28.0551 13.0676L25.964 26.2831C25.8356 27.0949 25.1127 27.6427 24.3495 27.506C24.1317 27.4669 23.9255 27.3738 23.748 27.234L18.4787 23.0818C17.9601 22.6738 17.8509 21.8961 18.2352 21.3446C18.279 21.2812 18.3292 21.2222 18.3841 21.1688L23.6674 16.0123C23.7153 15.9657 23.7182 15.8875 23.6744 15.8365C23.6365 15.7931 23.5752 15.7837 23.5267 15.8154L15.5094 21.0967C15.218 21.288 14.8624 21.3346 14.536 21.2228L10.8963 19.9738C10.6505 19.8893 10.5156 19.6092 10.595 19.3483C10.6359 19.2141 10.7294 19.1036 10.8508 19.0464L10.8508 19.0465Z"
        fill="currentColor" />
</svg>