<svg width="20" height="20" viewBox="0 0 20 20" fill="none" xmlns="http://www.w3.org/2000/svg">
<path d="M7.29102 2.42676C7.54854 2.32185 7.84162 2.37786 8.0293 2.5752H8.02832C8.21941 2.76785 8.27668 3.05555 8.17188 3.30664L8.17285 3.30762C7.1893 5.74713 7.75453 8.51987 9.61328 10.3867C11.472 12.2455 14.2518 12.8105 16.6914 11.8193C16.9143 11.7257 17.1629 11.7681 17.3486 11.9004L17.4248 11.9629L17.4268 11.9658C17.6194 12.1585 17.6775 12.4473 17.5723 12.6992L17.5732 12.7002C17.1807 13.6786 16.5898 14.5647 15.8398 15.3057L15.8408 15.3066C14.3087 16.8468 12.2873 17.6172 10.2666 17.6172C8.24601 17.6171 6.22443 16.8467 4.69238 15.3066V15.3057C3.20169 13.8222 2.375 11.8419 2.375 9.7334C2.37507 7.62477 3.1929 5.64293 4.68457 4.15918C5.4377 3.40607 6.31227 2.821 7.29102 2.42773V2.42676Z" fill="#B3BEC1"/>
<path d="M15.5204 6.40891C15.6558 6.16072 16.0122 6.16071 16.1475 6.40891L16.5316 7.1132C16.583 7.20739 16.674 7.27349 16.7794 7.29324L17.5679 7.4409C17.8458 7.49294 17.9559 7.83187 17.7617 8.0373L17.2106 8.62024C17.1369 8.6982 17.1021 8.80516 17.1159 8.91156L17.2192 9.70711C17.2556 9.98746 16.9672 10.1969 16.7119 10.0757L15.9871 9.73168C15.8902 9.68568 15.7778 9.68568 15.6808 9.73168L14.9561 10.0757C14.7007 10.1969 14.4124 9.98746 14.4488 9.70711L14.552 8.91156C14.5658 8.80516 14.5311 8.6982 14.4574 8.62024L13.9062 8.0373C13.712 7.83187 13.8221 7.49294 14.1 7.4409L14.8885 7.29324C14.994 7.27349 15.085 7.20739 15.1363 7.1132L15.5204 6.40891Z" fill="#B3BEC1"/>
<path d="M13.1237 2.0493C13.2139 1.88384 13.4515 1.88384 13.5417 2.0493L13.7978 2.51883C13.832 2.58162 13.8927 2.62569 13.963 2.63885L14.4887 2.7373C14.6739 2.77199 14.7473 2.99794 14.6178 3.13489L14.2504 3.52352C14.2013 3.57549 14.1781 3.6468 14.1873 3.71773L14.2561 4.2481C14.2804 4.435 14.0882 4.57465 13.9179 4.49383L13.4348 4.26448C13.3702 4.23381 13.2952 4.23381 13.2306 4.26448L12.7474 4.49383C12.5772 4.57465 12.385 4.435 12.4092 4.2481L12.478 3.71773C12.4872 3.6468 12.4641 3.57549 12.4149 3.52352L12.0475 3.13489C11.918 2.99794 11.9915 2.77199 12.1767 2.7373L12.7024 2.63885C12.7727 2.62569 12.8333 2.58162 12.8676 2.51883L13.1237 2.0493Z" fill="#B3BEC1"/>
</svg>
