<svg width="21" height="22" viewBox="0 0 21 22" fill="none" xmlns="http://www.w3.org/2000/svg">
<path id="Vector" d="M19.4172 13.941L19.409 13.961L19.4019 13.9798C19.0994 14.8121 18.5909 15.7502 17.9693 16.6213C17.376 17.4536 16.7168 18.167 16.16 18.5801C14.6844 19.6925 12.8837 20.2882 11.0358 20.2753H2.31309L2.30485 16.7826C2.8228 16.7614 3.44199 16.7132 3.90226 16.6213C4.38085 16.5262 4.84422 16.3662 5.27954 16.1458C5.76217 15.8997 6.2248 15.5725 6.6521 15.1711L6.66858 15.1558L6.68389 15.1417L7.88695 13.9386L7.93168 13.8939L8.24363 13.5819C8.30366 13.5219 8.41549 13.4854 8.54027 13.4854C8.70507 13.4854 8.90519 13.6337 8.99936 13.815C9.03209 13.9507 9.03809 14.0914 9.01702 14.2294L8.9817 14.3L8.9511 14.5119C8.93815 14.606 8.84986 14.7708 8.75569 14.9345L8.71802 15.0004L8.68859 15.0698C8.64268 15.1758 8.52497 15.3347 8.40136 15.5042C8.35192 15.5701 8.30131 15.6384 8.24833 15.7126L6.75334 17.8056H9.34192C10.8287 17.8056 12.9252 17.6113 14.4767 16.6873C16.6945 15.4312 17.7751 13.7997 18.3566 12.9227L18.366 12.9086L18.4096 12.865L18.4802 12.7603C18.5014 12.7297 18.5685 12.6449 18.6085 12.5943C18.6945 12.4848 18.7639 12.3977 18.8204 12.3165C18.9108 12.233 19.0303 12.1883 19.1533 12.1918C19.2762 12.1953 19.393 12.2468 19.4784 12.3353C19.5797 12.4413 19.635 12.5825 19.635 12.7367C19.635 13.0769 19.5291 13.662 19.4172 13.941ZM19.1465 10.8662C20.173 10.8662 20.9746 11.7138 20.9746 12.7379C20.9746 13.2276 20.8404 13.9857 20.6627 14.4306C19.9493 16.3906 18.3448 18.6178 16.9628 19.6419C15.2549 20.9262 13.1728 21.6147 11.0358 21.6019H1.97269C1.42118 21.6019 0.973782 21.1554 0.972694 20.6039L0.962891 15.6337C1.02175 15.5136 1.08178 15.4548 1.14064 15.4548C1.25247 15.4666 1.42316 15.4713 1.62563 15.4713C2.23305 15.4713 3.13593 15.4206 3.6374 15.3206C4.30602 15.1876 5.01821 14.8756 5.73274 14.207L6.93462 13.0051L6.97936 12.9604L7.2913 12.6484C7.62585 12.3262 8.07469 12.1501 8.53909 12.1587C9.29718 12.1587 10.0105 12.6932 10.2778 13.4065C10.3225 13.5831 10.3672 13.8068 10.3672 14.0292C10.3672 14.3412 10.3225 14.6084 10.2778 14.6967C10.233 15.0086 10.1 15.2759 9.92108 15.5878C9.78806 15.8997 9.5644 16.167 9.34192 16.4789C10.5002 16.4789 12.4614 16.3459 13.7986 15.5442C15.8493 14.3859 16.7851 12.8709 17.3195 12.0693L17.3643 12.0245C17.4537 11.8903 17.7209 11.5796 17.7657 11.4901C18.1224 11.0899 18.6121 10.8662 19.1465 10.8662Z" fill="currentColor"/>
<path id="Vector_2" d="M12.2991 8.4491C12.1819 8.20876 12.0107 7.99884 11.7988 7.8358C11.4138 7.53209 10.9394 7.38848 10.5227 7.26134L10.4639 7.24369C10.2155 7.16717 9.90589 7.073 9.79877 6.98118C9.7967 6.97933 9.79474 6.97736 9.79289 6.97529L9.75757 6.93409C9.70431 6.87175 9.67508 6.79243 9.67517 6.71043C9.67517 6.59743 9.7458 6.47853 9.87176 6.38436C10.013 6.27842 10.2014 6.22191 10.4015 6.22191C10.6028 6.22191 10.7911 6.27959 10.9312 6.38436C11.0572 6.47853 11.129 6.59743 11.129 6.71043C11.129 7.07535 11.4291 7.37317 11.7988 7.37317C11.9753 7.3738 12.1448 7.30436 12.2702 7.18011C12.3955 7.05585 12.4665 6.88694 12.4674 6.71043C12.4674 5.96058 11.9294 5.27901 11.129 5.01415C11.1163 5.00996 11.1053 5.00191 11.0975 4.99114C11.0897 4.98037 11.0855 4.96742 11.0854 4.95411V4.74575C11.0845 4.56925 11.0135 4.40033 10.8882 4.27608C10.7628 4.15182 10.5933 4.08239 10.4168 4.08301C10.2403 4.08239 10.0707 4.15182 9.94538 4.27608C9.82002 4.40033 9.74909 4.56925 9.74815 4.74575V4.94469C9.74795 4.95799 9.74349 4.97087 9.73545 4.98146C9.7274 4.99205 9.71618 4.99979 9.70342 5.00355C8.88294 5.26488 8.33203 5.95234 8.33203 6.71514C8.33409 7.12324 8.48474 7.5166 8.75581 7.82167C8.77667 7.84953 8.79991 7.87552 8.82526 7.89936L8.86058 7.93468L8.87706 7.94645C8.8791 7.94791 8.88107 7.94948 8.88294 7.95116C9.20431 8.2478 9.64574 8.382 10.0719 8.51149L10.1084 8.52326C10.5039 8.64333 10.7758 8.73162 10.9406 8.8564C11.0583 8.94586 11.1643 9.07182 11.129 9.39083V9.39436C11.1213 9.46713 11.0976 9.5373 11.0595 9.59979C11.0214 9.66229 10.97 9.71555 10.9088 9.75575C10.7571 9.85553 10.5783 9.90609 10.3968 9.90054C10.1967 9.90054 10.0083 9.84168 9.86705 9.73573C9.74109 9.64274 9.66928 9.52385 9.66928 9.41084C9.66835 9.23434 9.59742 9.06542 9.47206 8.94116C9.3467 8.81691 9.17716 8.74747 9.00066 8.7481C8.82415 8.74747 8.65461 8.81691 8.52926 8.94116C8.4039 9.06542 8.33297 9.23434 8.33203 9.41084C8.33203 10.1748 8.88294 10.8623 9.70342 11.1224C9.71618 11.1262 9.7274 11.1339 9.73545 11.1445C9.74349 11.1551 9.74795 11.168 9.74815 11.1813V11.3661C9.74815 11.731 10.0483 12.0288 10.4168 12.0288C10.5933 12.0295 10.7628 11.96 10.8882 11.8358C11.0135 11.7115 11.0845 11.5426 11.0854 11.3661V11.173C11.0854 11.1448 11.1019 11.1213 11.129 11.113C11.8729 10.8682 12.3838 10.2596 12.4627 9.52502C12.5105 9.15813 12.4538 8.7852 12.2991 8.4491Z" fill="currentColor"/>
<mask id="path-3-inside-1_14036_146483" fill="white">
<path d="M18.3649 9.24121C18.9357 9.24121 19.4046 8.77697 19.3392 8.20992C19.2159 7.14138 18.9017 6.10071 18.4089 5.13839C17.7585 3.86855 16.8155 2.77152 15.6577 1.9378C14.5 1.10408 13.1606 0.557547 11.7501 0.343283C10.3395 0.129019 8.89827 0.253164 7.54515 0.705477C6.19204 1.15779 4.96584 1.92531 3.9677 2.94473C2.96956 3.96416 2.22808 5.20627 1.80441 6.56863C1.38074 7.93098 1.28703 9.37454 1.531 10.7802C1.71589 11.8455 2.0907 12.8659 2.63479 13.7938C2.92353 14.2862 3.57732 14.3751 4.03338 14.0319C4.48945 13.6886 4.57309 13.0434 4.30137 12.5414C3.94496 11.8829 3.69646 11.169 3.56764 10.4268C3.37971 9.34392 3.45189 8.23191 3.77825 7.18246C4.10462 6.133 4.6758 5.17617 5.44469 4.39089C6.21358 3.6056 7.15815 3.01436 8.20048 2.66593C9.24282 2.31751 10.3531 2.22187 11.4396 2.38693C12.5262 2.55198 13.5579 2.97299 14.4498 3.61522C15.3417 4.25746 16.068 5.10252 16.5691 6.08071C16.9125 6.75118 17.1432 7.47103 17.2545 8.21148C17.3392 8.77596 17.7941 9.24121 18.3649 9.24121Z"/>
</mask>
<path d="M18.3649 9.24121C18.9357 9.24121 19.4046 8.77697 19.3392 8.20992C19.2159 7.14138 18.9017 6.10071 18.4089 5.13839C17.7585 3.86855 16.8155 2.77152 15.6577 1.9378C14.5 1.10408 13.1606 0.557547 11.7501 0.343283C10.3395 0.129019 8.89827 0.253164 7.54515 0.705477C6.19204 1.15779 4.96584 1.92531 3.9677 2.94473C2.96956 3.96416 2.22808 5.20627 1.80441 6.56863C1.38074 7.93098 1.28703 9.37454 1.531 10.7802C1.71589 11.8455 2.0907 12.8659 2.63479 13.7938C2.92353 14.2862 3.57732 14.3751 4.03338 14.0319C4.48945 13.6886 4.57309 13.0434 4.30137 12.5414C3.94496 11.8829 3.69646 11.169 3.56764 10.4268C3.37971 9.34392 3.45189 8.23191 3.77825 7.18246C4.10462 6.133 4.6758 5.17617 5.44469 4.39089C6.21358 3.6056 7.15815 3.01436 8.20048 2.66593C9.24282 2.31751 10.3531 2.22187 11.4396 2.38693C12.5262 2.55198 13.5579 2.97299 14.4498 3.61522C15.3417 4.25746 16.068 5.10252 16.5691 6.08071C16.9125 6.75118 17.1432 7.47103 17.2545 8.21148C17.3392 8.77596 17.7941 9.24121 18.3649 9.24121Z" stroke="currentColor" stroke-width="4.8" stroke-linejoin="round" mask="url(#path-3-inside-1_14036_146483)"/>
</svg>