<svg xmlns="http://www.w3.org/2000/svg" width="20" height="20" viewBox="0 0 20 20" fill="none">
<path fill-rule="evenodd" clip-rule="evenodd" d="M10 19C14.9706 19 19 14.9706 19 10C19 5.02944 14.9706 1 10 1C5.02944 1 1 5.02944 1 10C1 14.9706 5.02944 19 10 19ZM11.6253 9.36144H6.31445C5.83708 9.36144 5.45009 8.97445 5.45009 8.49707C5.45009 8.01969 5.83708 7.63271 6.31445 7.63271L11.5234 7.6327V6.71357C11.5234 6.58933 11.6672 6.52025 11.7642 6.59787L14.898 9.10493C15.0074 9.19243 14.9455 9.36881 14.8054 9.36881H11.6716C11.6554 9.36881 11.6399 9.36622 11.6253 9.36144ZM8.794 10.8925H14.0762C14.5535 10.8925 14.9405 11.2795 14.9405 11.7568C14.9405 12.2342 14.5535 12.6212 14.0762 12.6212H8.86133V13.5237C8.86133 13.648 8.71761 13.7171 8.62059 13.6394L5.48676 11.1324C5.37738 11.0449 5.43926 10.8685 5.57932 10.8685H8.71315C8.74298 10.8685 8.77075 10.8773 8.794 10.8925Z" fill="currentColor"/>
</svg>