  <svg xmlns="http://www.w3.org/2000/svg" width="20" height="20" viewBox="0 0 20 20" fill="none" >
      <path
        d="M14.046 10.5087H5.86207C5.49425 10.5087 5.12644 10.2312 5.12644 9.76879C5.12644 9.39884 5.49425 9.0289 5.86207 9.0289H14.046C14.4138 9.0289 14.7816 9.30636 14.7816 9.6763C14.7816 10.0462 14.5057 10.5087 14.046 10.5087ZM14.046 14.0231H5.86207C5.49425 14.0231 5.12644 13.7457 5.12644 13.2832C5.12644 12.9133 5.49425 12.5434 5.86207 12.5434H14.046C14.4138 12.5434 14.7816 12.8208 14.7816 13.2832C14.7816 13.7457 14.5057 14.0231 14.046 14.0231ZM5.12644 6.34682C5.12644 5.97688 5.49425 5.60694 5.86207 5.60694H11.0115C11.3793 5.60694 11.7471 5.88439 11.7471 6.25434C11.7471 6.62428 11.4713 6.99422 11.1034 6.99422H5.86207C5.49425 7.0867 5.12644 6.71676 5.12644 6.34682ZM16.5287 2H3.47126C2.64368 2 2 2.6474 2 3.38728V16.6127C2 17.4451 2.64368 18 3.47126 18H16.5287C17.3563 18 18 17.3526 18 16.6127V3.38728C17.908 2.6474 17.2644 2 16.5287 2Z"
        fill="currentColor"
      />
    </svg>