<svg xmlns="http://www.w3.org/2000/svg" width="20" height="20" viewBox="0 0 20 20" fill="none">
  <path d="M13.4408 0H2.56036C1.88186 0.00202152 1.23166 0.307672 0.751887 0.85014C0.272114 1.39261 0.00178789 2.12777 0 2.89493L0 13.1063C0.00208566 13.8733 0.272543 14.6081 0.752285 15.1503C1.23203 15.6925 1.88206 15.998 2.56036 16H13.4408C14.119 15.998 14.7689 15.6925 15.2484 15.1502C15.728 14.608 15.9982 13.8732 16 13.1063V2.89493C15.9982 2.12799 15.728 1.39302 15.2485 0.850589C14.769 0.308157 14.1191 0.00235821 13.4408 0ZM4.44676 10.8228L3.05595 8.26996L2.47344 8.99242V10.8228H1.45742V5.15293H2.47344V7.50411L4.27969 5.15548H5.54632L3.74007 7.39306L5.7213 10.8228H4.44676ZM8.34149 8.65289V10.8228H7.32548V8.61332L5.62422 5.15293H6.77344L7.85381 7.39051L8.91837 5.15293H10.0473L8.34149 8.65289ZM12.5185 10.9619C11.0836 10.9505 10.2426 9.64468 10.2426 8.01468C10.2426 6.33235 11.0836 5.02401 12.5139 5.02401C13.53 5.02401 14.3834 5.75285 14.5065 7.06629H13.5232C13.4896 6.79089 13.3688 6.5386 13.1832 6.35622C12.9976 6.17385 12.7598 6.07376 12.5139 6.07451C11.6018 6.07451 11.2586 7.02672 11.2586 8.01851C11.2586 8.96306 11.5973 9.91528 12.5139 9.91528C13.1348 9.91528 13.4848 9.39194 13.5616 8.64523H14.546C14.4421 10.0493 13.6462 10.9505 12.5139 10.9505L12.5185 10.9619Z" fill="currentColor"/>
</svg>