<svg width="20" height="20" viewBox="0 0 20 20" fill="none" xmlns="http://www.w3.org/2000/svg"><path fill-rule="evenodd" clip-rule="evenodd" d="M11.2572 12.3018C12.2738 12.3018 13.2215 12.0074 14.0199 11.4991L16.0597 13.5385C16.5239 14.0027 17.2765 14.0026 17.7407 13.5383C18.2049 13.0741 18.2048 12.3215 17.7405 11.8573L15.6783 9.79548C16.1417 9.02244 16.4081 8.11779 16.4081 7.15092C16.4081 4.30614 14.102 2 11.2572 2C8.41245 2 6.10631 4.30614 6.10631 7.15092C6.10631 9.99569 8.41245 12.3018 11.2572 12.3018ZM11.2572 9.92449C12.789 9.92449 14.0308 8.68272 14.0308 7.15092C14.0308 5.61912 12.789 4.37735 11.2572 4.37735C9.72543 4.37735 8.48366 5.61912 8.48366 7.15092C8.48366 7.85144 8.74336 8.4913 9.17174 8.97948C9.24197 9.03276 9.30367 9.09669 9.35444 9.16887C9.85108 9.63733 10.5206 9.92449 11.2572 9.92449Z" fill="currentColor"></path><path d="M4.69979 8.80692C4.90009 9.60237 5.24133 10.3418 5.69541 10.9971H1.85089C1.38095 10.9971 1 10.6161 1 10.1462V9.6578C1 9.18787 1.38095 8.80692 1.85088 8.80692H4.69979Z" fill="currentColor"></path><path d="M1.85089 2.85105H6.03831C5.50916 3.49257 5.09601 4.23334 4.83097 5.04123H1.85089C1.38095 5.04123 1 4.66028 1 4.19035V3.70194C1 3.23201 1.38095 2.85105 1.85089 2.85105Z" fill="currentColor"></path><path d="M1.85088 15.5286C1.38095 15.5286 1 15.9095 1 16.3795V16.8644C1 17.3343 1.38095 17.7153 1.85089 17.7153H17.1668C17.6368 17.7153 18.0177 17.3343 18.0177 16.8644V16.3795C18.0177 15.9095 17.6368 15.5286 17.1668 15.5286H1.85088Z" fill="currentColor"></path></svg>