<svg xmlns="http://www.w3.org/2000/svg" width="20" height="20" viewBox="0 0 20 20" fill="none">
  <path d="M18.915 8.01799L16.1206 2.42903C16.056 2.29983 15.958 2.19142 15.8373 2.11574C15.7167 2.04005 15.5781 2 15.4367 2H4.59531C4.4546 2 4.31659 2.03967 4.19631 2.11471C4.07603 2.18974 3.97809 2.29725 3.91317 2.42553L1.08676 8.00958C1.01268 8.15593 0.985034 8.32244 1.00771 8.48576C1.03038 8.64907 1.10223 8.801 1.21319 8.92023L9.43557 17.756C9.5073 17.833 9.59346 17.8944 9.68888 17.9363C9.78429 17.9783 9.88698 17.9999 9.99076 18H9.99128C10.095 18 10.1976 17.9784 10.293 17.9366C10.3883 17.8948 10.4745 17.8336 10.5463 17.7567L18.7861 8.92587C18.8969 8.80716 18.9688 8.65588 18.9919 8.49313C19.0151 8.33038 18.9882 8.16428 18.915 8.01799ZM14.5422 8.90744L10.5508 13.1852C10.479 13.2621 10.3928 13.3233 10.2975 13.3651C10.2021 13.407 10.0995 13.4285 9.99577 13.4285H9.99525C9.89147 13.4284 9.78878 13.4068 9.69336 13.3648C9.59794 13.3229 9.51178 13.2615 9.44006 13.1845L5.45706 8.90432C5.16357 8.58894 5.17445 8.0888 5.48137 7.78721C5.78829 7.4856 6.275 7.49682 6.56849 7.8122L9.99653 11.496L13.4323 7.8138C13.7262 7.49882 14.2129 7.48832 14.5194 7.79031C14.8259 8.0923 14.8362 8.59246 14.5422 8.90744Z" fill="currentColor"/>
</svg>