<svg width="12" height="13" viewBox="0 0 12 13" fill="none" xmlns="http://www.w3.org/2000/svg">
<path d="M5.54332 1.02453C5.7195 0.629286 6.2805 0.629285 6.45668 1.02453L7.8164 4.07493C7.88907 4.23795 8.04311 4.34987 8.2206 4.3686L11.5419 4.71915C11.9722 4.76457 12.1456 5.29812 11.8241 5.58781L9.3432 7.82361C9.21062 7.94309 9.15178 8.12418 9.18881 8.29878L9.88176 11.5658C9.97154 11.9891 9.51768 12.3189 9.14283 12.1027L6.24981 10.4341C6.09521 10.3449 5.90479 10.3449 5.75019 10.4341L2.85717 12.1027C2.48232 12.3189 2.02846 11.9891 2.11824 11.5658L2.81119 8.29878C2.84822 8.12418 2.78938 7.94309 2.6568 7.82361L0.175866 5.58781C-0.14559 5.29812 0.0277708 4.76457 0.458113 4.71915L3.77939 4.3686C3.95689 4.34987 4.11093 4.23795 4.1836 4.07493L5.54332 1.02453Z" fill="currentColor"/>
</svg>
