   <svg width="20" height="20" viewBox="0 0 20 20" fill="none" xmlns="http://www.w3.org/2000/svg" >
      <path
        d="M14.5316 5.07496C14.5929 5.30323 14.6145 5.55412 14.6231 5.85024C14.7275 5.85885 14.8277 5.86962 14.9246 5.88254C15.576 5.96976 16.1511 6.16035 16.6108 6.62014C17.0717 7.07884 17.2623 7.65277 17.3495 8.30207C17.4335 8.92014 17.4335 9.70188 17.4335 10.6494V12.1483C17.4335 13.0959 17.4335 13.8776 17.3495 14.4957C17.2623 15.145 17.0717 15.7189 16.6108 16.1787C16.1511 16.6374 15.576 16.828 14.9246 16.9152C14.3054 16.9981 13.5216 16.9981 12.5718 16.9981H8.26148C6.98226 16.9981 5.95178 16.9981 5.14097 16.8894C4.29893 16.7763 3.5904 16.5341 3.02617 15.9741C2.46409 15.412 2.22182 14.7035 2.10768 13.8636C2 13.0561 2 12.0267 2 10.7507V5.09972C2 3.94003 2.94111 3 4.10403 3H11.2162C11.7739 3 12.1885 3 12.5471 3.09583C13.5162 3.35426 14.2721 4.10801 14.5316 5.07496ZM12.1842 4.44719C12.0281 4.40628 11.817 4.39981 11.1182 4.39981H4.10511C4.01319 4.39981 3.92218 4.41792 3.83726 4.45309C3.75235 4.48827 3.67519 4.53982 3.6102 4.60481C3.5452 4.6698 3.49365 4.74696 3.45848 4.83188C3.4233 4.9168 3.4052 5.00781 3.4052 5.09972C3.4052 5.19164 3.4233 5.28265 3.45848 5.36756C3.49365 5.45248 3.5452 5.52964 3.6102 5.59463C3.67519 5.65962 3.75235 5.71118 3.83726 5.74635C3.92218 5.78153 4.01319 5.79963 4.10511 5.79963H12.5729L13.2179 5.80071C13.2181 5.67858 13.2044 5.55683 13.177 5.43783C13.1131 5.20007 12.9876 4.98335 12.8134 4.80945C12.6391 4.63554 12.4221 4.5106 12.1842 4.44719ZM13.6637 9.99907C13.2829 9.99907 12.9176 10.1504 12.6484 10.4196C12.3791 10.6889 12.2278 11.0541 12.2278 11.435C12.2278 11.8158 12.3791 12.181 12.6484 12.4503C12.9176 12.7196 13.2829 12.8708 13.6637 12.8708C14.0445 12.8708 14.4097 12.7196 14.679 12.4503C14.9483 12.181 15.0996 11.8158 15.0996 11.435C15.0996 11.0541 14.9483 10.6889 14.679 10.4196C14.4097 10.1504 14.0445 9.99907 13.6637 9.99907Z"
        fill="currentColor"
      />
    </svg>