  <svg xmlns="http://www.w3.org/2000/svg" width="20" height="20" viewBox="0 0 20 20" fill="none">
      <path
        d="M10.48 7.57L10 5.23L9.55 7.53999C9.06999 7.62999 8.61999 7.84 8.23001 8.23001C7.26999 9.19 7.26999 10.78 8.23001 11.74C9.19 12.7 10.78 12.7 11.74 11.74C12.7 10.78 12.7 9.19 11.74 8.23001C11.38 7.87001 10.93 7.66 10.48 7.57ZM15.61 15.61L12.07 12.07C11.7074 12.4367 11.2506 12.6962 10.75 12.82L12.04 17.65C11.38 17.83 10.69 17.92 10 17.92C9.31001 17.92 8.61999 17.83 7.96001 17.65L9.24999 12.82C8.77001 12.7 8.32001 12.43 7.93 12.07L4.38999 15.61C3.37001 14.59 2.67999 13.36 2.35 12.07L7.17999 10.78C7.06001 10.27 7.06001 9.76001 7.17999 9.24999L2.35 7.96001C2.71 6.67 3.37001 5.44001 4.38999 4.42L7.93 7.96001C8.32001 7.57 8.77001 7.33001 9.24999 7.21L7.96001 2.35C8.61999 2.17 9.31001 2.08 10 2.08C10.69 2.08 11.38 2.17 12.04 2.35L10.75 7.17999C11.23 7.3 11.68 7.57 12.07 7.93L15.61 4.38999C16.6 5.37999 17.32 6.61001 17.65 7.93L12.82 9.22001C12.94 9.73 12.94 10.24 12.82 10.75L17.65 12.04C17.29 13.39 16.6 14.59 15.61 15.61ZM16.36 3.64001C14.65 1.93001 12.4 1 10 1C7.60001 1 5.35001 1.93001 3.64001 3.64001C1.93001 5.32 1 7.60001 1 10C1 12.4 1.93001 14.65 3.64001 16.36C5.35001 18.07 7.60001 19 10 19C12.4 19 14.65 18.07 16.36 16.36C18.07 14.65 19 12.4 19 10C19 7.60001 18.07 5.32 16.36 3.64001Z"
        fill="currentColor"
      />
    </svg>